<?xml version="1.0" standalone="no"?>
<!DOCTYPE svg PUBLIC "-//W3C//DTD SVG 1.1//EN" "http://www.w3.org/Graphics/SVG/1.1/DTD/svg11.dtd" >
<svg xmlns="http://www.w3.org/2000/svg" xmlns:xlink="http://www.w3.org/1999/xlink" version="1.1">
<metadata>
Created by FontForge 20201107 at Tue Feb 18 00:35:42 2020
 By Jimmy Wärting
Copyright \(c\) 2019 by Alfredo Marco Pradil. All rights reserved.
</metadata>
<defs>
<font id="HKGrotesk-Bold" horiz-adv-x="0" >
  <font-face 
    font-family="HK Grotesk"
    font-weight="700"
    font-stretch="normal"
    units-per-em="1000"
    panose-1="0 0 8 0 0 0 0 0 0 0"
    ascent="800"
    descent="-200"
    x-height="493"
    cap-height="697"
    bbox="-723 -258 1304 1126"
    underline-thickness="60"
    underline-position="-121"
    stemh="71"
    stemv="120"
    unicode-range="U+0020-FB02"
  />
<missing-glyph horiz-adv-x="547" 
d="M72 0v471h404v-471h-404zM122 51h303v369h-303v-369z" />
    <glyph glyph-name="f_f" unicode="ff" horiz-adv-x="608" 
d="M86 0v398h-81v95h81v35c0 113 97 179 208 179c44 0 92 -10 131 -34c30 22 66 34 105 34c33 0 63 -8 89 -20l-39 -99c-11 7 -25 12 -39 12c-28 0 -49 -15 -49 -54v-53h119v-95h-119v-398h-120v398h-166v-398h-120zM206 493h167v66c0 12 1 23 3 34c-20 10 -46 17 -76 17
c-65 0 -94 -34 -94 -84v-33z" />
    <glyph glyph-name="f_f_i" unicode="ffi" horiz-adv-x="845" 
d="M86 0v398h-81v95h81v35c0 113 97 179 208 179c50 0 103 -13 146 -43c37 28 87 43 140 43c83 0 138 -18 191 -51l-56 -85c-36 25 -78 39 -129 39c-65 0 -94 -34 -94 -84v-33h286v-493h-120v398h-166v-398h-120v398h-166v-398h-120zM206 493h166v35c0 22 4 43 11 61
c-21 12 -49 21 -83 21c-65 0 -94 -34 -94 -84v-33z" />
    <glyph glyph-name="f_f_l" unicode="ffl" horiz-adv-x="871" 
d="M766 -10c-64 0 -108 32 -108 108v501c-23 7 -46 11 -72 11c-65 0 -94 -34 -94 -84v-33h94v-95h-94v-398h-120v398h-166v-398h-120v398h-81v95h81v35c0 113 97 179 208 179c49 0 103 -13 145 -42c38 27 88 42 141 42c83 0 138 -18 198 -54v-522c0 -22 13 -31 34 -31
c11 0 24 2 39 6v-101c-31 -9 -60 -15 -85 -15zM206 493h166v35c0 23 4 43 10 61c-20 12 -49 21 -82 21c-65 0 -94 -34 -94 -84v-33z" />
    <glyph glyph-name="fi" unicode="fi" horiz-adv-x="552" 
d="M483 493v-493h-120v398h-157v-398h-120v398h-81v95h81v35c0 113 97 179 208 179c83 0 138 -18 191 -51l-56 -85c-36 25 -77 39 -129 39c-65 0 -94 -34 -94 -84v-33h277z" />
    <glyph glyph-name="fl" unicode="fl" horiz-adv-x="603" 
d="M498 -10c-64 0 -108 32 -108 108v495c-26 11 -56 17 -90 17c-65 0 -94 -34 -94 -84v-33h100l-1 -95h-99v-398h-120v398h-81v95h81v35c0 113 97 179 208 179c83 0 126 -8 216 -52v-524c0 -22 13 -31 34 -31c12 0 25 2 39 6v-101c-30 -9 -60 -15 -85 -15z" />
    <glyph glyph-name="H_d_c_o.liga" unicode="Hdco" horiz-adv-x="834" 
d="M417 -10c-209 0 -378 170 -378 378s169 378 378 378s378 -170 378 -378s-169 -378 -378 -378zM417 26c189 0 342 154 342 342s-153 342 -342 342s-342 -154 -342 -342s153 -342 342 -342zM201 217c-10 0 -18 8 -18 18v265c0 10 8 18 18 18s18 -8 18 -18v-265
c0 -10 -8 -18 -18 -18zM417 217c-10 0 -18 8 -18 18v265c0 10 8 18 18 18s18 -8 18 -18v-265c0 -10 -8 -18 -18 -18zM635 217c-5 0 -10 2 -13 5l-145 134c-4 3 -5 8 -5 12s2 9 5 12l143 131c5 5 9 7 14 7c6 0 17 -5 17 -17c0 -4 -1 -8 -5 -12l-132 -121l132 -122
c3 -3 5 -7 5 -12c0 -8 -7 -17 -16 -17zM273 350c-10 0 -18 8 -18 18s8 18 18 18h72c10 0 18 -8 18 -18s-8 -18 -18 -18h-72z" />
    <glyph glyph-name="h_d_c_o.liga" unicode="hdco" horiz-adv-x="834" 
d="M417 -10c-209 0 -378 170 -378 378s169 378 378 378s378 -170 378 -378s-169 -378 -378 -378zM417 26c189 0 342 154 342 342s-153 342 -342 342s-342 -154 -342 -342s153 -342 342 -342zM201 217c-10 0 -18 8 -18 18v265c0 10 8 18 18 18s18 -8 18 -18v-265
c0 -10 -8 -18 -18 -18zM417 217c-10 0 -18 8 -18 18v265c0 10 8 18 18 18s18 -8 18 -18v-265c0 -10 -8 -18 -18 -18zM635 217c-5 0 -10 2 -13 5l-145 134c-4 3 -5 8 -5 12s2 9 5 12l143 131c5 5 9 7 14 7c6 0 17 -5 17 -17c0 -4 -1 -8 -5 -12l-132 -121l132 -122
c3 -3 5 -7 5 -12c0 -8 -7 -17 -16 -17zM273 350c-10 0 -18 8 -18 18s8 18 18 18h72c10 0 18 -8 18 -18s-8 -18 -18 -18h-72z" />
    <glyph glyph-name="hyphen_greater.liga" unicode="&#x2d;&#x3e;" horiz-adv-x="1101" 
d="M547 -3l-40 80l311 175l-818 -1v90l818 -1l-311 175l40 80l537 -299z" />
    <glyph glyph-name="less_hyphen.liga" unicode="&#x3c;&#x2d;" horiz-adv-x="1101" 
d="M554 -3l-537 299l537 299l40 -80l-311 -175l818 1v-90l-818 1l311 -175z" />
    <glyph glyph-name=".notdef" horiz-adv-x="547" 
d="M72 0v471h404v-471h-404zM122 51h303v369h-303v-369z" />
    <glyph glyph-name="space" unicode=" " horiz-adv-x="243" 
 />
    <glyph glyph-name="A" unicode="A" horiz-adv-x="659" 
d="M519 0l-53 144h-273l-53 -144h-136l279 697h94l278 -697h-136zM236 259h188l-94 254z" />
    <glyph glyph-name="Aacute" unicode="&#xc1;" horiz-adv-x="659" 
d="M526 901l-152 -142h-88l111 142h129zM519 0l-53 144h-273l-53 -144h-136l279 697h94l278 -697h-136zM236 259h188l-94 254z" />
    <glyph glyph-name="Abreve" unicode="&#x102;" horiz-adv-x="659" 
d="M330 768c-108 0 -156 47 -156 133h85c0 -43 32 -63 71 -63c41 0 71 22 71 63h85c0 -90 -53 -133 -156 -133zM519 0l-53 144h-273l-53 -144h-136l279 697h94l278 -697h-136zM236 259h188l-94 254z" />
    <glyph glyph-name="uni1EAE" unicode="&#x1eae;" horiz-adv-x="659" 
d="M526 1105l-152 -142h-88l111 142h129zM330 768c-108 0 -156 47 -156 133h85c0 -43 32 -63 71 -63c41 0 71 22 71 63h85c0 -90 -53 -133 -156 -133zM519 0l-53 144h-273l-53 -144h-136l279 697h94l278 -697h-136zM236 259h188l-94 254z" />
    <glyph glyph-name="uni1EB6" unicode="&#x1eb6;" horiz-adv-x="659" 
d="M330 768c-108 0 -156 47 -156 133h85c0 -43 32 -63 71 -63c41 0 71 22 71 63h85c0 -90 -53 -133 -156 -133zM655 0h-136l-53 144h-273l-53 -144h-136l279 697h94zM236 259h188l-94 254zM267 -173v111h126v-111h-126z" />
    <glyph glyph-name="uni1EB0" unicode="&#x1eb0;" horiz-adv-x="659" 
d="M375 963h-90l-142 142h128zM259 901c0 -43 32 -63 71 -63c41 0 71 22 71 63h85c0 -90 -53 -133 -156 -133c-108 0 -156 47 -156 133h85zM519 0l-53 144h-273l-53 -144h-136l279 697h94l278 -697h-136zM236 259h188l-94 254z" />
    <glyph glyph-name="uni1EB2" unicode="&#x1eb2;" horiz-adv-x="659" 
d="M367 1027c0 33 -38 33 -74 33h-15v66h15c89 0 150 -34 150 -97c0 -69 -72 -81 -123 -89l-14 49c30 4 61 8 61 38zM330 768c-108 0 -156 47 -156 133h85c0 -43 32 -63 71 -63c41 0 71 22 71 63h85c0 -90 -53 -133 -156 -133zM519 0l-53 144h-273l-53 -144h-136l279 697h94
l278 -697h-136zM236 259h188l-94 254z" />
    <glyph glyph-name="uni1EB4" unicode="&#x1eb4;" horiz-adv-x="659" 
d="M264 1034c-20 0 -32 -24 -32 -67h-69c0 90 41 141 106 141c69 0 90 -70 125 -70c17 0 30 24 30 67h72c0 -91 -40 -141 -103 -141c-78 0 -92 70 -129 70zM330 838c41 0 71 22 71 63h85c0 -90 -53 -133 -156 -133c-108 0 -156 47 -156 133h85c0 -43 32 -63 71 -63zM519 0
l-53 144h-273l-53 -144h-136l279 697h94l278 -697h-136zM236 259h188l-94 254z" />
    <glyph glyph-name="uni01CD" unicode="&#x1cd;" horiz-adv-x="659" 
d="M486 901l-156 -164l-156 164h93l63 -67l63 67h93zM519 0l-53 144h-273l-53 -144h-136l279 697h94l278 -697h-136zM236 259h188l-94 254z" />
    <glyph glyph-name="Acircumflex" unicode="&#xc2;" horiz-adv-x="659" 
d="M330 817l-63 -72h-93l156 174l156 -174h-93zM519 0l-53 144h-273l-53 -144h-136l279 697h94l278 -697h-136zM236 259h188l-94 254z" />
    <glyph glyph-name="uni1EA4" unicode="&#x1ea4;" horiz-adv-x="659" 
d="M526 1089l-152 -142h-88l111 142h129zM330 817l-63 -72h-93l156 174l156 -174h-93zM519 0l-53 144h-273l-53 -144h-136l279 697h94l278 -697h-136zM236 259h188l-94 254z" />
    <glyph glyph-name="uni1EAC" unicode="&#x1eac;" horiz-adv-x="659" 
d="M330 817l-63 -72h-93l156 174l156 -174h-93zM655 0h-136l-53 144h-273l-53 -144h-136l279 697h94zM236 259h188l-94 254zM267 -173v111h126v-111h-126z" />
    <glyph glyph-name="uni1EA6" unicode="&#x1ea6;" horiz-adv-x="659" 
d="M375 947h-90l-142 142h128zM174 745l156 174l156 -174h-93l-63 72l-63 -72h-93zM519 0l-53 144h-273l-53 -144h-136l279 697h94l278 -697h-136zM236 259h188l-94 254z" />
    <glyph glyph-name="uni1EA8" unicode="&#x1ea8;" horiz-adv-x="659" 
d="M367 1011c0 33 -38 33 -74 33h-15v66h15c89 0 150 -34 150 -97c0 -69 -72 -81 -123 -89l-14 49c30 4 61 8 61 38zM330 817l-63 -72h-93l156 174l156 -174h-93zM519 0l-53 144h-273l-53 -144h-136l279 697h94l278 -697h-136zM236 259h188l-94 254z" />
    <glyph glyph-name="uni1EAA" unicode="&#x1eaa;" horiz-adv-x="659" 
d="M264 1018c-20 0 -32 -24 -32 -67h-69c0 90 41 141 106 141c69 0 90 -70 125 -70c17 0 30 24 30 67h72c0 -91 -40 -141 -103 -141c-78 0 -92 70 -129 70zM174 745l156 174l156 -174h-93l-63 72l-63 -72h-93zM519 0l-53 144h-273l-53 -144h-136l279 697h94l278 -697h-136z
M236 259h188l-94 254z" />
    <glyph glyph-name="Adieresis" unicode="&#xc4;" horiz-adv-x="659" 
d="M283 901v-111h-101v111h101zM478 901v-111h-101v111h101zM519 0l-53 144h-273l-53 -144h-136l279 697h94l278 -697h-136zM236 259h188l-94 254z" />
    <glyph glyph-name="uni1EA0" unicode="&#x1ea0;" horiz-adv-x="659" 
d="M655 0h-136l-53 144h-273l-53 -144h-136l279 697h94zM236 259h188l-94 254zM267 -173v111h126v-111h-126z" />
    <glyph glyph-name="Agrave" unicode="&#xc0;" horiz-adv-x="659" 
d="M375 759h-90l-142 142h128zM519 0l-53 144h-273l-53 -144h-136l279 697h94l278 -697h-136zM236 259h188l-94 254z" />
    <glyph glyph-name="uni1EA2" unicode="&#x1ea2;" horiz-adv-x="659" 
d="M367 823c0 33 -38 33 -74 33h-15v66h15c89 0 150 -34 150 -97c0 -69 -72 -81 -123 -89l-14 49c30 4 61 8 61 38zM519 0l-53 144h-273l-53 -144h-136l279 697h94l278 -697h-136zM236 259h188l-94 254z" />
    <glyph glyph-name="Amacron" unicode="&#x100;" horiz-adv-x="659" 
d="M467 840v-70h-275v70h275zM519 0l-53 144h-273l-53 -144h-136l279 697h94l278 -697h-136zM236 259h188l-94 254z" />
    <glyph glyph-name="Aogonek" unicode="&#x104;" horiz-adv-x="659" 
d="M639 -120l61 -42c-24 -35 -58 -60 -108 -60c-64 0 -112 40 -112 101c0 63 48 103 81 121h-42l-53 144h-273l-53 -144h-136l279 697h94l278 -697c-10 -4 -103 -38 -103 -109c0 -30 17 -39 37 -39c21 0 37 10 50 28zM236 259h188l-94 254z" />
    <glyph glyph-name="Aring" unicode="&#xc5;" horiz-adv-x="659" 
d="M519 0l-53 144h-273l-53 -144h-136l276 689c-38 19 -64 58 -64 102c0 63 51 114 114 114c61 0 114 -50 114 -114c0 -45 -26 -84 -64 -102l275 -689h-136zM330 840c-30 0 -49 -20 -49 -48c0 -29 21 -50 49 -50c29 0 49 21 49 50c0 28 -18 48 -49 48zM236 259h188l-94 254z
" />
    <glyph glyph-name="Atilde" unicode="&#xc3;" horiz-adv-x="659" 
d="M264 830c-20 0 -32 -24 -32 -67h-69c0 90 41 141 106 141c69 0 90 -70 125 -70c17 0 30 24 30 67h72c0 -91 -40 -141 -103 -141c-78 0 -92 70 -129 70zM519 0l-53 144h-273l-53 -144h-136l279 697h94l278 -697h-136zM236 259h188l-94 254z" />
    <glyph glyph-name="AE" unicode="&#xc6;" horiz-adv-x="924" 
d="M4 0l278 697h593v-110h-348v-186h305v-105h-305v-183h348v-113h-474v152h-205l-56 -152h-136zM238 267h163v325h-43z" />
    <glyph glyph-name="B" unicode="B" horiz-adv-x="629" 
d="M88 0v697h243c139 0 221 -66 221 -176c0 -65 -28 -117 -77 -145c75 -27 114 -85 114 -172c0 -128 -85 -204 -227 -204h-274zM213 420h118c63 0 96 27 96 79c0 53 -35 83 -96 83h-118v-162zM213 115h139c70 0 112 38 112 99c0 59 -39 91 -112 91h-139v-190z" />
    <glyph glyph-name="C" unicode="C" horiz-adv-x="711" 
d="M378 -15c-206 0 -338 141 -338 364s132 364 338 364c147 0 258 -71 309 -204l-115 -45c-31 87 -99 130 -194 130c-135 0 -213 -88 -213 -244c0 -157 79 -246 213 -246c96 0 164 45 194 133l117 -44c-50 -135 -162 -208 -311 -208z" />
    <glyph glyph-name="Cacute" unicode="&#x106;" horiz-adv-x="711" 
d="M339 759l111 142h129l-152 -142h-88zM378 -15c-206 0 -338 141 -338 364s132 364 338 364c147 0 258 -71 309 -204l-115 -45c-31 87 -99 130 -194 130c-135 0 -213 -88 -213 -244c0 -157 79 -246 213 -246c96 0 164 45 194 133l117 -44c-50 -135 -162 -208 -311 -208z
" />
    <glyph glyph-name="Ccaron" unicode="&#x10c;" horiz-adv-x="711" 
d="M383 737l-156 164h93l63 -67l63 67h93zM378 -15c-206 0 -338 141 -338 364s132 364 338 364c147 0 258 -71 309 -204l-115 -45c-31 87 -99 130 -194 130c-135 0 -213 -88 -213 -244c0 -157 79 -246 213 -246c96 0 164 45 194 133l117 -44c-50 -135 -162 -208 -311 -208z
" />
    <glyph glyph-name="Ccedilla" unicode="&#xc7;" horiz-adv-x="711" 
d="M689 193c-47 -126 -147 -198 -282 -207l-27 -35c19 -4 35 -10 49 -18c29 -17 45 -45 45 -79c0 -63 -48 -112 -113 -112c-24 0 -57 7 -86 32l38 58c20 -18 39 -21 51 -21c24 0 40 16 40 40c0 29 -25 44 -54 49c-19 3 -41 4 -63 4l52 83c-184 17 -299 154 -299 362
c0 223 132 364 338 364c147 0 258 -71 309 -204l-115 -45c-31 87 -99 130 -194 130c-135 0 -213 -88 -213 -244c0 -157 79 -246 213 -246c96 0 164 45 194 133z" />
    <glyph glyph-name="Cdotaccent" unicode="&#x10a;" horiz-adv-x="711" 
d="M320 790v111h126v-111h-126zM378 -15c-206 0 -338 141 -338 364s132 364 338 364c147 0 258 -71 309 -204l-115 -45c-31 87 -99 130 -194 130c-135 0 -213 -88 -213 -244c0 -157 79 -246 213 -246c96 0 164 45 194 133l117 -44c-50 -135 -162 -208 -311 -208z" />
    <glyph glyph-name="D" unicode="D" horiz-adv-x="691" 
d="M88 0v697h202c231 0 363 -128 363 -354c0 -222 -128 -343 -364 -343h-201zM213 115h64c176 0 250 69 250 233c0 161 -74 234 -239 234h-75v-467z" />
    <glyph glyph-name="Eth" unicode="&#xd0;" horiz-adv-x="691" 
d="M290 697c231 0 363 -128 363 -354c0 -222 -128 -343 -364 -343h-201v309h-79v80h79v308h202zM277 115c176 0 250 69 250 233c0 161 -74 234 -239 234h-75v-193h119v-80h-119v-194h64z" />
    <glyph glyph-name="Dcaron" unicode="&#x10e;" horiz-adv-x="691" 
d="M346 737l-156 164h93l63 -67l63 67h93zM88 0v697h202c231 0 363 -128 363 -354c0 -222 -128 -343 -364 -343h-201zM213 115h64c176 0 250 69 250 233c0 161 -74 234 -239 234h-75v-467z" />
    <glyph glyph-name="Dcroat" unicode="&#x110;" horiz-adv-x="691" 
d="M290 697c231 0 363 -128 363 -354c0 -222 -128 -343 -364 -343h-201v309h-79v80h79v308h202zM277 115c176 0 250 69 250 233c0 161 -74 234 -239 234h-75v-193h119v-80h-119v-194h64z" />
    <glyph glyph-name="E" unicode="E" horiz-adv-x="610" 
d="M88 0v697h464v-115h-339v-166h315v-115h-315v-186h339v-115h-464z" />
    <glyph glyph-name="Eacute" unicode="&#xc9;" horiz-adv-x="610" 
d="M276 759l111 142h129l-152 -142h-88zM88 0v697h464v-115h-339v-166h315v-115h-315v-186h339v-115h-464z" />
    <glyph glyph-name="Ecaron" unicode="&#x11a;" horiz-adv-x="610" 
d="M320 737l-156 164h93l63 -67l63 67h93zM88 0v697h464v-115h-339v-166h315v-115h-315v-186h339v-115h-464z" />
    <glyph glyph-name="Ecircumflex" unicode="&#xca;" horiz-adv-x="610" 
d="M164 745l156 174l156 -174h-93l-63 72l-63 -72h-93zM88 0v697h464v-115h-339v-166h315v-115h-315v-186h339v-115h-464z" />
    <glyph glyph-name="uni1EBE" unicode="&#x1ebe;" horiz-adv-x="610" 
d="M276 947l111 142h129l-152 -142h-88zM164 745l156 174l156 -174h-93l-63 72l-63 -72h-93zM88 0v697h464v-115h-339v-166h315v-115h-315v-186h339v-115h-464z" />
    <glyph glyph-name="uni1EC6" unicode="&#x1ec6;" horiz-adv-x="610" 
d="M164 745l156 174l156 -174h-93l-63 72l-63 -72h-93zM88 0v697h464v-115h-339v-166h315v-115h-315v-186h339v-115h-464zM257 -173v111h126v-111h-126z" />
    <glyph glyph-name="uni1EC0" unicode="&#x1ec0;" horiz-adv-x="610" 
d="M275 947l-142 142h128l104 -142h-90zM164 745l156 174l156 -174h-93l-63 72l-63 -72h-93zM88 0v697h464v-115h-339v-166h315v-115h-315v-186h339v-115h-464z" />
    <glyph glyph-name="uni1EC2" unicode="&#x1ec2;" horiz-adv-x="610" 
d="M310 924l-14 49c30 4 61 8 61 38c0 33 -38 33 -74 33h-15v66h15c89 0 150 -34 150 -97c0 -69 -72 -81 -123 -89zM164 745l156 174l156 -174h-93l-63 72l-63 -72h-93zM88 0v697h464v-115h-339v-166h315v-115h-315v-186h339v-115h-464z" />
    <glyph glyph-name="uni1EC4" unicode="&#x1ec4;" horiz-adv-x="610" 
d="M383 948c-78 0 -92 70 -129 70c-20 0 -32 -24 -32 -67h-69c0 90 41 141 106 141c69 0 90 -70 125 -70c17 0 30 24 30 67h72c0 -91 -40 -141 -103 -141zM164 745l156 174l156 -174h-93l-63 72l-63 -72h-93zM88 0v697h464v-115h-339v-166h315v-115h-315v-186h339v-115h-464
z" />
    <glyph glyph-name="Edieresis" unicode="&#xcb;" horiz-adv-x="610" 
d="M172 790v111h101v-111h-101zM367 790v111h101v-111h-101zM88 0v697h464v-115h-339v-166h315v-115h-315v-186h339v-115h-464z" />
    <glyph glyph-name="Edotaccent" unicode="&#x116;" horiz-adv-x="610" 
d="M257 790v111h126v-111h-126zM88 0v697h464v-115h-339v-166h315v-115h-315v-186h339v-115h-464z" />
    <glyph glyph-name="uni1EB8" unicode="&#x1eb8;" horiz-adv-x="610" 
d="M88 0v697h464v-115h-339v-166h315v-115h-315v-186h339v-115h-464zM257 -173v111h126v-111h-126z" />
    <glyph glyph-name="Egrave" unicode="&#xc8;" horiz-adv-x="610" 
d="M275 759l-142 142h128l104 -142h-90zM88 0v697h464v-115h-339v-166h315v-115h-315v-186h339v-115h-464z" />
    <glyph glyph-name="uni1EBA" unicode="&#x1eba;" horiz-adv-x="610" 
d="M310 736l-14 49c30 4 61 8 61 38c0 33 -38 33 -74 33h-15v66h15c89 0 150 -34 150 -97c0 -69 -72 -81 -123 -89zM88 0v697h464v-115h-339v-166h315v-115h-315v-186h339v-115h-464z" />
    <glyph glyph-name="Emacron" unicode="&#x112;" horiz-adv-x="610" 
d="M182 770v70h275v-70h-275zM88 0v697h464v-115h-339v-166h315v-115h-315v-186h339v-115h-464z" />
    <glyph glyph-name="Eogonek" unicode="&#x118;" horiz-adv-x="610" 
d="M536 -120l61 -42c-24 -35 -58 -60 -108 -60c-64 0 -112 40 -112 101c0 63 48 103 81 121h-370v697h464v-115h-339v-166h315v-115h-315v-186h339v-115c-10 -4 -103 -38 -103 -109c0 -30 17 -39 37 -39c21 0 37 10 50 28z" />
    <glyph glyph-name="uni1EBC" unicode="&#x1ebc;" horiz-adv-x="610" 
d="M383 760c-78 0 -92 70 -129 70c-20 0 -32 -24 -32 -67h-69c0 90 41 141 106 141c69 0 90 -70 125 -70c17 0 30 24 30 67h72c0 -91 -40 -141 -103 -141zM88 0v697h464v-115h-339v-166h315v-115h-315v-186h339v-115h-464z" />
    <glyph glyph-name="F" unicode="F" horiz-adv-x="605" 
d="M88 0v697h494v-115h-369v-166h325v-115h-325v-301h-125z" />
    <glyph glyph-name="G" unicode="G" horiz-adv-x="755" 
d="M412 377h280v-377h-89l-15 72c-41 -56 -116 -87 -206 -87c-195 0 -344 144 -344 365c0 207 131 363 340 363c142 0 256 -72 307 -204l-115 -45c-31 86 -100 130 -194 130c-134 0 -213 -90 -213 -243c0 -159 85 -247 227 -247c112 0 178 55 178 149v9h-156v115z" />
    <glyph glyph-name="Gbreve" unicode="&#x11e;" horiz-adv-x="755" 
d="M376 768c-108 0 -156 47 -156 133h85c0 -43 32 -63 71 -63c41 0 71 22 71 63h85c0 -90 -53 -133 -156 -133zM412 377h280v-377h-89l-15 72c-41 -56 -116 -87 -206 -87c-195 0 -344 144 -344 365c0 207 131 363 340 363c142 0 256 -72 307 -204l-115 -45
c-31 86 -100 130 -194 130c-134 0 -213 -90 -213 -243c0 -159 85 -247 227 -247c112 0 178 55 178 149v9h-156v115z" />
    <glyph glyph-name="uni0122" unicode="&#x122;" horiz-adv-x="755" 
d="M412 377h280v-377h-89l-15 72c-41 -56 -116 -87 -206 -87c-195 0 -344 144 -344 365c0 207 131 363 340 363c142 0 256 -72 307 -204l-115 -45c-31 86 -100 130 -194 130c-134 0 -213 -90 -213 -243c0 -159 85 -247 227 -247c112 0 178 55 178 149v9h-156v115zM246 -226
l67 173h125l-122 -173h-70z" />
    <glyph glyph-name="Gdotaccent" unicode="&#x120;" horiz-adv-x="755" 
d="M439 901v-111h-126v111h126zM412 377h280v-377h-89l-15 72c-41 -56 -116 -87 -206 -87c-195 0 -344 144 -344 365c0 207 131 363 340 363c142 0 256 -72 307 -204l-115 -45c-31 86 -100 130 -194 130c-134 0 -213 -90 -213 -243c0 -159 85 -247 227 -247
c112 0 178 55 178 149v9h-156v115z" />
    <glyph glyph-name="H" unicode="H" horiz-adv-x="731" 
d="M88 0v697h125v-281h305v281h125v-697h-125v301h-305v-301h-125z" />
    <glyph glyph-name="Hbar" unicode="&#x126;" horiz-adv-x="731" 
d="M694 600v-71h-51v-529h-125v301h-305v-301h-125v529h-50v71h50v97h125v-97h305v97h125v-97h51zM518 416v113h-305v-113h305z" />
    <glyph glyph-name="I" unicode="I" horiz-adv-x="301" 
d="M88 0v697h125v-697h-125z" />
    <glyph glyph-name="Iacute" unicode="&#xcd;" horiz-adv-x="301" 
d="M107 759l111 142h129l-152 -142h-88zM88 0v697h125v-697h-125z" />
    <glyph glyph-name="uni01CF" unicode="&#x1cf;" horiz-adv-x="301" 
d="M151 737l-156 164h93l63 -67l63 67h93zM88 0v697h125v-697h-125z" />
    <glyph glyph-name="Icircumflex" unicode="&#xce;" horiz-adv-x="301" 
d="M-5 745l156 174l156 -174h-93l-63 72l-63 -72h-93zM88 0v697h125v-697h-125z" />
    <glyph glyph-name="Idieresis" unicode="&#xcf;" horiz-adv-x="301" 
d="M3 790v111h101v-111h-101zM198 790v111h101v-111h-101zM88 0v697h125v-697h-125z" />
    <glyph glyph-name="Idotaccent" unicode="&#x130;" horiz-adv-x="301" 
d="M88 790v111h126v-111h-126zM88 0v697h125v-697h-125z" />
    <glyph glyph-name="uni1ECA" unicode="&#x1eca;" horiz-adv-x="301" 
d="M88 0v697h125v-697h-125zM88 -173v111h126v-111h-126z" />
    <glyph glyph-name="Igrave" unicode="&#xcc;" horiz-adv-x="301" 
d="M106 759l-142 142h128l104 -142h-90zM88 0v697h125v-697h-125z" />
    <glyph glyph-name="uni1EC8" unicode="&#x1ec8;" horiz-adv-x="301" 
d="M141 736l-14 49c30 4 61 8 61 38c0 33 -38 33 -74 33h-15v66h15c89 0 150 -34 150 -97c0 -69 -72 -81 -123 -89zM88 0v697h125v-697h-125z" />
    <glyph glyph-name="Imacron" unicode="&#x12a;" horiz-adv-x="301" 
d="M13 770v70h275v-70h-275zM88 0v697h125v-697h-125z" />
    <glyph glyph-name="Iogonek" unicode="&#x12e;" horiz-adv-x="301" 
d="M197 -120l61 -42c-24 -35 -58 -60 -108 -60c-64 0 -112 40 -112 101c0 63 48 103 81 121h-31v697h125v-697c-10 -4 -103 -38 -103 -109c0 -30 17 -39 37 -39c21 0 37 10 50 28z" />
    <glyph glyph-name="Itilde" unicode="&#x128;" horiz-adv-x="301" 
d="M214 760c-78 0 -92 70 -129 70c-20 0 -32 -24 -32 -67h-69c0 90 41 141 106 141c69 0 90 -70 125 -70c17 0 30 24 30 67h72c0 -91 -40 -141 -103 -141zM88 0v697h125v-697h-125z" />
    <glyph glyph-name="J" unicode="J" horiz-adv-x="560" 
d="M250 -15c-136 0 -226 86 -236 232l123 14c6 -90 42 -130 113 -130c75 0 110 46 110 148v333h-263v115h388v-455c0 -161 -90 -257 -235 -257z" />
    <glyph glyph-name="K" unicode="K" horiz-adv-x="704" 
d="M697 0h-145l-206 347l-133 -135v-212h-125v697h125v-328l313 328h164l-259 -264z" />
    <glyph glyph-name="uni0136" unicode="&#x136;" horiz-adv-x="704" 
d="M431 433l266 -433h-145l-206 347l-133 -135v-212h-125v697h125v-328l313 328h164zM222 -226l67 173h125l-122 -173h-70z" />
    <glyph glyph-name="L" unicode="L" horiz-adv-x="520" 
d="M88 0v697h125v-582h298v-115h-423z" />
    <glyph glyph-name="Lacute" unicode="&#x139;" horiz-adv-x="520" 
d="M107 759l111 142h129l-152 -142h-88zM88 0v697h125v-582h298v-115h-423z" />
    <glyph glyph-name="Lcaron" unicode="&#x13d;" horiz-adv-x="520" 
d="M88 0v697h125v-582h298v-115h-423zM338 473l56 224h126l-112 -224h-70z" />
    <glyph glyph-name="uni013B" unicode="&#x13b;" horiz-adv-x="520" 
d="M88 0v697h125v-582h298v-115h-423zM170 -226l67 173h125l-122 -173h-70z" />
    <glyph glyph-name="Lslash" unicode="&#x141;" horiz-adv-x="520" 
d="M213 115h298v-115h-423v207l-62 -49v124l62 49v366h125v-267l107 84v-122l-107 -85v-192z" />
    <glyph glyph-name="M" unicode="M" horiz-adv-x="893" 
d="M626 697h179v-697h-125v521l-173 -460h-121l-173 460v-521h-125v697h179l179 -491z" />
    <glyph glyph-name="N" unicode="N" horiz-adv-x="723" 
d="M510 697h125v-697h-130l-292 482v-482h-125v697h129l293 -480v480z" />
    <glyph glyph-name="Nacute" unicode="&#x143;" horiz-adv-x="723" 
d="M558 901l-152 -142h-88l111 142h129zM510 697h125v-697h-130l-292 482v-482h-125v697h129l293 -480v480z" />
    <glyph glyph-name="Ncaron" unicode="&#x147;" horiz-adv-x="723" 
d="M518 901l-156 -164l-156 164h93l63 -67l63 67h93zM510 697h125v-697h-130l-292 482v-482h-125v697h129l293 -480v480z" />
    <glyph glyph-name="uni0145" unicode="&#x145;" horiz-adv-x="723" 
d="M510 697h125v-697h-130l-292 482v-482h-125v697h129l293 -480v480zM232 -226l67 173h125l-122 -173h-70z" />
    <glyph glyph-name="Eng" unicode="&#x14a;" horiz-adv-x="724" 
d="M510 697h125v-697c0 -93 -44 -182 -171 -182c-21 0 -44 1 -70 6v79c13 -2 26 -3 37 -3c58 0 85 29 85 62c0 11 -3 25 -11 38l-292 475v-475h-125v697h129l293 -474v474z" />
    <glyph glyph-name="Ntilde" unicode="&#xd1;" horiz-adv-x="723" 
d="M296 830c-20 0 -32 -24 -32 -67h-69c0 90 41 141 106 141c69 0 90 -70 125 -70c17 0 30 24 30 67h72c0 -91 -40 -141 -103 -141c-78 0 -92 70 -129 70zM510 697h125v-697h-130l-292 482v-482h-125v697h129l293 -480v480z" />
    <glyph glyph-name="O" unicode="O" horiz-adv-x="744" 
d="M372 -15c-198 0 -333 145 -333 363c0 219 135 364 333 364c199 0 333 -145 333 -364c0 -218 -135 -363 -333 -363zM372 104c127 0 208 94 208 244c0 151 -81 245 -208 245s-208 -93 -208 -245c0 -151 81 -244 208 -244z" />
    <glyph glyph-name="Oacute" unicode="&#xd3;" horiz-adv-x="744" 
d="M328 759l111 142h129l-152 -142h-88zM372 -15c-198 0 -333 145 -333 363c0 219 135 364 333 364c199 0 333 -145 333 -364c0 -218 -135 -363 -333 -363zM372 104c127 0 208 94 208 244c0 151 -81 245 -208 245s-208 -93 -208 -245c0 -151 81 -244 208 -244z" />
    <glyph glyph-name="uni01D1" unicode="&#x1d1;" horiz-adv-x="744" 
d="M372 737l-156 164h93l63 -67l63 67h93zM372 -15c-198 0 -333 145 -333 363c0 219 135 364 333 364c199 0 333 -145 333 -364c0 -218 -135 -363 -333 -363zM372 104c127 0 208 94 208 244c0 151 -81 245 -208 245s-208 -93 -208 -245c0 -151 81 -244 208 -244z" />
    <glyph glyph-name="Ocircumflex" unicode="&#xd4;" horiz-adv-x="744" 
d="M216 745l156 174l156 -174h-93l-63 72l-63 -72h-93zM372 -15c-198 0 -333 145 -333 363c0 219 135 364 333 364c199 0 333 -145 333 -364c0 -218 -135 -363 -333 -363zM372 104c127 0 208 94 208 244c0 151 -81 245 -208 245s-208 -93 -208 -245c0 -151 81 -244 208 -244
z" />
    <glyph glyph-name="uni1ED0" unicode="&#x1ed0;" horiz-adv-x="744" 
d="M328 947l111 142h129l-152 -142h-88zM216 745l156 174l156 -174h-93l-63 72l-63 -72h-93zM372 -15c-198 0 -333 145 -333 363c0 219 135 364 333 364c199 0 333 -145 333 -364c0 -218 -135 -363 -333 -363zM372 104c127 0 208 94 208 244c0 151 -81 245 -208 245
s-208 -93 -208 -245c0 -151 81 -244 208 -244z" />
    <glyph glyph-name="uni1ED8" unicode="&#x1ed8;" horiz-adv-x="744" 
d="M216 745l156 174l156 -174h-93l-63 72l-63 -72h-93zM372 -15c-198 0 -333 145 -333 363c0 219 135 364 333 364c199 0 333 -145 333 -364c0 -218 -135 -363 -333 -363zM372 104c127 0 208 94 208 244c0 151 -81 245 -208 245s-208 -93 -208 -245c0 -151 81 -244 208 -244
zM309 -173v111h126v-111h-126z" />
    <glyph glyph-name="uni1ED2" unicode="&#x1ed2;" horiz-adv-x="744" 
d="M327 947l-142 142h128l104 -142h-90zM216 745l156 174l156 -174h-93l-63 72l-63 -72h-93zM372 -15c-198 0 -333 145 -333 363c0 219 135 364 333 364c199 0 333 -145 333 -364c0 -218 -135 -363 -333 -363zM372 104c127 0 208 94 208 244c0 151 -81 245 -208 245
s-208 -93 -208 -245c0 -151 81 -244 208 -244z" />
    <glyph glyph-name="uni1ED4" unicode="&#x1ed4;" horiz-adv-x="744" 
d="M362 924l-14 49c30 4 61 8 61 38c0 33 -38 33 -74 33h-15v66h15c89 0 150 -34 150 -97c0 -69 -72 -81 -123 -89zM216 745l156 174l156 -174h-93l-63 72l-63 -72h-93zM372 -15c-198 0 -333 145 -333 363c0 219 135 364 333 364c199 0 333 -145 333 -364
c0 -218 -135 -363 -333 -363zM372 104c127 0 208 94 208 244c0 151 -81 245 -208 245s-208 -93 -208 -245c0 -151 81 -244 208 -244z" />
    <glyph glyph-name="uni1ED6" unicode="&#x1ed6;" horiz-adv-x="744" 
d="M435 948c-78 0 -92 70 -129 70c-20 0 -32 -24 -32 -67h-69c0 90 41 141 106 141c69 0 90 -70 125 -70c17 0 30 24 30 67h72c0 -91 -40 -141 -103 -141zM216 745l156 174l156 -174h-93l-63 72l-63 -72h-93zM372 -15c-198 0 -333 145 -333 363c0 219 135 364 333 364
c199 0 333 -145 333 -364c0 -218 -135 -363 -333 -363zM372 104c127 0 208 94 208 244c0 151 -81 245 -208 245s-208 -93 -208 -245c0 -151 81 -244 208 -244z" />
    <glyph glyph-name="Odieresis" unicode="&#xd6;" horiz-adv-x="744" 
d="M224 790v111h101v-111h-101zM419 790v111h101v-111h-101zM372 -15c-198 0 -333 145 -333 363c0 219 135 364 333 364c199 0 333 -145 333 -364c0 -218 -135 -363 -333 -363zM372 104c127 0 208 94 208 244c0 151 -81 245 -208 245s-208 -93 -208 -245
c0 -151 81 -244 208 -244z" />
    <glyph glyph-name="uni1ECC" unicode="&#x1ecc;" horiz-adv-x="744" 
d="M372 -15c-198 0 -333 145 -333 363c0 219 135 364 333 364c199 0 333 -145 333 -364c0 -218 -135 -363 -333 -363zM372 104c127 0 208 94 208 244c0 151 -81 245 -208 245s-208 -93 -208 -245c0 -151 81 -244 208 -244zM309 -173v111h126v-111h-126z" />
    <glyph glyph-name="Ograve" unicode="&#xd2;" horiz-adv-x="744" 
d="M327 759l-142 142h128l104 -142h-90zM372 -15c-198 0 -333 145 -333 363c0 219 135 364 333 364c199 0 333 -145 333 -364c0 -218 -135 -363 -333 -363zM372 104c127 0 208 94 208 244c0 151 -81 245 -208 245s-208 -93 -208 -245c0 -151 81 -244 208 -244z" />
    <glyph glyph-name="uni1ECE" unicode="&#x1ece;" horiz-adv-x="744" 
d="M362 736l-14 49c30 4 61 8 61 38c0 33 -38 33 -74 33h-15v66h15c89 0 150 -34 150 -97c0 -69 -72 -81 -123 -89zM372 -15c-198 0 -333 145 -333 363c0 219 135 364 333 364c199 0 333 -145 333 -364c0 -218 -135 -363 -333 -363zM372 104c127 0 208 94 208 244
c0 151 -81 245 -208 245s-208 -93 -208 -245c0 -151 81 -244 208 -244z" />
    <glyph glyph-name="Ohorn" unicode="&#x1a0;" horiz-adv-x="744" 
d="M674 697h91v-39c0 -68 -25 -128 -87 -153c18 -46 27 -99 27 -157c0 -218 -135 -363 -333 -363s-333 145 -333 363c0 219 135 364 333 364c116 0 210 -49 268 -134c27 14 34 46 34 70v49zM372 104c127 0 208 94 208 244c0 151 -81 245 -208 245s-208 -93 -208 -245
c0 -151 81 -244 208 -244z" />
    <glyph glyph-name="uni1EDA" unicode="&#x1eda;" horiz-adv-x="744" 
d="M568 901l-152 -142h-88l111 142h129zM674 697h91v-39c0 -68 -25 -128 -87 -153c18 -46 27 -99 27 -157c0 -218 -135 -363 -333 -363s-333 145 -333 363c0 219 135 364 333 364c116 0 210 -49 268 -134c27 14 34 46 34 70v49zM372 104c127 0 208 94 208 244
c0 151 -81 245 -208 245s-208 -93 -208 -245c0 -151 81 -244 208 -244z" />
    <glyph glyph-name="uni1EE2" unicode="&#x1ee2;" horiz-adv-x="744" 
d="M674 697h91v-39c0 -68 -25 -128 -87 -153c18 -46 27 -99 27 -157c0 -218 -135 -363 -333 -363s-333 145 -333 363c0 219 135 364 333 364c116 0 210 -49 268 -134c27 14 34 46 34 70v49zM372 104c127 0 208 94 208 244c0 151 -81 245 -208 245s-208 -93 -208 -245
c0 -151 81 -244 208 -244zM309 -173v111h126v-111h-126z" />
    <glyph glyph-name="uni1EDC" unicode="&#x1edc;" horiz-adv-x="744" 
d="M417 759h-90l-142 142h128zM674 697h91v-39c0 -68 -25 -128 -87 -153c18 -46 27 -99 27 -157c0 -218 -135 -363 -333 -363s-333 145 -333 363c0 219 135 364 333 364c116 0 210 -49 268 -134c27 14 34 46 34 70v49zM372 104c127 0 208 94 208 244c0 151 -81 245 -208 245
s-208 -93 -208 -245c0 -151 81 -244 208 -244z" />
    <glyph glyph-name="uni1EDE" unicode="&#x1ede;" horiz-adv-x="744" 
d="M409 823c0 33 -38 33 -74 33h-15v66h15c89 0 150 -34 150 -97c0 -69 -72 -81 -123 -89l-14 49c30 4 61 8 61 38zM674 697h91v-39c0 -68 -25 -128 -87 -153c18 -46 27 -99 27 -157c0 -218 -135 -363 -333 -363s-333 145 -333 363c0 219 135 364 333 364
c116 0 210 -49 268 -134c27 14 34 46 34 70v49zM372 104c127 0 208 94 208 244c0 151 -81 245 -208 245s-208 -93 -208 -245c0 -151 81 -244 208 -244z" />
    <glyph glyph-name="uni1EE0" unicode="&#x1ee0;" horiz-adv-x="744" 
d="M306 830c-20 0 -32 -24 -32 -67h-69c0 90 41 141 106 141c69 0 90 -70 125 -70c17 0 30 24 30 67h72c0 -91 -40 -141 -103 -141c-78 0 -92 70 -129 70zM674 697h91v-39c0 -68 -25 -128 -87 -153c18 -46 27 -99 27 -157c0 -218 -135 -363 -333 -363s-333 145 -333 363
c0 219 135 364 333 364c116 0 210 -49 268 -134c27 14 34 46 34 70v49zM372 104c127 0 208 94 208 244c0 151 -81 245 -208 245s-208 -93 -208 -245c0 -151 81 -244 208 -244z" />
    <glyph glyph-name="Ohungarumlaut" unicode="&#x150;" horiz-adv-x="744" 
d="M232 738l111 163h108l-131 -163h-88zM424 738l111 163h128l-151 -163h-88zM372 -15c-198 0 -333 145 -333 363c0 219 135 364 333 364c199 0 333 -145 333 -364c0 -218 -135 -363 -333 -363zM372 104c127 0 208 94 208 244c0 151 -81 245 -208 245s-208 -93 -208 -245
c0 -151 81 -244 208 -244z" />
    <glyph glyph-name="Omacron" unicode="&#x14c;" horiz-adv-x="744" 
d="M234 770v70h275v-70h-275zM372 -15c-198 0 -333 145 -333 363c0 219 135 364 333 364c199 0 333 -145 333 -364c0 -218 -135 -363 -333 -363zM372 104c127 0 208 94 208 244c0 151 -81 245 -208 245s-208 -93 -208 -245c0 -151 81 -244 208 -244z" />
    <glyph glyph-name="Oslash" unicode="&#xd8;" horiz-adv-x="744" 
d="M610 616c60 -64 95 -156 95 -268c0 -218 -135 -363 -333 -363c-69 0 -130 18 -181 50l-25 -35h-90l59 81c-61 64 -96 156 -96 267c0 219 135 364 333 364c69 0 131 -18 181 -50l25 35h90zM164 348c0 -67 16 -123 45 -164l273 379c-31 20 -68 30 -110 30
c-127 0 -208 -93 -208 -245zM372 104c127 0 208 94 208 244c0 67 -16 123 -45 164l-273 -379c31 -19 68 -29 110 -29z" />
    <glyph glyph-name="Otilde" unicode="&#xd5;" horiz-adv-x="744" 
d="M435 760c-78 0 -92 70 -129 70c-20 0 -32 -24 -32 -67h-69c0 90 41 141 106 141c69 0 90 -70 125 -70c17 0 30 24 30 67h72c0 -91 -40 -141 -103 -141zM372 -15c-198 0 -333 145 -333 363c0 219 135 364 333 364c199 0 333 -145 333 -364c0 -218 -135 -363 -333 -363z
M372 104c127 0 208 94 208 244c0 151 -81 245 -208 245s-208 -93 -208 -245c0 -151 81 -244 208 -244z" />
    <glyph glyph-name="OE" unicode="&#x152;" horiz-adv-x="1103" 
d="M1045 582h-339v-166h315v-115h-315v-186h339v-115h-464v55c-55 -45 -127 -70 -209 -70c-198 0 -333 145 -333 363c0 219 135 364 333 364c82 0 154 -25 209 -70v55h464v-115zM372 104c127 0 208 94 208 244c0 151 -81 245 -208 245s-208 -93 -208 -245
c0 -151 81 -244 208 -244z" />
    <glyph glyph-name="P" unicode="P" horiz-adv-x="575" 
d="M88 0v697h228c156 0 237 -68 237 -201c0 -135 -83 -207 -237 -207h-104v-289h-124zM212 404h91c88 0 125 27 125 90s-36 88 -125 88h-91v-178z" />
    <glyph glyph-name="Thorn" unicode="&#xde;" horiz-adv-x="563" 
d="M88 0v697h114v-96h126c135 0 214 -73 214 -197c0 -131 -89 -208 -241 -208h-99v-196h-114zM202 300h99c85 0 127 33 127 100c0 68 -43 103 -127 103h-99v-203z" />
    <glyph glyph-name="Q" unicode="Q" horiz-adv-x="765" 
d="M737 14l-76 -73l-102 99c-52 -36 -117 -55 -189 -55c-198 0 -333 145 -333 363c0 219 135 364 333 364c199 0 333 -145 333 -364c0 -93 -25 -173 -68 -234zM370 104c37 0 70 8 98 23l-91 88l75 77l92 -90c22 39 34 88 34 146c0 151 -81 245 -208 245s-208 -93 -208 -245
c0 -151 81 -244 208 -244z" />
    <glyph glyph-name="R" unicode="R" horiz-adv-x="622" 
d="M612 0h-145l-167 289h-42h-46v-289h-124v697h228c166 0 237 -76 237 -201c0 -100 -46 -164 -129 -192zM212 404h91c81 0 125 22 125 90s-44 88 -125 88h-91v-178z" />
    <glyph glyph-name="Racute" unicode="&#x154;" horiz-adv-x="622" 
d="M507 901l-152 -142h-88l111 142h129zM612 0h-145l-167 289h-42h-46v-289h-124v697h228c166 0 237 -76 237 -201c0 -100 -46 -164 -129 -192zM212 404h91c81 0 125 22 125 90s-44 88 -125 88h-91v-178z" />
    <glyph glyph-name="Rcaron" unicode="&#x158;" horiz-adv-x="622" 
d="M467 901l-156 -164l-156 164h93l63 -67l63 67h93zM612 0h-145l-167 289h-42h-46v-289h-124v697h228c166 0 237 -76 237 -201c0 -100 -46 -164 -129 -192zM212 404h91c81 0 125 22 125 90s-44 88 -125 88h-91v-178z" />
    <glyph glyph-name="uni0156" unicode="&#x156;" horiz-adv-x="622" 
d="M424 304l188 -304h-145l-167 289h-42h-46v-289h-124v697h228c166 0 237 -76 237 -201c0 -100 -46 -164 -129 -192zM212 404h91c81 0 125 22 125 90s-44 88 -125 88h-91v-178zM181 -226l67 173h125l-122 -173h-70z" />
    <glyph glyph-name="S" unicode="S" horiz-adv-x="558" 
d="M288 -13c-139 0 -247 83 -267 210l124 31c9 -83 64 -130 145 -130c70 0 115 35 115 94c0 48 -36 78 -139 119c-146 57 -198 110 -198 211c0 113 87 190 217 190c94 0 168 -43 212 -127l-104 -64c-24 52 -65 80 -112 80c-50 0 -88 -33 -88 -76c0 -46 34 -72 139 -113
c149 -57 198 -110 198 -209c0 -130 -99 -216 -242 -216z" />
    <glyph glyph-name="Sacute" unicode="&#x15a;" horiz-adv-x="558" 
d="M235 759l111 142h129l-152 -142h-88zM288 -13c-139 0 -247 83 -267 210l124 31c9 -83 64 -130 145 -130c70 0 115 35 115 94c0 48 -36 78 -139 119c-146 57 -198 110 -198 211c0 113 87 190 217 190c94 0 168 -43 212 -127l-104 -64c-24 52 -65 80 -112 80
c-50 0 -88 -33 -88 -76c0 -46 34 -72 139 -113c149 -57 198 -110 198 -209c0 -130 -99 -216 -242 -216z" />
    <glyph glyph-name="Scaron" unicode="&#x160;" horiz-adv-x="558" 
d="M279 737l-156 164h93l63 -67l63 67h93zM288 -13c-139 0 -247 83 -267 210l124 31c9 -83 64 -130 145 -130c70 0 115 35 115 94c0 48 -36 78 -139 119c-146 57 -198 110 -198 211c0 113 87 190 217 190c94 0 168 -43 212 -127l-104 -64c-24 52 -65 80 -112 80
c-50 0 -88 -33 -88 -76c0 -46 34 -72 139 -113c149 -57 198 -110 198 -209c0 -130 -99 -216 -242 -216z" />
    <glyph glyph-name="Scedilla" unicode="&#x15e;" horiz-adv-x="558" 
d="M530 203c0 -125 -92 -209 -226 -216l-28 -36c19 -4 35 -10 49 -18c29 -17 45 -45 45 -79c0 -63 -48 -112 -113 -112c-24 0 -57 7 -86 32l38 58c20 -18 39 -21 51 -21c24 0 40 16 40 40c0 29 -25 44 -54 49c-19 3 -41 4 -63 4l54 87c-114 18 -199 95 -216 206l124 31
c9 -83 64 -130 145 -130c70 0 115 35 115 94c0 48 -36 78 -139 119c-146 57 -198 110 -198 211c0 113 87 190 217 190c94 0 168 -43 212 -127l-104 -64c-24 52 -65 80 -112 80c-50 0 -88 -33 -88 -76c0 -46 34 -72 139 -113c149 -57 198 -110 198 -209z" />
    <glyph glyph-name="uni0218" unicode="&#x218;" horiz-adv-x="558" 
d="M288 -13c-139 0 -247 83 -267 210l124 31c9 -83 64 -130 145 -130c70 0 115 35 115 94c0 48 -36 78 -139 119c-146 57 -198 110 -198 211c0 113 87 190 217 190c94 0 168 -43 212 -127l-104 -64c-24 52 -65 80 -112 80c-50 0 -88 -33 -88 -76c0 -46 34 -72 139 -113
c149 -57 198 -110 198 -209c0 -130 -99 -216 -242 -216zM149 -226l67 173h125l-122 -173h-70z" />
    <glyph glyph-name="uni1E9E" unicode="&#x1e9e;" horiz-adv-x="679" 
d="M460 -15c-110 0 -193 63 -217 143l106 56c20 -46 55 -83 115 -83c41 0 58 17 58 42c0 89 -236 43 -236 206c0 61 32 90 62 127l82 100h-92c-105 0 -141 -47 -141 -150v-426h-125v426c0 117 27 271 266 271h246v-115l-150 -179c-10 -12 -22 -29 -22 -44
c0 -69 247 -29 247 -214c0 -91 -83 -160 -199 -160z" />
    <glyph glyph-name="T" unicode="T" horiz-adv-x="578" 
d="M226 0v582h-218v115h562v-115h-218v-582h-126z" />
    <glyph glyph-name="Tbar" unicode="&#x166;" horiz-adv-x="578" 
d="M570 582h-218v-193h98v-80h-98v-309h-126v309h-99v80h99v193h-218v115h562v-115z" />
    <glyph glyph-name="Tcaron" unicode="&#x164;" horiz-adv-x="578" 
d="M289 737l-156 164h93l63 -67l63 67h93zM226 0v582h-218v115h562v-115h-218v-582h-126z" />
    <glyph glyph-name="uni0162" unicode="&#x162;" horiz-adv-x="578" 
d="M352 0h-28l-38 -49c19 -4 35 -10 49 -18c29 -17 45 -45 45 -79c0 -63 -48 -112 -113 -112c-24 0 -57 7 -86 32l38 58c20 -18 39 -21 51 -21c24 0 40 16 40 40c0 29 -25 44 -54 49c-19 3 -41 4 -63 4l60 96h-27v582h-218v115h562v-115h-218v-582z" />
    <glyph glyph-name="uni021A" unicode="&#x21a;" horiz-adv-x="578" 
d="M226 0v582h-218v115h562v-115h-218v-582h-126zM159 -226l67 173h125l-122 -173h-70z" />
    <glyph glyph-name="U" unicode="U" horiz-adv-x="681" 
d="M340 -15c-175 0 -266 89 -266 267v445h125v-431c0 -118 38 -160 141 -160s142 43 142 160v431h125v-440c0 -181 -91 -272 -267 -272z" />
    <glyph glyph-name="Uacute" unicode="&#xda;" horiz-adv-x="681" 
d="M297 759l111 142h129l-152 -142h-88zM340 -15c-175 0 -266 89 -266 267v445h125v-431c0 -118 38 -160 141 -160s142 43 142 160v431h125v-440c0 -181 -91 -272 -267 -272z" />
    <glyph glyph-name="uni01D3" unicode="&#x1d3;" horiz-adv-x="681" 
d="M341 737l-156 164h93l63 -67l63 67h93zM340 -15c-175 0 -266 89 -266 267v445h125v-431c0 -118 38 -160 141 -160s142 43 142 160v431h125v-440c0 -181 -91 -272 -267 -272z" />
    <glyph glyph-name="Ucircumflex" unicode="&#xdb;" horiz-adv-x="681" 
d="M185 745l156 174l156 -174h-93l-63 72l-63 -72h-93zM340 -15c-175 0 -266 89 -266 267v445h125v-431c0 -118 38 -160 141 -160s142 43 142 160v431h125v-440c0 -181 -91 -272 -267 -272z" />
    <glyph glyph-name="Udieresis" unicode="&#xdc;" horiz-adv-x="681" 
d="M193 790v111h101v-111h-101zM388 790v111h101v-111h-101zM340 -15c-175 0 -266 89 -266 267v445h125v-431c0 -118 38 -160 141 -160s142 43 142 160v431h125v-440c0 -181 -91 -272 -267 -272z" />
    <glyph glyph-name="uni01D7" unicode="&#x1d7;" horiz-adv-x="681" 
d="M297 963l111 142h129l-152 -142h-88zM193 790v111h101v-111h-101zM388 790v111h101v-111h-101zM340 -15c-175 0 -266 89 -266 267v445h125v-431c0 -118 38 -160 141 -160s142 43 142 160v431h125v-440c0 -181 -91 -272 -267 -272z" />
    <glyph glyph-name="uni01D9" unicode="&#x1d9;" horiz-adv-x="681" 
d="M341 941l-156 164h93l63 -67l63 67h93zM193 790v111h101v-111h-101zM388 790v111h101v-111h-101zM340 -15c-175 0 -266 89 -266 267v445h125v-431c0 -118 38 -160 141 -160s142 43 142 160v431h125v-440c0 -181 -91 -272 -267 -272z" />
    <glyph glyph-name="uni01DB" unicode="&#x1db;" horiz-adv-x="681" 
d="M296 963l-142 142h128l104 -142h-90zM193 790v111h101v-111h-101zM388 790v111h101v-111h-101zM340 -15c-175 0 -266 89 -266 267v445h125v-431c0 -118 38 -160 141 -160s142 43 142 160v431h125v-440c0 -181 -91 -272 -267 -272z" />
    <glyph glyph-name="uni01D5" unicode="&#x1d5;" horiz-adv-x="681" 
d="M203 974v70h275v-70h-275zM193 790v111h101v-111h-101zM388 790v111h101v-111h-101zM340 -15c-175 0 -266 89 -266 267v445h125v-431c0 -118 38 -160 141 -160s142 43 142 160v431h125v-440c0 -181 -91 -272 -267 -272z" />
    <glyph glyph-name="uni1EE4" unicode="&#x1ee4;" horiz-adv-x="681" 
d="M340 -15c-175 0 -266 89 -266 267v445h125v-431c0 -118 38 -160 141 -160s142 43 142 160v431h125v-440c0 -181 -91 -272 -267 -272zM278 -173v111h126v-111h-126z" />
    <glyph glyph-name="Ugrave" unicode="&#xd9;" horiz-adv-x="681" 
d="M296 759l-142 142h128l104 -142h-90zM340 -15c-175 0 -266 89 -266 267v445h125v-431c0 -118 38 -160 141 -160s142 43 142 160v431h125v-440c0 -181 -91 -272 -267 -272z" />
    <glyph glyph-name="uni1EE6" unicode="&#x1ee6;" horiz-adv-x="681" 
d="M331 736l-14 49c30 4 61 8 61 38c0 33 -38 33 -74 33h-15v66h15c89 0 150 -34 150 -97c0 -69 -72 -81 -123 -89zM340 -15c-175 0 -266 89 -266 267v445h125v-431c0 -118 38 -160 141 -160s142 43 142 160v431h125v-440c0 -181 -91 -272 -267 -272z" />
    <glyph glyph-name="Uhorn" unicode="&#x1af;" horiz-adv-x="681" 
d="M663 697h91v-39c0 -88 -42 -161 -147 -165v-236c0 -181 -91 -272 -267 -272c-175 0 -266 89 -266 267v445h125v-431c0 -118 38 -160 141 -160s142 43 142 160v431h125v-125c46 5 56 47 56 76v49z" />
    <glyph glyph-name="uni1EE8" unicode="&#x1ee8;" horiz-adv-x="681" 
d="M537 901l-152 -142h-88l111 142h129zM663 697h91v-39c0 -88 -42 -161 -147 -165v-236c0 -181 -91 -272 -267 -272c-175 0 -266 89 -266 267v445h125v-431c0 -118 38 -160 141 -160s142 43 142 160v431h125v-125c46 5 56 47 56 76v49z" />
    <glyph glyph-name="uni1EF0" unicode="&#x1ef0;" horiz-adv-x="681" 
d="M663 697h91v-39c0 -88 -42 -161 -147 -165v-236c0 -181 -91 -272 -267 -272c-175 0 -266 89 -266 267v445h125v-431c0 -118 38 -160 141 -160s142 43 142 160v431h125v-125c46 5 56 47 56 76v49zM278 -173v111h126v-111h-126z" />
    <glyph glyph-name="uni1EEA" unicode="&#x1eea;" horiz-adv-x="681" 
d="M386 759h-90l-142 142h128zM663 697h91v-39c0 -88 -42 -161 -147 -165v-236c0 -181 -91 -272 -267 -272c-175 0 -266 89 -266 267v445h125v-431c0 -118 38 -160 141 -160s142 43 142 160v431h125v-125c46 5 56 47 56 76v49z" />
    <glyph glyph-name="uni1EEC" unicode="&#x1eec;" horiz-adv-x="681" 
d="M378 823c0 33 -38 33 -74 33h-15v66h15c89 0 150 -34 150 -97c0 -69 -72 -81 -123 -89l-14 49c30 4 61 8 61 38zM663 697h91v-39c0 -88 -42 -161 -147 -165v-236c0 -181 -91 -272 -267 -272c-175 0 -266 89 -266 267v445h125v-431c0 -118 38 -160 141 -160
s142 43 142 160v431h125v-125c46 5 56 47 56 76v49z" />
    <glyph glyph-name="uni1EEE" unicode="&#x1eee;" horiz-adv-x="681" 
d="M275 830c-20 0 -32 -24 -32 -67h-69c0 90 41 141 106 141c69 0 90 -70 125 -70c17 0 30 24 30 67h72c0 -91 -40 -141 -103 -141c-78 0 -92 70 -129 70zM663 697h91v-39c0 -88 -42 -161 -147 -165v-236c0 -181 -91 -272 -267 -272c-175 0 -266 89 -266 267v445h125v-431
c0 -118 38 -160 141 -160s142 43 142 160v431h125v-125c46 5 56 47 56 76v49z" />
    <glyph glyph-name="Uhungarumlaut" unicode="&#x170;" horiz-adv-x="681" 
d="M201 738l111 163h108l-131 -163h-88zM393 738l111 163h128l-151 -163h-88zM340 -15c-175 0 -266 89 -266 267v445h125v-431c0 -118 38 -160 141 -160s142 43 142 160v431h125v-440c0 -181 -91 -272 -267 -272z" />
    <glyph glyph-name="Umacron" unicode="&#x16a;" horiz-adv-x="681" 
d="M203 770v70h275v-70h-275zM340 -15c-175 0 -266 89 -266 267v445h125v-431c0 -118 38 -160 141 -160s142 43 142 160v431h125v-440c0 -181 -91 -272 -267 -272z" />
    <glyph glyph-name="Uogonek" unicode="&#x172;" horiz-adv-x="681" 
d="M482 697h125v-440c0 -158 -69 -247 -204 -268c-31 -15 -79 -47 -79 -98c0 -30 17 -39 37 -39c21 0 37 10 50 28l61 -42c-24 -35 -58 -60 -108 -60c-64 0 -112 40 -112 101c0 50 30 85 59 107c-156 9 -237 98 -237 266v445h125v-431c0 -118 38 -160 141 -160
s142 43 142 160v431z" />
    <glyph glyph-name="Uring" unicode="&#x16e;" horiz-adv-x="681" 
d="M341 677c-64 0 -114 53 -114 114c0 63 51 114 114 114c61 0 114 -50 114 -114c0 -63 -51 -114 -114 -114zM341 742c29 0 49 21 49 50c0 28 -18 48 -49 48c-30 0 -49 -20 -49 -48c0 -29 21 -50 49 -50zM340 -15c-175 0 -266 89 -266 267v445h125v-431
c0 -118 38 -160 141 -160s142 43 142 160v431h125v-440c0 -181 -91 -272 -267 -272z" />
    <glyph glyph-name="Utilde" unicode="&#x168;" horiz-adv-x="681" 
d="M404 760c-78 0 -92 70 -129 70c-20 0 -32 -24 -32 -67h-69c0 90 41 141 106 141c69 0 90 -70 125 -70c17 0 30 24 30 67h72c0 -91 -40 -141 -103 -141zM340 -15c-175 0 -266 89 -266 267v445h125v-431c0 -118 38 -160 141 -160s142 43 142 160v431h125v-440
c0 -181 -91 -272 -267 -272z" />
    <glyph glyph-name="V" unicode="V" horiz-adv-x="659" 
d="M517 697h138l-278 -697h-94l-279 697h138l188 -493z" />
    <glyph glyph-name="W" unicode="W" horiz-adv-x="986" 
d="M220 0l-209 697h130l147 -506l151 466h107l152 -466l146 506h131l-209 -697h-122l-151 459l-152 -459h-121z" />
    <glyph glyph-name="Wacute" unicode="&#x1e82;" horiz-adv-x="986" 
d="M449 759l111 142h129l-152 -142h-88zM220 0l-209 697h130l147 -506l151 466h107l152 -466l146 506h131l-209 -697h-122l-151 459l-152 -459h-121z" />
    <glyph glyph-name="Wcircumflex" unicode="&#x174;" horiz-adv-x="986" 
d="M337 745l156 174l156 -174h-93l-63 72l-63 -72h-93zM220 0l-209 697h130l147 -506l151 466h107l152 -466l146 506h131l-209 -697h-122l-151 459l-152 -459h-121z" />
    <glyph glyph-name="Wdieresis" unicode="&#x1e84;" horiz-adv-x="986" 
d="M345 790v111h101v-111h-101zM540 790v111h101v-111h-101zM220 0l-209 697h130l147 -506l151 466h107l152 -466l146 506h131l-209 -697h-122l-151 459l-152 -459h-121z" />
    <glyph glyph-name="Wgrave" unicode="&#x1e80;" horiz-adv-x="986" 
d="M448 759l-142 142h128l104 -142h-90zM220 0l-209 697h130l147 -506l151 466h107l152 -466l146 506h131l-209 -697h-122l-151 459l-152 -459h-121z" />
    <glyph glyph-name="X" unicode="X" horiz-adv-x="660" 
d="M11 0l233 348l-232 349h150l168 -262l169 262h149l-232 -349l234 -348h-150l-171 258l-168 -258h-150z" />
    <glyph glyph-name="Y" unicode="Y" horiz-adv-x="647" 
d="M262 0v272l-265 425h147l178 -305l180 305h148l-263 -425v-272h-125z" />
    <glyph glyph-name="Yacute" unicode="&#xdd;" horiz-adv-x="647" 
d="M280 759l111 142h129l-152 -142h-88zM262 0v272l-265 425h147l178 -305l180 305h148l-263 -425v-272h-125z" />
    <glyph glyph-name="Ycircumflex" unicode="&#x176;" horiz-adv-x="647" 
d="M168 745l156 174l156 -174h-93l-63 72l-63 -72h-93zM262 0v272l-265 425h147l178 -305l180 305h148l-263 -425v-272h-125z" />
    <glyph glyph-name="Ydieresis" unicode="&#x178;" horiz-adv-x="647" 
d="M176 790v111h101v-111h-101zM371 790v111h101v-111h-101zM262 0v272l-265 425h147l178 -305l180 305h148l-263 -425v-272h-125z" />
    <glyph glyph-name="uni1EF4" unicode="&#x1ef4;" horiz-adv-x="647" 
d="M262 0v272l-265 425h147l178 -305l180 305h148l-263 -425v-272h-125zM261 -173v111h126v-111h-126z" />
    <glyph glyph-name="Ygrave" unicode="&#x1ef2;" horiz-adv-x="647" 
d="M279 759l-142 142h128l104 -142h-90zM262 0v272l-265 425h147l178 -305l180 305h148l-263 -425v-272h-125z" />
    <glyph glyph-name="uni1EF6" unicode="&#x1ef6;" horiz-adv-x="647" 
d="M314 736l-14 49c30 4 61 8 61 38c0 33 -38 33 -74 33h-15v66h15c89 0 150 -34 150 -97c0 -69 -72 -81 -123 -89zM262 0v272l-265 425h147l178 -305l180 305h148l-263 -425v-272h-125z" />
    <glyph glyph-name="uni1EF8" unicode="&#x1ef8;" horiz-adv-x="647" 
d="M387 760c-78 0 -92 70 -129 70c-20 0 -32 -24 -32 -67h-69c0 90 41 141 106 141c69 0 90 -70 125 -70c17 0 30 24 30 67h72c0 -91 -40 -141 -103 -141zM262 0v272l-265 425h147l178 -305l180 305h148l-263 -425v-272h-125z" />
    <glyph glyph-name="Z" unicode="Z" horiz-adv-x="624" 
d="M589 697v-91l-391 -491h391v-115h-562v87l395 495h-372v115h539z" />
    <glyph glyph-name="Zacute" unicode="&#x179;" horiz-adv-x="624" 
d="M508 901l-152 -142h-88l111 142h129zM589 697v-91l-391 -491h391v-115h-562v87l395 495h-372v115h539z" />
    <glyph glyph-name="Zcaron" unicode="&#x17d;" horiz-adv-x="624" 
d="M468 901l-156 -164l-156 164h93l63 -67l63 67h93zM589 697v-91l-391 -491h391v-115h-562v87l395 495h-372v115h539z" />
    <glyph glyph-name="Zdotaccent" unicode="&#x17b;" horiz-adv-x="624" 
d="M375 901v-111h-126v111h126zM589 697v-91l-391 -491h391v-115h-562v87l395 495h-372v115h539z" />
    <glyph glyph-name="uni1EB6.ss03" horiz-adv-x="659" 
d="M330 768c-108 0 -156 47 -156 133h85c0 -43 32 -63 71 -63c41 0 71 22 71 63h85c0 -90 -53 -133 -156 -133zM655 0h-136l-53 144h-273l-53 -144h-136l279 697h94zM236 259h188l-94 254zM330 -41c42 0 74 -32 74 -74s-32 -75 -74 -75c-41 0 -74 33 -74 75s32 74 74 74z
" />
    <glyph glyph-name="uni1EAC.ss03" horiz-adv-x="659" 
d="M330 817l-63 -72h-93l156 174l156 -174h-93zM655 0h-136l-53 144h-273l-53 -144h-136l279 697h94zM236 259h188l-94 254zM330 -41c42 0 74 -32 74 -74s-32 -75 -74 -75c-41 0 -74 33 -74 75s32 74 74 74z" />
    <glyph glyph-name="Adieresis.ss03" horiz-adv-x="659" 
d="M232 762c-41 0 -74 33 -74 75s32 74 74 74s74 -32 74 -74s-32 -75 -74 -75zM428 762c-41 0 -74 33 -74 75s32 74 74 74s74 -32 74 -74s-32 -75 -74 -75zM519 0l-53 144h-273l-53 -144h-136l279 697h94l278 -697h-136zM236 259h188l-94 254z" />
    <glyph glyph-name="uni1EA0.ss03" horiz-adv-x="659" 
d="M655 0h-136l-53 144h-273l-53 -144h-136l279 697h94zM236 259h188l-94 254zM330 -41c42 0 74 -32 74 -74s-32 -75 -74 -75c-41 0 -74 33 -74 75s32 74 74 74z" />
    <glyph glyph-name="Cdotaccent.ss03" horiz-adv-x="711" 
d="M383 762c-41 0 -74 33 -74 75s32 74 74 74s74 -32 74 -74s-32 -75 -74 -75zM378 -15c-206 0 -338 141 -338 364s132 364 338 364c147 0 258 -71 309 -204l-115 -45c-31 87 -99 130 -194 130c-135 0 -213 -88 -213 -244c0 -157 79 -246 213 -246c96 0 164 45 194 133
l117 -44c-50 -135 -162 -208 -311 -208z" />
    <glyph glyph-name="uni1EC6.ss03" horiz-adv-x="610" 
d="M164 745l156 174l156 -174h-93l-63 72l-63 -72h-93zM88 0v697h464v-115h-339v-166h315v-115h-315v-186h339v-115h-464zM320 -190c-41 0 -74 33 -74 75s32 74 74 74s74 -32 74 -74s-32 -75 -74 -75z" />
    <glyph glyph-name="Edieresis.ss03" horiz-adv-x="610" 
d="M222 762c-41 0 -74 33 -74 75s32 74 74 74s74 -32 74 -74s-32 -75 -74 -75zM418 762c-41 0 -74 33 -74 75s32 74 74 74s74 -32 74 -74s-32 -75 -74 -75zM88 0v697h464v-115h-339v-166h315v-115h-315v-186h339v-115h-464z" />
    <glyph glyph-name="Edotaccent.ss03" horiz-adv-x="610" 
d="M320 762c-41 0 -74 33 -74 75s32 74 74 74s74 -32 74 -74s-32 -75 -74 -75zM88 0v697h464v-115h-339v-166h315v-115h-315v-186h339v-115h-464z" />
    <glyph glyph-name="uni1EB8.ss03" horiz-adv-x="610" 
d="M88 0v697h464v-115h-339v-166h315v-115h-315v-186h339v-115h-464zM320 -190c-41 0 -74 33 -74 75s32 74 74 74s74 -32 74 -74s-32 -75 -74 -75z" />
    <glyph glyph-name="Gdotaccent.ss03" horiz-adv-x="755" 
d="M376 762c-41 0 -74 33 -74 75s32 74 74 74s74 -32 74 -74s-32 -75 -74 -75zM412 377h280v-377h-89l-15 72c-41 -56 -116 -87 -206 -87c-195 0 -344 144 -344 365c0 207 131 363 340 363c142 0 256 -72 307 -204l-115 -45c-31 86 -100 130 -194 130
c-134 0 -213 -90 -213 -243c0 -159 85 -247 227 -247c112 0 178 55 178 149v9h-156v115z" />
    <glyph glyph-name="Idieresis.ss03" horiz-adv-x="301" 
d="M53 762c-41 0 -74 33 -74 75s32 74 74 74s74 -32 74 -74s-32 -75 -74 -75zM249 762c-41 0 -74 33 -74 75s32 74 74 74s74 -32 74 -74s-32 -75 -74 -75zM88 0v697h125v-697h-125z" />
    <glyph glyph-name="uni1ECA.ss03" horiz-adv-x="301" 
d="M88 0v697h125v-697h-125zM151 -190c-41 0 -74 33 -74 75s32 74 74 74s74 -32 74 -74s-32 -75 -74 -75z" />
    <glyph glyph-name="uni1ED8.ss03" horiz-adv-x="744" 
d="M216 745l156 174l156 -174h-93l-63 72l-63 -72h-93zM372 -15c-198 0 -333 145 -333 363c0 219 135 364 333 364c199 0 333 -145 333 -364c0 -218 -135 -363 -333 -363zM372 104c127 0 208 94 208 244c0 151 -81 245 -208 245s-208 -93 -208 -245c0 -151 81 -244 208 -244
zM372 -190c-41 0 -74 33 -74 75s32 74 74 74s74 -32 74 -74s-32 -75 -74 -75z" />
    <glyph glyph-name="Odieresis.ss03" horiz-adv-x="744" 
d="M274 762c-41 0 -74 33 -74 75s32 74 74 74s74 -32 74 -74s-32 -75 -74 -75zM470 762c-41 0 -74 33 -74 75s32 74 74 74s74 -32 74 -74s-32 -75 -74 -75zM372 -15c-198 0 -333 145 -333 363c0 219 135 364 333 364c199 0 333 -145 333 -364c0 -218 -135 -363 -333 -363z
M372 104c127 0 208 94 208 244c0 151 -81 245 -208 245s-208 -93 -208 -245c0 -151 81 -244 208 -244z" />
    <glyph glyph-name="uni1ECC.ss03" horiz-adv-x="744" 
d="M372 -15c-198 0 -333 145 -333 363c0 219 135 364 333 364c199 0 333 -145 333 -364c0 -218 -135 -363 -333 -363zM372 104c127 0 208 94 208 244c0 151 -81 245 -208 245s-208 -93 -208 -245c0 -151 81 -244 208 -244zM372 -190c-41 0 -74 33 -74 75s32 74 74 74
s74 -32 74 -74s-32 -75 -74 -75z" />
    <glyph glyph-name="uni1EE2.ss03" horiz-adv-x="744" 
d="M674 697h91v-39c0 -68 -25 -128 -87 -153c18 -46 27 -99 27 -157c0 -218 -135 -363 -333 -363s-333 145 -333 363c0 219 135 364 333 364c116 0 210 -49 268 -134c27 14 34 46 34 70v49zM372 104c127 0 208 94 208 244c0 151 -81 245 -208 245s-208 -93 -208 -245
c0 -151 81 -244 208 -244zM372 -41c42 0 74 -32 74 -74s-32 -75 -74 -75c-41 0 -74 33 -74 75s32 74 74 74z" />
    <glyph glyph-name="Udieresis.ss03" horiz-adv-x="681" 
d="M243 762c-41 0 -74 33 -74 75s32 74 74 74s74 -32 74 -74s-32 -75 -74 -75zM439 762c-41 0 -74 33 -74 75s32 74 74 74s74 -32 74 -74s-32 -75 -74 -75zM340 -15c-175 0 -266 89 -266 267v445h125v-431c0 -118 38 -160 141 -160s142 43 142 160v431h125v-440
c0 -181 -91 -272 -267 -272z" />
    <glyph glyph-name="uni01D7.ss03" horiz-adv-x="681" 
d="M297 973l111 142h129l-152 -142h-88zM243 762c-41 0 -74 33 -74 75s32 74 74 74s74 -32 74 -74s-32 -75 -74 -75zM439 762c-41 0 -74 33 -74 75s32 74 74 74s74 -32 74 -74s-32 -75 -74 -75zM340 -15c-175 0 -266 89 -266 267v445h125v-431c0 -118 38 -160 141 -160
s142 43 142 160v431h125v-440c0 -181 -91 -272 -267 -272z" />
    <glyph glyph-name="uni01D9.ss03" horiz-adv-x="681" 
d="M341 951l-156 164h93l63 -67l63 67h93zM243 762c-41 0 -74 33 -74 75s32 74 74 74s74 -32 74 -74s-32 -75 -74 -75zM439 762c-41 0 -74 33 -74 75s32 74 74 74s74 -32 74 -74s-32 -75 -74 -75zM340 -15c-175 0 -266 89 -266 267v445h125v-431c0 -118 38 -160 141 -160
s142 43 142 160v431h125v-440c0 -181 -91 -272 -267 -272z" />
    <glyph glyph-name="uni01DB.ss03" horiz-adv-x="681" 
d="M296 973l-142 142h128l104 -142h-90zM243 762c-41 0 -74 33 -74 75s32 74 74 74s74 -32 74 -74s-32 -75 -74 -75zM439 762c-41 0 -74 33 -74 75s32 74 74 74s74 -32 74 -74s-32 -75 -74 -75zM340 -15c-175 0 -266 89 -266 267v445h125v-431c0 -118 38 -160 141 -160
s142 43 142 160v431h125v-440c0 -181 -91 -272 -267 -272z" />
    <glyph glyph-name="uni01D5.ss03" horiz-adv-x="681" 
d="M203 984v70h275v-70h-275zM243 762c-41 0 -74 33 -74 75s32 74 74 74s74 -32 74 -74s-32 -75 -74 -75zM439 762c-41 0 -74 33 -74 75s32 74 74 74s74 -32 74 -74s-32 -75 -74 -75zM340 -15c-175 0 -266 89 -266 267v445h125v-431c0 -118 38 -160 141 -160s142 43 142 160
v431h125v-440c0 -181 -91 -272 -267 -272z" />
    <glyph glyph-name="uni1EE4.ss03" horiz-adv-x="681" 
d="M340 -15c-175 0 -266 89 -266 267v445h125v-431c0 -118 38 -160 141 -160s142 43 142 160v431h125v-440c0 -181 -91 -272 -267 -272zM341 -190c-41 0 -74 33 -74 75s32 74 74 74s74 -32 74 -74s-32 -75 -74 -75z" />
    <glyph glyph-name="uni1EF0.ss03" horiz-adv-x="681" 
d="M663 697h91v-39c0 -88 -42 -161 -147 -165v-236c0 -181 -91 -272 -267 -272c-175 0 -266 89 -266 267v445h125v-431c0 -118 38 -160 141 -160s142 43 142 160v431h125v-125c46 5 56 47 56 76v49zM341 -41c42 0 74 -32 74 -74s-32 -75 -74 -75c-41 0 -74 33 -74 75
s32 74 74 74z" />
    <glyph glyph-name="Wdieresis.ss03" horiz-adv-x="986" 
d="M395 762c-41 0 -74 33 -74 75s32 74 74 74s74 -32 74 -74s-32 -75 -74 -75zM591 762c-41 0 -74 33 -74 75s32 74 74 74s74 -32 74 -74s-32 -75 -74 -75zM220 0l-209 697h130l147 -506l151 466h107l152 -466l146 506h131l-209 -697h-122l-151 459l-152 -459h-121z" />
    <glyph glyph-name="Ydieresis.ss03" horiz-adv-x="647" 
d="M226 762c-41 0 -74 33 -74 75s32 74 74 74s74 -32 74 -74s-32 -75 -74 -75zM422 762c-41 0 -74 33 -74 75s32 74 74 74s74 -32 74 -74s-32 -75 -74 -75zM262 0v272l-265 425h147l178 -305l180 305h148l-263 -425v-272h-125z" />
    <glyph glyph-name="uni1EF4.ss03" horiz-adv-x="647" 
d="M262 0v272l-265 425h147l178 -305l180 305h148l-263 -425v-272h-125zM324 -190c-41 0 -74 33 -74 75s32 74 74 74s74 -32 74 -74s-32 -75 -74 -75z" />
    <glyph glyph-name="Zdotaccent.ss03" horiz-adv-x="624" 
d="M312 762c-41 0 -74 33 -74 75s32 74 74 74s74 -32 74 -74s-32 -75 -74 -75zM589 697v-91l-391 -491h391v-115h-562v87l395 495h-372v115h539z" />
    <glyph glyph-name="a" unicode="a" horiz-adv-x="528" 
d="M261 503c130 0 211 -73 211 -192v-311h-110l-10 64c-29 -46 -85 -74 -150 -74c-104 0 -178 67 -178 161c0 58 26 102 74 124c33 15 75 22 131 22h123v14c0 54 -36 87 -93 87c-50 0 -97 -26 -133 -74l-87 73c59 71 132 106 222 106zM221 92c72 0 131 51 131 115h-107
c-41 0 -65 -5 -81 -17c-13 -9 -20 -23 -20 -41c0 -35 29 -57 77 -57z" />
    <glyph glyph-name="aacute" unicode="&#xe1;" horiz-adv-x="528" 
d="M454 697l-152 -142h-88l111 142h129zM261 503c130 0 211 -73 211 -192v-311h-110l-10 64c-29 -46 -85 -74 -150 -74c-104 0 -178 67 -178 161c0 58 26 102 74 124c33 15 75 22 131 22h123v14c0 54 -36 87 -93 87c-50 0 -97 -26 -133 -74l-87 73c59 71 132 106 222 106z
M221 92c72 0 131 51 131 115h-107c-41 0 -65 -5 -81 -17c-13 -9 -20 -23 -20 -41c0 -35 29 -57 77 -57z" />
    <glyph glyph-name="abreve" unicode="&#x103;" horiz-adv-x="528" 
d="M258 564c-108 0 -156 47 -156 133h85c0 -43 32 -63 71 -63c41 0 71 22 71 63h85c0 -90 -53 -133 -156 -133zM261 503c130 0 211 -73 211 -192v-311h-110l-10 64c-29 -46 -85 -74 -150 -74c-104 0 -178 67 -178 161c0 58 26 102 74 124c33 15 75 22 131 22h123v14
c0 54 -36 87 -93 87c-50 0 -97 -26 -133 -74l-87 73c59 71 132 106 222 106zM221 92c72 0 131 51 131 115h-107c-41 0 -65 -5 -81 -17c-13 -9 -20 -23 -20 -41c0 -35 29 -57 77 -57z" />
    <glyph glyph-name="uni1EAF" unicode="&#x1eaf;" horiz-adv-x="528" 
d="M454 901l-152 -142h-88l111 142h129zM258 564c-108 0 -156 47 -156 133h85c0 -43 32 -63 71 -63c41 0 71 22 71 63h85c0 -90 -53 -133 -156 -133zM261 503c130 0 211 -73 211 -192v-311h-110l-10 64c-29 -46 -85 -74 -150 -74c-104 0 -178 67 -178 161
c0 58 26 102 74 124c33 15 75 22 131 22h123v14c0 54 -36 87 -93 87c-50 0 -97 -26 -133 -74l-87 73c59 71 132 106 222 106zM221 92c72 0 131 51 131 115h-107c-41 0 -65 -5 -81 -17c-13 -9 -20 -23 -20 -41c0 -35 29 -57 77 -57z" />
    <glyph glyph-name="uni1EB7" unicode="&#x1eb7;" horiz-adv-x="528" 
d="M258 564c-108 0 -156 47 -156 133h85c0 -43 32 -63 71 -63c41 0 71 22 71 63h85c0 -90 -53 -133 -156 -133zM261 503c130 0 211 -73 211 -192v-311h-110l-10 64c-29 -46 -85 -74 -150 -74c-104 0 -178 67 -178 161c0 58 26 102 74 124c33 15 75 22 131 22h123v14
c0 54 -36 87 -93 87c-50 0 -97 -26 -133 -74l-87 73c59 71 132 106 222 106zM221 92c72 0 131 51 131 115h-107c-41 0 -65 -5 -81 -17c-13 -9 -20 -23 -20 -41c0 -35 29 -57 77 -57zM195 -173v111h126v-111h-126z" />
    <glyph glyph-name="uni1EB1" unicode="&#x1eb1;" horiz-adv-x="528" 
d="M303 759h-90l-142 142h128zM187 697c0 -43 32 -63 71 -63c41 0 71 22 71 63h85c0 -90 -53 -133 -156 -133c-108 0 -156 47 -156 133h85zM261 503c130 0 211 -73 211 -192v-311h-110l-10 64c-29 -46 -85 -74 -150 -74c-104 0 -178 67 -178 161c0 58 26 102 74 124
c33 15 75 22 131 22h123v14c0 54 -36 87 -93 87c-50 0 -97 -26 -133 -74l-87 73c59 71 132 106 222 106zM221 92c72 0 131 51 131 115h-107c-41 0 -65 -5 -81 -17c-13 -9 -20 -23 -20 -41c0 -35 29 -57 77 -57z" />
    <glyph glyph-name="uni1EB3" unicode="&#x1eb3;" horiz-adv-x="528" 
d="M295 823c0 33 -38 33 -74 33h-15v66h15c89 0 150 -34 150 -97c0 -69 -72 -81 -123 -89l-14 49c30 4 61 8 61 38zM258 564c-108 0 -156 47 -156 133h85c0 -43 32 -63 71 -63c41 0 71 22 71 63h85c0 -90 -53 -133 -156 -133zM261 503c130 0 211 -73 211 -192v-311h-110
l-10 64c-29 -46 -85 -74 -150 -74c-104 0 -178 67 -178 161c0 58 26 102 74 124c33 15 75 22 131 22h123v14c0 54 -36 87 -93 87c-50 0 -97 -26 -133 -74l-87 73c59 71 132 106 222 106zM221 92c72 0 131 51 131 115h-107c-41 0 -65 -5 -81 -17c-13 -9 -20 -23 -20 -41
c0 -35 29 -57 77 -57z" />
    <glyph glyph-name="uni1EB5" unicode="&#x1eb5;" horiz-adv-x="528" 
d="M192 830c-20 0 -32 -24 -32 -67h-69c0 90 41 141 106 141c69 0 90 -70 125 -70c17 0 30 24 30 67h72c0 -91 -40 -141 -103 -141c-78 0 -92 70 -129 70zM258 634c41 0 71 22 71 63h85c0 -90 -53 -133 -156 -133c-108 0 -156 47 -156 133h85c0 -43 32 -63 71 -63zM261 503
c130 0 211 -73 211 -192v-311h-110l-10 64c-29 -46 -85 -74 -150 -74c-104 0 -178 67 -178 161c0 58 26 102 74 124c33 15 75 22 131 22h123v14c0 54 -36 87 -93 87c-50 0 -97 -26 -133 -74l-87 73c59 71 132 106 222 106zM221 92c72 0 131 51 131 115h-107
c-41 0 -65 -5 -81 -17c-13 -9 -20 -23 -20 -41c0 -35 29 -57 77 -57z" />
    <glyph glyph-name="uni01CE" unicode="&#x1ce;" horiz-adv-x="528" 
d="M414 697l-156 -164l-156 164h93l63 -67l63 67h93zM261 503c130 0 211 -73 211 -192v-311h-110l-10 64c-29 -46 -85 -74 -150 -74c-104 0 -178 67 -178 161c0 58 26 102 74 124c33 15 75 22 131 22h123v14c0 54 -36 87 -93 87c-50 0 -97 -26 -133 -74l-87 73
c59 71 132 106 222 106zM221 92c72 0 131 51 131 115h-107c-41 0 -65 -5 -81 -17c-13 -9 -20 -23 -20 -41c0 -35 29 -57 77 -57z" />
    <glyph glyph-name="acircumflex" unicode="&#xe2;" horiz-adv-x="528" 
d="M258 613l-63 -72h-93l156 174l156 -174h-93zM261 503c130 0 211 -73 211 -192v-311h-110l-10 64c-29 -46 -85 -74 -150 -74c-104 0 -178 67 -178 161c0 58 26 102 74 124c33 15 75 22 131 22h123v14c0 54 -36 87 -93 87c-50 0 -97 -26 -133 -74l-87 73
c59 71 132 106 222 106zM221 92c72 0 131 51 131 115h-107c-41 0 -65 -5 -81 -17c-13 -9 -20 -23 -20 -41c0 -35 29 -57 77 -57z" />
    <glyph glyph-name="uni1EA5" unicode="&#x1ea5;" horiz-adv-x="528" 
d="M454 885l-152 -142h-88l111 142h129zM258 613l-63 -72h-93l156 174l156 -174h-93zM261 503c130 0 211 -73 211 -192v-311h-110l-10 64c-29 -46 -85 -74 -150 -74c-104 0 -178 67 -178 161c0 58 26 102 74 124c33 15 75 22 131 22h123v14c0 54 -36 87 -93 87
c-50 0 -97 -26 -133 -74l-87 73c59 71 132 106 222 106zM221 92c72 0 131 51 131 115h-107c-41 0 -65 -5 -81 -17c-13 -9 -20 -23 -20 -41c0 -35 29 -57 77 -57z" />
    <glyph glyph-name="uni1EAD" unicode="&#x1ead;" horiz-adv-x="528" 
d="M258 613l-63 -72h-93l156 174l156 -174h-93zM261 503c130 0 211 -73 211 -192v-311h-110l-10 64c-29 -46 -85 -74 -150 -74c-104 0 -178 67 -178 161c0 58 26 102 74 124c33 15 75 22 131 22h123v14c0 54 -36 87 -93 87c-50 0 -97 -26 -133 -74l-87 73
c59 71 132 106 222 106zM221 92c72 0 131 51 131 115h-107c-41 0 -65 -5 -81 -17c-13 -9 -20 -23 -20 -41c0 -35 29 -57 77 -57zM195 -173v111h126v-111h-126z" />
    <glyph glyph-name="uni1EA7" unicode="&#x1ea7;" horiz-adv-x="528" 
d="M303 743h-90l-142 142h128zM102 541l156 174l156 -174h-93l-63 72l-63 -72h-93zM261 503c130 0 211 -73 211 -192v-311h-110l-10 64c-29 -46 -85 -74 -150 -74c-104 0 -178 67 -178 161c0 58 26 102 74 124c33 15 75 22 131 22h123v14c0 54 -36 87 -93 87
c-50 0 -97 -26 -133 -74l-87 73c59 71 132 106 222 106zM221 92c72 0 131 51 131 115h-107c-41 0 -65 -5 -81 -17c-13 -9 -20 -23 -20 -41c0 -35 29 -57 77 -57z" />
    <glyph glyph-name="uni1EA9" unicode="&#x1ea9;" horiz-adv-x="528" 
d="M295 807c0 33 -38 33 -74 33h-15v66h15c89 0 150 -34 150 -97c0 -69 -72 -81 -123 -89l-14 49c30 4 61 8 61 38zM258 613l-63 -72h-93l156 174l156 -174h-93zM261 503c130 0 211 -73 211 -192v-311h-110l-10 64c-29 -46 -85 -74 -150 -74c-104 0 -178 67 -178 161
c0 58 26 102 74 124c33 15 75 22 131 22h123v14c0 54 -36 87 -93 87c-50 0 -97 -26 -133 -74l-87 73c59 71 132 106 222 106zM221 92c72 0 131 51 131 115h-107c-41 0 -65 -5 -81 -17c-13 -9 -20 -23 -20 -41c0 -35 29 -57 77 -57z" />
    <glyph glyph-name="uni1EAB" unicode="&#x1eab;" horiz-adv-x="528" 
d="M192 814c-20 0 -32 -24 -32 -67h-69c0 90 41 141 106 141c69 0 90 -70 125 -70c17 0 30 24 30 67h72c0 -91 -40 -141 -103 -141c-78 0 -92 70 -129 70zM102 541l156 174l156 -174h-93l-63 72l-63 -72h-93zM261 503c130 0 211 -73 211 -192v-311h-110l-10 64
c-29 -46 -85 -74 -150 -74c-104 0 -178 67 -178 161c0 58 26 102 74 124c33 15 75 22 131 22h123v14c0 54 -36 87 -93 87c-50 0 -97 -26 -133 -74l-87 73c59 71 132 106 222 106zM221 92c72 0 131 51 131 115h-107c-41 0 -65 -5 -81 -17c-13 -9 -20 -23 -20 -41
c0 -35 29 -57 77 -57z" />
    <glyph glyph-name="adieresis" unicode="&#xe4;" horiz-adv-x="528" 
d="M211 697v-111h-101v111h101zM406 697v-111h-101v111h101zM261 503c130 0 211 -73 211 -192v-311h-110l-10 64c-29 -46 -85 -74 -150 -74c-104 0 -178 67 -178 161c0 58 26 102 74 124c33 15 75 22 131 22h123v14c0 54 -36 87 -93 87c-50 0 -97 -26 -133 -74l-87 73
c59 71 132 106 222 106zM221 92c72 0 131 51 131 115h-107c-41 0 -65 -5 -81 -17c-13 -9 -20 -23 -20 -41c0 -35 29 -57 77 -57z" />
    <glyph glyph-name="uni1EA1" unicode="&#x1ea1;" horiz-adv-x="528" 
d="M261 503c130 0 211 -73 211 -192v-311h-110l-10 64c-29 -46 -85 -74 -150 -74c-104 0 -178 67 -178 161c0 58 26 102 74 124c33 15 75 22 131 22h123v14c0 54 -36 87 -93 87c-50 0 -97 -26 -133 -74l-87 73c59 71 132 106 222 106zM221 92c72 0 131 51 131 115h-107
c-41 0 -65 -5 -81 -17c-13 -9 -20 -23 -20 -41c0 -35 29 -57 77 -57zM195 -173v111h126v-111h-126z" />
    <glyph glyph-name="agrave" unicode="&#xe0;" horiz-adv-x="528" 
d="M303 555h-90l-142 142h128zM261 503c130 0 211 -73 211 -192v-311h-110l-10 64c-29 -46 -85 -74 -150 -74c-104 0 -178 67 -178 161c0 58 26 102 74 124c33 15 75 22 131 22h123v14c0 54 -36 87 -93 87c-50 0 -97 -26 -133 -74l-87 73c59 71 132 106 222 106zM221 92
c72 0 131 51 131 115h-107c-41 0 -65 -5 -81 -17c-13 -9 -20 -23 -20 -41c0 -35 29 -57 77 -57z" />
    <glyph glyph-name="uni1EA3" unicode="&#x1ea3;" horiz-adv-x="528" 
d="M295 619c0 33 -38 33 -74 33h-15v66h15c89 0 150 -34 150 -97c0 -69 -72 -81 -123 -89l-14 49c30 4 61 8 61 38zM261 503c130 0 211 -73 211 -192v-311h-110l-10 64c-29 -46 -85 -74 -150 -74c-104 0 -178 67 -178 161c0 58 26 102 74 124c33 15 75 22 131 22h123v14
c0 54 -36 87 -93 87c-50 0 -97 -26 -133 -74l-87 73c59 71 132 106 222 106zM221 92c72 0 131 51 131 115h-107c-41 0 -65 -5 -81 -17c-13 -9 -20 -23 -20 -41c0 -35 29 -57 77 -57z" />
    <glyph glyph-name="amacron" unicode="&#x101;" horiz-adv-x="528" 
d="M395 636v-70h-275v70h275zM261 503c130 0 211 -73 211 -192v-311h-110l-10 64c-29 -46 -85 -74 -150 -74c-104 0 -178 67 -178 161c0 58 26 102 74 124c33 15 75 22 131 22h123v14c0 54 -36 87 -93 87c-50 0 -97 -26 -133 -74l-87 73c59 71 132 106 222 106zM221 92
c72 0 131 51 131 115h-107c-41 0 -65 -5 -81 -17c-13 -9 -20 -23 -20 -41c0 -35 29 -57 77 -57z" />
    <glyph glyph-name="aogonek" unicode="&#x105;" horiz-adv-x="528" 
d="M456 -120l61 -42c-24 -35 -58 -60 -108 -60c-64 0 -112 40 -112 101c0 63 48 103 81 121h-16l-10 64c-29 -46 -85 -74 -150 -74c-104 0 -178 67 -178 161c0 58 26 102 74 124c33 15 75 22 131 22h123v14c0 54 -36 87 -93 87c-50 0 -97 -26 -133 -74l-87 73
c59 71 132 106 222 106c130 0 211 -73 211 -192v-311c-10 -4 -103 -38 -103 -109c0 -30 17 -39 37 -39c21 0 37 10 50 28zM221 92c72 0 131 51 131 115h-107c-41 0 -65 -5 -81 -17c-13 -9 -20 -23 -20 -41c0 -35 29 -57 77 -57z" />
    <glyph glyph-name="aring" unicode="&#xe5;" horiz-adv-x="528" 
d="M258 527c-64 0 -114 53 -114 114c0 63 51 114 114 114c61 0 114 -50 114 -114c0 -63 -51 -114 -114 -114zM258 690c-30 0 -49 -20 -49 -48c0 -29 21 -50 49 -50c29 0 49 21 49 50c0 28 -18 48 -49 48zM261 503c130 0 211 -73 211 -192v-311h-110l-10 64
c-29 -46 -85 -74 -150 -74c-104 0 -178 67 -178 161c0 58 26 102 74 124c33 15 75 22 131 22h123v14c0 54 -36 87 -93 87c-50 0 -97 -26 -133 -74l-87 73c59 71 132 106 222 106zM221 92c72 0 131 51 131 115h-107c-41 0 -65 -5 -81 -17c-13 -9 -20 -23 -20 -41
c0 -35 29 -57 77 -57z" />
    <glyph glyph-name="atilde" unicode="&#xe3;" horiz-adv-x="528" 
d="M192 626c-20 0 -32 -24 -32 -67h-69c0 90 41 141 106 141c69 0 90 -70 125 -70c17 0 30 24 30 67h72c0 -91 -40 -141 -103 -141c-78 0 -92 70 -129 70zM261 503c130 0 211 -73 211 -192v-311h-110l-10 64c-29 -46 -85 -74 -150 -74c-104 0 -178 67 -178 161
c0 58 26 102 74 124c33 15 75 22 131 22h123v14c0 54 -36 87 -93 87c-50 0 -97 -26 -133 -74l-87 73c59 71 132 106 222 106zM221 92c72 0 131 51 131 115h-107c-41 0 -65 -5 -81 -17c-13 -9 -20 -23 -20 -41c0 -35 29 -57 77 -57z" />
    <glyph glyph-name="ae" unicode="&#xe6;" horiz-adv-x="824" 
d="M208 -10c-121 0 -185 68 -185 159c0 145 161 145 227 145h104v17c0 55 -37 87 -93 87c-51 0 -98 -27 -133 -74l-87 73c54 67 132 106 227 106c74 0 132 -24 162 -67c37 39 80 62 151 62c151 0 213 -101 213 -236c0 -17 -1 -36 -3 -55h-326c7 -65 35 -106 112 -106
c49 0 86 17 117 51l84 -73c-59 -62 -124 -85 -201 -85c-89 0 -146 30 -180 79h-13c-51 -61 -107 -83 -176 -83zM464 294h219c0 23 -5 42 -14 58c-17 30 -53 46 -95 46c-77 0 -110 -55 -110 -104zM223 92c78 0 123 53 131 111v4h-97c-85 0 -111 -28 -111 -60s27 -55 77 -55z
" />
    <glyph glyph-name="b" unicode="b" horiz-adv-x="573" 
d="M333 503c121 0 208 -95 208 -256c0 -148 -74 -257 -208 -257c-53 0 -108 17 -142 59v-49h-120v697h120v-254c31 37 86 60 142 60zM304 101c80 0 117 54 117 145c0 92 -38 148 -118 148c-86 0 -123 -66 -123 -148s37 -145 124 -145z" />
    <glyph glyph-name="c" unicode="c" horiz-adv-x="494" 
d="M266 -10c-161 0 -239 125 -239 255s77 258 238 258c98 0 175 -47 213 -145l-114 -45c-13 52 -50 85 -99 85c-83 0 -115 -75 -115 -153s31 -150 115 -150c48 0 86 32 99 83l109 -42c-33 -92 -109 -146 -207 -146z" />
    <glyph glyph-name="cacute" unicode="&#x107;" horiz-adv-x="494" 
d="M203 555l111 142h129l-152 -142h-88zM266 -10c-161 0 -239 125 -239 255s77 258 238 258c98 0 175 -47 213 -145l-114 -45c-13 52 -50 85 -99 85c-83 0 -115 -75 -115 -153s31 -150 115 -150c48 0 86 32 99 83l109 -42c-33 -92 -109 -146 -207 -146z" />
    <glyph glyph-name="ccaron" unicode="&#x10d;" horiz-adv-x="494" 
d="M247 533l-156 164h93l63 -67l63 67h93zM266 -10c-161 0 -239 125 -239 255s77 258 238 258c98 0 175 -47 213 -145l-114 -45c-13 52 -50 85 -99 85c-83 0 -115 -75 -115 -153s31 -150 115 -150c48 0 86 32 99 83l109 -42c-33 -92 -109 -146 -207 -146z" />
    <glyph glyph-name="ccedilla" unicode="&#xe7;" horiz-adv-x="494" 
d="M265 95c48 0 86 32 99 83l109 -42c-32 -89 -105 -143 -199 -146l-30 -39c19 -4 35 -10 49 -18c29 -17 45 -45 45 -79c0 -63 -48 -112 -113 -112c-24 0 -57 7 -86 32l38 58c20 -18 39 -21 51 -21c24 0 40 16 40 40c0 29 -25 44 -54 49c-19 3 -41 4 -63 4l57 92
c-122 26 -181 136 -181 249c0 130 77 258 238 258c98 0 175 -47 213 -145l-114 -45c-13 52 -50 85 -99 85c-83 0 -115 -75 -115 -153s31 -150 115 -150z" />
    <glyph glyph-name="cdotaccent" unicode="&#x10b;" horiz-adv-x="494" 
d="M184 586v111h126v-111h-126zM266 -10c-161 0 -239 125 -239 255s77 258 238 258c98 0 175 -47 213 -145l-114 -45c-13 52 -50 85 -99 85c-83 0 -115 -75 -115 -153s31 -150 115 -150c48 0 86 32 99 83l109 -42c-33 -92 -109 -146 -207 -146z" />
    <glyph glyph-name="d" unicode="d" horiz-adv-x="573" 
d="M382 697h120v-697h-120v49c-34 -42 -89 -59 -142 -59c-134 0 -208 109 -208 257c0 161 87 256 208 256c56 0 111 -23 142 -60v254zM269 101c87 0 124 63 124 145s-37 148 -123 148c-80 0 -118 -56 -118 -148c0 -91 37 -145 117 -145z" />
    <glyph glyph-name="eth" unicode="&#xf0;" horiz-adv-x="581" 
d="M488 608c43 -61 58 -140 58 -231c0 -224 -108 -383 -293 -383c-145 0 -229 96 -229 228c0 163 129 274 263 274c48 0 95 -14 138 -43c0 49 -13 93 -41 127l-173 -46l-14 52l136 36c-34 19 -78 31 -133 33l9 80c109 -8 186 -37 238 -82l58 15l14 -52zM260 97
c107 0 168 93 168 175c0 66 -40 126 -126 126c-112 0 -166 -93 -166 -175c0 -86 59 -126 124 -126z" />
    <glyph glyph-name="dcaron" unicode="&#x10f;" horiz-adv-x="573" 
d="M382 443v254h120v-697h-120v49c-34 -42 -89 -59 -142 -59c-134 0 -208 109 -208 257c0 161 87 256 208 256c56 0 111 -23 142 -60zM581 697h126l-112 -224h-70zM269 101c87 0 124 63 124 145s-37 148 -123 148c-80 0 -118 -56 -118 -148c0 -91 37 -145 117 -145z" />
    <glyph glyph-name="dcroat" unicode="&#x111;" horiz-adv-x="573" 
d="M560 648v-80h-58v-568h-120v49c-34 -42 -89 -59 -142 -59c-134 0 -208 109 -208 257c0 161 87 256 208 256c56 0 111 -23 142 -60v125h-145v80h145v49h120v-49h58zM269 101c87 0 124 63 124 145s-37 148 -123 148c-80 0 -118 -56 -118 -148c0 -91 37 -145 117 -145z" />
    <glyph glyph-name="e" unicode="e" horiz-adv-x="519" 
d="M490 253c0 -15 -1 -30 -3 -46h-338c5 -65 45 -108 123 -108c44 0 84 14 118 53l83 -73c-54 -60 -119 -89 -202 -89c-170 0 -242 122 -242 254c0 129 70 259 234 259c153 0 227 -113 227 -250zM148 302h227c-2 63 -50 101 -113 101c-73 0 -107 -52 -114 -101z" />
    <glyph glyph-name="eacute" unicode="&#xe9;" horiz-adv-x="519" 
d="M460 697l-152 -142h-88l111 142h129zM490 253c0 -15 -1 -30 -3 -46h-338c5 -65 45 -108 123 -108c44 0 84 14 118 53l83 -73c-54 -60 -119 -89 -202 -89c-170 0 -242 122 -242 254c0 129 70 259 234 259c153 0 227 -113 227 -250zM148 302h227c-2 63 -50 101 -113 101
c-73 0 -107 -52 -114 -101z" />
    <glyph glyph-name="ecaron" unicode="&#x11b;" horiz-adv-x="519" 
d="M420 697l-156 -164l-156 164h93l63 -67l63 67h93zM490 253c0 -15 -1 -30 -3 -46h-338c5 -65 45 -108 123 -108c44 0 84 14 118 53l83 -73c-54 -60 -119 -89 -202 -89c-170 0 -242 122 -242 254c0 129 70 259 234 259c153 0 227 -113 227 -250zM148 302h227
c-2 63 -50 101 -113 101c-73 0 -107 -52 -114 -101z" />
    <glyph glyph-name="ecircumflex" unicode="&#xea;" horiz-adv-x="519" 
d="M264 613l-63 -72h-93l156 174l156 -174h-93zM490 253c0 -15 -1 -30 -3 -46h-338c5 -65 45 -108 123 -108c44 0 84 14 118 53l83 -73c-54 -60 -119 -89 -202 -89c-170 0 -242 122 -242 254c0 129 70 259 234 259c153 0 227 -113 227 -250zM148 302h227
c-2 63 -50 101 -113 101c-73 0 -107 -52 -114 -101z" />
    <glyph glyph-name="uni1EBF" unicode="&#x1ebf;" horiz-adv-x="519" 
d="M460 885l-152 -142h-88l111 142h129zM264 613l-63 -72h-93l156 174l156 -174h-93zM490 253c0 -15 -1 -30 -3 -46h-338c5 -65 45 -108 123 -108c44 0 84 14 118 53l83 -73c-54 -60 -119 -89 -202 -89c-170 0 -242 122 -242 254c0 129 70 259 234 259
c153 0 227 -113 227 -250zM148 302h227c-2 63 -50 101 -113 101c-73 0 -107 -52 -114 -101z" />
    <glyph glyph-name="uni1EC7" unicode="&#x1ec7;" horiz-adv-x="519" 
d="M264 613l-63 -72h-93l156 174l156 -174h-93zM490 253c0 -15 -1 -30 -3 -46h-338c5 -65 45 -108 123 -108c44 0 84 14 118 53l83 -73c-54 -60 -119 -89 -202 -89c-170 0 -242 122 -242 254c0 129 70 259 234 259c153 0 227 -113 227 -250zM148 302h227
c-2 63 -50 101 -113 101c-73 0 -107 -52 -114 -101zM208 -173v111h126v-111h-126z" />
    <glyph glyph-name="uni1EC1" unicode="&#x1ec1;" horiz-adv-x="519" 
d="M309 743h-90l-142 142h128zM108 541l156 174l156 -174h-93l-63 72l-63 -72h-93zM490 253c0 -15 -1 -30 -3 -46h-338c5 -65 45 -108 123 -108c44 0 84 14 118 53l83 -73c-54 -60 -119 -89 -202 -89c-170 0 -242 122 -242 254c0 129 70 259 234 259
c153 0 227 -113 227 -250zM148 302h227c-2 63 -50 101 -113 101c-73 0 -107 -52 -114 -101z" />
    <glyph glyph-name="uni1EC3" unicode="&#x1ec3;" horiz-adv-x="519" 
d="M301 807c0 33 -38 33 -74 33h-15v66h15c89 0 150 -34 150 -97c0 -69 -72 -81 -123 -89l-14 49c30 4 61 8 61 38zM264 613l-63 -72h-93l156 174l156 -174h-93zM490 253c0 -15 -1 -30 -3 -46h-338c5 -65 45 -108 123 -108c44 0 84 14 118 53l83 -73
c-54 -60 -119 -89 -202 -89c-170 0 -242 122 -242 254c0 129 70 259 234 259c153 0 227 -113 227 -250zM148 302h227c-2 63 -50 101 -113 101c-73 0 -107 -52 -114 -101z" />
    <glyph glyph-name="uni1EC5" unicode="&#x1ec5;" horiz-adv-x="519" 
d="M198 814c-20 0 -32 -24 -32 -67h-69c0 90 41 141 106 141c69 0 90 -70 125 -70c17 0 30 24 30 67h72c0 -91 -40 -141 -103 -141c-78 0 -92 70 -129 70zM108 541l156 174l156 -174h-93l-63 72l-63 -72h-93zM490 253c0 -15 -1 -30 -3 -46h-338c5 -65 45 -108 123 -108
c44 0 84 14 118 53l83 -73c-54 -60 -119 -89 -202 -89c-170 0 -242 122 -242 254c0 129 70 259 234 259c153 0 227 -113 227 -250zM148 302h227c-2 63 -50 101 -113 101c-73 0 -107 -52 -114 -101z" />
    <glyph glyph-name="edieresis" unicode="&#xeb;" horiz-adv-x="519" 
d="M217 697v-111h-101v111h101zM412 697v-111h-101v111h101zM490 253c0 -15 -1 -30 -3 -46h-338c5 -65 45 -108 123 -108c44 0 84 14 118 53l83 -73c-54 -60 -119 -89 -202 -89c-170 0 -242 122 -242 254c0 129 70 259 234 259c153 0 227 -113 227 -250zM148 302h227
c-2 63 -50 101 -113 101c-73 0 -107 -52 -114 -101z" />
    <glyph glyph-name="edotaccent" unicode="&#x117;" horiz-adv-x="519" 
d="M327 697v-111h-126v111h126zM490 253c0 -15 -1 -30 -3 -46h-338c5 -65 45 -108 123 -108c44 0 84 14 118 53l83 -73c-54 -60 -119 -89 -202 -89c-170 0 -242 122 -242 254c0 129 70 259 234 259c153 0 227 -113 227 -250zM148 302h227c-2 63 -50 101 -113 101
c-73 0 -107 -52 -114 -101z" />
    <glyph glyph-name="uni1EB9" unicode="&#x1eb9;" horiz-adv-x="519" 
d="M490 253c0 -15 -1 -30 -3 -46h-338c5 -65 45 -108 123 -108c44 0 84 14 118 53l83 -73c-54 -60 -119 -89 -202 -89c-170 0 -242 122 -242 254c0 129 70 259 234 259c153 0 227 -113 227 -250zM148 302h227c-2 63 -50 101 -113 101c-73 0 -107 -52 -114 -101zM208 -173
v111h126v-111h-126z" />
    <glyph glyph-name="egrave" unicode="&#xe8;" horiz-adv-x="519" 
d="M309 555h-90l-142 142h128zM490 253c0 -15 -1 -30 -3 -46h-338c5 -65 45 -108 123 -108c44 0 84 14 118 53l83 -73c-54 -60 -119 -89 -202 -89c-170 0 -242 122 -242 254c0 129 70 259 234 259c153 0 227 -113 227 -250zM148 302h227c-2 63 -50 101 -113 101
c-73 0 -107 -52 -114 -101z" />
    <glyph glyph-name="uni1EBB" unicode="&#x1ebb;" horiz-adv-x="519" 
d="M301 619c0 33 -38 33 -74 33h-15v66h15c89 0 150 -34 150 -97c0 -69 -72 -81 -123 -89l-14 49c30 4 61 8 61 38zM490 253c0 -15 -1 -30 -3 -46h-338c5 -65 45 -108 123 -108c44 0 84 14 118 53l83 -73c-54 -60 -119 -89 -202 -89c-170 0 -242 122 -242 254
c0 129 70 259 234 259c153 0 227 -113 227 -250zM148 302h227c-2 63 -50 101 -113 101c-73 0 -107 -52 -114 -101z" />
    <glyph glyph-name="emacron" unicode="&#x113;" horiz-adv-x="519" 
d="M401 636v-70h-275v70h275zM490 253c0 -15 -1 -30 -3 -46h-338c5 -65 45 -108 123 -108c44 0 84 14 118 53l83 -73c-54 -60 -119 -89 -202 -89c-170 0 -242 122 -242 254c0 129 70 259 234 259c153 0 227 -113 227 -250zM148 302h227c-2 63 -50 101 -113 101
c-73 0 -107 -52 -114 -101z" />
    <glyph glyph-name="eogonek" unicode="&#x119;" horiz-adv-x="519" 
d="M490 253c0 -15 -1 -30 -3 -46h-338c5 -65 45 -108 123 -108c44 0 84 14 118 53l83 -73c-32 -36 -69 -61 -110 -75c-30 -13 -87 -46 -87 -102c0 -30 17 -39 37 -39c21 0 37 10 50 28l61 -42c-24 -35 -58 -60 -108 -60c-64 0 -112 40 -112 101c0 45 25 78 51 100
c-159 8 -226 126 -226 254c0 129 70 259 234 259c153 0 227 -113 227 -250zM148 302h227c-2 63 -50 101 -113 101c-73 0 -107 -52 -114 -101z" />
    <glyph glyph-name="uni1EBD" unicode="&#x1ebd;" horiz-adv-x="519" 
d="M198 626c-20 0 -32 -24 -32 -67h-69c0 90 41 141 106 141c69 0 90 -70 125 -70c17 0 30 24 30 67h72c0 -91 -40 -141 -103 -141c-78 0 -92 70 -129 70zM490 253c0 -15 -1 -30 -3 -46h-338c5 -65 45 -108 123 -108c44 0 84 14 118 53l83 -73c-54 -60 -119 -89 -202 -89
c-170 0 -242 122 -242 254c0 129 70 259 234 259c153 0 227 -113 227 -250zM148 302h227c-2 63 -50 101 -113 101c-73 0 -107 -52 -114 -101z" />
    <glyph glyph-name="f" unicode="f" horiz-adv-x="331" 
d="M99 0v398h-94v95h95v56c0 125 71 158 149 158c38 0 67 -8 93 -20l-39 -92c-11 7 -25 12 -41 12c-43 0 -43 -39 -43 -57v-57h115v-95h-115v-398h-120z" />
    <glyph glyph-name="g" unicode="g" horiz-adv-x="514" 
d="M259 75c100 -13 229 -24 229 -142c0 -103 -94 -147 -227 -147c-147 0 -231 54 -231 156c0 12 1 17 2 22l71 45c-35 19 -59 50 -59 101c0 43 17 74 46 99c-25 31 -40 70 -40 113c0 107 92 181 202 181c43 0 83 -11 116 -31l75 64l63 -76l-71 -58c13 -25 21 -54 21 -86
c0 -110 -92 -180 -200 -180c-34 0 -66 7 -95 19c-9 -6 -14 -14 -14 -26c0 -36 50 -46 112 -54zM254 403c-51 0 -84 -34 -84 -84c0 -47 28 -85 84 -85c55 0 82 37 82 85c0 51 -31 84 -82 84zM266 -124c51 0 102 12 102 46c0 38 -63 42 -134 52l-41 6l-43 -41
c-1 -3 -1 -6 -1 -8c0 -42 61 -55 117 -55z" />
    <glyph glyph-name="gbreve" unicode="&#x11f;" horiz-adv-x="514" 
d="M256 564c-108 0 -156 47 -156 133h85c0 -43 32 -63 71 -63c41 0 71 22 71 63h85c0 -90 -53 -133 -156 -133zM259 75c100 -13 229 -24 229 -142c0 -103 -94 -147 -227 -147c-147 0 -231 54 -231 156c0 12 1 17 2 22l71 45c-35 19 -59 50 -59 101c0 43 17 74 46 99
c-25 31 -40 70 -40 113c0 107 92 181 202 181c43 0 83 -11 116 -31l75 64l63 -76l-71 -58c13 -25 21 -54 21 -86c0 -110 -92 -180 -200 -180c-34 0 -66 7 -95 19c-9 -6 -14 -14 -14 -26c0 -36 50 -46 112 -54zM254 403c-51 0 -84 -34 -84 -84c0 -47 28 -85 84 -85
c55 0 82 37 82 85c0 51 -31 84 -82 84zM266 -124c51 0 102 12 102 46c0 38 -63 42 -134 52l-41 6l-43 -41c-1 -3 -1 -6 -1 -8c0 -42 61 -55 117 -55z" />
    <glyph glyph-name="uni0123" unicode="&#x123;" horiz-adv-x="514" 
d="M352 707l-67 -155h-125l122 155h70zM259 75c100 -13 229 -24 229 -142c0 -103 -94 -147 -227 -147c-147 0 -231 54 -231 156c0 12 1 17 2 22l71 45c-35 19 -59 50 -59 101c0 43 17 74 46 99c-25 31 -40 70 -40 113c0 107 92 181 202 181c43 0 83 -11 116 -31l75 64
l63 -76l-71 -58c13 -25 21 -54 21 -86c0 -110 -92 -180 -200 -180c-34 0 -66 7 -95 19c-9 -6 -14 -14 -14 -26c0 -36 50 -46 112 -54zM254 403c-51 0 -84 -34 -84 -84c0 -47 28 -85 84 -85c55 0 82 37 82 85c0 51 -31 84 -82 84zM266 -124c51 0 102 12 102 46
c0 38 -63 42 -134 52l-41 6l-43 -41c-1 -3 -1 -6 -1 -8c0 -42 61 -55 117 -55z" />
    <glyph glyph-name="gdotaccent" unicode="&#x121;" horiz-adv-x="514" 
d="M319 697v-111h-126v111h126zM259 75c100 -13 229 -24 229 -142c0 -103 -94 -147 -227 -147c-147 0 -231 54 -231 156c0 12 1 17 2 22l71 45c-35 19 -59 50 -59 101c0 43 17 74 46 99c-25 31 -40 70 -40 113c0 107 92 181 202 181c43 0 83 -11 116 -31l75 64l63 -76
l-71 -58c13 -25 21 -54 21 -86c0 -110 -92 -180 -200 -180c-34 0 -66 7 -95 19c-9 -6 -14 -14 -14 -26c0 -36 50 -46 112 -54zM254 403c-51 0 -84 -34 -84 -84c0 -47 28 -85 84 -85c55 0 82 37 82 85c0 51 -31 84 -82 84zM266 -124c51 0 102 12 102 46c0 38 -63 42 -134 52
l-41 6l-43 -41c-1 -3 -1 -6 -1 -8c0 -42 61 -55 117 -55z" />
    <glyph glyph-name="h" unicode="h" horiz-adv-x="573" 
d="M340 503c111 0 174 -67 174 -185v-318h-120v288c0 75 -29 110 -91 110c-79 0 -112 -59 -112 -201v-197h-120v697h120v-260c33 43 84 66 149 66z" />
    <glyph glyph-name="hbar" unicode="&#x127;" horiz-adv-x="573" 
d="M340 503c111 0 174 -67 174 -185v-318h-120v288c0 75 -29 110 -91 110c-79 0 -112 -59 -112 -201v-197h-120v568h-50v80h50v49h120v-49h153v-80h-153v-131c33 43 84 66 149 66z" />
    <glyph glyph-name="i" unicode="i" horiz-adv-x="260" 
d="M67 586v111h126v-111h-126zM70 0v493h120v-493h-120z" />
    <glyph glyph-name="dotlessi" unicode="&#x131;" horiz-adv-x="260" 
d="M70 0v493h120v-493h-120z" />
    <glyph glyph-name="iacute" unicode="&#xed;" horiz-adv-x="260" 
d="M86 555l111 142h129l-152 -142h-88zM70 0v493h120v-493h-120z" />
    <glyph glyph-name="uni01D0" unicode="&#x1d0;" horiz-adv-x="260" 
d="M130 533l-156 164h93l63 -67l63 67h93zM70 0v493h120v-493h-120z" />
    <glyph glyph-name="icircumflex" unicode="&#xee;" horiz-adv-x="260" 
d="M-26 541l156 174l156 -174h-93l-63 72l-63 -72h-93zM70 0v493h120v-493h-120z" />
    <glyph glyph-name="idieresis" unicode="&#xef;" horiz-adv-x="260" 
d="M-18 586v111h101v-111h-101zM177 586v111h101v-111h-101zM70 0v493h120v-493h-120z" />
    <glyph glyph-name="i.loclTRK" horiz-adv-x="260" 
d="M67 586v111h126v-111h-126zM70 0v493h120v-493h-120z" />
    <glyph glyph-name="uni1ECB" unicode="&#x1ecb;" horiz-adv-x="260" 
d="M67 586v111h126v-111h-126zM70 0v493h120v-493h-120zM67 -173v111h126v-111h-126z" />
    <glyph glyph-name="igrave" unicode="&#xec;" horiz-adv-x="260" 
d="M85 555l-142 142h128l104 -142h-90zM70 0v493h120v-493h-120z" />
    <glyph glyph-name="uni1EC9" unicode="&#x1ec9;" horiz-adv-x="260" 
d="M120 532l-14 49c30 4 61 8 61 38c0 33 -38 33 -74 33h-15v66h15c89 0 150 -34 150 -97c0 -69 -72 -81 -123 -89zM70 0v493h120v-493h-120z" />
    <glyph glyph-name="imacron" unicode="&#x12b;" horiz-adv-x="260" 
d="M-8 566v70h275v-70h-275zM70 0v493h120v-493h-120z" />
    <glyph glyph-name="iogonek" unicode="&#x12f;" horiz-adv-x="260" 
d="M193 697v-111h-126v111h126zM174 -120l61 -42c-24 -35 -58 -60 -108 -60c-64 0 -112 40 -112 101c0 63 48 103 81 121h-26v493h120v-493c-10 -4 -103 -38 -103 -109c0 -30 17 -39 37 -39c21 0 37 10 50 28z" />
    <glyph glyph-name="itilde" unicode="&#x129;" horiz-adv-x="260" 
d="M193 556c-78 0 -92 70 -129 70c-20 0 -32 -24 -32 -67h-69c0 90 41 141 106 141c69 0 90 -70 125 -70c17 0 30 24 30 67h72c0 -91 -40 -141 -103 -141zM70 0v493h120v-493h-120z" />
    <glyph glyph-name="j" unicode="j" horiz-adv-x="262" 
d="M68 586v111h126v-111h-126zM75 -214c-23 0 -50 5 -77 15v96c14 -4 27 -6 38 -6c22 0 35 9 35 31v571h120v-579c0 -88 -49 -128 -116 -128z" />
    <glyph glyph-name="uni0237" unicode="&#x237;" horiz-adv-x="262" 
d="M75 -214c-23 0 -50 5 -77 15v96c14 -4 27 -6 38 -6c22 0 35 9 35 31v571h120v-579c0 -88 -49 -128 -116 -128z" />
    <glyph glyph-name="k" unicode="k" horiz-adv-x="548" 
d="M71 0v697h120v-404l181 200h161l-184 -191l205 -302h-143l-144 228l-76 -84v-144h-120z" />
    <glyph glyph-name="uni0137" unicode="&#x137;" horiz-adv-x="548" 
d="M71 0v697h120v-404l181 200h161l-184 -191l205 -302h-143l-144 228l-76 -84v-144h-120zM171 -226l67 173h125l-122 -173h-70z" />
    <glyph glyph-name="kgreenlandic" unicode="&#x138;" horiz-adv-x="547" 
d="M70 0v493h120v-205l186 205h156l-184 -191l205 -302h-143l-144 228l-76 -84v-144h-120z" />
    <glyph glyph-name="l" unicode="l" horiz-adv-x="278" 
d="M181 -10c-67 0 -116 40 -116 128v579h120v-571c0 -22 13 -31 35 -31c11 0 24 2 38 6v-96c-27 -10 -54 -15 -77 -15z" />
    <glyph glyph-name="lacute" unicode="&#x13a;" horiz-adv-x="278" 
d="M81 759l111 142h129l-152 -142h-88zM181 -10c-67 0 -116 40 -116 128v579h120v-571c0 -22 13 -31 35 -31c11 0 24 2 38 6v-96c-27 -10 -54 -15 -77 -15z" />
    <glyph glyph-name="lcaron" unicode="&#x13e;" horiz-adv-x="278" 
d="M181 -10c-67 0 -116 40 -116 128v579h120v-571c0 -22 13 -31 35 -31c11 0 24 2 38 6v-96c-27 -10 -54 -15 -77 -15zM215 473l56 224h126l-112 -224h-70z" />
    <glyph glyph-name="uni013C" unicode="&#x13c;" horiz-adv-x="278" 
d="M181 -10c-67 0 -116 40 -116 128v579h120v-571c0 -22 13 -31 35 -31c11 0 24 2 38 6v-96c-27 -10 -54 -15 -77 -15zM28 -226l67 173h125l-122 -173h-70z" />
    <glyph glyph-name="lslash" unicode="&#x142;" horiz-adv-x="278" 
d="M220 95c11 0 24 2 38 6v-96c-27 -10 -54 -15 -77 -15c-67 0 -116 40 -116 128v123l-55 -44v124l55 43v333h120v-238l57 45v-122l-57 -45v-211c0 -22 13 -31 35 -31z" />
    <glyph glyph-name="m" unicode="m" horiz-adv-x="851" 
d="M621 503c119 0 172 -90 172 -189v-314h-120v278c0 39 -5 120 -84 120c-101 0 -97 -111 -97 -210v-188h-120v278c0 39 -5 120 -83 120c-101 0 -98 -111 -98 -210v-188h-120l-1 493h116v-62c32 55 83 72 132 72c54 0 114 -21 144 -97c38 74 95 97 159 97z" />
    <glyph glyph-name="n" unicode="n" horiz-adv-x="572" 
d="M339 503c111 0 174 -68 174 -185v-318h-120v288c0 34 0 110 -91 110c-112 0 -112 -113 -112 -201v-197h-120v493h120v-57c35 47 89 67 149 67z" />
    <glyph glyph-name="nacute" unicode="&#x144;" horiz-adv-x="572" 
d="M481 697l-152 -142h-88l111 142h129zM339 503c111 0 174 -68 174 -185v-318h-120v288c0 34 0 110 -91 110c-112 0 -112 -113 -112 -201v-197h-120v493h120v-57c35 47 89 67 149 67z" />
    <glyph glyph-name="napostrophe" unicode="&#x149;" horiz-adv-x="673" 
d="M58 697h139l-126 -279h-79zM440 503c111 0 174 -68 174 -185v-318h-120v288c0 34 0 110 -91 110c-112 0 -112 -113 -112 -201v-197h-120v493h120v-57c35 47 89 67 149 67z" />
    <glyph glyph-name="ncaron" unicode="&#x148;" horiz-adv-x="572" 
d="M441 697l-156 -164l-156 164h93l63 -67l63 67h93zM339 503c111 0 174 -68 174 -185v-318h-120v288c0 34 0 110 -91 110c-112 0 -112 -113 -112 -201v-197h-120v493h120v-57c35 47 89 67 149 67z" />
    <glyph glyph-name="uni0146" unicode="&#x146;" horiz-adv-x="572" 
d="M339 503c111 0 174 -68 174 -185v-318h-120v288c0 34 0 110 -91 110c-112 0 -112 -113 -112 -201v-197h-120v493h120v-57c35 47 89 67 149 67zM155 -226l67 173h125l-122 -173h-70z" />
    <glyph glyph-name="eng" unicode="&#x14b;" horiz-adv-x="572" 
d="M339 503c111 0 174 -68 174 -185v-404c0 -88 -47 -128 -114 -128c-24 0 -51 5 -79 15v96c14 -4 27 -6 38 -6c22 0 35 9 35 31v366c0 34 0 110 -91 110c-112 0 -112 -113 -112 -201v-197h-120v493h120v-57c35 47 89 67 149 67z" />
    <glyph glyph-name="ntilde" unicode="&#xf1;" horiz-adv-x="572" 
d="M219 626c-20 0 -32 -24 -32 -67h-69c0 90 41 141 106 141c69 0 90 -70 125 -70c17 0 30 24 30 67h72c0 -91 -40 -141 -103 -141c-78 0 -92 70 -129 70zM339 503c111 0 174 -68 174 -185v-318h-120v288c0 34 0 110 -91 110c-112 0 -112 -113 -112 -201v-197h-120v493h120
v-57c35 47 89 67 149 67z" />
    <glyph glyph-name="o" unicode="o" horiz-adv-x="546" 
d="M273 -10c-153 0 -247 118 -247 257c0 140 94 256 247 256c152 0 247 -116 247 -256c0 -139 -95 -257 -247 -257zM273 95c91 0 127 72 127 152c0 81 -36 151 -127 151s-127 -70 -127 -151c0 -80 36 -152 127 -152z" />
    <glyph glyph-name="oacute" unicode="&#xf3;" horiz-adv-x="546" 
d="M229 555l111 142h129l-152 -142h-88zM273 -10c-153 0 -247 118 -247 257c0 140 94 256 247 256c152 0 247 -116 247 -256c0 -139 -95 -257 -247 -257zM273 95c91 0 127 72 127 152c0 81 -36 151 -127 151s-127 -70 -127 -151c0 -80 36 -152 127 -152z" />
    <glyph glyph-name="uni01D2" unicode="&#x1d2;" horiz-adv-x="546" 
d="M273 533l-156 164h93l63 -67l63 67h93zM273 -10c-153 0 -247 118 -247 257c0 140 94 256 247 256c152 0 247 -116 247 -256c0 -139 -95 -257 -247 -257zM273 95c91 0 127 72 127 152c0 81 -36 151 -127 151s-127 -70 -127 -151c0 -80 36 -152 127 -152z" />
    <glyph glyph-name="ocircumflex" unicode="&#xf4;" horiz-adv-x="546" 
d="M117 541l156 174l156 -174h-93l-63 72l-63 -72h-93zM273 -10c-153 0 -247 118 -247 257c0 140 94 256 247 256c152 0 247 -116 247 -256c0 -139 -95 -257 -247 -257zM273 95c91 0 127 72 127 152c0 81 -36 151 -127 151s-127 -70 -127 -151c0 -80 36 -152 127 -152z" />
    <glyph glyph-name="uni1ED1" unicode="&#x1ed1;" horiz-adv-x="546" 
d="M229 743l111 142h129l-152 -142h-88zM117 541l156 174l156 -174h-93l-63 72l-63 -72h-93zM273 -10c-153 0 -247 118 -247 257c0 140 94 256 247 256c152 0 247 -116 247 -256c0 -139 -95 -257 -247 -257zM273 95c91 0 127 72 127 152c0 81 -36 151 -127 151
s-127 -70 -127 -151c0 -80 36 -152 127 -152z" />
    <glyph glyph-name="uni1ED9" unicode="&#x1ed9;" horiz-adv-x="546" 
d="M117 541l156 174l156 -174h-93l-63 72l-63 -72h-93zM273 -10c-153 0 -247 118 -247 257c0 140 94 256 247 256c152 0 247 -116 247 -256c0 -139 -95 -257 -247 -257zM273 95c91 0 127 72 127 152c0 81 -36 151 -127 151s-127 -70 -127 -151c0 -80 36 -152 127 -152z
M210 -173v111h126v-111h-126z" />
    <glyph glyph-name="uni1ED3" unicode="&#x1ed3;" horiz-adv-x="546" 
d="M228 743l-142 142h128l104 -142h-90zM117 541l156 174l156 -174h-93l-63 72l-63 -72h-93zM273 -10c-153 0 -247 118 -247 257c0 140 94 256 247 256c152 0 247 -116 247 -256c0 -139 -95 -257 -247 -257zM273 95c91 0 127 72 127 152c0 81 -36 151 -127 151
s-127 -70 -127 -151c0 -80 36 -152 127 -152z" />
    <glyph glyph-name="uni1ED5" unicode="&#x1ed5;" horiz-adv-x="546" 
d="M263 720l-14 49c30 4 61 8 61 38c0 33 -38 33 -74 33h-15v66h15c89 0 150 -34 150 -97c0 -69 -72 -81 -123 -89zM117 541l156 174l156 -174h-93l-63 72l-63 -72h-93zM273 -10c-153 0 -247 118 -247 257c0 140 94 256 247 256c152 0 247 -116 247 -256
c0 -139 -95 -257 -247 -257zM273 95c91 0 127 72 127 152c0 81 -36 151 -127 151s-127 -70 -127 -151c0 -80 36 -152 127 -152z" />
    <glyph glyph-name="uni1ED7" unicode="&#x1ed7;" horiz-adv-x="546" 
d="M336 744c-78 0 -92 70 -129 70c-20 0 -32 -24 -32 -67h-69c0 90 41 141 106 141c69 0 90 -70 125 -70c17 0 30 24 30 67h72c0 -91 -40 -141 -103 -141zM117 541l156 174l156 -174h-93l-63 72l-63 -72h-93zM273 -10c-153 0 -247 118 -247 257c0 140 94 256 247 256
c152 0 247 -116 247 -256c0 -139 -95 -257 -247 -257zM273 95c91 0 127 72 127 152c0 81 -36 151 -127 151s-127 -70 -127 -151c0 -80 36 -152 127 -152z" />
    <glyph glyph-name="odieresis" unicode="&#xf6;" horiz-adv-x="546" 
d="M125 586v111h101v-111h-101zM320 586v111h101v-111h-101zM273 -10c-153 0 -247 118 -247 257c0 140 94 256 247 256c152 0 247 -116 247 -256c0 -139 -95 -257 -247 -257zM273 95c91 0 127 72 127 152c0 81 -36 151 -127 151s-127 -70 -127 -151c0 -80 36 -152 127 -152z
" />
    <glyph glyph-name="uni1ECD" unicode="&#x1ecd;" horiz-adv-x="546" 
d="M273 -10c-153 0 -247 118 -247 257c0 140 94 256 247 256c152 0 247 -116 247 -256c0 -139 -95 -257 -247 -257zM273 95c91 0 127 72 127 152c0 81 -36 151 -127 151s-127 -70 -127 -151c0 -80 36 -152 127 -152zM210 -173v111h126v-111h-126z" />
    <glyph glyph-name="ograve" unicode="&#xf2;" horiz-adv-x="546" 
d="M228 555l-142 142h128l104 -142h-90zM273 -10c-153 0 -247 118 -247 257c0 140 94 256 247 256c152 0 247 -116 247 -256c0 -139 -95 -257 -247 -257zM273 95c91 0 127 72 127 152c0 81 -36 151 -127 151s-127 -70 -127 -151c0 -80 36 -152 127 -152z" />
    <glyph glyph-name="uni1ECF" unicode="&#x1ecf;" horiz-adv-x="546" 
d="M263 532l-14 49c30 4 61 8 61 38c0 33 -38 33 -74 33h-15v66h15c89 0 150 -34 150 -97c0 -69 -72 -81 -123 -89zM273 -10c-153 0 -247 118 -247 257c0 140 94 256 247 256c152 0 247 -116 247 -256c0 -139 -95 -257 -247 -257zM273 95c91 0 127 72 127 152
c0 81 -36 151 -127 151s-127 -70 -127 -151c0 -80 36 -152 127 -152z" />
    <glyph glyph-name="ohorn" unicode="&#x1a1;" horiz-adv-x="546" 
d="M517 544h91v-39c0 -75 -30 -139 -105 -159c11 -31 17 -64 17 -99c0 -139 -95 -257 -247 -257c-153 0 -247 118 -247 257c0 140 94 256 247 256c80 0 145 -32 188 -84c46 5 56 47 56 76v49zM273 95c91 0 127 72 127 152c0 81 -36 151 -127 151s-127 -70 -127 -151
c0 -80 36 -152 127 -152z" />
    <glyph glyph-name="uni1EDB" unicode="&#x1edb;" horiz-adv-x="546" 
d="M469 697l-152 -142h-88l111 142h129zM517 544h91v-39c0 -75 -30 -139 -105 -159c11 -31 17 -64 17 -99c0 -139 -95 -257 -247 -257c-153 0 -247 118 -247 257c0 140 94 256 247 256c80 0 145 -32 188 -84c46 5 56 47 56 76v49zM273 95c91 0 127 72 127 152
c0 81 -36 151 -127 151s-127 -70 -127 -151c0 -80 36 -152 127 -152z" />
    <glyph glyph-name="uni1EE3" unicode="&#x1ee3;" horiz-adv-x="546" 
d="M517 544h91v-39c0 -75 -30 -139 -105 -159c11 -31 17 -64 17 -99c0 -139 -95 -257 -247 -257c-153 0 -247 118 -247 257c0 140 94 256 247 256c80 0 145 -32 188 -84c46 5 56 47 56 76v49zM273 95c91 0 127 72 127 152c0 81 -36 151 -127 151s-127 -70 -127 -151
c0 -80 36 -152 127 -152zM210 -173v111h126v-111h-126z" />
    <glyph glyph-name="uni1EDD" unicode="&#x1edd;" horiz-adv-x="546" 
d="M318 555h-90l-142 142h128zM517 544h91v-39c0 -75 -30 -139 -105 -159c11 -31 17 -64 17 -99c0 -139 -95 -257 -247 -257c-153 0 -247 118 -247 257c0 140 94 256 247 256c80 0 145 -32 188 -84c46 5 56 47 56 76v49zM273 95c91 0 127 72 127 152c0 81 -36 151 -127 151
s-127 -70 -127 -151c0 -80 36 -152 127 -152z" />
    <glyph glyph-name="uni1EDF" unicode="&#x1edf;" horiz-adv-x="546" 
d="M310 619c0 33 -38 33 -74 33h-15v66h15c89 0 150 -34 150 -97c0 -69 -72 -81 -123 -89l-14 49c30 4 61 8 61 38zM517 544h91v-39c0 -75 -30 -139 -105 -159c11 -31 17 -64 17 -99c0 -139 -95 -257 -247 -257c-153 0 -247 118 -247 257c0 140 94 256 247 256
c80 0 145 -32 188 -84c46 5 56 47 56 76v49zM273 95c91 0 127 72 127 152c0 81 -36 151 -127 151s-127 -70 -127 -151c0 -80 36 -152 127 -152z" />
    <glyph glyph-name="uni1EE1" unicode="&#x1ee1;" horiz-adv-x="546" 
d="M207 626c-20 0 -32 -24 -32 -67h-69c0 90 41 141 106 141c69 0 90 -70 125 -70c17 0 30 24 30 67h72c0 -91 -40 -141 -103 -141c-78 0 -92 70 -129 70zM517 544h91v-39c0 -75 -30 -139 -105 -159c11 -31 17 -64 17 -99c0 -139 -95 -257 -247 -257
c-153 0 -247 118 -247 257c0 140 94 256 247 256c80 0 145 -32 188 -84c46 5 56 47 56 76v49zM273 95c91 0 127 72 127 152c0 81 -36 151 -127 151s-127 -70 -127 -151c0 -80 36 -152 127 -152z" />
    <glyph glyph-name="ohungarumlaut" unicode="&#x151;" horiz-adv-x="546" 
d="M133 534l111 163h108l-131 -163h-88zM325 534l111 163h128l-151 -163h-88zM273 -10c-153 0 -247 118 -247 257c0 140 94 256 247 256c152 0 247 -116 247 -256c0 -139 -95 -257 -247 -257zM273 95c91 0 127 72 127 152c0 81 -36 151 -127 151s-127 -70 -127 -151
c0 -80 36 -152 127 -152z" />
    <glyph glyph-name="omacron" unicode="&#x14d;" horiz-adv-x="546" 
d="M135 566v70h275v-70h-275zM273 -10c-153 0 -247 118 -247 257c0 140 94 256 247 256c152 0 247 -116 247 -256c0 -139 -95 -257 -247 -257zM273 95c91 0 127 72 127 152c0 81 -36 151 -127 151s-127 -70 -127 -151c0 -80 36 -152 127 -152z" />
    <glyph glyph-name="oslash" unicode="&#xf8;" horiz-adv-x="546" 
d="M437 444c53 -47 83 -118 83 -197c0 -139 -95 -257 -247 -257c-37 0 -70 7 -99 19l-32 -52h-90l56 93c-52 48 -82 119 -82 197c0 140 94 256 247 256c36 0 69 -7 99 -19l31 52h90zM146 247c0 -36 7 -70 23 -97l147 242c-13 4 -27 6 -43 6c-91 0 -127 -70 -127 -151z
M273 95c91 0 127 72 127 152c0 36 -7 70 -23 97l-147 -243c12 -4 27 -6 43 -6z" />
    <glyph glyph-name="otilde" unicode="&#xf5;" horiz-adv-x="546" 
d="M336 556c-78 0 -92 70 -129 70c-20 0 -32 -24 -32 -67h-69c0 90 41 141 106 141c69 0 90 -70 125 -70c17 0 30 24 30 67h72c0 -91 -40 -141 -103 -141zM273 -10c-153 0 -247 118 -247 257c0 140 94 256 247 256c152 0 247 -116 247 -256c0 -139 -95 -257 -247 -257z
M273 95c91 0 127 72 127 152c0 81 -36 151 -127 151s-127 -70 -127 -151c0 -80 36 -152 127 -152z" />
    <glyph glyph-name="oe" unicode="&#x153;" horiz-adv-x="896" 
d="M867 253c0 -15 -1 -30 -3 -46h-338c5 -65 45 -108 123 -108c44 0 84 14 118 53l83 -73c-54 -60 -119 -89 -202 -89c-88 0 -150 33 -189 83c-43 -51 -107 -83 -186 -83c-153 0 -247 118 -247 257c0 140 94 256 247 256c80 0 144 -32 187 -83c38 50 97 83 180 83
c153 0 227 -113 227 -250zM525 302h227c-2 63 -50 101 -113 101c-73 0 -107 -52 -114 -101zM273 95c91 0 127 72 127 152c0 81 -36 151 -127 151s-127 -70 -127 -151c0 -80 36 -152 127 -152z" />
    <glyph glyph-name="p" unicode="p" horiz-adv-x="573" 
d="M333 503c134 0 208 -109 208 -257c0 -161 -87 -256 -208 -256c-56 0 -111 23 -142 60v-254h-120v697h120v-49c34 42 89 59 142 59zM303 95c80 0 118 56 118 152c0 97 -37 151 -117 151c-87 0 -124 -63 -124 -151c0 -86 37 -152 123 -152z" />
    <glyph glyph-name="thorn" unicode="&#xfe;" horiz-adv-x="573" 
d="M333 503c134 0 208 -109 208 -257c0 -161 -87 -256 -208 -256c-56 0 -111 23 -142 60v-254h-120v901h120v-253c34 42 89 59 142 59zM303 95c80 0 118 56 118 152c0 97 -37 151 -117 151c-87 0 -124 -63 -124 -151c0 -86 37 -152 123 -152z" />
    <glyph glyph-name="q" unicode="q" horiz-adv-x="573" 
d="M382 493h120v-697h-120v254c-31 -37 -86 -60 -142 -60c-121 0 -208 95 -208 256c0 148 74 257 208 257c53 0 108 -17 142 -59v49zM270 95c86 0 123 66 123 152c0 88 -37 151 -124 151c-80 0 -117 -54 -117 -151c0 -96 38 -152 118 -152z" />
    <glyph glyph-name="r" unicode="r" horiz-adv-x="405" 
d="M323 503c33 0 62 -8 94 -28l-58 -106c-17 11 -36 17 -60 17c-73 0 -109 -45 -109 -138v-248h-120v493h121v-84c21 61 76 94 132 94z" />
    <glyph glyph-name="racute" unicode="&#x155;" horiz-adv-x="405" 
d="M399 697l-152 -142h-88l111 142h129zM323 503c33 0 62 -8 94 -28l-58 -106c-17 11 -36 17 -60 17c-73 0 -109 -45 -109 -138v-248h-120v493h121v-84c21 61 76 94 132 94z" />
    <glyph glyph-name="rcaron" unicode="&#x159;" horiz-adv-x="405" 
d="M359 697l-156 -164l-156 164h93l63 -67l63 67h93zM323 503c33 0 62 -8 94 -28l-58 -106c-17 11 -36 17 -60 17c-73 0 -109 -45 -109 -138v-248h-120v493h121v-84c21 61 76 94 132 94z" />
    <glyph glyph-name="uni0157" unicode="&#x157;" horiz-adv-x="405" 
d="M323 503c33 0 62 -8 94 -28l-58 -106c-17 11 -36 17 -60 17c-73 0 -109 -45 -109 -138v-248h-120v493h121v-84c21 61 76 94 132 94zM73 -226l67 173h125l-122 -173h-70z" />
    <glyph glyph-name="s" unicode="s" horiz-adv-x="448" 
d="M225 -10c-104 0 -183 63 -207 138l96 43c13 -36 39 -81 105 -81c56 0 80 32 80 58c0 83 -254 28 -254 211c0 95 86 144 181 144c85 0 150 -40 187 -107l-93 -51c-17 31 -44 63 -98 63c-39 0 -63 -19 -63 -42c0 -75 258 -31 258 -211c0 -115 -99 -165 -192 -165z" />
    <glyph glyph-name="sacute" unicode="&#x15b;" horiz-adv-x="448" 
d="M184 555l111 142h129l-152 -142h-88zM225 -10c-104 0 -183 63 -207 138l96 43c13 -36 39 -81 105 -81c56 0 80 32 80 58c0 83 -254 28 -254 211c0 95 86 144 181 144c85 0 150 -40 187 -107l-93 -51c-17 31 -44 63 -98 63c-39 0 -63 -19 -63 -42c0 -75 258 -31 258 -211
c0 -115 -99 -165 -192 -165z" />
    <glyph glyph-name="scaron" unicode="&#x161;" horiz-adv-x="448" 
d="M228 533l-156 164h93l63 -67l63 67h93zM225 -10c-104 0 -183 63 -207 138l96 43c13 -36 39 -81 105 -81c56 0 80 32 80 58c0 83 -254 28 -254 211c0 95 86 144 181 144c85 0 150 -40 187 -107l-93 -51c-17 31 -44 63 -98 63c-39 0 -63 -19 -63 -42
c0 -75 258 -31 258 -211c0 -115 -99 -165 -192 -165z" />
    <glyph glyph-name="scedilla" unicode="&#x15f;" horiz-adv-x="448" 
d="M417 155c0 -102 -78 -153 -160 -163l-32 -41c19 -4 35 -10 49 -18c29 -17 45 -45 45 -79c0 -63 -48 -112 -113 -112c-24 0 -57 7 -86 32l38 58c20 -18 39 -21 51 -21c24 0 40 16 40 40c0 29 -25 44 -54 49c-19 3 -41 4 -63 4l56 89c-86 13 -149 69 -170 135l96 43
c13 -36 39 -81 105 -81c56 0 80 32 80 58c0 83 -254 28 -254 211c0 95 86 144 181 144c85 0 150 -40 187 -107l-93 -51c-17 31 -44 63 -98 63c-39 0 -63 -19 -63 -42c0 -75 258 -31 258 -211z" />
    <glyph glyph-name="uni0219" unicode="&#x219;" horiz-adv-x="448" 
d="M225 -10c-104 0 -183 63 -207 138l96 43c13 -36 39 -81 105 -81c56 0 80 32 80 58c0 83 -254 28 -254 211c0 95 86 144 181 144c85 0 150 -40 187 -107l-93 -51c-17 31 -44 63 -98 63c-39 0 -63 -19 -63 -42c0 -75 258 -31 258 -211c0 -115 -99 -165 -192 -165zM98 -226
l67 173h125l-122 -173h-70z" />
    <glyph glyph-name="germandbls" unicode="&#xdf;" horiz-adv-x="640" 
d="M434 -10c-104 0 -183 63 -207 138l96 43c13 -36 39 -81 105 -81c56 0 80 32 80 58c0 83 -248 32 -248 205c0 153 194 125 194 191c0 35 -54 51 -112 51c-146 0 -146 -102 -146 -160v-435h-125v435c0 118 35 272 266 272c141 0 235 -57 235 -154
c0 -159 -194 -146 -194 -198c0 -65 248 -19 248 -200c0 -115 -99 -165 -192 -165z" />
    <glyph glyph-name="t" unicode="t" horiz-adv-x="365" 
d="M333 398h-123v-251c0 -39 24 -57 63 -57c17 0 38 4 60 11v-96c-30 -10 -60 -15 -90 -15c-83 0 -153 43 -153 148v260h-80v95h80v95l120 89v-184h123v-95z" />
    <glyph glyph-name="tbar" unicode="&#x167;" horiz-adv-x="365" 
d="M333 398h-123v-111h122v-80h-122v-60c0 -39 24 -57 63 -57c17 0 38 4 60 11v-96c-30 -10 -60 -15 -90 -15c-83 0 -153 43 -153 148v69h-81v80h81v111h-80v95h80v95l120 89v-184h123v-95z" />
    <glyph glyph-name="tcaron" unicode="&#x165;" horiz-adv-x="365" 
d="M438 785l-112 -224h-70l56 224h126zM210 677v-184h123v-95h-123v-251c0 -39 24 -57 63 -57c17 0 38 4 60 11v-96c-30 -10 -60 -15 -90 -15c-83 0 -153 43 -153 148v260h-80v95h80v95z" />
    <glyph glyph-name="uni0163" unicode="&#x163;" horiz-adv-x="365" 
d="M333 398h-123v-251c0 -39 24 -57 63 -57c17 0 38 4 60 11v-96c-30 -10 -60 -15 -90 -15l-30 -39c19 -4 35 -10 49 -18c29 -17 45 -45 45 -79c0 -63 -48 -112 -113 -112c-24 0 -57 7 -86 32l38 58c20 -18 39 -21 51 -21c24 0 40 16 40 40c0 29 -25 44 -54 49
c-19 3 -41 4 -63 4l60 96c-53 18 -90 61 -90 138v260h-80v95h80v95l120 89v-184h123v-95z" />
    <glyph glyph-name="uni021B" unicode="&#x21b;" horiz-adv-x="365" 
d="M333 398h-123v-251c0 -39 24 -57 63 -57c17 0 38 4 60 11v-96c-30 -10 -60 -15 -90 -15c-83 0 -153 43 -153 148v260h-80v95h80v95l120 89v-184h123v-95zM86 -226l67 173h125l-122 -173h-70z" />
    <glyph glyph-name="u" unicode="u" horiz-adv-x="571" 
d="M381 493h120v-493h-120v57c-35 -47 -89 -67 -147 -67c-124 0 -176 90 -176 195v308h120v-278c0 -34 0 -120 91 -120c112 0 112 123 112 211v187z" />
    <glyph glyph-name="uacute" unicode="&#xfa;" horiz-adv-x="571" 
d="M475 697l-152 -142h-88l111 142h129zM381 493h120v-493h-120v57c-35 -47 -89 -67 -147 -67c-124 0 -176 90 -176 195v308h120v-278c0 -34 0 -120 91 -120c112 0 112 123 112 211v187z" />
    <glyph glyph-name="uni01D4" unicode="&#x1d4;" horiz-adv-x="571" 
d="M435 697l-156 -164l-156 164h93l63 -67l63 67h93zM381 493h120v-493h-120v57c-35 -47 -89 -67 -147 -67c-124 0 -176 90 -176 195v308h120v-278c0 -34 0 -120 91 -120c112 0 112 123 112 211v187z" />
    <glyph glyph-name="ucircumflex" unicode="&#xfb;" horiz-adv-x="571" 
d="M279 613l-63 -72h-93l156 174l156 -174h-93zM381 493h120v-493h-120v57c-35 -47 -89 -67 -147 -67c-124 0 -176 90 -176 195v308h120v-278c0 -34 0 -120 91 -120c112 0 112 123 112 211v187z" />
    <glyph glyph-name="udieresis" unicode="&#xfc;" horiz-adv-x="571" 
d="M232 697v-111h-101v111h101zM427 697v-111h-101v111h101zM381 493h120v-493h-120v57c-35 -47 -89 -67 -147 -67c-124 0 -176 90 -176 195v308h120v-278c0 -34 0 -120 91 -120c112 0 112 123 112 211v187z" />
    <glyph glyph-name="uni01D8" unicode="&#x1d8;" horiz-adv-x="571" 
d="M475 901l-152 -142h-88l111 142h129zM232 697v-111h-101v111h101zM427 586h-101v111h101v-111zM381 493h120v-493h-120v57c-35 -47 -89 -67 -147 -67c-124 0 -176 90 -176 195v308h120v-278c0 -34 0 -120 91 -120c112 0 112 123 112 211v187z" />
    <glyph glyph-name="uni01DA" unicode="&#x1da;" horiz-adv-x="571" 
d="M435 901l-156 -164l-156 164h93l63 -67l63 67h93zM232 586h-101v111h101v-111zM427 586h-101v111h101v-111zM381 493h120v-493h-120v57c-35 -47 -89 -67 -147 -67c-124 0 -176 90 -176 195v308h120v-278c0 -34 0 -120 91 -120c112 0 112 123 112 211v187z" />
    <glyph glyph-name="uni01DC" unicode="&#x1dc;" horiz-adv-x="571" 
d="M324 759h-90l-142 142h128zM232 586h-101v111h101v-111zM427 697v-111h-101v111h101zM381 493h120v-493h-120v57c-35 -47 -89 -67 -147 -67c-124 0 -176 90 -176 195v308h120v-278c0 -34 0 -120 91 -120c112 0 112 123 112 211v187z" />
    <glyph glyph-name="uni01D6" unicode="&#x1d6;" horiz-adv-x="571" 
d="M416 840v-70h-275v70h275zM232 697v-111h-101v111h101zM326 586v111h101v-111h-101zM381 493h120v-493h-120v57c-35 -47 -89 -67 -147 -67c-124 0 -176 90 -176 195v308h120v-278c0 -34 0 -120 91 -120c112 0 112 123 112 211v187z" />
    <glyph glyph-name="uni1EE5" unicode="&#x1ee5;" horiz-adv-x="571" 
d="M381 493h120v-493h-120v57c-35 -47 -89 -67 -147 -67c-124 0 -176 90 -176 195v308h120v-278c0 -34 0 -120 91 -120c112 0 112 123 112 211v187zM222 -173v111h126v-111h-126z" />
    <glyph glyph-name="ugrave" unicode="&#xf9;" horiz-adv-x="571" 
d="M324 555h-90l-142 142h128zM381 493h120v-493h-120v57c-35 -47 -89 -67 -147 -67c-124 0 -176 90 -176 195v308h120v-278c0 -34 0 -120 91 -120c112 0 112 123 112 211v187z" />
    <glyph glyph-name="uni1EE7" unicode="&#x1ee7;" horiz-adv-x="571" 
d="M316 619c0 33 -38 33 -74 33h-15v66h15c89 0 150 -34 150 -97c0 -69 -72 -81 -123 -89l-14 49c30 4 61 8 61 38zM381 493h120v-493h-120v57c-35 -47 -89 -67 -147 -67c-124 0 -176 90 -176 195v308h120v-278c0 -34 0 -120 91 -120c112 0 112 123 112 211v187z" />
    <glyph glyph-name="uhorn" unicode="&#x1b0;" horiz-adv-x="571" 
d="M486 617h91v-39c0 -64 -22 -121 -76 -148v-430h-120v57c-35 -47 -89 -67 -147 -67c-124 0 -176 90 -176 195v308h120v-278c0 -34 0 -120 91 -120c112 0 112 123 112 211v187h53c43 7 52 47 52 75v49z" />
    <glyph glyph-name="uni1EE9" unicode="&#x1ee9;" horiz-adv-x="571" 
d="M475 697l-152 -142h-88l111 142h129zM486 617h91v-39c0 -64 -22 -121 -76 -148v-430h-120v57c-35 -47 -89 -67 -147 -67c-124 0 -176 90 -176 195v308h120v-278c0 -34 0 -120 91 -120c112 0 112 123 112 211v187h53c43 7 52 47 52 75v49z" />
    <glyph glyph-name="uni1EF1" unicode="&#x1ef1;" horiz-adv-x="571" 
d="M486 617h91v-39c0 -64 -22 -121 -76 -148v-430h-120v57c-35 -47 -89 -67 -147 -67c-124 0 -176 90 -176 195v308h120v-278c0 -34 0 -120 91 -120c112 0 112 123 112 211v187h53c43 7 52 47 52 75v49zM222 -173v111h126v-111h-126z" />
    <glyph glyph-name="uni1EEB" unicode="&#x1eeb;" horiz-adv-x="571" 
d="M324 555h-90l-142 142h128zM486 617h91v-39c0 -64 -22 -121 -76 -148v-430h-120v57c-35 -47 -89 -67 -147 -67c-124 0 -176 90 -176 195v308h120v-278c0 -34 0 -120 91 -120c112 0 112 123 112 211v187h53c43 7 52 47 52 75v49z" />
    <glyph glyph-name="uni1EED" unicode="&#x1eed;" horiz-adv-x="571" 
d="M316 619c0 33 -38 33 -74 33h-15v66h15c89 0 150 -34 150 -97c0 -69 -72 -81 -123 -89l-14 49c30 4 61 8 61 38zM486 617h91v-39c0 -64 -22 -121 -76 -148v-430h-120v57c-35 -47 -89 -67 -147 -67c-124 0 -176 90 -176 195v308h120v-278c0 -34 0 -120 91 -120
c112 0 112 123 112 211v187h53c43 7 52 47 52 75v49z" />
    <glyph glyph-name="uni1EEF" unicode="&#x1eef;" horiz-adv-x="571" 
d="M213 626c-20 0 -32 -24 -32 -67h-69c0 90 41 141 106 141c69 0 90 -70 125 -70c17 0 30 24 30 67h72c0 -91 -40 -141 -103 -141c-78 0 -92 70 -129 70zM486 617h91v-39c0 -64 -22 -121 -76 -148v-430h-120v57c-35 -47 -89 -67 -147 -67c-124 0 -176 90 -176 195v308h120
v-278c0 -34 0 -120 91 -120c112 0 112 123 112 211v187h53c43 7 52 47 52 75v49z" />
    <glyph glyph-name="uhungarumlaut" unicode="&#x171;" horiz-adv-x="571" 
d="M358 697l-131 -163h-88l111 163h108zM419 534h-88l111 163h128zM381 306v187h120v-493h-120v57c-35 -47 -89 -67 -147 -67c-124 0 -176 90 -176 195v308h120v-278c0 -34 0 -120 91 -120c112 0 112 123 112 211z" />
    <glyph glyph-name="umacron" unicode="&#x16b;" horiz-adv-x="571" 
d="M416 636v-70h-275v70h275zM381 493h120v-493h-120v57c-35 -47 -89 -67 -147 -67c-124 0 -176 90 -176 195v308h120v-278c0 -34 0 -120 91 -120c112 0 112 123 112 211v187z" />
    <glyph glyph-name="uogonek" unicode="&#x173;" horiz-adv-x="571" 
d="M485 -120l61 -42c-24 -35 -58 -60 -108 -60c-64 0 -112 40 -112 101c0 63 48 103 81 121h-26v57c-35 -47 -89 -67 -147 -67c-124 0 -176 90 -176 195v308h120v-278c0 -34 0 -120 91 -120c112 0 112 123 112 211v187h120v-493c-10 -4 -103 -38 -103 -109
c0 -30 17 -39 37 -39c21 0 37 10 50 28z" />
    <glyph glyph-name="uring" unicode="&#x16f;" horiz-adv-x="571" 
d="M279 527c-64 0 -114 53 -114 114c0 63 51 114 114 114c61 0 114 -50 114 -114c0 -63 -51 -114 -114 -114zM279 690c-30 0 -49 -20 -49 -48c0 -29 21 -50 49 -50c29 0 49 21 49 50c0 28 -18 48 -49 48zM381 493h120v-493h-120v57c-35 -47 -89 -67 -147 -67
c-124 0 -176 90 -176 195v308h120v-278c0 -34 0 -120 91 -120c112 0 112 123 112 211v187z" />
    <glyph glyph-name="utilde" unicode="&#x169;" horiz-adv-x="571" 
d="M213 626c-20 0 -32 -24 -32 -67h-69c0 90 41 141 106 141c69 0 90 -70 125 -70c17 0 30 24 30 67h72c0 -91 -40 -141 -103 -141c-78 0 -92 70 -129 70zM381 493h120v-493h-120v57c-35 -47 -89 -67 -147 -67c-124 0 -176 90 -176 195v308h120v-278c0 -34 0 -120 91 -120
c112 0 112 123 112 211v187z" />
    <glyph glyph-name="v" unicode="v" horiz-adv-x="491" 
d="M196 0l-201 493h131l119 -337l121 337h130l-201 -493h-99z" />
    <glyph glyph-name="w" unicode="w" horiz-adv-x="722" 
d="M156 0l-152 493h128l84 -309l93 309h103l93 -308l85 308h128l-152 -493h-108l-97 323l-97 -323h-108z" />
    <glyph glyph-name="wacute" unicode="&#x1e83;" horiz-adv-x="722" 
d="M317 555l111 142h129l-152 -142h-88zM156 0l-152 493h128l84 -309l93 309h103l93 -308l85 308h128l-152 -493h-108l-97 323l-97 -323h-108z" />
    <glyph glyph-name="wcircumflex" unicode="&#x175;" horiz-adv-x="722" 
d="M205 541l156 174l156 -174h-93l-63 72l-63 -72h-93zM156 0l-152 493h128l84 -309l93 309h103l93 -308l85 308h128l-152 -493h-108l-97 323l-97 -323h-108z" />
    <glyph glyph-name="wdieresis" unicode="&#x1e85;" horiz-adv-x="722" 
d="M213 586v111h101v-111h-101zM408 586v111h101v-111h-101zM156 0l-152 493h128l84 -309l93 309h103l93 -308l85 308h128l-152 -493h-108l-97 323l-97 -323h-108z" />
    <glyph glyph-name="wgrave" unicode="&#x1e81;" horiz-adv-x="722" 
d="M316 555l-142 142h128l104 -142h-90zM156 0l-152 493h128l84 -309l93 309h103l93 -308l85 308h128l-152 -493h-108l-97 323l-97 -323h-108z" />
    <glyph glyph-name="x" unicode="x" horiz-adv-x="504" 
d="M3 0l169 248l-169 245h147l102 -163l102 163h147l-170 -245l170 -248h-147l-102 166l-102 -166h-147z" />
    <glyph glyph-name="y" unicode="y" horiz-adv-x="505" 
d="M100 -204l88 217l-193 480h132l125 -342l126 342h132l-280 -697h-130z" />
    <glyph glyph-name="yacute" unicode="&#xfd;" horiz-adv-x="505" 
d="M209 555l111 142h129l-152 -142h-88zM100 -204l88 217l-193 480h132l125 -342l126 342h132l-280 -697h-130z" />
    <glyph glyph-name="ycircumflex" unicode="&#x177;" horiz-adv-x="505" 
d="M97 541l156 174l156 -174h-93l-63 72l-63 -72h-93zM100 -204l88 217l-193 480h132l125 -342l126 342h132l-280 -697h-130z" />
    <glyph glyph-name="ydieresis" unicode="&#xff;" horiz-adv-x="505" 
d="M105 586v111h101v-111h-101zM300 586v111h101v-111h-101zM100 -204l88 217l-193 480h132l125 -342l126 342h132l-280 -697h-130z" />
    <glyph glyph-name="uni1EF5" unicode="&#x1ef5;" horiz-adv-x="505" 
d="M100 -204l88 217l-193 480h132l125 -342l126 342h132l-280 -697h-130zM347 -204v111h126v-111h-126z" />
    <glyph glyph-name="ygrave" unicode="&#x1ef3;" horiz-adv-x="505" 
d="M208 555l-142 142h128l104 -142h-90zM100 -204l88 217l-193 480h132l125 -342l126 342h132l-280 -697h-130z" />
    <glyph glyph-name="uni1EF7" unicode="&#x1ef7;" horiz-adv-x="505" 
d="M243 532l-14 49c30 4 61 8 61 38c0 33 -38 33 -74 33h-15v66h15c89 0 150 -34 150 -97c0 -69 -72 -81 -123 -89zM100 -204l88 217l-193 480h132l125 -342l126 342h132l-280 -697h-130z" />
    <glyph glyph-name="uni1EF9" unicode="&#x1ef9;" horiz-adv-x="505" 
d="M316 556c-78 0 -92 70 -129 70c-20 0 -32 -24 -32 -67h-69c0 90 41 141 106 141c69 0 90 -70 125 -70c17 0 30 24 30 67h72c0 -91 -40 -141 -103 -141zM100 -204l88 217l-193 480h132l125 -342l126 342h132l-280 -697h-130z" />
    <glyph glyph-name="z" unicode="z" horiz-adv-x="457" 
d="M185 101h239v-101h-397v80l249 312h-237v101h384v-86z" />
    <glyph glyph-name="zacute" unicode="&#x17a;" horiz-adv-x="457" 
d="M424 697l-152 -142h-88l111 142h129zM423 407l-238 -306h239v-101h-397v80l249 312h-237v101h384v-86z" />
    <glyph glyph-name="zcaron" unicode="&#x17e;" horiz-adv-x="457" 
d="M384 697l-156 -164l-156 164h93l63 -67l63 67h93zM185 101h239v-101h-397v80l249 312h-237v101h384v-86z" />
    <glyph glyph-name="zdotaccent" unicode="&#x17c;" horiz-adv-x="457" 
d="M291 697v-111h-126v111h126zM185 101h239v-101h-397v80l249 312h-237v101h384v-86z" />
    <glyph glyph-name="g.ss01" horiz-adv-x="573" 
d="M381 493h121v-473c0 -155 -94 -236 -242 -236c-111 0 -174 45 -218 106l92 76c20 -34 58 -77 130 -77c67 0 117 34 117 111v71c-35 -44 -86 -61 -139 -61c-138 0 -213 109 -213 247c0 136 75 246 211 246c52 0 106 -17 141 -60v50zM269 121c87 0 122 63 122 136
c0 72 -35 137 -122 137c-80 0 -118 -56 -118 -137c0 -83 39 -136 118 -136z" />
    <glyph glyph-name="gbreve.ss01" horiz-adv-x="573" 
d="M287 564c-108 0 -156 47 -156 133h85c0 -43 32 -63 71 -63c41 0 71 22 71 63h85c0 -90 -53 -133 -156 -133zM381 493h121v-473c0 -155 -94 -236 -242 -236c-111 0 -174 45 -218 106l92 76c20 -34 58 -77 130 -77c67 0 117 34 117 111v71c-35 -44 -86 -61 -139 -61
c-138 0 -213 109 -213 247c0 136 75 246 211 246c52 0 106 -17 141 -60v50zM269 121c87 0 122 63 122 136c0 72 -35 137 -122 137c-80 0 -118 -56 -118 -137c0 -83 39 -136 118 -136z" />
    <glyph glyph-name="uni0123.ss01" horiz-adv-x="573" 
d="M383 707l-67 -155h-125l122 155h70zM381 493h121v-473c0 -155 -94 -236 -242 -236c-111 0 -174 45 -218 106l92 76c20 -34 58 -77 130 -77c67 0 117 34 117 111v71c-35 -44 -86 -61 -139 -61c-138 0 -213 109 -213 247c0 136 75 246 211 246c52 0 106 -17 141 -60v50z
M269 121c87 0 122 63 122 136c0 72 -35 137 -122 137c-80 0 -118 -56 -118 -137c0 -83 39 -136 118 -136z" />
    <glyph glyph-name="gdotaccent.ss01" horiz-adv-x="573" 
d="M350 697v-111h-126v111h126zM381 493h121v-473c0 -155 -94 -236 -242 -236c-111 0 -174 45 -218 106l92 76c20 -34 58 -77 130 -77c67 0 117 34 117 111v71c-35 -44 -86 -61 -139 -61c-138 0 -213 109 -213 247c0 136 75 246 211 246c52 0 106 -17 141 -60v50zM269 121
c87 0 122 63 122 136c0 72 -35 137 -122 137c-80 0 -118 -56 -118 -137c0 -83 39 -136 118 -136z" />
    <glyph glyph-name="g.ss02" horiz-adv-x="526" 
d="M331 85c77 0 167 -38 167 -141c0 -94 -72 -158 -225 -158c-131 0 -251 36 -251 148c0 19 3 34 8 46l68 26c-33 20 -66 55 -66 110c0 40 18 80 61 107c-19 28 -29 62 -29 99c0 107 88 181 201 181c44 0 83 -11 115 -30l75 64l61 -76l-71 -58c13 -25 20 -54 20 -85
c0 -109 -90 -179 -200 -179c-39 0 -74 8 -103 24c-13 -10 -18 -23 -18 -35c0 -43 51 -43 93 -43h94zM267 408c-54 0 -83 -39 -83 -88c0 -48 29 -85 83 -85c52 0 81 37 81 85c0 49 -29 88 -81 88zM265 -122c75 0 118 16 118 58c0 48 -53 48 -80 48h-126l-43 -37v-11
c0 -17 15 -58 131 -58z" />
    <glyph glyph-name="gbreve.ss02" horiz-adv-x="526" 
d="M264 564c-108 0 -156 47 -156 133h85c0 -43 32 -63 71 -63c41 0 71 22 71 63h85c0 -90 -53 -133 -156 -133zM331 85c77 0 167 -38 167 -141c0 -94 -72 -158 -225 -158c-131 0 -251 36 -251 148c0 19 3 34 8 46l68 26c-33 20 -66 55 -66 110c0 40 18 80 61 107
c-19 28 -29 62 -29 99c0 107 88 181 201 181c44 0 83 -11 115 -30l75 64l61 -76l-71 -58c13 -25 20 -54 20 -85c0 -109 -90 -179 -200 -179c-39 0 -74 8 -103 24c-13 -10 -18 -23 -18 -35c0 -43 51 -43 93 -43h94zM267 408c-54 0 -83 -39 -83 -88c0 -48 29 -85 83 -85
c52 0 81 37 81 85c0 49 -29 88 -81 88zM265 -122c75 0 118 16 118 58c0 48 -53 48 -80 48h-126l-43 -37v-11c0 -17 15 -58 131 -58z" />
    <glyph glyph-name="uni0123.ss02" horiz-adv-x="526" 
d="M360 707l-67 -155h-125l122 155h70zM331 85c77 0 167 -38 167 -141c0 -94 -72 -158 -225 -158c-131 0 -251 36 -251 148c0 19 3 34 8 46l68 26c-33 20 -66 55 -66 110c0 40 18 80 61 107c-19 28 -29 62 -29 99c0 107 88 181 201 181c44 0 83 -11 115 -30l75 64l61 -76
l-71 -58c13 -25 20 -54 20 -85c0 -109 -90 -179 -200 -179c-39 0 -74 8 -103 24c-13 -10 -18 -23 -18 -35c0 -43 51 -43 93 -43h94zM267 408c-54 0 -83 -39 -83 -88c0 -48 29 -85 83 -85c52 0 81 37 81 85c0 49 -29 88 -81 88zM265 -122c75 0 118 16 118 58
c0 48 -53 48 -80 48h-126l-43 -37v-11c0 -17 15 -58 131 -58z" />
    <glyph glyph-name="gdotaccent.ss02" horiz-adv-x="526" 
d="M327 697v-111h-126v111h126zM331 85c77 0 167 -38 167 -141c0 -94 -72 -158 -225 -158c-131 0 -251 36 -251 148c0 19 3 34 8 46l68 26c-33 20 -66 55 -66 110c0 40 18 80 61 107c-19 28 -29 62 -29 99c0 107 88 181 201 181c44 0 83 -11 115 -30l75 64l61 -76l-71 -58
c13 -25 20 -54 20 -85c0 -109 -90 -179 -200 -179c-39 0 -74 8 -103 24c-13 -10 -18 -23 -18 -35c0 -43 51 -43 93 -43h94zM267 408c-54 0 -83 -39 -83 -88c0 -48 29 -85 83 -85c52 0 81 37 81 85c0 49 -29 88 -81 88zM265 -122c75 0 118 16 118 58c0 48 -53 48 -80 48h-126
l-43 -37v-11c0 -17 15 -58 131 -58z" />
    <glyph glyph-name="uni1EB7.ss03" horiz-adv-x="528" 
d="M258 564c-108 0 -156 47 -156 133h85c0 -43 32 -63 71 -63c41 0 71 22 71 63h85c0 -90 -53 -133 -156 -133zM261 503c130 0 211 -73 211 -192v-311h-110l-10 64c-29 -46 -85 -74 -150 -74c-104 0 -178 67 -178 161c0 58 26 102 74 124c33 15 75 22 131 22h123v14
c0 54 -36 87 -93 87c-50 0 -97 -26 -133 -74l-87 73c59 71 132 106 222 106zM221 92c72 0 131 51 131 115h-107c-41 0 -65 -5 -81 -17c-13 -9 -20 -23 -20 -41c0 -35 29 -57 77 -57zM258 -41c42 0 74 -32 74 -74s-32 -75 -74 -75c-41 0 -74 33 -74 75s32 74 74 74z" />
    <glyph glyph-name="uni1EAD.ss03" horiz-adv-x="528" 
d="M258 613l-63 -72h-93l156 174l156 -174h-93zM261 503c130 0 211 -73 211 -192v-311h-110l-10 64c-29 -46 -85 -74 -150 -74c-104 0 -178 67 -178 161c0 58 26 102 74 124c33 15 75 22 131 22h123v14c0 54 -36 87 -93 87c-50 0 -97 -26 -133 -74l-87 73
c59 71 132 106 222 106zM221 92c72 0 131 51 131 115h-107c-41 0 -65 -5 -81 -17c-13 -9 -20 -23 -20 -41c0 -35 29 -57 77 -57zM258 -41c42 0 74 -32 74 -74s-32 -75 -74 -75c-41 0 -74 33 -74 75s32 74 74 74z" />
    <glyph glyph-name="adieresis.ss03" horiz-adv-x="528" 
d="M160 558c-41 0 -74 33 -74 75s32 74 74 74s74 -32 74 -74s-32 -75 -74 -75zM356 558c-41 0 -74 33 -74 75s32 74 74 74s74 -32 74 -74s-32 -75 -74 -75zM261 503c130 0 211 -73 211 -192v-311h-110l-10 64c-29 -46 -85 -74 -150 -74c-104 0 -178 67 -178 161
c0 58 26 102 74 124c33 15 75 22 131 22h123v14c0 54 -36 87 -93 87c-50 0 -97 -26 -133 -74l-87 73c59 71 132 106 222 106zM221 92c72 0 131 51 131 115h-107c-41 0 -65 -5 -81 -17c-13 -9 -20 -23 -20 -41c0 -35 29 -57 77 -57z" />
    <glyph glyph-name="uni1EA1.ss03" horiz-adv-x="528" 
d="M261 503c130 0 211 -73 211 -192v-311h-110l-10 64c-29 -46 -85 -74 -150 -74c-104 0 -178 67 -178 161c0 58 26 102 74 124c33 15 75 22 131 22h123v14c0 54 -36 87 -93 87c-50 0 -97 -26 -133 -74l-87 73c59 71 132 106 222 106zM221 92c72 0 131 51 131 115h-107
c-41 0 -65 -5 -81 -17c-13 -9 -20 -23 -20 -41c0 -35 29 -57 77 -57zM258 -41c42 0 74 -32 74 -74s-32 -75 -74 -75c-41 0 -74 33 -74 75s32 74 74 74z" />
    <glyph glyph-name="cdotaccent.ss03" horiz-adv-x="494" 
d="M247 558c-41 0 -74 33 -74 75s32 74 74 74s74 -32 74 -74s-32 -75 -74 -75zM266 -10c-161 0 -239 125 -239 255s77 258 238 258c98 0 175 -47 213 -145l-114 -45c-13 52 -50 85 -99 85c-83 0 -115 -75 -115 -153s31 -150 115 -150c48 0 86 32 99 83l109 -42
c-33 -92 -109 -146 -207 -146z" />
    <glyph glyph-name="uni1EC7.ss03" horiz-adv-x="519" 
d="M264 613l-63 -72h-93l156 174l156 -174h-93zM490 253c0 -15 -1 -30 -3 -46h-338c5 -65 45 -108 123 -108c44 0 84 14 118 53l83 -73c-54 -60 -119 -89 -202 -89c-170 0 -242 122 -242 254c0 129 70 259 234 259c153 0 227 -113 227 -250zM148 302h227
c-2 63 -50 101 -113 101c-73 0 -107 -52 -114 -101zM271 -41c42 0 74 -32 74 -74s-32 -75 -74 -75c-41 0 -74 33 -74 75s32 74 74 74z" />
    <glyph glyph-name="edieresis.ss03" horiz-adv-x="519" 
d="M166 558c-41 0 -74 33 -74 75s32 74 74 74s74 -32 74 -74s-32 -75 -74 -75zM362 558c-41 0 -74 33 -74 75s32 74 74 74s74 -32 74 -74s-32 -75 -74 -75zM490 253c0 -15 -1 -30 -3 -46h-338c5 -65 45 -108 123 -108c44 0 84 14 118 53l83 -73c-54 -60 -119 -89 -202 -89
c-170 0 -242 122 -242 254c0 129 70 259 234 259c153 0 227 -113 227 -250zM148 302h227c-2 63 -50 101 -113 101c-73 0 -107 -52 -114 -101z" />
    <glyph glyph-name="edotaccent.ss03" horiz-adv-x="519" 
d="M264 558c-41 0 -74 33 -74 75s32 74 74 74s74 -32 74 -74s-32 -75 -74 -75zM490 253c0 -15 -1 -30 -3 -46h-338c5 -65 45 -108 123 -108c44 0 84 14 118 53l83 -73c-54 -60 -119 -89 -202 -89c-170 0 -242 122 -242 254c0 129 70 259 234 259c153 0 227 -113 227 -250z
M148 302h227c-2 63 -50 101 -113 101c-73 0 -107 -52 -114 -101z" />
    <glyph glyph-name="gdotaccent.ss03" horiz-adv-x="514" 
d="M256 558c-41 0 -74 33 -74 75s32 74 74 74s74 -32 74 -74s-32 -75 -74 -75zM259 75c100 -13 229 -24 229 -142c0 -103 -94 -147 -227 -147c-147 0 -231 54 -231 156c0 12 1 17 2 22l71 45c-35 19 -59 50 -59 101c0 43 17 74 46 99c-25 31 -40 70 -40 113
c0 107 92 181 202 181c43 0 83 -11 116 -31l75 64l63 -76l-71 -58c13 -25 21 -54 21 -86c0 -110 -92 -180 -200 -180c-34 0 -66 7 -95 19c-9 -6 -14 -14 -14 -26c0 -36 50 -46 112 -54zM254 403c-51 0 -84 -34 -84 -84c0 -47 28 -85 84 -85c55 0 82 37 82 85
c0 51 -31 84 -82 84zM266 -124c51 0 102 12 102 46c0 38 -63 42 -134 52l-41 6l-43 -41c-1 -3 -1 -6 -1 -8c0 -42 61 -55 117 -55z" />
    <glyph glyph-name="i.ss03" horiz-adv-x="260" 
d="M130 558c-41 0 -74 33 -74 75s32 74 74 74s74 -32 74 -74s-32 -75 -74 -75zM70 0v493h120v-493h-120z" />
    <glyph glyph-name="idieresis.ss03" horiz-adv-x="260" 
d="M32 558c-41 0 -74 33 -74 75s32 74 74 74s74 -32 74 -74s-32 -75 -74 -75zM228 558c-41 0 -74 33 -74 75s32 74 74 74s74 -32 74 -74s-32 -75 -74 -75zM70 0v493h120v-493h-120z" />
    <glyph glyph-name="i.loclTRK.ss03" horiz-adv-x="260" 
d="M130 558c-41 0 -74 33 -74 75s32 74 74 74s74 -32 74 -74s-32 -75 -74 -75zM70 0v493h120v-493h-120z" />
    <glyph glyph-name="uni1ECB.ss03" horiz-adv-x="260" 
d="M130 558c-41 0 -74 33 -74 75s32 74 74 74s74 -32 74 -74s-32 -75 -74 -75zM70 0v493h120v-493h-120zM130 -190c-41 0 -74 33 -74 75s32 74 74 74s74 -32 74 -74s-32 -75 -74 -75z" />
    <glyph glyph-name="iogonek.ss03" horiz-adv-x="260" 
d="M130 558c-41 0 -74 33 -74 75s32 74 74 74s74 -32 74 -74s-32 -75 -74 -75zM174 -120l61 -42c-24 -35 -58 -60 -108 -60c-64 0 -112 40 -112 101c0 63 48 103 81 121h-26v493h120v-493c-10 -4 -103 -38 -103 -109c0 -30 17 -39 37 -39c21 0 37 10 50 28z" />
    <glyph glyph-name="j.ss03" horiz-adv-x="262" 
d="M131 558c-41 0 -74 33 -74 75s32 74 74 74s74 -32 74 -74s-32 -75 -74 -75zM75 -214c-23 0 -50 5 -77 15v96c14 -4 27 -6 38 -6c22 0 35 9 35 31v571h120v-579c0 -88 -49 -128 -116 -128z" />
    <glyph glyph-name="uni1ED9.ss03" horiz-adv-x="546" 
d="M117 541l156 174l156 -174h-93l-63 72l-63 -72h-93zM273 -10c-153 0 -247 118 -247 257c0 140 94 256 247 256c152 0 247 -116 247 -256c0 -139 -95 -257 -247 -257zM273 95c91 0 127 72 127 152c0 81 -36 151 -127 151s-127 -70 -127 -151c0 -80 36 -152 127 -152z
M273 -190c-41 0 -74 33 -74 75s32 74 74 74s74 -32 74 -74s-32 -75 -74 -75z" />
    <glyph glyph-name="odieresis.ss03" horiz-adv-x="546" 
d="M175 558c-41 0 -74 33 -74 75s32 74 74 74s74 -32 74 -74s-32 -75 -74 -75zM371 558c-41 0 -74 33 -74 75s32 74 74 74s74 -32 74 -74s-32 -75 -74 -75zM273 -10c-153 0 -247 118 -247 257c0 140 94 256 247 256c152 0 247 -116 247 -256c0 -139 -95 -257 -247 -257z
M273 95c91 0 127 72 127 152c0 81 -36 151 -127 151s-127 -70 -127 -151c0 -80 36 -152 127 -152z" />
    <glyph glyph-name="uni1EE3.ss03" horiz-adv-x="546" 
d="M517 544h91v-39c0 -75 -30 -139 -105 -159c11 -31 17 -64 17 -99c0 -139 -95 -257 -247 -257c-153 0 -247 118 -247 257c0 140 94 256 247 256c80 0 145 -32 188 -84c46 5 56 47 56 76v49zM273 95c91 0 127 72 127 152c0 81 -36 151 -127 151s-127 -70 -127 -151
c0 -80 36 -152 127 -152zM273 -41c42 0 74 -32 74 -74s-32 -75 -74 -75c-41 0 -74 33 -74 75s32 74 74 74z" />
    <glyph glyph-name="gdotaccent.ss01.ss03" horiz-adv-x="573" 
d="M287 558c-41 0 -74 33 -74 75s32 74 74 74s74 -32 74 -74s-32 -75 -74 -75zM381 493h121v-473c0 -155 -94 -236 -242 -236c-111 0 -174 45 -218 106l92 76c20 -34 58 -77 130 -77c67 0 117 34 117 111v71c-35 -44 -86 -61 -139 -61c-138 0 -213 109 -213 247
c0 136 75 246 211 246c52 0 106 -17 141 -60v50zM269 121c87 0 122 63 122 136c0 72 -35 137 -122 137c-80 0 -118 -56 -118 -137c0 -83 39 -136 118 -136z" />
    <glyph glyph-name="gdotaccent.ss02.ss03" horiz-adv-x="526" 
d="M264 558c-41 0 -74 33 -74 75s32 74 74 74s74 -32 74 -74s-32 -75 -74 -75zM331 85c77 0 167 -38 167 -141c0 -94 -72 -158 -225 -158c-131 0 -251 36 -251 148c0 19 3 34 8 46l68 26c-33 20 -66 55 -66 110c0 40 18 80 61 107c-19 28 -29 62 -29 99
c0 107 88 181 201 181c44 0 83 -11 115 -30l75 64l61 -76l-71 -58c13 -25 20 -54 20 -85c0 -109 -90 -179 -200 -179c-39 0 -74 8 -103 24c-13 -10 -18 -23 -18 -35c0 -43 51 -43 93 -43h94zM267 408c-54 0 -83 -39 -83 -88c0 -48 29 -85 83 -85c52 0 81 37 81 85
c0 49 -29 88 -81 88zM265 -122c75 0 118 16 118 58c0 48 -53 48 -80 48h-126l-43 -37v-11c0 -17 15 -58 131 -58z" />
    <glyph glyph-name="udieresis.ss03" horiz-adv-x="571" 
d="M181 558c-41 0 -74 33 -74 75s32 74 74 74s74 -32 74 -74s-32 -75 -74 -75zM377 558c-41 0 -74 33 -74 75s32 74 74 74s74 -32 74 -74s-32 -75 -74 -75zM381 493h120v-493h-120v57c-35 -47 -89 -67 -147 -67c-124 0 -176 90 -176 195v308h120v-278c0 -34 0 -120 91 -120
c112 0 112 123 112 211v187z" />
    <glyph glyph-name="uni01D8.ss03" horiz-adv-x="571" 
d="M475 911l-152 -142h-88l111 142h129zM181 558c-41 0 -74 33 -74 75s32 74 74 74s74 -32 74 -74s-32 -75 -74 -75zM303 633c0 42 32 74 74 74s74 -32 74 -74s-32 -75 -74 -75c-41 0 -74 33 -74 75zM381 493h120v-493h-120v57c-35 -47 -89 -67 -147 -67
c-124 0 -176 90 -176 195v308h120v-278c0 -34 0 -120 91 -120c112 0 112 123 112 211v187z" />
    <glyph glyph-name="uni01DA.ss03" horiz-adv-x="571" 
d="M435 911l-156 -164l-156 164h93l63 -67l63 67h93zM181 558c-41 0 -74 33 -74 75s32 74 74 74s74 -32 74 -74s-32 -75 -74 -75zM377 707c42 0 74 -32 74 -74s-32 -75 -74 -75c-41 0 -74 33 -74 75s32 74 74 74zM381 493h120v-493h-120v57c-35 -47 -89 -67 -147 -67
c-124 0 -176 90 -176 195v308h120v-278c0 -34 0 -120 91 -120c112 0 112 123 112 211v187z" />
    <glyph glyph-name="uni01DC.ss03" horiz-adv-x="571" 
d="M324 769h-90l-142 142h128zM181 707c42 0 74 -32 74 -74s-32 -75 -74 -75c-41 0 -74 33 -74 75s32 74 74 74zM377 558c-41 0 -74 33 -74 75s32 74 74 74s74 -32 74 -74s-32 -75 -74 -75zM381 493h120v-493h-120v57c-35 -47 -89 -67 -147 -67c-124 0 -176 90 -176 195v308
h120v-278c0 -34 0 -120 91 -120c112 0 112 123 112 211v187z" />
    <glyph glyph-name="uni01D6.ss03" horiz-adv-x="571" 
d="M416 850v-70h-275v70h275zM181 558c-41 0 -74 33 -74 75s32 74 74 74s74 -32 74 -74s-32 -75 -74 -75zM303 633c0 42 32 74 74 74s74 -32 74 -74s-32 -75 -74 -75c-41 0 -74 33 -74 75zM381 493h120v-493h-120v57c-35 -47 -89 -67 -147 -67c-124 0 -176 90 -176 195v308
h120v-278c0 -34 0 -120 91 -120c112 0 112 123 112 211v187z" />
    <glyph glyph-name="uni1EE5.ss03" horiz-adv-x="571" 
d="M381 493h120v-493h-120v57c-35 -47 -89 -67 -147 -67c-124 0 -176 90 -176 195v308h120v-278c0 -34 0 -120 91 -120c112 0 112 123 112 211v187zM285 -41c42 0 74 -32 74 -74s-32 -75 -74 -75c-41 0 -74 33 -74 75s32 74 74 74z" />
    <glyph glyph-name="uni1EF1.ss03" horiz-adv-x="571" 
d="M486 617h91v-39c0 -64 -22 -121 -76 -148v-430h-120v57c-35 -47 -89 -67 -147 -67c-124 0 -176 90 -176 195v308h120v-278c0 -34 0 -120 91 -120c112 0 112 123 112 211v187h53c43 7 52 47 52 75v49zM285 -41c42 0 74 -32 74 -74s-32 -75 -74 -75c-41 0 -74 33 -74 75
s32 74 74 74z" />
    <glyph glyph-name="wdieresis.ss03" horiz-adv-x="722" 
d="M263 558c-41 0 -74 33 -74 75s32 74 74 74s74 -32 74 -74s-32 -75 -74 -75zM459 558c-41 0 -74 33 -74 75s32 74 74 74s74 -32 74 -74s-32 -75 -74 -75zM156 0l-152 493h128l84 -309l93 309h103l93 -308l85 308h128l-152 -493h-108l-97 323l-97 -323h-108z" />
    <glyph glyph-name="ydieresis.ss03" horiz-adv-x="505" 
d="M155 558c-41 0 -74 33 -74 75s32 74 74 74s74 -32 74 -74s-32 -75 -74 -75zM351 558c-41 0 -74 33 -74 75s32 74 74 74s74 -32 74 -74s-32 -75 -74 -75zM100 -204l88 217l-193 480h132l125 -342l126 342h132l-280 -697h-130z" />
    <glyph glyph-name="uni1EF5.ss03" horiz-adv-x="505" 
d="M100 -204l88 217l-193 480h132l125 -342l126 342h132l-280 -697h-130zM410 -221c-41 0 -74 33 -74 75s32 74 74 74s74 -32 74 -74s-32 -75 -74 -75z" />
    <glyph glyph-name="zdotaccent.ss03" horiz-adv-x="457" 
d="M228 558c-41 0 -74 33 -74 75s32 74 74 74s74 -32 74 -74s-32 -75 -74 -75zM185 101h239v-101h-397v80l249 312h-237v101h384v-86z" />
    <glyph glyph-name="T_h" horiz-adv-x="1049" 
d="M226 0v582h-218v115h658v-262c39 49 94 68 142 68c129 0 182 -104 182 -207v-296h-122v281c0 60 -16 113 -89 113c-77 0 -113 -63 -113 -145v-249h-123v582h-191v-582h-126z" />
    <glyph glyph-name="ordfeminine" unicode="&#xaa;" horiz-adv-x="430" 
d="M173 349c-65 0 -122 42 -122 109c0 76 60 108 137 108h96c0 9 -1 18 -3 25c-8 32 -30 49 -74 49c-42 0 -69 -26 -88 -52l-58 39c41 57 84 80 148 80c92 0 146 -56 146 -140v-210h-66l-2 41c-30 -33 -67 -49 -114 -49zM186 417c38 0 72 23 88 53c5 9 9 20 10 30h-91
c-39 0 -63 -16 -63 -42c0 -23 29 -41 56 -41z" />
    <glyph glyph-name="ordmasculine" unicode="&#xba;" horiz-adv-x="448" 
d="M224 351c-105 0 -176 80 -176 178c0 97 71 178 176 178c104 0 176 -81 176 -178c0 -98 -72 -178 -176 -178zM224 422c67 0 93 48 93 107c0 60 -26 107 -93 107s-93 -47 -93 -107c0 -59 26 -107 93 -107z" />
    <glyph glyph-name="uni0394" unicode="&#x394;" horiz-adv-x="599" 
d="M4 0l280 697h30l281 -697h-591zM152 101h296l-149 389z" />
    <glyph glyph-name="uni03A9" unicode="&#x3a9;" horiz-adv-x="788" 
d="M611 96h125v-96h-286v93c109 46 178 117 178 259c0 143 -91 241 -234 241s-234 -98 -234 -241c0 -142 69 -213 178 -259v-93h-286v96h125c-75 62 -123 161 -123 257c0 192 143 341 340 341s340 -149 340 -341c0 -96 -48 -195 -123 -257z" />
    <glyph glyph-name="uni03BC" unicode="&#x3bc;" horiz-adv-x="585" 
d="M71 -162v655h119v-281c0 -65 33 -111 94 -111c68 0 111 36 111 122v270h120v-493h-120v58c-39 -49 -97 -68 -145 -68c-32 0 -60 6 -82 17v-169h-97z" />
    <glyph glyph-name="pi" unicode="&#x3c0;" horiz-adv-x="558" 
d="M463 -10c-102 0 -112 71 -112 107v295h-162v-392h-101v392h-61v101h495v-101h-70v-279c0 -29 12 -34 22 -34c5 0 12 1 20 7l33 -79c-18 -12 -38 -17 -64 -17z" />
    <glyph glyph-name="zero" unicode="0" horiz-adv-x="586" 
d="M298 -10c-216 0 -242 211 -242 358c0 149 24 360 235 360c192 0 241 -187 241 -361c0 -172 -47 -357 -234 -357zM295 105c106 0 108 132 108 244c0 118 -3 244 -112 244s-112 -127 -112 -245c0 -114 3 -243 116 -243z" />
    <glyph glyph-name="one" unicode="1" horiz-adv-x="586" 
d="M279 697h120v-697h-120v488h-163v100h93c48 0 70 20 70 67v42z" />
    <glyph glyph-name="two" unicode="2" horiz-adv-x="586" 
d="M255 113h283v-113h-488v99c123 75 339 219 339 382c0 63 -32 109 -101 109c-88 0 -116 -75 -119 -147l-118 9c0 128 84 254 239 254c128 0 219 -86 219 -216c0 -157 -134 -303 -254 -377z" />
    <glyph glyph-name="three" unicode="3" horiz-adv-x="586" 
d="M288 -10c-139 0 -259 76 -259 230l119 7c0 -79 61 -122 143 -122c71 0 135 33 135 113c0 96 -94 99 -169 99v95c97 0 132 35 132 89c0 62 -45 91 -101 91c-64 0 -106 -37 -107 -100l-118 8c0 131 103 207 223 207c116 0 223 -71 223 -191c0 -54 -22 -106 -81 -138
c83 -26 118 -97 118 -173c0 -141 -122 -215 -258 -215z" />
    <glyph glyph-name="four" unicode="4" horiz-adv-x="586" 
d="M459 279h111v-115h-111v-164h-120v164h-326v72l341 461h105v-418zM165 279h174v245z" />
    <glyph glyph-name="five" unicode="5" horiz-adv-x="586" 
d="M307 479c140 0 237 -109 237 -236c0 -133 -106 -253 -255 -253c-134 0 -235 94 -252 211l118 20c7 -57 50 -116 133 -116c88 0 129 70 129 138c0 65 -38 124 -126 124c-59 0 -97 -29 -120 -65l-113 28l67 367h388v-115h-289l-25 -133c38 24 76 30 108 30z" />
    <glyph glyph-name="six" unicode="6" horiz-adv-x="586" 
d="M313 473c143 0 235 -104 235 -240c0 -144 -114 -243 -253 -243c-140 0 -255 99 -255 242c0 45 14 90 39 130l208 335h138l-147 -226c12 1 23 2 35 2zM295 105c73 0 131 48 131 128s-58 128 -131 128c-74 0 -132 -48 -132 -128s58 -128 132 -128z" />
    <glyph glyph-name="seven" unicode="7" horiz-adv-x="586" 
d="M43 697h503v-64l-309 -633h-138l295 582h-351v115z" />
    <glyph glyph-name="eight" unicode="8" horiz-adv-x="586" 
d="M293 -10c-134 0 -258 71 -258 216c0 76 34 137 101 173c-41 29 -67 72 -67 132c0 123 108 196 224 196s224 -73 224 -196c0 -60 -26 -103 -67 -132c67 -36 101 -97 101 -173c0 -144 -123 -216 -258 -216zM293 413c62 0 104 34 104 90c0 55 -43 89 -104 89
s-104 -34 -104 -89c0 -56 42 -90 104 -90zM293 104c78 0 138 38 138 113c0 73 -57 114 -138 114s-138 -41 -138 -114c0 -75 60 -113 138 -113z" />
    <glyph glyph-name="nine" unicode="9" horiz-adv-x="586" 
d="M292 707c140 0 255 -99 255 -242c0 -45 -14 -90 -39 -130l-208 -335h-138l147 226c-12 -1 -23 -2 -35 -2c-143 0 -235 104 -235 240c0 144 114 243 253 243zM292 336c74 0 132 48 132 128s-58 128 -132 128c-73 0 -131 -48 -131 -128s58 -128 131 -128z" />
    <glyph glyph-name="zero.lf" horiz-adv-x="571" 
d="M291 -10c-216 0 -242 211 -242 358c0 149 24 360 235 360c192 0 241 -187 241 -361c0 -172 -47 -357 -234 -357zM288 105c106 0 108 132 108 244c0 118 -3 244 -112 244s-112 -127 -112 -245c0 -114 3 -243 116 -243z" />
    <glyph glyph-name="one.lf" horiz-adv-x="375" 
d="M170 697h120v-697h-120v488h-163v100h93c48 0 70 20 70 67v42z" />
    <glyph glyph-name="two.lf" horiz-adv-x="553" 
d="M237 113h283v-113h-488v99c123 75 339 219 339 382c0 63 -32 109 -101 109c-88 0 -116 -75 -119 -147l-118 9c0 128 84 254 239 254c128 0 219 -86 219 -216c0 -157 -134 -303 -254 -377z" />
    <glyph glyph-name="three.lf" horiz-adv-x="572" 
d="M280 -10c-139 0 -259 76 -259 230l119 7c0 -79 61 -122 143 -122c71 0 135 33 135 113c0 96 -94 99 -169 99v95c97 0 132 35 132 89c0 62 -45 91 -101 91c-64 0 -106 -37 -107 -100l-118 8c0 131 103 207 223 207c116 0 223 -71 223 -191c0 -54 -22 -106 -81 -138
c83 -26 118 -97 118 -173c0 -141 -122 -215 -258 -215z" />
    <glyph glyph-name="four.lf" horiz-adv-x="573" 
d="M453 279h111v-115h-111v-164h-120v164h-326v72l341 461h105v-418zM159 279h174v245z" />
    <glyph glyph-name="five.lf" horiz-adv-x="576" 
d="M302 479c140 0 237 -109 237 -236c0 -133 -106 -253 -255 -253c-134 0 -235 94 -252 211l118 20c7 -57 50 -116 133 -116c88 0 129 70 129 138c0 65 -38 124 -126 124c-59 0 -97 -29 -120 -65l-113 28l67 367h388v-115h-289l-25 -133c38 24 76 30 108 30z" />
    <glyph glyph-name="six.lf" horiz-adv-x="547" 
d="M293 473c143 0 235 -104 235 -240c0 -144 -114 -243 -253 -243c-140 0 -255 99 -255 242c0 45 14 90 39 130l208 335h138l-147 -226c12 1 23 2 35 2zM275 105c73 0 131 48 131 128s-58 128 -131 128c-74 0 -132 -48 -132 -128s58 -128 132 -128z" />
    <glyph glyph-name="seven.lf" horiz-adv-x="519" 
d="M10 697h503v-64l-309 -633h-138l295 582h-351v115z" />
    <glyph glyph-name="eight.lf" horiz-adv-x="588" 
d="M294 -10c-134 0 -258 71 -258 216c0 76 34 137 101 173c-41 29 -67 72 -67 132c0 123 108 196 224 196s224 -73 224 -196c0 -60 -26 -103 -67 -132c67 -36 101 -97 101 -173c0 -144 -123 -216 -258 -216zM294 413c62 0 104 34 104 90c0 55 -43 89 -104 89
s-104 -34 -104 -89c0 -56 42 -90 104 -90zM294 104c78 0 138 38 138 113c0 73 -57 114 -138 114s-138 -41 -138 -114c0 -75 60 -113 138 -113z" />
    <glyph glyph-name="nine.lf" horiz-adv-x="546" 
d="M271 707c140 0 255 -99 255 -242c0 -45 -14 -90 -39 -130l-208 -335h-138l147 226c-12 -1 -23 -2 -35 -2c-143 0 -235 104 -235 240c0 144 114 243 253 243zM271 336c74 0 132 48 132 128s-58 128 -132 128c-73 0 -131 -48 -131 -128s58 -128 131 -128z" />
    <glyph glyph-name="fraction" unicode="&#x2044;" horiz-adv-x="162" 
d="M-172 0l420 697h85l-420 -697h-85z" />
    <glyph glyph-name="period" unicode="." horiz-adv-x="315" 
d="M97 0v130h121v-130h-121z" />
    <glyph glyph-name="comma" unicode="," horiz-adv-x="310" 
d="M65 -149l66 279h139l-126 -279h-79z" />
    <glyph glyph-name="colon" unicode=":" horiz-adv-x="329" 
d="M99 340v131h131v-131h-131zM99 0v130h131v-130h-131z" />
    <glyph glyph-name="semicolon" unicode=";" horiz-adv-x="324" 
d="M116 340v131h132v-131h-132zM49 -149l67 279h139l-126 -279h-80z" />
    <glyph glyph-name="ellipsis" unicode="&#x2026;" horiz-adv-x="723" 
d="M97 0v130h121v-130h-121zM301 0v130h121v-130h-121zM505 0v130h121v-130h-121z" />
    <glyph glyph-name="exclam" unicode="!" horiz-adv-x="309" 
d="M109 211l-14 486h119l-14 -486h-91zM89 0v130h131v-130h-131z" />
    <glyph glyph-name="exclamdown" unicode="&#xa1;" horiz-adv-x="309" 
d="M220 493v-130h-131v130h131zM200 282l14 -486h-119l14 486h91z" />
    <glyph glyph-name="question" unicode="?" horiz-adv-x="488" 
d="M189 209v72c0 162 165 114 165 231c0 66 -47 95 -115 95c-79 0 -113 -42 -113 -118h-106c0 138 86 218 215 218c120 0 224 -68 224 -197c0 -181 -168 -162 -168 -230v-71h-102zM176 0v130h131v-130h-131z" />
    <glyph glyph-name="questiondown" unicode="&#xbf;" horiz-adv-x="488" 
d="M312 493v-130h-131v130h131zM299 284v-72c0 -162 -165 -114 -165 -231c0 -66 47 -95 115 -95c79 0 113 42 113 118h106c0 -138 -86 -218 -215 -218c-120 0 -224 68 -224 197c0 181 168 162 168 230v71h102z" />
    <glyph glyph-name="periodcentered" unicode="&#xb7;" horiz-adv-x="299" 
d="M149 291c-42 0 -73 33 -73 74c0 40 32 72 73 72c40 0 73 -31 73 -72s-32 -74 -73 -74z" />
    <glyph glyph-name="bullet" unicode="&#x2022;" horiz-adv-x="371" 
d="M185 120c-65 0 -117 53 -117 117c0 65 52 118 117 118s117 -53 117 -118c0 -64 -52 -117 -117 -117z" />
    <glyph glyph-name="asterisk" unicode="*" horiz-adv-x="417" 
d="M156 411l-73 51l73 78l-105 16l28 82l97 -40l-14 99h90l-13 -99l97 40l27 -82l-105 -16l73 -78l-73 -51l-52 103z" />
    <glyph glyph-name="numbersign" unicode="#" horiz-adv-x="678" 
d="M108 0l44 204h-115v85h133l27 129h-119v89h137l45 190h95l-44 -194h123l42 194h95l-45 -194h115v-85h-133l-28 -129h121v-85h-139l-44 -204h-94l44 204h-124l-42 -204h-94zM265 289h123l26 129h-123z" />
    <glyph glyph-name="slash" unicode="/" horiz-adv-x="439" 
d="M-19 -212l364 909h113l-365 -909h-112z" />
    <glyph glyph-name="backslash" unicode="\" horiz-adv-x="439" 
d="M458 -212h-112l-365 909h113z" />
    <glyph glyph-name="uni2023" unicode="&#x2023;" horiz-adv-x="446" 
d="M98 71v384l328 -192z" />
    <glyph glyph-name="twodotenleader" unicode="&#x2025;" horiz-adv-x="519" 
d="M97 0v130h121v-130h-121zM301 0v130h121v-130h-121z" />
    <glyph glyph-name="period.ss03" horiz-adv-x="302" 
d="M151 -10c-41 0 -74 33 -74 75s32 74 74 74s74 -32 74 -74s-32 -75 -74 -75z" />
    <glyph glyph-name="colon.ss03" horiz-adv-x="295" 
d="M147 320c-41 0 -74 33 -74 75s32 74 74 74s74 -32 74 -74s-32 -75 -74 -75zM147 -10c-41 0 -74 33 -74 75s32 74 74 74s74 -32 74 -74s-32 -75 -74 -75z" />
    <glyph glyph-name="semicolon.ss03" horiz-adv-x="307" 
d="M177 320c-41 0 -74 33 -74 75s32 74 74 74s74 -32 74 -74s-32 -75 -74 -75zM39 -149l67 279h139l-126 -279h-80z" />
    <glyph glyph-name="ellipsis.ss03" horiz-adv-x="677" 
d="M150 -10c-41 0 -74 33 -74 75s32 74 74 74s74 -32 74 -74s-32 -75 -74 -75zM338 -10c-41 0 -74 33 -74 75s32 74 74 74s74 -32 74 -74s-32 -75 -74 -75zM526 -10c-41 0 -74 33 -74 75s32 74 74 74s74 -32 74 -74s-32 -75 -74 -75z" />
    <glyph glyph-name="exclam.ss03" horiz-adv-x="299" 
d="M102 211l-14 486h119l-14 -486h-91zM147 -10c-41 0 -74 33 -74 75s32 74 74 74s74 -32 74 -74s-32 -75 -74 -75z" />
    <glyph glyph-name="exclamdown.ss03" horiz-adv-x="303" 
d="M152 354c-42 0 -74 32 -74 74s32 75 74 75c41 0 74 -33 74 -75s-32 -74 -74 -74zM92 -204l14 486h91l14 -486h-119z" />
    <glyph glyph-name="question.ss03" horiz-adv-x="486" 
d="M188 209v72c0 162 165 114 165 231c0 66 -47 95 -115 95c-79 0 -113 -42 -113 -118h-106c0 138 86 218 215 218c120 0 224 -68 224 -197c0 -181 -168 -162 -168 -230v-71h-102zM240 -10c-41 0 -74 33 -74 75s32 74 74 74s74 -32 74 -74s-32 -75 -74 -75z" />
    <glyph glyph-name="questiondown.ss03" horiz-adv-x="486" 
d="M246 354c-42 0 -74 32 -74 74s32 75 74 75c41 0 74 -33 74 -75s-32 -74 -74 -74zM252 -214c-120 0 -224 68 -224 197c0 181 168 162 168 230v71h102v-72c0 -162 -165 -114 -165 -231c0 -66 47 -95 115 -95c79 0 113 42 113 118h106c0 -138 -86 -218 -215 -218z" />
    <glyph glyph-name="twodotenleader.ss03" horiz-adv-x="489" 
d="M150 -10c-41 0 -74 33 -74 75s32 74 74 74s74 -32 74 -74s-32 -75 -74 -75zM338 -10c-41 0 -74 33 -74 75s32 74 74 74s74 -32 74 -74s-32 -75 -74 -75z" />
    <glyph glyph-name="parenleft" unicode="(" horiz-adv-x="280" 
d="M169 -62c-76 79 -122 260 -122 410c0 192 49 330 120 409h108c-92 -114 -133 -248 -133 -411c0 -183 43 -291 132 -408h-105z" />
    <glyph glyph-name="parenright" unicode=")" horiz-adv-x="280" 
d="M111 -62h-105c89 117 132 225 132 408c0 163 -41 297 -133 411h108c71 -79 120 -217 120 -409c0 -150 -46 -331 -122 -410z" />
    <glyph glyph-name="braceleft" unicode="{" horiz-adv-x="301" 
d="M199 -77c-74 0 -110 55 -110 140v147c0 61 -35 72 -65 83v79c30 11 65 22 65 83v147c0 87 39 139 110 139h78v-77h-37c-38 0 -49 -29 -49 -64v-147c0 -68 -28 -99 -70 -118v-6c42 -19 70 -49 70 -117v-147c0 -36 11 -64 49 -64h37v-78h-78z" />
    <glyph glyph-name="braceright" unicode="}" horiz-adv-x="301" 
d="M24 -77v78h37c38 0 49 28 49 64v147c0 68 28 98 70 117v6c-42 19 -70 50 -70 118v147c0 35 -11 64 -49 64h-37v77h78c71 0 110 -52 110 -139v-147c0 -61 35 -72 65 -83v-79c-30 -11 -65 -22 -65 -83v-147c0 -85 -36 -140 -110 -140h-78z" />
    <glyph glyph-name="bracketleft" unicode="[" horiz-adv-x="312" 
d="M85 -81v857h213v-80h-116v-696h116v-81h-213z" />
    <glyph glyph-name="bracketright" unicode="]" horiz-adv-x="312" 
d="M14 -81v81h116v696h-116v80h213v-857h-213z" />
    <glyph glyph-name="hyphen" unicode="-" horiz-adv-x="424" 
d="M68 251v90h288v-90h-288z" />
    <glyph glyph-name="uni00AD" unicode="&#xad;" horiz-adv-x="494" 
d="M68 251v90h358v-90h-358z" />
    <glyph glyph-name="endash" unicode="&#x2013;" horiz-adv-x="514" 
d="M68 251v90h378v-90h-378z" />
    <glyph glyph-name="emdash" unicode="&#x2014;" horiz-adv-x="1010" 
d="M0 251v90h1010v-90h-1010z" />
    <glyph glyph-name="uni2015" unicode="&#x2015;" horiz-adv-x="757" 
d="M68 251v90h621v-90h-621z" />
    <glyph glyph-name="underscore" unicode="_" horiz-adv-x="553" 
d="M67 -91v91h419v-91h-419z" />
    <glyph glyph-name="quotesinglbase" unicode="&#x201a;" horiz-adv-x="282" 
d="M51 -149l66 279h139l-126 -279h-79z" />
    <glyph glyph-name="quotedblbase" unicode="&#x201e;" horiz-adv-x="484" 
d="M51 -149l66 279h139l-126 -279h-79zM253 -149l66 279h139l-126 -279h-79z" />
    <glyph glyph-name="quotedblleft" unicode="&#x201c;" horiz-adv-x="474" 
d="M25 417l126 280h79l-66 -280h-139zM217 417l125 280h80l-66 -280h-139z" />
    <glyph glyph-name="quotedblright" unicode="&#x201d;" horiz-adv-x="474" 
d="M51 418l66 279h139l-126 -279h-79zM243 418l66 279h139l-126 -279h-79z" />
    <glyph glyph-name="quoteleft" unicode="&#x2018;" horiz-adv-x="282" 
d="M25 417l126 280h79l-66 -280h-139z" />
    <glyph glyph-name="quoteright" unicode="&#x2019;" horiz-adv-x="282" 
d="M51 418l66 279h139l-126 -279h-79z" />
    <glyph glyph-name="guillemotleft" unicode="&#xab;" horiz-adv-x="543" 
d="M237 59l-233 193l233 193v-115l-98 -78l98 -78v-115zM473 59l-233 193l233 193v-115l-98 -78l98 -78v-115z" />
    <glyph glyph-name="guillemotright" unicode="&#xbb;" horiz-adv-x="544" 
d="M69 59v115l98 78l-98 78v115l233 -193zM305 59v115l98 78l-98 78v115l233 -193z" />
    <glyph glyph-name="guilsinglleft" unicode="&#x2039;" horiz-adv-x="307" 
d="M237 59l-233 193l233 193v-115l-98 -78l98 -78v-115z" />
    <glyph glyph-name="guilsinglright" unicode="&#x203a;" horiz-adv-x="308" 
d="M69 59v115l98 78l-98 78v115l233 -193z" />
    <glyph glyph-name="quotedbl" unicode="&#x22;" horiz-adv-x="441" 
d="M84 427v270h101v-270h-101zM256 427v270h101v-270h-101z" />
    <glyph glyph-name="quotesingle" unicode="'" horiz-adv-x="269" 
d="M84 441v256h101v-256h-101z" />
    <glyph glyph-name="uni00A0" unicode="&#xa0;" horiz-adv-x="278" 
 />
    <glyph glyph-name="uni20B3" unicode="&#x20b3;" horiz-adv-x="808" 
d="M79 0l48 121h-58v107h101l26 66h-127v107h170l119 296h94l118 -296h169v-107h-127l26 -66h101v-107h-58l48 -121h-135l-44 121h-290l-45 -121h-136zM364 401h82l-41 112zM300 228h210l-24 66h-162z" />
    <glyph glyph-name="cent" unicode="&#xa2;" horiz-adv-x="546" 
d="M289 95c48 0 86 32 99 83l109 -42c-27 -76 -84 -126 -158 -141v-107l-110 -1v110c-120 27 -178 136 -178 248c0 113 58 224 178 251v105h110v-102c74 -14 132 -60 163 -141l-114 -45c-13 52 -50 85 -99 85c-83 0 -115 -75 -115 -153s31 -150 115 -150z" />
    <glyph glyph-name="currency" unicode="&#xa4;" horiz-adv-x="661" 
d="M147 64l-63 66l52 52c-53 77 -52 182 0 258l-51 51l64 67l52 -54c78 54 182 55 259 1l52 52l65 -64l-53 -52c54 -77 54 -182 0 -260l53 -51l-64 -66l-53 53c-77 -53 -182 -53 -260 0zM227 210c58 -57 149 -56 204 0c56 57 58 145 0 202c-56 56 -146 56 -203 -1
c-54 -55 -53 -150 -1 -201z" />
    <glyph glyph-name="dollar" unicode="$" horiz-adv-x="588" 
d="M546 203c0 -114 -76 -194 -190 -212v-108l-110 -1v110c-110 20 -192 96 -209 205l124 31c9 -83 64 -130 145 -130c70 0 115 35 115 94c0 48 -36 78 -139 119c-146 57 -198 110 -198 211c0 96 63 166 162 185v101h110v-101c68 -14 122 -55 157 -122l-104 -64
c-24 52 -65 80 -112 80c-50 0 -88 -33 -88 -76c0 -46 34 -72 139 -113c149 -57 198 -110 198 -209z" />
    <glyph glyph-name="Euro" unicode="&#x20ac;" horiz-adv-x="689" 
d="M436 109c64 0 110 20 144 49l65 -104c-53 -42 -123 -64 -209 -64c-171 0 -286 99 -324 248h-61l1 80h48c-1 10 -1 21 -1 31c0 13 1 26 2 39h-48v80h61c40 144 155 239 322 239c86 0 156 -21 209 -63l-65 -104c-34 29 -80 49 -144 49c-94 0 -159 -47 -191 -121h270l-1 -80
h-290c-1 -13 -2 -26 -2 -39c0 -11 0 -21 1 -31h291l-2 -80h-271c31 -78 98 -129 195 -129z" />
    <glyph glyph-name="florin" unicode="&#x192;" horiz-adv-x="458" 
d="M35 -215v91c95 0 127 30 127 139v388h-88v90h88v62c0 92 66 159 148 159c47 0 82 -18 122 -52l-65 -77c-25 21 -35 28 -57 28c-23 0 -47 -15 -47 -58v-62h113v-90h-113v-398c0 -154 -82 -220 -228 -220z" />
    <glyph glyph-name="uni20B4" unicode="&#x20b4;" horiz-adv-x="711" 
d="M549 485h103v-87h-591v87h372c7 10 11 22 11 36c0 45 -38 75 -88 75c-46 0 -88 -27 -112 -75l-104 64c47 85 136 122 222 122c115 0 198 -73 198 -164c0 -19 -4 -38 -11 -58zM61 258v86h591v-86h-379c-26 -24 -39 -50 -39 -75c0 -44 39 -80 113 -80c66 0 122 30 140 99
l121 -38c-35 -115 -146 -172 -259 -172c-142 0 -235 81 -235 180c0 28 7 57 23 86h-76z" />
    <glyph glyph-name="uni20B1" unicode="&#x20b1;" horiz-adv-x="662" 
d="M631 519v-50h-45c-11 -107 -93 -180 -236 -180h-104v-289h-124v469h-58v50h58v178h228c160 0 227 -71 236 -178h45zM246 580v-61h214c-9 40 -39 61 -111 61h-103zM349 406c73 0 103 22 111 63h-214v-63h103z" />
    <glyph glyph-name="uni20BD" unicode="&#x20bd;" horiz-adv-x="662" 
d="M155 0v129h-88v97h88v73h-88v107h88v291h218c142 0 246 -75 246 -206c0 -130 -104 -192 -246 -192h-94v-73h164v-97h-164v-129h-124zM279 406h94c86 0 122 29 122 85s-37 89 -122 89h-94v-174z" />
    <glyph glyph-name="sterling" unicode="&#xa3;" horiz-adv-x="599" 
d="M285 236c0 -61 -24 -105 -59 -135h319v-101h-480v102c61 26 121 78 121 135c0 16 -5 44 -10 61h-109v101h85c-10 22 -19 71 -19 110c0 113 76 204 207 204c107 0 185 -60 205 -153l-93 -35c-12 66 -58 87 -110 87c-66 0 -108 -33 -108 -106c0 -35 10 -81 22 -107h196
v-101h-173c3 -15 6 -39 6 -62z" />
    <glyph glyph-name="uni20B8" unicode="&#x20b8;" horiz-adv-x="675" 
d="M57 595v102h561v-102h-561zM275 0v421h-218v102h561v-102h-218v-421h-125z" />
    <glyph glyph-name="yen" unicode="&#xa5;" horiz-adv-x="699" 
d="M285 0v104h-156v97h156v66h-156v97h99l-205 333h152l174 -305l174 305h153l-204 -333h97v-97h-154v-66h154v-97h-154v-104h-130z" />
    <glyph glyph-name="plus" unicode="+" horiz-adv-x="587" 
d="M244 53v206h-206v100h206v205h100v-205h205v-100h-205v-206h-100z" />
    <glyph glyph-name="minus" unicode="&#x2212;" horiz-adv-x="618" 
d="M104 261v100h410v-100h-410z" />
    <glyph glyph-name="multiply" unicode="&#xd7;" horiz-adv-x="528" 
d="M118 80l-70 69l146 147l-146 146l70 70l145 -146l147 146l70 -70l-146 -146l146 -147l-70 -69l-147 145z" />
    <glyph glyph-name="divide" unicode="&#xf7;" horiz-adv-x="505" 
d="M187 421v130h131v-130h-131zM42 261v100h421v-100h-421zM187 71v130h131v-130h-131z" />
    <glyph glyph-name="equal" unicode="=" horiz-adv-x="619" 
d="M105 393v100h409v-100h-409zM105 172v100h409v-100h-409z" />
    <glyph glyph-name="notequal" unicode="&#x2260;" horiz-adv-x="621" 
d="M57 0l104 172h-86v100h146l73 121h-219v100h280l123 204h84l-123 -204h105v-100h-165l-73 -121h238v-100h-298l-104 -172h-85z" />
    <glyph glyph-name="greater" unicode="&#x3e;" horiz-adv-x="640" 
d="M86 -14l-45 79l398 227l-398 227l45 79l537 -306z" />
    <glyph glyph-name="less" unicode="&#x3c;" horiz-adv-x="640" 
d="M554 -14l-537 306l537 306l45 -79l-398 -227l398 -227z" />
    <glyph glyph-name="greaterequal" unicode="&#x2265;" horiz-adv-x="665" 
d="M98 77l-45 79l398 227l-398 227l45 79l537 -306zM53 -91v91h560v-91h-560z" />
    <glyph glyph-name="lessequal" unicode="&#x2264;" horiz-adv-x="665" 
d="M567 77l-537 306l537 306l45 -79l-398 -227l398 -227zM52 -91v91h560v-91h-560z" />
    <glyph glyph-name="plusminus" unicode="&#xb1;" horiz-adv-x="645" 
d="M277 93v210h-225v91h225v210h91v-210h225v-91h-225v-210h-91zM52 -91v91h541v-91h-541z" />
    <glyph glyph-name="approxequal" unicode="&#x2248;" horiz-adv-x="600" 
d="M387 346c-119 0 -109 114 -176 114c-28 0 -44 -34 -44 -85h-91c0 99 53 165 135 165c122 0 114 -113 176 -113c27 0 46 41 46 96h91c0 -104 -54 -177 -137 -177zM387 103c-119 0 -109 113 -176 113c-28 0 -44 -33 -44 -85h-91c0 99 53 166 135 166
c122 0 114 -113 176 -113c27 0 46 40 46 96h91c0 -104 -54 -177 -137 -177z" />
    <glyph glyph-name="asciitilde" unicode="~" horiz-adv-x="600" 
d="M387 164c-119 0 -109 113 -176 113c-28 0 -44 -34 -44 -85h-91c0 99 53 166 135 166c122 0 114 -114 176 -114c27 0 46 41 46 96h91c0 -104 -54 -176 -137 -176z" />
    <glyph glyph-name="logicalnot" unicode="&#xac;" horiz-adv-x="637" 
d="M417 143v143h-352v107h467v-250h-115z" />
    <glyph glyph-name="asciicircum" unicode="^" horiz-adv-x="603" 
d="M22 207l279 531l280 -531h-127l-153 306l-151 -306h-128z" />
    <glyph glyph-name="infinity" unicode="&#x221e;" horiz-adv-x="924" 
d="M262 175c-124 0 -196 78 -196 188s72 188 196 188c68 0 144 -37 200 -107c56 71 132 107 200 107c123 0 196 -78 196 -188s-73 -188 -196 -188c-69 0 -145 36 -200 106c-57 -71 -133 -106 -200 -106zM277 272c38 0 94 29 131 91c-38 62 -93 91 -131 91
c-64 0 -104 -33 -104 -91c0 -59 40 -91 104 -91zM646 272c64 0 105 32 105 91c0 58 -41 91 -105 91c-38 0 -93 -30 -131 -91c39 -63 93 -91 131 -91z" />
    <glyph glyph-name="integral" unicode="&#x222b;" horiz-adv-x="439" 
d="M18 -225v101c111 0 152 35 152 134v551c0 88 66 153 148 153c39 0 78 -14 110 -42l-64 -77c-18 14 -33 18 -46 18c-23 0 -47 -14 -47 -56v-550c0 -151 -100 -232 -253 -232z" />
    <glyph glyph-name="uni2126" unicode="&#x2126;" horiz-adv-x="824" 
d="M629 96h125v-96h-286v93c109 46 178 117 178 259c0 143 -91 241 -234 241s-234 -98 -234 -241c0 -142 69 -213 178 -259v-93h-286v96h125c-75 62 -123 161 -123 257c0 192 143 341 340 341s340 -149 340 -341c0 -96 -48 -195 -123 -257z" />
    <glyph glyph-name="uni2206" unicode="&#x2206;" horiz-adv-x="634" 
d="M22 0l280 697h30l281 -697h-591zM170 101h296l-149 389z" />
    <glyph glyph-name="product" unicode="&#x220f;" horiz-adv-x="658" 
d="M114 0v596h-40v101h511v-101h-41v-596h-101v596h-228v-596h-101z" />
    <glyph glyph-name="summation" unicode="&#x2211;" horiz-adv-x="631" 
d="M578 697v-114h-334l236 -235l-236 -234h334v-114h-540v56l279 292l-279 293v56h540z" />
    <glyph glyph-name="radical" unicode="&#x221a;" horiz-adv-x="588" 
d="M240 -119l-138 386h-78v101h151l71 -228l216 557h108z" />
    <glyph glyph-name="uni00B5" unicode="&#xb5;" horiz-adv-x="636" 
d="M106 -162v655h119v-281c0 -65 33 -111 94 -111c68 0 111 36 111 122v270h120v-493h-120v58c-39 -49 -97 -68 -145 -68c-32 0 -60 6 -82 17v-169h-97z" />
    <glyph glyph-name="partialdiff" unicode="&#x2202;" horiz-adv-x="629" 
d="M275 -6c-145 0 -229 96 -229 228c0 163 129 274 263 274c48 0 95 -14 138 -43c0 34 -5 64 -16 88c-21 48 -61 76 -120 76c-36 0 -90 -11 -117 -78l-88 28c35 88 114 138 216 138c174 0 246 -145 246 -328c0 -224 -108 -383 -293 -383zM282 97c107 0 168 93 168 175
c0 66 -40 126 -126 126c-112 0 -166 -93 -166 -175c0 -86 59 -126 124 -126z" />
    <glyph glyph-name="percent" unicode="%" horiz-adv-x="700" 
d="M183 385c-86 0 -145 68 -145 161s58 161 142 161c83 0 143 -70 143 -162c0 -90 -59 -160 -140 -160zM98 0l420 697h85l-420 -697h-85zM183 466c34 0 59 33 59 79c0 49 -25 81 -62 81c-38 0 -61 -31 -61 -80s24 -80 64 -80zM521 -10c-86 0 -144 68 -144 162
c0 92 57 160 141 160c83 0 144 -70 144 -161s-60 -161 -141 -161zM521 71c35 0 60 33 60 80c0 48 -25 80 -63 80c-37 0 -60 -31 -60 -79c0 -50 24 -81 63 -81z" />
    <glyph glyph-name="uni2031" unicode="&#x2031;" horiz-adv-x="1338" 
d="M183 385c-86 0 -145 68 -145 161s58 161 142 161c83 0 143 -70 143 -162c0 -90 -59 -160 -140 -160zM98 0l420 697h85l-420 -697h-85zM183 466c34 0 59 33 59 79c0 49 -25 81 -62 81c-38 0 -61 -31 -61 -80s24 -80 64 -80zM521 -10c-86 0 -144 68 -144 162
c0 92 57 160 141 160c83 0 144 -70 144 -161s-60 -161 -141 -161zM842 -10c-85 0 -144 68 -144 162c0 92 58 160 141 160s144 -70 144 -161s-60 -161 -141 -161zM1164 -10c-86 0 -145 68 -145 162c0 92 58 160 142 160c82 0 143 -70 143 -161s-60 -161 -140 -161zM521 71
c35 0 60 33 60 80c0 48 -25 80 -63 80c-37 0 -60 -31 -60 -79c0 -50 24 -81 63 -81zM842 71c35 0 60 33 60 80c0 48 -25 80 -63 80c-37 0 -60 -31 -60 -79c0 -50 24 -81 63 -81zM1164 71c34 0 59 33 59 80c0 48 -25 80 -62 80c-38 0 -61 -31 -61 -79c0 -50 24 -81 64 -81z
" />
    <glyph glyph-name="perthousand" unicode="&#x2030;" horiz-adv-x="1017" 
d="M183 385c-86 0 -145 68 -145 161s58 161 142 161c83 0 143 -70 143 -162c0 -90 -59 -160 -140 -160zM98 0l420 697h85l-420 -697h-85zM183 466c34 0 59 33 59 79c0 49 -25 81 -62 81c-38 0 -61 -31 -61 -80s24 -80 64 -80zM521 -10c-86 0 -144 68 -144 162
c0 92 57 160 141 160c83 0 144 -70 144 -161s-60 -161 -141 -161zM842 -10c-85 0 -144 68 -144 162c0 92 58 160 141 160s144 -70 144 -161s-60 -161 -141 -161zM521 71c35 0 60 33 60 80c0 48 -25 80 -63 80c-37 0 -60 -31 -60 -79c0 -50 24 -81 63 -81zM842 71
c35 0 60 33 60 80c0 48 -25 80 -63 80c-37 0 -60 -31 -60 -79c0 -50 24 -81 63 -81z" />
    <glyph glyph-name="divide.ss03" horiz-adv-x="503" 
d="M252 402c-41 0 -74 33 -74 75s32 74 74 74s74 -32 74 -74s-32 -75 -74 -75zM41 261v100h421v-100h-421zM252 72c-41 0 -74 33 -74 75s32 74 74 74s74 -32 74 -74s-32 -75 -74 -75z" />
    <glyph glyph-name="arrowright" unicode="&#x2192;" horiz-adv-x="1101" 
d="M547 -3l-40 80l311 175l-818 -1v90l818 -1l-311 175l40 80l537 -299z" />
    <glyph glyph-name="arrowleft" unicode="&#x2190;" horiz-adv-x="1133" 
d="M554 16l-537 299l537 297l40 -80l-308 -171l815 -1v-91l-816 1l309 -174z" />
    <glyph glyph-name="lozenge" unicode="&#x25ca;" horiz-adv-x="594" 
d="M217 0l-188 348l188 349h160l188 -349l-188 -348h-160zM291 63h12l143 285l-143 286h-12l-144 -286z" />
    <glyph glyph-name="uniF8FF" unicode="&#xf8ff;" horiz-adv-x="834" 
d="M417 -10c-209 0 -378 170 -378 378s169 378 378 378s378 -170 378 -378s-169 -378 -378 -378zM417 26c189 0 342 154 342 342s-153 342 -342 342s-342 -154 -342 -342s153 -342 342 -342zM201 217c-10 0 -18 8 -18 18v265c0 10 8 18 18 18s18 -8 18 -18v-265
c0 -10 -8 -18 -18 -18zM417 217c-10 0 -18 8 -18 18v265c0 10 8 18 18 18s18 -8 18 -18v-265c0 -10 -8 -18 -18 -18zM635 217c-5 0 -10 2 -13 5l-145 134c-4 3 -5 8 -5 12s2 9 5 12l143 131c5 5 9 7 14 7c6 0 17 -5 17 -17c0 -4 -1 -8 -5 -12l-132 -121l132 -122
c3 -3 5 -7 5 -12c0 -8 -7 -17 -16 -17zM273 350c-10 0 -18 8 -18 18s8 18 18 18h72c10 0 18 -8 18 -18s-8 -18 -18 -18h-72z" />
    <glyph glyph-name="at" unicode="@" horiz-adv-x="989" 
d="M491 -172c-244 0 -444 165 -444 429c0 250 181 449 452 449c276 0 445 -205 445 -437c0 -153 -73 -306 -229 -306c-63 0 -106 25 -126 68c-6 14 -10 30 -12 48c-42 -39 -94 -58 -145 -58c-112 0 -165 94 -165 198c0 133 87 304 239 304c62 0 105 -28 128 -66l9 42h97
c-21 -113 -74 -286 -74 -383c0 -41 10 -55 46 -55c101 0 139 113 139 210c0 181 -131 343 -351 343c-218 0 -359 -158 -359 -355c0 -212 161 -334 351 -334c45 0 82 7 119 19l33 -89c-47 -18 -95 -27 -153 -27zM440 117c105 0 162 120 162 214c0 60 -23 96 -82 96
c-106 0 -162 -119 -162 -212c0 -61 25 -98 82 -98z" />
    <glyph glyph-name="ampersand" unicode="&#x26;" horiz-adv-x="678" 
d="M653 38l-85 -75l-92 105c-56 -49 -129 -79 -210 -79c-128 0 -229 62 -229 174c0 106 79 166 162 214c-30 31 -83 90 -83 164c0 102 98 164 193 164c101 0 185 -71 185 -163c0 -84 -57 -139 -125 -185l98 -110c11 30 17 63 17 96l117 -12c-3 -64 -22 -124 -52 -176z
M232 539c0 -36 37 -83 59 -109c52 32 92 65 92 110c0 38 -25 71 -73 71c-41 0 -78 -25 -78 -72zM263 91c57 0 106 22 143 58l-132 150c-65 -40 -120 -80 -120 -138c0 -47 44 -70 109 -70z" />
    <glyph glyph-name="paragraph" unicode="&#xb6;" horiz-adv-x="637" 
d="M254 -121v428c-116 0 -224 72 -224 195s108 195 224 195h83v-818h-83zM446 -121v818h85v-818h-85z" />
    <glyph glyph-name="section" unicode="&#xa7;" horiz-adv-x="593" 
d="M290 -214c-86 0 -165 37 -212 122l104 64c24 -48 66 -75 112 -75c50 0 88 30 88 75c0 57 -65 81 -138 109c-93 36 -199 79 -199 209c0 60 22 108 59 144c-11 22 -18 49 -18 81c0 123 100 192 217 192c86 0 165 -37 212 -122l-104 -64c-24 48 -66 75 -112 75
c-50 0 -88 -30 -88 -75c0 -57 65 -81 138 -109c93 -36 199 -79 199 -209c0 -60 -22 -108 -59 -144c11 -22 18 -49 18 -81c0 -123 -100 -192 -217 -192zM405 140c12 14 18 32 18 52c0 64 -66 90 -139 119c-25 10 -59 21 -96 42c-12 -14 -18 -32 -18 -52
c0 -64 66 -90 139 -119c25 -10 59 -21 96 -42z" />
    <glyph glyph-name="copyright" unicode="&#xa9;" horiz-adv-x="847" 
d="M424 -14c-208 0 -376 161 -376 362s168 363 376 363c207 0 375 -162 375 -363s-168 -362 -375 -362zM424 62c166 0 300 128 300 286c0 159 -134 287 -300 287c-167 0 -301 -128 -301 -287c0 -158 134 -286 301 -286zM434 137c-132 0 -196 103 -196 210s63 212 195 212
c81 0 145 -39 176 -120l-94 -36c-11 38 -41 67 -82 67c-67 0 -95 -62 -95 -123s27 -120 95 -120c41 0 71 27 82 65l89 -34c-26 -76 -89 -121 -170 -121z" />
    <glyph glyph-name="registered" unicode="&#xae;" horiz-adv-x="847" 
d="M424 -14c-208 0 -376 161 -376 362s168 363 376 363c207 0 375 -162 375 -363s-168 -362 -375 -362zM424 62c166 0 300 128 300 286c0 159 -134 287 -300 287c-167 0 -301 -128 -301 -287c0 -158 134 -286 301 -286zM299 142v413h133c85 0 145 -50 145 -123
c0 -48 -31 -89 -78 -107l113 -183h-91l-100 175h-21h-22v-175h-79zM378 382h61c38 2 59 21 59 49c0 33 -24 53 -65 53h-55v-102z" />
    <glyph glyph-name="trademark" unicode="&#x2122;" horiz-adv-x="754" 
d="M135 432v196h-72v69h218v-69h-71v-196h-75zM334 432v265h122l37 -157l36 157h120v-265h-75v188l-57 -188h-48l-60 188v-188h-75z" />
    <glyph glyph-name="degree" unicode="&#xb0;" horiz-adv-x="429" 
d="M214 418c-79 0 -144 65 -144 145c0 79 65 144 144 144c80 0 145 -65 145 -144c0 -80 -65 -145 -145 -145zM214 499c37 0 65 28 65 64c0 35 -28 63 -65 63c-35 0 -63 -28 -63 -63c0 -36 28 -64 63 -64z" />
    <glyph glyph-name="bar" unicode="|" horiz-adv-x="303" 
d="M107 -254v1000h89v-1000h-89z" />
    <glyph glyph-name="brokenbar" unicode="&#xa6;" horiz-adv-x="313" 
d="M107 330v416h99v-416h-99zM107 -254v409h99v-409h-99z" />
    <glyph glyph-name="dagger" unicode="&#x2020;" horiz-adv-x="380" 
d="M135 -101v500h-109v109h109v189h109v-189h110v-109h-110v-500h-109z" />
    <glyph glyph-name="daggerdbl" unicode="&#x2021;" horiz-adv-x="435" 
d="M163 -101v189h-109v109h109v202h-109v109h109v189h109v-189h109v-109h-109v-202h109v-109h-109v-189h-109z" />
    <glyph glyph-name="uni2116" unicode="&#x2116;" horiz-adv-x="1207" 
d="M523 210v487h120v-697h-125l-292 491v-491h-120v697h124zM939 164c-125 0 -207 97 -207 212c0 114 82 210 207 210s208 -96 208 -210c0 -115 -83 -212 -208 -212zM939 500c-75 0 -104 -59 -104 -124c0 -67 29 -127 104 -127s105 60 105 127c0 65 -30 124 -105 124zM732 0
v91h408v-91h-408z" />
    <glyph glyph-name="uni02F6" unicode="&#x2f6;" horiz-adv-x="545" 
d="M51 330l111 163h128l-151 -163h-88zM263 330l111 163h129l-152 -163h-88z" />
    <glyph glyph-name="uni02F5" unicode="&#x2f5;" horiz-adv-x="545" 
d="M194 330l-152 163h129l111 -163h-88zM406 330l-151 163h128l111 -163h-88z" />
    <glyph glyph-name="uni0308" unicode="&#x308;" 
d="M-364 586v111h101v-111h-101zM-169 586v111h101v-111h-101z" />
    <glyph glyph-name="uni0307" unicode="&#x307;" 
d="M-194 586v111h126v-111h-126z" />
    <glyph glyph-name="gravecomb" unicode="&#x300;" 
d="M-108 555l-142 142h128l104 -142h-90z" />
    <glyph glyph-name="acutecomb" unicode="&#x301;" 
d="M-248 555l111 142h129l-152 -142h-88z" />
    <glyph glyph-name="uni030B" unicode="&#x30b;" 
d="M-438 534l111 163h108l-131 -163h-88zM-246 534l111 163h128l-151 -163h-88z" />
    <glyph glyph-name="uni030C.alt" 
d="M-199 473l56 224h126l-112 -224h-70z" />
    <glyph glyph-name="uni0302" unicode="&#x302;" 
d="M-316 541l156 174l156 -174h-93l-63 72l-63 -72h-93z" />
    <glyph glyph-name="uni030C" unicode="&#x30c;" 
d="M-162 533l-156 164h93l63 -67l63 67h93z" />
    <glyph glyph-name="uni0306" unicode="&#x306;" 
d="M-199 564c-108 0 -156 47 -156 133h85c0 -43 32 -63 71 -63c41 0 71 22 71 63h85c0 -90 -53 -133 -156 -133z" />
    <glyph glyph-name="uni030A" unicode="&#x30a;" 
d="M-154 527c-64 0 -114 53 -114 114c0 63 51 114 114 114c61 0 114 -50 114 -114c0 -63 -51 -114 -114 -114zM-154 592c29 0 49 21 49 50c0 28 -18 48 -49 48c-30 0 -49 -20 -49 -48c0 -29 21 -50 49 -50z" />
    <glyph glyph-name="tildecomb" unicode="&#x303;" 
d="M-151 556c-78 0 -92 70 -129 70c-20 0 -32 -24 -32 -67h-69c0 90 41 141 106 141c69 0 90 -70 125 -70c17 0 30 24 30 67h72c0 -91 -40 -141 -103 -141z" />
    <glyph glyph-name="uni0304" unicode="&#x304;" 
d="M-342 566v70h275v-70h-275z" />
    <glyph glyph-name="hookabovecomb" unicode="&#x309;" 
d="M-164 532l-14 49c30 4 61 8 61 38c0 33 -38 33 -74 33h-15v66h15c89 0 150 -34 150 -97c0 -69 -72 -81 -123 -89z" />
    <glyph glyph-name="uni030F" unicode="&#x30f;" 
d="M-296 534l-151 163h128l111 -163h-88zM-104 534l-131 163h108l111 -163h-88z" />
    <glyph glyph-name="uni0312" unicode="&#x312;" 
d="M-228 552l122 155h70l-67 -155h-125z" />
    <glyph glyph-name="uni031B" unicode="&#x31b;" 
d="M-201 493v79c54 0 65 45 65 76v49h91v-39c0 -90 -44 -165 -156 -165z" />
    <glyph glyph-name="dotbelowcomb" unicode="&#x323;" 
d="M-194 -173v111h126v-111h-126z" />
    <glyph glyph-name="uni0326" unicode="&#x326;" 
d="M-206 -226l67 173h125l-122 -173h-70z" />
    <glyph glyph-name="uni0327" unicode="&#x327;" 
d="M-149 -258c-24 0 -57 7 -86 32l38 58c20 -18 39 -21 51 -21c24 0 40 16 40 40c0 29 -25 44 -54 49c-19 3 -41 4 -63 4l60 96h71l-38 -49c19 -4 35 -10 49 -18c29 -17 45 -45 45 -79c0 -63 -48 -112 -113 -112z" />
    <glyph glyph-name="uni0328" unicode="&#x328;" 
d="M-126 -222c-64 0 -112 40 -112 101c0 63 48 103 81 121h94c-10 -4 -103 -38 -103 -109c0 -30 17 -39 37 -39c21 0 37 10 50 28l61 -42c-24 -35 -58 -60 -108 -60z" />
    <glyph glyph-name="uni0335" unicode="&#x335;" 
d="M-391 251v80h323v-80h-323z" />
    <glyph glyph-name="uni0336" unicode="&#x336;" 
d="M-723 245v71h656v-71h-656z" />
    <glyph glyph-name="uni0337" unicode="&#x337;" 
d="M-256 196v124l232 183v-122z" />
    <glyph glyph-name="uni0338" unicode="&#x338;" 
d="M-424 0l351 579h90l-351 -579h-90z" />
    <glyph glyph-name="dieresis" unicode="&#xa8;" horiz-adv-x="432" 
d="M68 586v111h101v-111h-101zM263 586v111h101v-111h-101z" />
    <glyph glyph-name="dotaccent" unicode="&#x2d9;" horiz-adv-x="262" 
d="M68 586v111h126v-111h-126z" />
    <glyph glyph-name="grave" unicode="`" horiz-adv-x="258" 
d="M150 555l-142 142h128l104 -142h-90z" />
    <glyph glyph-name="acute" unicode="&#xb4;" horiz-adv-x="264" 
d="M16 555l111 142h129l-152 -142h-88z" />
    <glyph glyph-name="hungarumlaut" unicode="&#x2dd;" horiz-adv-x="454" 
d="M16 534l111 163h108l-131 -163h-88zM208 534l111 163h128l-151 -163h-88z" />
    <glyph glyph-name="circumflex" unicode="&#x2c6;" horiz-adv-x="320" 
d="M4 541l156 174l156 -174h-93l-63 72l-63 -72h-93z" />
    <glyph glyph-name="caron" unicode="&#x2c7;" horiz-adv-x="324" 
d="M162 533l-156 164h93l63 -67l63 67h93z" />
    <glyph glyph-name="breve" unicode="&#x2d8;" horiz-adv-x="398" 
d="M199 564c-108 0 -156 47 -156 133h85c0 -43 32 -63 71 -63c41 0 71 22 71 63h85c0 -90 -53 -133 -156 -133z" />
    <glyph glyph-name="ring" unicode="&#x2da;" horiz-adv-x="308" 
d="M154 527c-64 0 -114 53 -114 114c0 63 51 114 114 114c61 0 114 -50 114 -114c0 -63 -51 -114 -114 -114zM154 592c29 0 49 21 49 50c0 28 -18 48 -49 48c-30 0 -49 -20 -49 -48c0 -29 21 -50 49 -50z" />
    <glyph glyph-name="tilde" unicode="&#x2dc;" horiz-adv-x="428" 
d="M277 556c-78 0 -92 70 -129 70c-20 0 -32 -24 -32 -67h-69c0 90 41 141 106 141c69 0 90 -70 125 -70c17 0 30 24 30 67h72c0 -91 -40 -141 -103 -141z" />
    <glyph glyph-name="macron" unicode="&#xaf;" horiz-adv-x="409" 
d="M67 566v70h275v-70h-275z" />
    <glyph glyph-name="cedilla" unicode="&#xb8;" horiz-adv-x="273" 
d="M124 -258c-41 0 -81 27 -97 64l67 28c5 -13 18 -23 33 -23c24 0 40 16 40 38c0 32 -34 55 -83 55h-34l60 95h71l-38 -48c11 -2 20 -4 28 -7c43 -14 66 -46 66 -90c0 -63 -48 -112 -113 -112z" />
    <glyph glyph-name="ogonek" unicode="&#x2db;" horiz-adv-x="278" 
d="M152 -222c-64 0 -112 40 -112 101c0 80 81 121 81 121h94c-10 -3 -103 -41 -103 -105c0 -35 17 -43 37 -43c21 0 37 10 50 28l61 -42c-24 -35 -58 -60 -108 -60z" />
    <glyph glyph-name="uni030A.case" 
d="M-154 527c-64 0 -114 53 -114 114c0 63 51 114 114 114c61 0 114 -50 114 -114c0 -63 -51 -114 -114 -114zM-154 592c29 0 49 21 49 50c0 28 -18 48 -49 48c-30 0 -49 -20 -49 -48c0 -29 21 -50 49 -50z" />
    <glyph glyph-name="uni0337.case" 
d="M-310 127v124l294 232v-122z" />
    <glyph glyph-name="uni0338.case" 
d="M-570 0l502 697h90l-502 -697h-90z" />
    <glyph glyph-name="uni0308.ss03" 
d="M-319 558c-41 0 -74 33 -74 75s32 74 74 74s74 -32 74 -74s-32 -75 -74 -75zM-123 558c-41 0 -74 33 -74 75s32 74 74 74s74 -32 74 -74s-32 -75 -74 -75z" />
    <glyph glyph-name="uni0307.ss03" 
d="M-123 558c-41 0 -74 33 -74 75s32 74 74 74s74 -32 74 -74s-32 -75 -74 -75z" />
    <glyph glyph-name="dotbelowcomb.ss03" 
d="M-123 -190c-41 0 -74 33 -74 75s32 74 74 74s74 -32 74 -74s-32 -75 -74 -75z" />
    <glyph glyph-name="dieresis.ss03" horiz-adv-x="441" 
d="M122 558c-41 0 -74 33 -74 75s32 74 74 74s74 -32 74 -74s-32 -75 -74 -75zM318 558c-41 0 -74 33 -74 75s32 74 74 74s74 -32 74 -74s-32 -75 -74 -75z" />
    <glyph glyph-name="dotaccent.ss03" horiz-adv-x="245" 
d="M122 558c-41 0 -74 33 -74 75s32 74 74 74s74 -32 74 -74s-32 -75 -74 -75z" />
    <glyph glyph-name="uni03060301" 
d="M-248 759l111 142h129l-152 -142h-88zM-204 564c-108 0 -156 47 -156 133h85c0 -43 32 -63 71 -63c41 0 71 22 71 63h85c0 -90 -53 -133 -156 -133z" />
    <glyph glyph-name="uni03060300" 
d="M-209 759l-142 142h128l104 -142h-90zM-164 564c-108 0 -156 47 -156 133h85c0 -43 32 -63 71 -63c41 0 71 22 71 63h85c0 -90 -53 -133 -156 -133z" />
    <glyph glyph-name="uni03060309" 
d="M-190 736l-14 49c30 4 61 8 61 38c0 33 -38 33 -74 33h-15v66h15c89 0 150 -34 150 -97c0 -69 -72 -81 -123 -89zM-180 564c-108 0 -156 47 -156 133h85c0 -43 32 -63 71 -63c41 0 71 22 71 63h85c0 -90 -53 -133 -156 -133z" />
    <glyph glyph-name="uni03060303" 
d="M-145 760c-78 0 -92 70 -129 70c-20 0 -32 -24 -32 -67h-69c0 90 41 141 106 141c69 0 90 -70 125 -70c17 0 30 24 30 67h72c0 -91 -40 -141 -103 -141zM-208 564c-108 0 -156 47 -156 133h85c0 -43 32 -63 71 -63c41 0 71 22 71 63h85c0 -90 -53 -133 -156 -133z" />
    <glyph glyph-name="uni03020301" 
d="M-237 743l111 142h129l-152 -142h-88zM-349 541l156 174l156 -174h-93l-63 72l-63 -72h-93z" />
    <glyph glyph-name="uni03020300" 
d="M-187 743l-142 142h128l104 -142h-90zM-298 541l156 174l156 -174h-93l-63 72l-63 -72h-93z" />
    <glyph glyph-name="uni03020309" 
d="M-172 720l-14 49c30 4 61 8 61 38c0 33 -38 33 -74 33h-15v66h15c89 0 150 -34 150 -97c0 -69 -72 -81 -123 -89zM-318 541l156 174l156 -174h-93l-63 72l-63 -72h-93z" />
    <glyph glyph-name="uni03020303" 
d="M-126 744c-78 0 -92 70 -129 70c-20 0 -32 -24 -32 -67h-69c0 90 41 141 106 141c69 0 90 -70 125 -70c17 0 30 24 30 67h72c0 -91 -40 -141 -103 -141zM-345 541l156 174l156 -174h-93l-63 72l-63 -72h-93z" />
    </font>
</defs>
</svg>
