<?xml version="1.0" standalone="no"?>
<!DOCTYPE svg PUBLIC "-//W3C//DTD SVG 1.1//EN" "http://www.w3.org/Graphics/SVG/1.1/DTD/svg11.dtd" >
<svg xmlns="http://www.w3.org/2000/svg" xmlns:xlink="http://www.w3.org/1999/xlink" version="1.1">
<metadata>
Created by FontForge 20201107 at Tue Feb 18 00:35:36 2020
 By Jimmy Wärting
Copyright \(c\) 2019 by Alfredo Marco Pradil. All rights reserved.
</metadata>
<defs>
<font id="HKGrotesk-Regular" horiz-adv-x="0" >
  <font-face 
    font-family="HK Grotesk"
    font-weight="400"
    font-stretch="normal"
    units-per-em="1000"
    panose-1="0 0 5 0 0 0 0 0 0 0"
    ascent="800"
    descent="-200"
    x-height="493"
    cap-height="697"
    bbox="-720 -255 1305 1126"
    underline-thickness="10"
    underline-position="-121"
    stemh="10"
    stemv="10"
    unicode-range="U+0020-FB02"
  />
<missing-glyph horiz-adv-x="686" 
d="M136 0v476h414v-476h-414zM146 10h394v456h-394v-456z" />
    <glyph glyph-name="f_f" unicode="ff" horiz-adv-x="604" 
d="M102 0v435h-85v58h85v45c0 102 84 167 188 167c41 0 84 -10 120 -32c26 21 63 32 103 32c27 0 52 -7 76 -19l-23 -56c-16 8 -32 13 -48 13c-54 0 -84 -25 -84 -81v-69h154v-58h-154v-435h-68v435h-195v-435h-69zM171 493h195v76c0 23 5 42 15 58c-25 14 -57 21 -88 21
c-78 0 -122 -45 -122 -111v-44z" />
    <glyph glyph-name="f_f_i" unicode="ffi" horiz-adv-x="784" 
d="M102 0v435h-85v58h85v45c0 102 84 167 188 167c48 0 93 -13 131 -39c31 26 74 39 120 39c62 0 110 -17 152 -47l-33 -48c-34 26 -73 38 -116 38c-71 0 -110 -35 -110 -116v-39h264v-493h-69v435h-195v-435h-68v435h-195v-435h-69zM171 493h195v40c0 34 6 66 22 90
c-27 16 -59 25 -95 25c-78 0 -122 -45 -122 -111v-44z" />
    <glyph glyph-name="f_f_l" unicode="ffl" horiz-adv-x="813" 
d="M719 -8c-55 0 -90 31 -90 102v532c-24 14 -55 22 -85 22c-71 0 -110 -35 -110 -116v-39h112v-58h-112v-435h-68v435h-195v-435h-69v435h-85v58h85v45c0 102 84 167 188 167c44 0 93 -12 131 -38c31 25 73 38 120 38c62 0 110 -17 157 -49v-544c0 -40 17 -57 46 -57
c11 0 29 3 47 9l1 -59c-25 -7 -51 -13 -73 -13zM171 493h195v40c0 38 8 68 21 90c-25 16 -59 25 -94 25c-78 0 -122 -45 -122 -111v-44z" />
    <glyph glyph-name="fi" unicode="fi" horiz-adv-x="517" 
d="M431 493v-493h-69v435h-191v-435h-69v435h-85v58h85v40c0 117 79 172 176 172c60 0 108 -16 153 -47l-33 -48c-33 24 -69 38 -117 38c-71 0 -110 -35 -110 -116v-39h260z" />
    <glyph glyph-name="fl" unicode="fl" horiz-adv-x="546" 
d="M457 -8c-55 0 -94 31 -94 122v508c-26 17 -56 26 -91 26c-67 0 -104 -35 -104 -116v-39h109l-1 -58h-108v-435h-69v435h-82v58h82v40c0 117 76 172 170 172c62 0 101 -12 162 -48v-545c0 -48 18 -57 47 -57c12 0 29 3 47 9v-59c-24 -7 -47 -13 -68 -13z" />
    <glyph glyph-name="H_d_c_o.liga" unicode="Hdco" horiz-adv-x="890" 
d="M445 -10c-209 0 -378 170 -378 378s169 378 378 378s378 -170 378 -378s-169 -378 -378 -378zM445 26c189 0 342 154 342 342s-153 342 -342 342s-342 -154 -342 -342s153 -342 342 -342zM229 217c-10 0 -18 8 -18 18v265c0 10 8 18 18 18s18 -8 18 -18v-265
c0 -10 -8 -18 -18 -18zM445 217c-10 0 -18 8 -18 18v265c0 10 8 18 18 18s18 -8 18 -18v-265c0 -10 -8 -18 -18 -18zM663 217c-5 0 -10 2 -13 5l-145 134c-4 3 -5 8 -5 12s2 9 5 12l143 131c5 5 9 7 14 7c6 0 17 -5 17 -17c0 -4 -1 -8 -5 -12l-132 -121l132 -122
c3 -3 5 -7 5 -12c0 -8 -7 -17 -16 -17zM301 350c-10 0 -18 8 -18 18s8 18 18 18h72c10 0 18 -8 18 -18s-8 -18 -18 -18h-72z" />
    <glyph glyph-name="h_d_c_o.liga" unicode="hdco" horiz-adv-x="890" 
d="M445 -10c-209 0 -378 170 -378 378s169 378 378 378s378 -170 378 -378s-169 -378 -378 -378zM445 26c189 0 342 154 342 342s-153 342 -342 342s-342 -154 -342 -342s153 -342 342 -342zM229 217c-10 0 -18 8 -18 18v265c0 10 8 18 18 18s18 -8 18 -18v-265
c0 -10 -8 -18 -18 -18zM445 217c-10 0 -18 8 -18 18v265c0 10 8 18 18 18s18 -8 18 -18v-265c0 -10 -8 -18 -18 -18zM663 217c-5 0 -10 2 -13 5l-145 134c-4 3 -5 8 -5 12s2 9 5 12l143 131c5 5 9 7 14 7c6 0 17 -5 17 -17c0 -4 -1 -8 -5 -12l-132 -121l132 -122
c3 -3 5 -7 5 -12c0 -8 -7 -17 -16 -17zM301 350c-10 0 -18 8 -18 18s8 18 18 18h72c10 0 18 -8 18 -18s-8 -18 -18 -18h-72z" />
    <glyph glyph-name="hyphen_greater.liga" unicode="&#x2d;&#x3e;" horiz-adv-x="1082" 
d="M536 34l-23 46l358 201l-871 -1v53h871l-358 199l23 47l490 -272z" />
    <glyph glyph-name="less_hyphen.liga" unicode="&#x3c;&#x2d;" horiz-adv-x="1082" 
d="M546 34l-490 273l490 272l23 -47l-358 -199h871v-53l-871 1l358 -201z" />
    <glyph glyph-name=".notdef" horiz-adv-x="686" 
d="M136 0v476h414v-476h-414zM146 10h394v456h-394v-456z" />
    <glyph glyph-name="space" unicode=" " horiz-adv-x="273" 
 />
    <glyph glyph-name="A" unicode="A" horiz-adv-x="652" 
d="M537 0l-66 187h-290l-67 -187h-78l260 697h59l261 -697h-79zM202 248h247l-123 348z" />
    <glyph glyph-name="Aacute" unicode="&#xc1;" horiz-adv-x="652" 
d="M482 901l-129 -141h-53l108 141h74zM537 0l-66 187h-290l-67 -187h-78l260 697h59l261 -697h-79zM202 248h247l-123 348z" />
    <glyph glyph-name="Abreve" unicode="&#x102;" horiz-adv-x="652" 
d="M326 770c-101 0 -151 46 -151 131h50c0 -59 40 -89 101 -89c63 0 101 32 101 89h50c0 -87 -54 -131 -151 -131zM537 0l-66 187h-290l-67 -187h-78l260 697h59l261 -697h-79zM202 248h247l-123 348z" />
    <glyph glyph-name="uni1EAE" unicode="&#x1eae;" horiz-adv-x="652" 
d="M482 1105l-129 -141h-53l108 141h74zM326 770c-101 0 -151 46 -151 131h50c0 -59 40 -89 101 -89c63 0 101 32 101 89h50c0 -87 -54 -131 -151 -131zM537 0l-66 187h-290l-67 -187h-78l260 697h59l261 -697h-79zM202 248h247l-123 348z" />
    <glyph glyph-name="uni1EB6" unicode="&#x1eb6;" horiz-adv-x="652" 
d="M326 770c-101 0 -151 46 -151 131h50c0 -59 40 -89 101 -89c63 0 101 32 101 89h50c0 -87 -54 -131 -151 -131zM616 0h-79l-66 187h-290l-67 -187h-78l260 697h59zM202 248h247l-123 348zM286 -173v101h80v-101h-80z" />
    <glyph glyph-name="uni1EB0" unicode="&#x1eb0;" horiz-adv-x="652" 
d="M353 964h-54l-124 141h74zM326 770c-101 0 -151 46 -151 131h50c0 -59 40 -89 101 -89c63 0 101 32 101 89h50c0 -87 -54 -131 -151 -131zM537 0l-66 187h-290l-67 -187h-78l260 697h59l261 -697h-79zM202 248h247l-123 348z" />
    <glyph glyph-name="uni1EB2" unicode="&#x1eb2;" horiz-adv-x="652" 
d="M388 1030c0 41 -45 56 -92 56h-15v40h15c80 0 139 -34 139 -98c0 -67 -66 -78 -115 -88l-12 39c38 6 80 14 80 51zM326 770c-101 0 -151 46 -151 131h50c0 -59 40 -89 101 -89c63 0 101 32 101 89h50c0 -87 -54 -131 -151 -131zM537 0l-66 187h-290l-67 -187h-78l260 697
h59l261 -697h-79zM202 248h247l-123 348z" />
    <glyph glyph-name="uni1EB4" unicode="&#x1eb4;" horiz-adv-x="652" 
d="M258 1065c-31 0 -50 -29 -50 -78h-41c0 77 36 122 93 122c75 0 81 -86 135 -86c26 0 46 31 46 82h43c0 -79 -36 -127 -89 -127c-83 0 -84 87 -137 87zM326 812c63 0 101 32 101 89h50c0 -87 -54 -131 -151 -131c-101 0 -151 46 -151 131h50c0 -59 40 -89 101 -89zM537 0
l-66 187h-290l-67 -187h-78l260 697h59l261 -697h-79zM202 248h247l-123 348z" />
    <glyph glyph-name="uni01CD" unicode="&#x1cd;" horiz-adv-x="652" 
d="M475 901l-149 -153l-149 153h57l92 -95l92 95h57zM537 0l-66 187h-290l-67 -187h-78l260 697h59l261 -697h-79zM202 248h247l-123 348z" />
    <glyph glyph-name="Acircumflex" unicode="&#xc2;" horiz-adv-x="652" 
d="M326 850l-91 -98h-58l149 159l149 -159h-57zM537 0l-66 187h-290l-67 -187h-78l260 697h59l261 -697h-79zM202 248h247l-123 348z" />
    <glyph glyph-name="uni1EA4" unicode="&#x1ea4;" horiz-adv-x="652" 
d="M482 1090l-129 -141h-53l108 141h74zM326 850l-91 -98h-58l149 159l149 -159h-57zM537 0l-66 187h-290l-67 -187h-78l260 697h59l261 -697h-79zM202 248h247l-123 348z" />
    <glyph glyph-name="uni1EAC" unicode="&#x1eac;" horiz-adv-x="652" 
d="M326 850l-91 -98h-58l149 159l149 -159h-57zM616 0h-79l-66 187h-290l-67 -187h-78l260 697h59zM202 248h247l-123 348zM286 -173v101h80v-101h-80z" />
    <glyph glyph-name="uni1EA6" unicode="&#x1ea6;" horiz-adv-x="652" 
d="M353 949h-54l-124 141h74zM177 752l149 159l149 -159h-57l-92 98l-91 -98h-58zM537 0l-66 187h-290l-67 -187h-78l260 697h59l261 -697h-79zM202 248h247l-123 348z" />
    <glyph glyph-name="uni1EA8" unicode="&#x1ea8;" horiz-adv-x="652" 
d="M388 1015c0 41 -45 56 -92 56h-15v40h15c80 0 139 -34 139 -98c0 -67 -66 -78 -115 -88l-12 39c38 6 80 14 80 51zM326 850l-91 -98h-58l149 159l149 -159h-57zM537 0l-66 187h-290l-67 -187h-78l260 697h59l261 -697h-79zM202 248h247l-123 348z" />
    <glyph glyph-name="uni1EAA" unicode="&#x1eaa;" horiz-adv-x="652" 
d="M258 1050c-31 0 -50 -29 -50 -78h-41c0 77 36 122 93 122c75 0 81 -86 135 -86c26 0 46 31 46 82h43c0 -79 -36 -127 -89 -127c-83 0 -84 87 -137 87zM177 752l149 159l149 -159h-57l-92 98l-91 -98h-58zM537 0l-66 187h-290l-67 -187h-78l260 697h59l261 -697h-79z
M202 248h247l-123 348z" />
    <glyph glyph-name="Adieresis" unicode="&#xc4;" horiz-adv-x="652" 
d="M276 901v-102h-80v102h80zM456 901v-102h-80v102h80zM537 0l-66 187h-290l-67 -187h-78l260 697h59l261 -697h-79zM202 248h247l-123 348z" />
    <glyph glyph-name="uni1EA0" unicode="&#x1ea0;" horiz-adv-x="652" 
d="M616 0h-79l-66 187h-290l-67 -187h-78l260 697h59zM202 248h247l-123 348zM286 -173v101h80v-101h-80z" />
    <glyph glyph-name="Agrave" unicode="&#xc0;" horiz-adv-x="652" 
d="M353 760h-54l-124 141h74zM537 0l-66 187h-290l-67 -187h-78l260 697h59l261 -697h-79zM202 248h247l-123 348z" />
    <glyph glyph-name="uni1EA2" unicode="&#x1ea2;" horiz-adv-x="652" 
d="M388 826c0 41 -45 56 -92 56h-15v40h15c80 0 139 -34 139 -98c0 -67 -66 -78 -115 -88l-12 39c38 6 80 14 80 51zM537 0l-66 187h-290l-67 -187h-78l260 697h59l261 -697h-79zM202 248h247l-123 348z" />
    <glyph glyph-name="Amacron" unicode="&#x100;" horiz-adv-x="652" 
d="M460 845v-42h-270v42h270zM537 0l-66 187h-290l-67 -187h-78l260 697h59l261 -697h-79zM202 248h247l-123 348z" />
    <glyph glyph-name="Aogonek" unicode="&#x104;" horiz-adv-x="652" 
d="M622 -142l34 -27c-24 -27 -56 -45 -93 -45c-51 0 -91 32 -91 84c0 58 45 104 86 130h-21l-66 187h-290l-67 -187h-78l260 697h59l261 -697c-35 -21 -101 -63 -101 -124c0 -33 22 -45 46 -45c23 0 43 10 61 27zM202 248h247l-123 348z" />
    <glyph glyph-name="Aring" unicode="&#xc5;" horiz-adv-x="652" 
d="M537 0l-66 187h-290l-67 -187h-78l257 688c-38 14 -64 50 -64 91c0 54 44 97 97 97c52 0 97 -43 97 -97c0 -42 -27 -78 -64 -91l257 -688h-79zM268 779c0 -32 25 -58 58 -58s58 26 58 58c0 33 -24 58 -58 58c-33 0 -58 -25 -58 -58zM202 248h247l-123 348z" />
    <glyph glyph-name="Atilde" unicode="&#xc3;" horiz-adv-x="652" 
d="M258 861c-31 0 -50 -29 -50 -78h-41c0 77 36 122 93 122c75 0 81 -86 135 -86c26 0 46 31 46 82h43c0 -79 -36 -127 -89 -127c-83 0 -84 87 -137 87zM537 0l-66 187h-290l-67 -187h-78l260 697h59l261 -697h-79zM202 248h247l-123 348z" />
    <glyph glyph-name="AE" unicode="&#xc6;" horiz-adv-x="906" 
d="M36 0l260 697h551v-63h-375v-254h326v-61h-326v-254h375v-65h-448v167h-226l-59 -167h-78zM195 223h204v413h-58z" />
    <glyph glyph-name="B" unicode="B" horiz-adv-x="638" 
d="M114 0v697h214c131 0 208 -64 208 -174c0 -72 -33 -127 -92 -152c83 -21 128 -83 128 -176c0 -125 -80 -195 -223 -195h-235zM185 393h157c77 0 123 45 123 118c0 76 -50 120 -137 120h-143v-238zM185 66h159c100 0 156 48 156 135c0 82 -50 130 -137 130h-178v-265z" />
    <glyph glyph-name="C" unicode="C" horiz-adv-x="729" 
d="M385 -10c-198 0 -317 135 -317 360c0 224 121 357 322 357c140 0 238 -64 287 -191l-66 -25c-37 100 -111 148 -221 148c-160 0 -251 -104 -251 -289c0 -186 90 -292 246 -292c109 0 187 51 226 151l68 -25c-52 -127 -155 -194 -294 -194z" />
    <glyph glyph-name="Cacute" unicode="&#x106;" horiz-adv-x="729" 
d="M367 760l108 141h74l-129 -141h-53zM385 -10c-198 0 -317 135 -317 360c0 224 121 357 322 357c140 0 238 -64 287 -191l-66 -25c-37 100 -111 148 -221 148c-160 0 -251 -104 -251 -289c0 -186 90 -292 246 -292c109 0 187 51 226 151l68 -25
c-52 -127 -155 -194 -294 -194z" />
    <glyph glyph-name="Ccaron" unicode="&#x10c;" horiz-adv-x="729" 
d="M393 748l-149 153h57l92 -95l92 95h57zM385 -10c-198 0 -317 135 -317 360c0 224 121 357 322 357c140 0 238 -64 287 -191l-66 -25c-37 100 -111 148 -221 148c-160 0 -251 -104 -251 -289c0 -186 90 -292 246 -292c109 0 187 51 226 151l68 -25
c-52 -127 -155 -194 -294 -194z" />
    <glyph glyph-name="Ccedilla" unicode="&#xc7;" horiz-adv-x="729" 
d="M679 184c-49 -120 -144 -186 -271 -193l-34 -55c26 -4 46 -8 64 -16c33 -15 52 -39 52 -77c0 -57 -41 -98 -103 -98c-31 0 -67 16 -89 47l25 33c16 -26 42 -38 66 -38c37 0 59 20 59 55c0 33 -24 49 -55 57c-20 5 -46 7 -76 7l49 84c-187 9 -298 142 -298 360
c0 224 121 357 322 357c140 0 238 -64 287 -191l-66 -25c-37 100 -111 148 -221 148c-160 0 -251 -104 -251 -289c0 -186 90 -292 246 -292c109 0 187 51 226 151z" />
    <glyph glyph-name="Cdotaccent" unicode="&#x10a;" horiz-adv-x="729" 
d="M353 799v102h80v-102h-80zM385 -10c-198 0 -317 135 -317 360c0 224 121 357 322 357c140 0 238 -64 287 -191l-66 -25c-37 100 -111 148 -221 148c-160 0 -251 -104 -251 -289c0 -186 90 -292 246 -292c109 0 187 51 226 151l68 -25c-52 -127 -155 -194 -294 -194z" />
    <glyph glyph-name="D" unicode="D" horiz-adv-x="725" 
d="M114 0v697h189c227 0 356 -129 356 -354c0 -222 -126 -343 -357 -343h-188zM185 66h111c195 0 291 92 291 280c0 189 -96 285 -285 285h-117v-565z" />
    <glyph glyph-name="Eth" unicode="&#xd0;" horiz-adv-x="725" 
d="M303 697c227 0 356 -129 356 -354c0 -222 -126 -343 -357 -343h-188v325h-74v47h74v325h189zM296 66c195 0 291 92 291 280c0 189 -96 285 -285 285h-117v-259h125v-47h-125v-259h111z" />
    <glyph glyph-name="Dcaron" unicode="&#x10e;" horiz-adv-x="725" 
d="M364 748l-149 153h57l92 -95l92 95h57zM114 0v697h189c227 0 356 -129 356 -354c0 -222 -126 -343 -357 -343h-188zM185 66h111c195 0 291 92 291 280c0 189 -96 285 -285 285h-117v-565z" />
    <glyph glyph-name="Dcroat" unicode="&#x110;" horiz-adv-x="725" 
d="M303 697c227 0 356 -129 356 -354c0 -222 -126 -343 -357 -343h-188v325h-74v47h74v325h189zM296 66c195 0 291 92 291 280c0 189 -96 285 -285 285h-117v-259h125v-47h-125v-259h111z" />
    <glyph glyph-name="E" unicode="E" horiz-adv-x="632" 
d="M114 0v697h457v-66h-386v-243h347v-66h-347v-256h386v-66h-457z" />
    <glyph glyph-name="Eacute" unicode="&#xc9;" horiz-adv-x="632" 
d="M316 760l108 141h74l-129 -141h-53zM114 0v697h457v-66h-386v-243h347v-66h-347v-256h386v-66h-457z" />
    <glyph glyph-name="Ecaron" unicode="&#x11a;" horiz-adv-x="632" 
d="M342 748l-149 153h57l92 -95l92 95h57zM114 0v697h457v-66h-386v-243h347v-66h-347v-256h386v-66h-457z" />
    <glyph glyph-name="Ecircumflex" unicode="&#xca;" horiz-adv-x="632" 
d="M193 752l149 159l149 -159h-57l-92 98l-91 -98h-58zM114 0v697h457v-66h-386v-243h347v-66h-347v-256h386v-66h-457z" />
    <glyph glyph-name="uni1EBE" unicode="&#x1ebe;" horiz-adv-x="632" 
d="M316 949l108 141h74l-129 -141h-53zM193 752l149 159l149 -159h-57l-92 98l-91 -98h-58zM114 0v697h457v-66h-386v-243h347v-66h-347v-256h386v-66h-457z" />
    <glyph glyph-name="uni1EC6" unicode="&#x1ec6;" horiz-adv-x="632" 
d="M193 752l149 159l149 -159h-57l-92 98l-91 -98h-58zM114 0v697h457v-66h-386v-243h347v-66h-347v-256h386v-66h-457zM302 -173v101h80v-101h-80z" />
    <glyph glyph-name="uni1EC0" unicode="&#x1ec0;" horiz-adv-x="632" 
d="M315 949l-124 141h74l104 -141h-54zM193 752l149 159l149 -159h-57l-92 98l-91 -98h-58zM114 0v697h457v-66h-386v-243h347v-66h-347v-256h386v-66h-457z" />
    <glyph glyph-name="uni1EC2" unicode="&#x1ec2;" horiz-adv-x="632" 
d="M336 925l-12 39c38 6 80 14 80 51c0 41 -45 56 -92 56h-15v40h15c80 0 139 -34 139 -98c0 -67 -66 -78 -115 -88zM193 752l149 159l149 -159h-57l-92 98l-91 -98h-58zM114 0v697h457v-66h-386v-243h347v-66h-347v-256h386v-66h-457z" />
    <glyph glyph-name="uni1EC4" unicode="&#x1ec4;" horiz-adv-x="632" 
d="M411 963c-83 0 -84 87 -137 87c-31 0 -50 -29 -50 -78h-41c0 77 36 122 93 122c75 0 81 -86 135 -86c26 0 46 31 46 82h43c0 -79 -36 -127 -89 -127zM193 752l149 159l149 -159h-57l-92 98l-91 -98h-58zM114 0v697h457v-66h-386v-243h347v-66h-347v-256h386v-66h-457z
" />
    <glyph glyph-name="Edieresis" unicode="&#xcb;" horiz-adv-x="632" 
d="M212 799v102h80v-102h-80zM392 799v102h80v-102h-80zM114 0v697h457v-66h-386v-243h347v-66h-347v-256h386v-66h-457z" />
    <glyph glyph-name="Edotaccent" unicode="&#x116;" horiz-adv-x="632" 
d="M302 799v102h80v-102h-80zM114 0v697h457v-66h-386v-243h347v-66h-347v-256h386v-66h-457z" />
    <glyph glyph-name="uni1EB8" unicode="&#x1eb8;" horiz-adv-x="632" 
d="M114 0v697h457v-66h-386v-243h347v-66h-347v-256h386v-66h-457zM302 -173v101h80v-101h-80z" />
    <glyph glyph-name="Egrave" unicode="&#xc8;" horiz-adv-x="632" 
d="M315 760l-124 141h74l104 -141h-54zM114 0v697h457v-66h-386v-243h347v-66h-347v-256h386v-66h-457z" />
    <glyph glyph-name="uni1EBA" unicode="&#x1eba;" horiz-adv-x="632" 
d="M336 736l-12 39c38 6 80 14 80 51c0 41 -45 56 -92 56h-15v40h15c80 0 139 -34 139 -98c0 -67 -66 -78 -115 -88zM114 0v697h457v-66h-386v-243h347v-66h-347v-256h386v-66h-457z" />
    <glyph glyph-name="Emacron" unicode="&#x112;" horiz-adv-x="632" 
d="M206 803v42h270v-42h-270zM114 0v697h457v-66h-386v-243h347v-66h-347v-256h386v-66h-457z" />
    <glyph glyph-name="Eogonek" unicode="&#x118;" horiz-adv-x="632" 
d="M577 -142l34 -27c-24 -27 -56 -45 -93 -45c-51 0 -91 32 -91 84c0 58 45 104 86 130h-399v697h457v-66h-386v-243h347v-66h-347v-256h386v-66c-35 -21 -101 -63 -101 -124c0 -33 22 -45 46 -45c23 0 43 10 61 27z" />
    <glyph glyph-name="uni1EBC" unicode="&#x1ebc;" horiz-adv-x="632" 
d="M411 774c-83 0 -84 87 -137 87c-31 0 -50 -29 -50 -78h-41c0 77 36 122 93 122c75 0 81 -86 135 -86c26 0 46 31 46 82h43c0 -79 -36 -127 -89 -127zM114 0v697h457v-66h-386v-243h347v-66h-347v-256h386v-66h-457z" />
    <glyph glyph-name="F" unicode="F" horiz-adv-x="628" 
d="M114 0v697h473v-66h-402v-243h352v-66h-352v-322h-71z" />
    <glyph glyph-name="G" unicode="G" horiz-adv-x="766" 
d="M442 302v58h235v-360h-57l-10 109c-38 -77 -123 -119 -230 -119c-203 0 -312 152 -312 360c0 207 108 357 322 357c147 0 241 -71 287 -191l-66 -25c-35 95 -105 148 -221 148c-168 0 -251 -114 -251 -286c0 -166 73 -295 246 -295c120 0 225 63 225 222v22h-168z" />
    <glyph glyph-name="Gbreve" unicode="&#x11e;" horiz-adv-x="766" 
d="M385 770c-101 0 -151 46 -151 131h50c0 -59 40 -89 101 -89c63 0 101 32 101 89h50c0 -87 -54 -131 -151 -131zM442 302v58h235v-360h-57l-10 109c-38 -77 -123 -119 -230 -119c-203 0 -312 152 -312 360c0 207 108 357 322 357c147 0 241 -71 287 -191l-66 -25
c-35 95 -105 148 -221 148c-168 0 -251 -114 -251 -286c0 -166 73 -295 246 -295c120 0 225 63 225 222v22h-168z" />
    <glyph glyph-name="uni0122" unicode="&#x122;" horiz-adv-x="766" 
d="M442 302v58h235v-360h-57l-10 109c-38 -77 -123 -119 -230 -119c-203 0 -312 152 -312 360c0 207 108 357 322 357c147 0 241 -71 287 -191l-66 -25c-35 95 -105 148 -221 148c-168 0 -251 -114 -251 -286c0 -166 73 -295 246 -295c120 0 225 63 225 222v22h-168z
M260 -221l88 165h73l-117 -165h-44z" />
    <glyph glyph-name="Gdotaccent" unicode="&#x120;" horiz-adv-x="766" 
d="M425 901v-102h-80v102h80zM442 302v58h235v-360h-57l-10 109c-38 -77 -123 -119 -230 -119c-203 0 -312 152 -312 360c0 207 108 357 322 357c147 0 241 -71 287 -191l-66 -25c-35 95 -105 148 -221 148c-168 0 -251 -114 -251 -286c0 -166 73 -295 246 -295
c120 0 225 63 225 222v22h-168z" />
    <glyph glyph-name="H" unicode="H" horiz-adv-x="733" 
d="M114 0v697h71v-308h362v308h72v-697h-72v322h-362v-322h-71z" />
    <glyph glyph-name="Hbar" unicode="&#x126;" horiz-adv-x="733" 
d="M683 559v-42h-64v-517h-72v322h-362v-322h-71v517h-66v42h66v138h71v-138h362v138h72v-138h64zM547 389v128h-362v-128h362z" />
    <glyph glyph-name="I" unicode="I" horiz-adv-x="299" 
d="M114 0v697h71v-697h-71z" />
    <glyph glyph-name="Iacute" unicode="&#xcd;" horiz-adv-x="299" 
d="M124 760l108 141h74l-129 -141h-53zM114 0v697h71v-697h-71z" />
    <glyph glyph-name="uni01CF" unicode="&#x1cf;" horiz-adv-x="299" 
d="M150 748l-149 153h57l92 -95l92 95h57zM114 0v697h71v-697h-71z" />
    <glyph glyph-name="Icircumflex" unicode="&#xce;" horiz-adv-x="299" 
d="M1 752l149 159l149 -159h-57l-92 98l-91 -98h-58zM114 0v697h71v-697h-71z" />
    <glyph glyph-name="Idieresis" unicode="&#xcf;" horiz-adv-x="299" 
d="M20 799v102h80v-102h-80zM200 799v102h80v-102h-80zM114 0v697h71v-697h-71z" />
    <glyph glyph-name="Idotaccent" unicode="&#x130;" horiz-adv-x="299" 
d="M110 799v102h80v-102h-80zM114 0v697h71v-697h-71z" />
    <glyph glyph-name="uni1ECA" unicode="&#x1eca;" horiz-adv-x="299" 
d="M114 0v697h71v-697h-71zM110 -173v101h80v-101h-80z" />
    <glyph glyph-name="Igrave" unicode="&#xcc;" horiz-adv-x="299" 
d="M123 760l-124 141h74l104 -141h-54zM114 0v697h71v-697h-71z" />
    <glyph glyph-name="uni1EC8" unicode="&#x1ec8;" horiz-adv-x="299" 
d="M144 736l-12 39c38 6 80 14 80 51c0 41 -45 56 -92 56h-15v40h15c80 0 139 -34 139 -98c0 -67 -66 -78 -115 -88zM114 0v697h71v-697h-71z" />
    <glyph glyph-name="Imacron" unicode="&#x12a;" horiz-adv-x="299" 
d="M14 803v42h270v-42h-270zM114 0v697h71v-697h-71z" />
    <glyph glyph-name="Iogonek" unicode="&#x12e;" horiz-adv-x="299" 
d="M191 -142l34 -27c-24 -27 -56 -45 -93 -45c-51 0 -91 32 -91 84c0 58 45 104 86 130h-13v697h71v-697c-35 -21 -101 -63 -101 -124c0 -33 22 -45 46 -45c23 0 43 10 61 27z" />
    <glyph glyph-name="Itilde" unicode="&#x128;" horiz-adv-x="299" 
d="M219 774c-83 0 -84 87 -137 87c-31 0 -50 -29 -50 -78h-41c0 77 36 122 93 122c75 0 81 -86 135 -86c26 0 46 31 46 82h43c0 -79 -36 -127 -89 -127zM114 0v697h71v-697h-71z" />
    <glyph glyph-name="J" unicode="J" horiz-adv-x="584" 
d="M263 -10c-129 0 -213 80 -223 214l70 8c7 -100 62 -155 153 -155c99 0 149 65 149 196v378h-282v66h353v-448c0 -166 -80 -259 -220 -259z" />
    <glyph glyph-name="K" unicode="K" horiz-adv-x="711" 
d="M674 0h-82l-230 393l-177 -182v-211h-71v697h71v-396l381 396h94l-249 -254z" />
    <glyph glyph-name="uni0136" unicode="&#x136;" horiz-adv-x="711" 
d="M411 443l263 -443h-82l-230 393l-177 -182v-211h-71v697h71v-396l381 396h94zM231 -221l88 165h73l-117 -165h-44z" />
    <glyph glyph-name="L" unicode="L" horiz-adv-x="537" 
d="M114 0v697h71v-631h318v-66h-389z" />
    <glyph glyph-name="Lacute" unicode="&#x139;" horiz-adv-x="537" 
d="M124 760l108 141h74l-129 -141h-53zM114 0v697h71v-631h318v-66h-389z" />
    <glyph glyph-name="Lcaron" unicode="&#x13d;" horiz-adv-x="537" 
d="M114 0v697h71v-631h318v-66h-389zM337 489l58 208h72l-88 -208h-42z" />
    <glyph glyph-name="uni013B" unicode="&#x13b;" horiz-adv-x="537" 
d="M114 0v697h71v-631h318v-66h-389zM184 -221l88 165h73l-117 -165h-44z" />
    <glyph glyph-name="Lslash" unicode="&#x141;" horiz-adv-x="537" 
d="M185 66h318v-66h-389v248l-52 -41v72l52 41v377h71v-321l171 135v-71l-171 -136v-238z" />
    <glyph glyph-name="M" unicode="M" horiz-adv-x="892" 
d="M674 697h104v-697h-72v602l-225 -544h-70l-226 546v-604h-71v697h104l228 -556z" />
    <glyph glyph-name="N" unicode="N" horiz-adv-x="720" 
d="M535 697h71v-697h-78l-343 576v-576h-71v697h77l344 -573v573z" />
    <glyph glyph-name="Nacute" unicode="&#x143;" horiz-adv-x="720" 
d="M516 901l-129 -141h-53l108 141h74zM535 697h71v-697h-78l-343 576v-576h-71v697h77l344 -573v573z" />
    <glyph glyph-name="Ncaron" unicode="&#x147;" horiz-adv-x="720" 
d="M509 901l-149 -153l-149 153h57l92 -95l92 95h57zM535 697h71v-697h-78l-343 576v-576h-71v697h77l344 -573v573z" />
    <glyph glyph-name="uni0145" unicode="&#x145;" horiz-adv-x="720" 
d="M535 697h71v-697h-78l-343 576v-576h-71v697h77l344 -573v573zM235 -221l88 165h73l-117 -165h-44z" />
    <glyph glyph-name="Eng" unicode="&#x14a;" horiz-adv-x="720" 
d="M535 697h71v-710c0 -87 -41 -158 -146 -158c-20 0 -47 4 -71 11l2 47c18 -6 39 -9 52 -9c68 0 95 41 95 85c0 13 -4 27 -10 37l-343 575v-575h-71v697h77l344 -574v574z" />
    <glyph glyph-name="Ntilde" unicode="&#xd1;" horiz-adv-x="720" 
d="M292 861c-31 0 -50 -29 -50 -78h-41c0 77 36 122 93 122c75 0 81 -86 135 -86c26 0 46 31 46 82h43c0 -79 -36 -127 -89 -127c-83 0 -84 87 -137 87zM535 697h71v-697h-78l-343 576v-576h-71v697h77l344 -573v573z" />
    <glyph glyph-name="O" unicode="O" horiz-adv-x="772" 
d="M386 -10c-191 0 -319 143 -319 358c0 216 128 359 319 359s319 -143 319 -359c0 -215 -128 -358 -319 -358zM386 58c151 0 248 113 248 290c0 178 -97 291 -248 291s-248 -113 -248 -291c0 -177 97 -290 248 -290z" />
    <glyph glyph-name="Oacute" unicode="&#xd3;" horiz-adv-x="772" 
d="M360 760l108 141h74l-129 -141h-53zM386 -10c-191 0 -319 143 -319 358c0 216 128 359 319 359s319 -143 319 -359c0 -215 -128 -358 -319 -358zM386 58c151 0 248 113 248 290c0 178 -97 291 -248 291s-248 -113 -248 -291c0 -177 97 -290 248 -290z" />
    <glyph glyph-name="uni01D1" unicode="&#x1d1;" horiz-adv-x="772" 
d="M386 748l-149 153h57l92 -95l92 95h57zM386 -10c-191 0 -319 143 -319 358c0 216 128 359 319 359s319 -143 319 -359c0 -215 -128 -358 -319 -358zM386 58c151 0 248 113 248 290c0 178 -97 291 -248 291s-248 -113 -248 -291c0 -177 97 -290 248 -290z" />
    <glyph glyph-name="Ocircumflex" unicode="&#xd4;" horiz-adv-x="772" 
d="M237 752l149 159l149 -159h-57l-92 98l-91 -98h-58zM386 -10c-191 0 -319 143 -319 358c0 216 128 359 319 359s319 -143 319 -359c0 -215 -128 -358 -319 -358zM386 58c151 0 248 113 248 290c0 178 -97 291 -248 291s-248 -113 -248 -291c0 -177 97 -290 248 -290z" />
    <glyph glyph-name="uni1ED0" unicode="&#x1ed0;" horiz-adv-x="772" 
d="M360 949l108 141h74l-129 -141h-53zM237 752l149 159l149 -159h-57l-92 98l-91 -98h-58zM386 -10c-191 0 -319 143 -319 358c0 216 128 359 319 359s319 -143 319 -359c0 -215 -128 -358 -319 -358zM386 58c151 0 248 113 248 290c0 178 -97 291 -248 291
s-248 -113 -248 -291c0 -177 97 -290 248 -290z" />
    <glyph glyph-name="uni1ED8" unicode="&#x1ed8;" horiz-adv-x="772" 
d="M237 752l149 159l149 -159h-57l-92 98l-91 -98h-58zM386 -10c-191 0 -319 143 -319 358c0 216 128 359 319 359s319 -143 319 -359c0 -215 -128 -358 -319 -358zM386 58c151 0 248 113 248 290c0 178 -97 291 -248 291s-248 -113 -248 -291c0 -177 97 -290 248 -290z
M346 -173v101h80v-101h-80z" />
    <glyph glyph-name="uni1ED2" unicode="&#x1ed2;" horiz-adv-x="772" 
d="M359 949l-124 141h74l104 -141h-54zM237 752l149 159l149 -159h-57l-92 98l-91 -98h-58zM386 -10c-191 0 -319 143 -319 358c0 216 128 359 319 359s319 -143 319 -359c0 -215 -128 -358 -319 -358zM386 58c151 0 248 113 248 290c0 178 -97 291 -248 291
s-248 -113 -248 -291c0 -177 97 -290 248 -290z" />
    <glyph glyph-name="uni1ED4" unicode="&#x1ed4;" horiz-adv-x="772" 
d="M380 925l-12 39c38 6 80 14 80 51c0 41 -45 56 -92 56h-15v40h15c80 0 139 -34 139 -98c0 -67 -66 -78 -115 -88zM237 752l149 159l149 -159h-57l-92 98l-91 -98h-58zM386 -10c-191 0 -319 143 -319 358c0 216 128 359 319 359s319 -143 319 -359
c0 -215 -128 -358 -319 -358zM386 58c151 0 248 113 248 290c0 178 -97 291 -248 291s-248 -113 -248 -291c0 -177 97 -290 248 -290z" />
    <glyph glyph-name="uni1ED6" unicode="&#x1ed6;" horiz-adv-x="772" 
d="M455 963c-83 0 -84 87 -137 87c-31 0 -50 -29 -50 -78h-41c0 77 36 122 93 122c75 0 81 -86 135 -86c26 0 46 31 46 82h43c0 -79 -36 -127 -89 -127zM237 752l149 159l149 -159h-57l-92 98l-91 -98h-58zM386 -10c-191 0 -319 143 -319 358c0 216 128 359 319 359
s319 -143 319 -359c0 -215 -128 -358 -319 -358zM386 58c151 0 248 113 248 290c0 178 -97 291 -248 291s-248 -113 -248 -291c0 -177 97 -290 248 -290z" />
    <glyph glyph-name="Odieresis" unicode="&#xd6;" horiz-adv-x="772" 
d="M256 799v102h80v-102h-80zM436 799v102h80v-102h-80zM386 -10c-191 0 -319 143 -319 358c0 216 128 359 319 359s319 -143 319 -359c0 -215 -128 -358 -319 -358zM386 58c151 0 248 113 248 290c0 178 -97 291 -248 291s-248 -113 -248 -291c0 -177 97 -290 248 -290z
" />
    <glyph glyph-name="uni1ECC" unicode="&#x1ecc;" horiz-adv-x="772" 
d="M386 -10c-191 0 -319 143 -319 358c0 216 128 359 319 359s319 -143 319 -359c0 -215 -128 -358 -319 -358zM386 58c151 0 248 113 248 290c0 178 -97 291 -248 291s-248 -113 -248 -291c0 -177 97 -290 248 -290zM346 -173v101h80v-101h-80z" />
    <glyph glyph-name="Ograve" unicode="&#xd2;" horiz-adv-x="772" 
d="M359 760l-124 141h74l104 -141h-54zM386 -10c-191 0 -319 143 -319 358c0 216 128 359 319 359s319 -143 319 -359c0 -215 -128 -358 -319 -358zM386 58c151 0 248 113 248 290c0 178 -97 291 -248 291s-248 -113 -248 -291c0 -177 97 -290 248 -290z" />
    <glyph glyph-name="uni1ECE" unicode="&#x1ece;" horiz-adv-x="772" 
d="M380 736l-12 39c38 6 80 14 80 51c0 41 -45 56 -92 56h-15v40h15c80 0 139 -34 139 -98c0 -67 -66 -78 -115 -88zM386 -10c-191 0 -319 143 -319 358c0 216 128 359 319 359s319 -143 319 -359c0 -215 -128 -358 -319 -358zM386 58c151 0 248 113 248 290
c0 178 -97 291 -248 291s-248 -113 -248 -291c0 -177 97 -290 248 -290z" />
    <glyph glyph-name="Ohorn" unicode="&#x1a0;" horiz-adv-x="772" 
d="M724 697h53v-48c0 -77 -29 -132 -97 -148c16 -45 25 -97 25 -153c0 -215 -128 -358 -319 -358s-319 143 -319 358c0 216 128 359 319 359c124 0 221 -60 274 -161c47 9 64 48 64 98v53zM386 58c151 0 248 113 248 290c0 178 -97 291 -248 291s-248 -113 -248 -291
c0 -177 97 -290 248 -290z" />
    <glyph glyph-name="uni1EDA" unicode="&#x1eda;" horiz-adv-x="772" 
d="M542 901l-129 -141h-53l108 141h74zM724 697h53v-48c0 -77 -29 -132 -97 -148c16 -45 25 -97 25 -153c0 -215 -128 -358 -319 -358s-319 143 -319 358c0 216 128 359 319 359c124 0 221 -60 274 -161c47 9 64 48 64 98v53zM386 58c151 0 248 113 248 290
c0 178 -97 291 -248 291s-248 -113 -248 -291c0 -177 97 -290 248 -290z" />
    <glyph glyph-name="uni1EE2" unicode="&#x1ee2;" horiz-adv-x="772" 
d="M724 697h53v-48c0 -77 -29 -132 -97 -148c16 -45 25 -97 25 -153c0 -215 -128 -358 -319 -358s-319 143 -319 358c0 216 128 359 319 359c124 0 221 -60 274 -161c47 9 64 48 64 98v53zM386 58c151 0 248 113 248 290c0 178 -97 291 -248 291s-248 -113 -248 -291
c0 -177 97 -290 248 -290zM346 -173v101h80v-101h-80z" />
    <glyph glyph-name="uni1EDC" unicode="&#x1edc;" horiz-adv-x="772" 
d="M413 760h-54l-124 141h74zM724 697h53v-48c0 -77 -29 -132 -97 -148c16 -45 25 -97 25 -153c0 -215 -128 -358 -319 -358s-319 143 -319 358c0 216 128 359 319 359c124 0 221 -60 274 -161c47 9 64 48 64 98v53zM386 58c151 0 248 113 248 290c0 178 -97 291 -248 291
s-248 -113 -248 -291c0 -177 97 -290 248 -290z" />
    <glyph glyph-name="uni1EDE" unicode="&#x1ede;" horiz-adv-x="772" 
d="M448 826c0 41 -45 56 -92 56h-15v40h15c80 0 139 -34 139 -98c0 -67 -66 -78 -115 -88l-12 39c38 6 80 14 80 51zM724 697h53v-48c0 -77 -29 -132 -97 -148c16 -45 25 -97 25 -153c0 -215 -128 -358 -319 -358s-319 143 -319 358c0 216 128 359 319 359
c124 0 221 -60 274 -161c47 9 64 48 64 98v53zM386 58c151 0 248 113 248 290c0 178 -97 291 -248 291s-248 -113 -248 -291c0 -177 97 -290 248 -290z" />
    <glyph glyph-name="uni1EE0" unicode="&#x1ee0;" horiz-adv-x="772" 
d="M318 861c-31 0 -50 -29 -50 -78h-41c0 77 36 122 93 122c75 0 81 -86 135 -86c26 0 46 31 46 82h43c0 -79 -36 -127 -89 -127c-83 0 -84 87 -137 87zM724 697h53v-48c0 -77 -29 -132 -97 -148c16 -45 25 -97 25 -153c0 -215 -128 -358 -319 -358s-319 143 -319 358
c0 216 128 359 319 359c124 0 221 -60 274 -161c47 9 64 48 64 98v53zM386 58c151 0 248 113 248 290c0 178 -97 291 -248 291s-248 -113 -248 -291c0 -177 97 -290 248 -290z" />
    <glyph glyph-name="Ohungarumlaut" unicode="&#x150;" horiz-adv-x="772" 
d="M274 749l108 152h63l-118 -152h-53zM444 749l108 152h74l-129 -152h-53zM386 -10c-191 0 -319 143 -319 358c0 216 128 359 319 359s319 -143 319 -359c0 -215 -128 -358 -319 -358zM386 58c151 0 248 113 248 290c0 178 -97 291 -248 291s-248 -113 -248 -291
c0 -177 97 -290 248 -290z" />
    <glyph glyph-name="Omacron" unicode="&#x14c;" horiz-adv-x="772" 
d="M250 803v42h270v-42h-270zM386 -10c-191 0 -319 143 -319 358c0 216 128 359 319 359s319 -143 319 -359c0 -215 -128 -358 -319 -358zM386 58c151 0 248 113 248 290c0 178 -97 291 -248 291s-248 -113 -248 -291c0 -177 97 -290 248 -290z" />
    <glyph glyph-name="Oslash" unicode="&#xd8;" horiz-adv-x="772" 
d="M600 627c66 -63 105 -160 105 -279c0 -215 -128 -358 -319 -358c-64 0 -120 16 -167 45l-23 -35h-69l45 70c-66 63 -105 160 -105 278c0 216 128 359 319 359c64 0 120 -16 167 -45l23 35h69zM138 348c0 -92 26 -167 73 -218l305 474c-36 23 -80 35 -130 35
c-151 0 -248 -113 -248 -291zM386 58c151 0 248 113 248 290c0 93 -26 168 -73 219l-305 -474c36 -23 80 -35 130 -35z" />
    <glyph glyph-name="Otilde" unicode="&#xd5;" horiz-adv-x="772" 
d="M455 774c-83 0 -84 87 -137 87c-31 0 -50 -29 -50 -78h-41c0 77 36 122 93 122c75 0 81 -86 135 -86c26 0 46 31 46 82h43c0 -79 -36 -127 -89 -127zM386 -10c-191 0 -319 143 -319 358c0 216 128 359 319 359s319 -143 319 -359c0 -215 -128 -358 -319 -358zM386 58
c151 0 248 113 248 290c0 178 -97 291 -248 291s-248 -113 -248 -291c0 -177 97 -290 248 -290z" />
    <glyph glyph-name="OE" unicode="&#x152;" horiz-adv-x="1153" 
d="M1092 631h-386v-243h347v-66h-347v-256h386v-66h-457v110c-56 -76 -143 -120 -249 -120c-191 0 -319 143 -319 358c0 216 128 359 319 359c106 0 193 -44 249 -121v111h457v-66zM386 58c151 0 248 113 248 290c0 178 -97 291 -248 291s-248 -113 -248 -291
c0 -177 97 -290 248 -290z" />
    <glyph glyph-name="P" unicode="P" horiz-adv-x="593" 
d="M114 0v697h199c148 0 230 -70 230 -195c0 -127 -83 -198 -230 -198h-128v-304h-71zM185 370h121c109 0 165 45 165 131s-56 130 -165 130h-121v-261z" />
    <glyph glyph-name="Thorn" unicode="&#xde;" horiz-adv-x="587" 
d="M114 0v697h65v-100h140c137 0 218 -72 218 -193c0 -125 -86 -199 -232 -199h-126v-205h-65zM179 265h126c108 0 166 48 166 136c0 89 -60 139 -166 139h-126v-275z" />
    <glyph glyph-name="Q" unicode="Q" horiz-adv-x="784" 
d="M717 -11l-46 -43l-102 100c-51 -36 -113 -56 -184 -56c-191 0 -319 143 -319 358c0 216 128 359 319 359s319 -143 319 -359c0 -108 -32 -197 -88 -260zM385 58c51 0 96 13 133 37l-113 110l48 43l113 -111c43 50 67 123 67 211c0 178 -97 291 -248 291
s-248 -113 -248 -291c0 -177 97 -290 248 -290z" />
    <glyph glyph-name="R" unicode="R" horiz-adv-x="633" 
d="M590 0h-83l-178 309h-47h-97v-309h-71v697h199c150 0 230 -67 230 -193c0 -98 -49 -161 -143 -186zM185 375h121c110 0 165 43 165 128s-55 128 -165 128h-121v-256z" />
    <glyph glyph-name="Racute" unicode="&#x154;" horiz-adv-x="633" 
d="M473 901l-129 -141h-53l108 141h74zM590 0h-83l-178 309h-47h-97v-309h-71v697h199c150 0 230 -67 230 -193c0 -98 -49 -161 -143 -186zM185 375h121c110 0 165 43 165 128s-55 128 -165 128h-121v-256z" />
    <glyph glyph-name="Rcaron" unicode="&#x158;" horiz-adv-x="633" 
d="M466 901l-149 -153l-149 153h57l92 -95l92 95h57zM590 0h-83l-178 309h-47h-97v-309h-71v697h199c150 0 230 -67 230 -193c0 -98 -49 -161 -143 -186zM185 375h121c110 0 165 43 165 128s-55 128 -165 128h-121v-256z" />
    <glyph glyph-name="uni0156" unicode="&#x156;" horiz-adv-x="633" 
d="M400 318l190 -318h-83l-178 309h-47h-97v-309h-71v697h199c150 0 230 -67 230 -193c0 -98 -49 -161 -143 -186zM185 375h121c110 0 165 43 165 128s-55 128 -165 128h-121v-256zM192 -221l88 165h73l-117 -165h-44z" />
    <glyph glyph-name="S" unicode="S" horiz-adv-x="574" 
d="M294 -10c-129 0 -226 77 -245 194l71 17c13 -90 81 -147 175 -147c101 0 152 53 152 122c0 75 -43 114 -166 161c-141 53 -190 103 -190 194c0 106 80 176 198 176c88 0 157 -39 199 -113l-60 -37c-30 54 -81 86 -141 86c-73 0 -125 -50 -125 -109c0 -64 48 -98 158 -140
c155 -59 199 -115 199 -212c0 -117 -81 -192 -225 -192z" />
    <glyph glyph-name="Sacute" unicode="&#x15a;" horiz-adv-x="574" 
d="M261 760l108 141h74l-129 -141h-53zM294 -10c-129 0 -226 77 -245 194l71 17c13 -90 81 -147 175 -147c101 0 152 53 152 122c0 75 -43 114 -166 161c-141 53 -190 103 -190 194c0 106 80 176 198 176c88 0 157 -39 199 -113l-60 -37c-30 54 -81 86 -141 86
c-73 0 -125 -50 -125 -109c0 -64 48 -98 158 -140c155 -59 199 -115 199 -212c0 -117 -81 -192 -225 -192z" />
    <glyph glyph-name="Scaron" unicode="&#x160;" horiz-adv-x="574" 
d="M287 748l-149 153h57l92 -95l92 95h57zM294 -10c-129 0 -226 77 -245 194l71 17c13 -90 81 -147 175 -147c101 0 152 53 152 122c0 75 -43 114 -166 161c-141 53 -190 103 -190 194c0 106 80 176 198 176c88 0 157 -39 199 -113l-60 -37c-30 54 -81 86 -141 86
c-73 0 -125 -50 -125 -109c0 -64 48 -98 158 -140c155 -59 199 -115 199 -212c0 -117 -81 -192 -225 -192z" />
    <glyph glyph-name="Scedilla" unicode="&#x15e;" horiz-adv-x="574" 
d="M519 182c0 -115 -78 -189 -217 -192l-34 -54c26 -4 46 -8 64 -16c33 -15 52 -39 52 -77c0 -57 -41 -98 -103 -98c-31 0 -67 16 -89 47l25 33c16 -26 42 -38 66 -38c37 0 59 20 59 55c0 33 -24 49 -55 57c-20 5 -46 7 -76 7l49 86c-112 12 -194 85 -211 192l71 17
c13 -90 81 -147 175 -147c101 0 152 53 152 122c0 75 -43 114 -166 161c-141 53 -190 103 -190 194c0 106 80 176 198 176c88 0 157 -39 199 -113l-60 -37c-30 54 -81 86 -141 86c-73 0 -125 -50 -125 -109c0 -64 48 -98 158 -140c155 -59 199 -115 199 -212z" />
    <glyph glyph-name="uni0218" unicode="&#x218;" horiz-adv-x="574" 
d="M294 -10c-129 0 -226 77 -245 194l71 17c13 -90 81 -147 175 -147c101 0 152 53 152 122c0 75 -43 114 -166 161c-141 53 -190 103 -190 194c0 106 80 176 198 176c88 0 157 -39 199 -113l-60 -37c-30 54 -81 86 -141 86c-73 0 -125 -50 -125 -109c0 -64 48 -98 158 -140
c155 -59 199 -115 199 -212c0 -117 -81 -192 -225 -192zM162 -221l88 165h73l-117 -165h-44z" />
    <glyph glyph-name="uni1E9E" unicode="&#x1e9e;" horiz-adv-x="694" 
d="M465 -8c-102 0 -180 56 -205 130l61 32c22 -54 72 -95 146 -95c63 0 101 30 101 79c0 131 -278 57 -278 225c0 53 27 79 51 106l142 159h-154c-116 0 -158 -62 -158 -187v-441h-71v441c0 105 18 256 229 256h262v-41l-201 -229c-14 -16 -28 -34 -28 -59
c0 -113 283 -41 283 -226c0 -89 -73 -150 -180 -150z" />
    <glyph glyph-name="T" unicode="T" horiz-adv-x="623" 
d="M275 0v631h-241v66h555v-66h-242v-631h-72z" />
    <glyph glyph-name="Tbar" unicode="&#x166;" horiz-adv-x="623" 
d="M589 631h-242v-259h99v-47h-99v-325h-72v325h-99v47h99v259h-241v66h555v-66z" />
    <glyph glyph-name="Tcaron" unicode="&#x164;" horiz-adv-x="623" 
d="M311 748l-149 153h57l92 -95l92 95h57zM275 0v631h-241v66h555v-66h-242v-631h-72z" />
    <glyph glyph-name="uni0162" unicode="&#x162;" horiz-adv-x="623" 
d="M347 0h-15l-40 -64c26 -4 46 -8 64 -16c33 -15 52 -39 52 -77c0 -57 -41 -98 -103 -98c-31 0 -67 16 -89 47l25 33c16 -26 42 -38 66 -38c37 0 59 20 59 55c0 33 -24 49 -55 57c-20 5 -46 7 -76 7l54 94h-14v631h-241v66h555v-66h-242v-631z" />
    <glyph glyph-name="uni021A" unicode="&#x21a;" horiz-adv-x="623" 
d="M275 0v631h-241v66h555v-66h-242v-631h-72zM186 -221l88 165h73l-117 -165h-44z" />
    <glyph glyph-name="U" unicode="U" horiz-adv-x="699" 
d="M349 -10c-162 0 -250 91 -250 262v445h71v-438c0 -135 58 -199 179 -199c122 0 180 65 180 202v435h71v-440c0 -175 -88 -267 -251 -267z" />
    <glyph glyph-name="Uacute" unicode="&#xda;" horiz-adv-x="699" 
d="M324 760l108 141h74l-129 -141h-53zM349 -10c-162 0 -250 91 -250 262v445h71v-438c0 -135 58 -199 179 -199c122 0 180 65 180 202v435h71v-440c0 -175 -88 -267 -251 -267z" />
    <glyph glyph-name="uni01D3" unicode="&#x1d3;" horiz-adv-x="699" 
d="M350 748l-149 153h57l92 -95l92 95h57zM349 -10c-162 0 -250 91 -250 262v445h71v-438c0 -135 58 -199 179 -199c122 0 180 65 180 202v435h71v-440c0 -175 -88 -267 -251 -267z" />
    <glyph glyph-name="Ucircumflex" unicode="&#xdb;" horiz-adv-x="699" 
d="M201 752l149 159l149 -159h-57l-92 98l-91 -98h-58zM349 -10c-162 0 -250 91 -250 262v445h71v-438c0 -135 58 -199 179 -199c122 0 180 65 180 202v435h71v-440c0 -175 -88 -267 -251 -267z" />
    <glyph glyph-name="Udieresis" unicode="&#xdc;" horiz-adv-x="699" 
d="M220 799v102h80v-102h-80zM400 799v102h80v-102h-80zM349 -10c-162 0 -250 91 -250 262v445h71v-438c0 -135 58 -199 179 -199c122 0 180 65 180 202v435h71v-440c0 -175 -88 -267 -251 -267z" />
    <glyph glyph-name="uni01D7" unicode="&#x1d7;" horiz-adv-x="699" 
d="M324 964l108 141h74l-129 -141h-53zM220 799v102h80v-102h-80zM400 799v102h80v-102h-80zM349 -10c-162 0 -250 91 -250 262v445h71v-438c0 -135 58 -199 179 -199c122 0 180 65 180 202v435h71v-440c0 -175 -88 -267 -251 -267z" />
    <glyph glyph-name="uni01D9" unicode="&#x1d9;" horiz-adv-x="699" 
d="M350 952l-149 153h57l92 -95l92 95h57zM220 799v102h80v-102h-80zM400 799v102h80v-102h-80zM349 -10c-162 0 -250 91 -250 262v445h71v-438c0 -135 58 -199 179 -199c122 0 180 65 180 202v435h71v-440c0 -175 -88 -267 -251 -267z" />
    <glyph glyph-name="uni01DB" unicode="&#x1db;" horiz-adv-x="699" 
d="M323 964l-124 141h74l104 -141h-54zM220 799v102h80v-102h-80zM400 799v102h80v-102h-80zM349 -10c-162 0 -250 91 -250 262v445h71v-438c0 -135 58 -199 179 -199c122 0 180 65 180 202v435h71v-440c0 -175 -88 -267 -251 -267z" />
    <glyph glyph-name="uni01D5" unicode="&#x1d5;" horiz-adv-x="699" 
d="M214 1007v42h270v-42h-270zM220 799v102h80v-102h-80zM400 799v102h80v-102h-80zM349 -10c-162 0 -250 91 -250 262v445h71v-438c0 -135 58 -199 179 -199c122 0 180 65 180 202v435h71v-440c0 -175 -88 -267 -251 -267z" />
    <glyph glyph-name="uni1EE4" unicode="&#x1ee4;" horiz-adv-x="699" 
d="M349 -10c-162 0 -250 91 -250 262v445h71v-438c0 -135 58 -199 179 -199c122 0 180 65 180 202v435h71v-440c0 -175 -88 -267 -251 -267zM310 -173v101h80v-101h-80z" />
    <glyph glyph-name="Ugrave" unicode="&#xd9;" horiz-adv-x="699" 
d="M323 760l-124 141h74l104 -141h-54zM349 -10c-162 0 -250 91 -250 262v445h71v-438c0 -135 58 -199 179 -199c122 0 180 65 180 202v435h71v-440c0 -175 -88 -267 -251 -267z" />
    <glyph glyph-name="uni1EE6" unicode="&#x1ee6;" horiz-adv-x="699" 
d="M344 736l-12 39c38 6 80 14 80 51c0 41 -45 56 -92 56h-15v40h15c80 0 139 -34 139 -98c0 -67 -66 -78 -115 -88zM349 -10c-162 0 -250 91 -250 262v445h71v-438c0 -135 58 -199 179 -199c122 0 180 65 180 202v435h71v-440c0 -175 -88 -267 -251 -267z" />
    <glyph glyph-name="Uhorn" unicode="&#x1af;" horiz-adv-x="699" 
d="M679 697h53v-48c0 -89 -39 -149 -132 -152v-240c0 -175 -88 -267 -251 -267c-162 0 -250 91 -250 262v445h71v-438c0 -135 58 -199 179 -199c122 0 180 65 180 202v435h71v-153c58 3 79 45 79 100v53z" />
    <glyph glyph-name="uni1EE8" unicode="&#x1ee8;" horiz-adv-x="699" 
d="M506 901l-129 -141h-53l108 141h74zM679 697h53v-48c0 -89 -39 -149 -132 -152v-240c0 -175 -88 -267 -251 -267c-162 0 -250 91 -250 262v445h71v-438c0 -135 58 -199 179 -199c122 0 180 65 180 202v435h71v-153c58 3 79 45 79 100v53z" />
    <glyph glyph-name="uni1EF0" unicode="&#x1ef0;" horiz-adv-x="699" 
d="M679 697h53v-48c0 -89 -39 -149 -132 -152v-240c0 -175 -88 -267 -251 -267c-162 0 -250 91 -250 262v445h71v-438c0 -135 58 -199 179 -199c122 0 180 65 180 202v435h71v-153c58 3 79 45 79 100v53zM310 -173v101h80v-101h-80z" />
    <glyph glyph-name="uni1EEA" unicode="&#x1eea;" horiz-adv-x="699" 
d="M377 760h-54l-124 141h74zM679 697h53v-48c0 -89 -39 -149 -132 -152v-240c0 -175 -88 -267 -251 -267c-162 0 -250 91 -250 262v445h71v-438c0 -135 58 -199 179 -199c122 0 180 65 180 202v435h71v-153c58 3 79 45 79 100v53z" />
    <glyph glyph-name="uni1EEC" unicode="&#x1eec;" horiz-adv-x="699" 
d="M412 826c0 41 -45 56 -92 56h-15v40h15c80 0 139 -34 139 -98c0 -67 -66 -78 -115 -88l-12 39c38 6 80 14 80 51zM679 697h53v-48c0 -89 -39 -149 -132 -152v-240c0 -175 -88 -267 -251 -267c-162 0 -250 91 -250 262v445h71v-438c0 -135 58 -199 179 -199
c122 0 180 65 180 202v435h71v-153c58 3 79 45 79 100v53z" />
    <glyph glyph-name="uni1EEE" unicode="&#x1eee;" horiz-adv-x="699" 
d="M282 861c-31 0 -50 -29 -50 -78h-41c0 77 36 122 93 122c75 0 81 -86 135 -86c26 0 46 31 46 82h43c0 -79 -36 -127 -89 -127c-83 0 -84 87 -137 87zM679 697h53v-48c0 -89 -39 -149 -132 -152v-240c0 -175 -88 -267 -251 -267c-162 0 -250 91 -250 262v445h71v-438
c0 -135 58 -199 179 -199c122 0 180 65 180 202v435h71v-153c58 3 79 45 79 100v53z" />
    <glyph glyph-name="Uhungarumlaut" unicode="&#x170;" horiz-adv-x="699" 
d="M238 749l108 152h63l-118 -152h-53zM408 749l108 152h74l-129 -152h-53zM349 -10c-162 0 -250 91 -250 262v445h71v-438c0 -135 58 -199 179 -199c122 0 180 65 180 202v435h71v-440c0 -175 -88 -267 -251 -267z" />
    <glyph glyph-name="Umacron" unicode="&#x16a;" horiz-adv-x="699" 
d="M214 803v42h270v-42h-270zM349 -10c-162 0 -250 91 -250 262v445h71v-438c0 -135 58 -199 179 -199c122 0 180 65 180 202v435h71v-440c0 -175 -88 -267 -251 -267z" />
    <glyph glyph-name="Uogonek" unicode="&#x172;" horiz-adv-x="699" 
d="M529 697h71v-440c0 -151 -65 -240 -188 -262c-36 -22 -93 -62 -93 -119c0 -33 22 -45 46 -45c23 0 43 10 61 27l34 -27c-24 -27 -56 -45 -93 -45c-51 0 -91 32 -91 84c0 51 35 93 71 120c-161 1 -248 92 -248 262v445h71v-438c0 -135 58 -199 179 -199
c122 0 180 65 180 202v435z" />
    <glyph glyph-name="Uring" unicode="&#x16e;" horiz-adv-x="699" 
d="M350 682c-54 0 -97 44 -97 97c0 54 44 97 97 97c52 0 97 -43 97 -97c0 -53 -43 -97 -97 -97zM350 721c33 0 58 26 58 58c0 33 -24 58 -58 58c-33 0 -58 -25 -58 -58c0 -32 25 -58 58 -58zM349 -10c-162 0 -250 91 -250 262v445h71v-438c0 -135 58 -199 179 -199
c122 0 180 65 180 202v435h71v-440c0 -175 -88 -267 -251 -267z" />
    <glyph glyph-name="Utilde" unicode="&#x168;" horiz-adv-x="699" 
d="M419 774c-83 0 -84 87 -137 87c-31 0 -50 -29 -50 -78h-41c0 77 36 122 93 122c75 0 81 -86 135 -86c26 0 46 31 46 82h43c0 -79 -36 -127 -89 -127zM349 -10c-162 0 -250 91 -250 262v445h71v-438c0 -135 58 -199 179 -199c122 0 180 65 180 202v435h71v-440
c0 -175 -88 -267 -251 -267z" />
    <glyph glyph-name="V" unicode="V" horiz-adv-x="681" 
d="M567 697h78l-275 -697h-58l-276 697h79l226 -586z" />
    <glyph glyph-name="W" unicode="W" horiz-adv-x="987" 
d="M244 0l-202 697h74l168 -591l178 554h63l178 -554l167 591h75l-202 -697h-72l-177 547l-178 -547h-72z" />
    <glyph glyph-name="Wacute" unicode="&#x1e82;" horiz-adv-x="987" 
d="M468 760l108 141h74l-129 -141h-53zM244 0l-202 697h74l168 -591l178 554h63l178 -554l167 591h75l-202 -697h-72l-177 547l-178 -547h-72z" />
    <glyph glyph-name="Wcircumflex" unicode="&#x174;" horiz-adv-x="987" 
d="M345 752l149 159l149 -159h-57l-92 98l-91 -98h-58zM244 0l-202 697h74l168 -591l178 554h63l178 -554l167 591h75l-202 -697h-72l-177 547l-178 -547h-72z" />
    <glyph glyph-name="Wdieresis" unicode="&#x1e84;" horiz-adv-x="987" 
d="M364 799v102h80v-102h-80zM544 799v102h80v-102h-80zM244 0l-202 697h74l168 -591l178 554h63l178 -554l167 591h75l-202 -697h-72l-177 547l-178 -547h-72z" />
    <glyph glyph-name="Wgrave" unicode="&#x1e80;" horiz-adv-x="987" 
d="M467 760l-124 141h74l104 -141h-54zM244 0l-202 697h74l168 -591l178 554h63l178 -554l167 591h75l-202 -697h-72l-177 547l-178 -547h-72z" />
    <glyph glyph-name="X" unicode="X" horiz-adv-x="662" 
d="M40 0l242 351l-238 346h86l201 -296l202 296h85l-238 -346l243 -351h-86l-207 299l-204 -299h-86z" />
    <glyph glyph-name="Y" unicode="Y" horiz-adv-x="664" 
d="M296 0v267l-266 430h84l217 -361l218 361h85l-266 -430v-267h-72z" />
    <glyph glyph-name="Yacute" unicode="&#xdd;" horiz-adv-x="664" 
d="M306 760l108 141h74l-129 -141h-53zM296 0v267l-266 430h84l217 -361l218 361h85l-266 -430v-267h-72z" />
    <glyph glyph-name="Ycircumflex" unicode="&#x176;" horiz-adv-x="664" 
d="M183 752l149 159l149 -159h-57l-92 98l-91 -98h-58zM296 0v267l-266 430h84l217 -361l218 361h85l-266 -430v-267h-72z" />
    <glyph glyph-name="Ydieresis" unicode="&#x178;" horiz-adv-x="664" 
d="M202 799v102h80v-102h-80zM382 799v102h80v-102h-80zM296 0v267l-266 430h84l217 -361l218 361h85l-266 -430v-267h-72z" />
    <glyph glyph-name="uni1EF4" unicode="&#x1ef4;" horiz-adv-x="664" 
d="M296 0v267l-266 430h84l217 -361l218 361h85l-266 -430v-267h-72zM292 -173v101h80v-101h-80z" />
    <glyph glyph-name="Ygrave" unicode="&#x1ef2;" horiz-adv-x="664" 
d="M305 760l-124 141h74l104 -141h-54zM296 0v267l-266 430h84l217 -361l218 361h85l-266 -430v-267h-72z" />
    <glyph glyph-name="uni1EF6" unicode="&#x1ef6;" horiz-adv-x="664" 
d="M326 736l-12 39c38 6 80 14 80 51c0 41 -45 56 -92 56h-15v40h15c80 0 139 -34 139 -98c0 -67 -66 -78 -115 -88zM296 0v267l-266 430h84l217 -361l218 361h85l-266 -430v-267h-72z" />
    <glyph glyph-name="uni1EF8" unicode="&#x1ef8;" horiz-adv-x="664" 
d="M401 774c-83 0 -84 87 -137 87c-31 0 -50 -29 -50 -78h-41c0 77 36 122 93 122c75 0 81 -86 135 -86c26 0 46 31 46 82h43c0 -79 -36 -127 -89 -127zM296 0v267l-266 430h84l217 -361l218 361h85l-266 -430v-267h-72z" />
    <glyph glyph-name="Z" unicode="Z" horiz-adv-x="648" 
d="M596 697v-56l-455 -575h453v-66h-548v54l458 577h-435v66h527z" />
    <glyph glyph-name="Zacute" unicode="&#x179;" horiz-adv-x="648" 
d="M480 901l-129 -141h-53l108 141h74zM596 697v-56l-455 -575h453v-66h-548v54l458 577h-435v66h527z" />
    <glyph glyph-name="Zcaron" unicode="&#x17d;" horiz-adv-x="648" 
d="M473 901l-149 -153l-149 153h57l92 -95l92 95h57zM596 697v-56l-455 -575h453v-66h-548v54l458 577h-435v66h527z" />
    <glyph glyph-name="Zdotaccent" unicode="&#x17b;" horiz-adv-x="648" 
d="M364 901v-102h-80v102h80zM596 697v-56l-455 -575h453v-66h-548v54l458 577h-435v66h527z" />
    <glyph glyph-name="uni1EB6.ss03" horiz-adv-x="652" 
d="M326 770c-101 0 -151 46 -151 131h50c0 -59 40 -89 101 -89c63 0 101 32 101 89h50c0 -87 -54 -131 -151 -131zM616 0h-79l-66 187h-290l-67 -187h-78l260 697h59zM202 248h247l-123 348zM326 -61c31 0 55 -24 55 -55s-24 -56 -55 -56c-30 0 -55 25 -55 56s24 55 55 55z
" />
    <glyph glyph-name="uni1EAC.ss03" horiz-adv-x="652" 
d="M326 850l-91 -98h-58l149 159l149 -159h-57zM616 0h-79l-66 187h-290l-67 -187h-78l260 697h59zM202 248h247l-123 348zM326 -61c31 0 55 -24 55 -55s-24 -56 -55 -56c-30 0 -55 25 -55 56s24 55 55 55z" />
    <glyph glyph-name="Adieresis.ss03" horiz-adv-x="652" 
d="M239 797c-30 0 -55 25 -55 56s24 55 55 55s55 -24 55 -55s-24 -56 -55 -56zM413 797c-30 0 -55 25 -55 56s24 55 55 55s55 -24 55 -55s-24 -56 -55 -56zM537 0l-66 187h-290l-67 -187h-78l260 697h59l261 -697h-79zM202 248h247l-123 348z" />
    <glyph glyph-name="uni1EA0.ss03" horiz-adv-x="652" 
d="M616 0h-79l-66 187h-290l-67 -187h-78l260 697h59zM202 248h247l-123 348zM326 -61c31 0 55 -24 55 -55s-24 -56 -55 -56c-30 0 -55 25 -55 56s24 55 55 55z" />
    <glyph glyph-name="Cdotaccent.ss03" horiz-adv-x="729" 
d="M393 797c-30 0 -55 25 -55 56s24 55 55 55s55 -24 55 -55s-24 -56 -55 -56zM385 -10c-198 0 -317 135 -317 360c0 224 121 357 322 357c140 0 238 -64 287 -191l-66 -25c-37 100 -111 148 -221 148c-160 0 -251 -104 -251 -289c0 -186 90 -292 246 -292
c109 0 187 51 226 151l68 -25c-52 -127 -155 -194 -294 -194z" />
    <glyph glyph-name="uni1EC6.ss03" horiz-adv-x="632" 
d="M193 752l149 159l149 -159h-57l-92 98l-91 -98h-58zM114 0v697h457v-66h-386v-243h347v-66h-347v-256h386v-66h-457zM342 -172c-30 0 -55 25 -55 56s24 55 55 55s55 -24 55 -55s-24 -56 -55 -56z" />
    <glyph glyph-name="Edieresis.ss03" horiz-adv-x="632" 
d="M255 797c-30 0 -55 25 -55 56s24 55 55 55s55 -24 55 -55s-24 -56 -55 -56zM429 797c-30 0 -55 25 -55 56s24 55 55 55s55 -24 55 -55s-24 -56 -55 -56zM114 0v697h457v-66h-386v-243h347v-66h-347v-256h386v-66h-457z" />
    <glyph glyph-name="Edotaccent.ss03" horiz-adv-x="632" 
d="M342 797c-30 0 -55 25 -55 56s24 55 55 55s55 -24 55 -55s-24 -56 -55 -56zM114 0v697h457v-66h-386v-243h347v-66h-347v-256h386v-66h-457z" />
    <glyph glyph-name="uni1EB8.ss03" horiz-adv-x="632" 
d="M114 0v697h457v-66h-386v-243h347v-66h-347v-256h386v-66h-457zM342 -172c-30 0 -55 25 -55 56s24 55 55 55s55 -24 55 -55s-24 -56 -55 -56z" />
    <glyph glyph-name="Gdotaccent.ss03" horiz-adv-x="766" 
d="M385 797c-30 0 -55 25 -55 56s24 55 55 55s55 -24 55 -55s-24 -56 -55 -56zM442 302v58h235v-360h-57l-10 109c-38 -77 -123 -119 -230 -119c-203 0 -312 152 -312 360c0 207 108 357 322 357c147 0 241 -71 287 -191l-66 -25c-35 95 -105 148 -221 148
c-168 0 -251 -114 -251 -286c0 -166 73 -295 246 -295c120 0 225 63 225 222v22h-168z" />
    <glyph glyph-name="Idieresis.ss03" horiz-adv-x="299" 
d="M63 797c-30 0 -55 25 -55 56s24 55 55 55s55 -24 55 -55s-24 -56 -55 -56zM237 797c-30 0 -55 25 -55 56s24 55 55 55s55 -24 55 -55s-24 -56 -55 -56zM114 0v697h71v-697h-71z" />
    <glyph glyph-name="uni1ECA.ss03" horiz-adv-x="299" 
d="M114 0v697h71v-697h-71zM150 -172c-30 0 -55 25 -55 56s24 55 55 55s55 -24 55 -55s-24 -56 -55 -56z" />
    <glyph glyph-name="uni1ED8.ss03" horiz-adv-x="772" 
d="M237 752l149 159l149 -159h-57l-92 98l-91 -98h-58zM386 -10c-191 0 -319 143 -319 358c0 216 128 359 319 359s319 -143 319 -359c0 -215 -128 -358 -319 -358zM386 58c151 0 248 113 248 290c0 178 -97 291 -248 291s-248 -113 -248 -291c0 -177 97 -290 248 -290z
M386 -172c-30 0 -55 25 -55 56s24 55 55 55s55 -24 55 -55s-24 -56 -55 -56z" />
    <glyph glyph-name="Odieresis.ss03" horiz-adv-x="772" 
d="M299 797c-30 0 -55 25 -55 56s24 55 55 55s55 -24 55 -55s-24 -56 -55 -56zM473 797c-30 0 -55 25 -55 56s24 55 55 55s55 -24 55 -55s-24 -56 -55 -56zM386 -10c-191 0 -319 143 -319 358c0 216 128 359 319 359s319 -143 319 -359c0 -215 -128 -358 -319 -358zM386 58
c151 0 248 113 248 290c0 178 -97 291 -248 291s-248 -113 -248 -291c0 -177 97 -290 248 -290z" />
    <glyph glyph-name="uni1ECC.ss03" horiz-adv-x="772" 
d="M386 -10c-191 0 -319 143 -319 358c0 216 128 359 319 359s319 -143 319 -359c0 -215 -128 -358 -319 -358zM386 58c151 0 248 113 248 290c0 178 -97 291 -248 291s-248 -113 -248 -291c0 -177 97 -290 248 -290zM386 -172c-30 0 -55 25 -55 56s24 55 55 55
s55 -24 55 -55s-24 -56 -55 -56z" />
    <glyph glyph-name="uni1EE2.ss03" horiz-adv-x="772" 
d="M724 697h53v-48c0 -77 -29 -132 -97 -148c16 -45 25 -97 25 -153c0 -215 -128 -358 -319 -358s-319 143 -319 358c0 216 128 359 319 359c124 0 221 -60 274 -161c47 9 64 48 64 98v53zM386 58c151 0 248 113 248 290c0 178 -97 291 -248 291s-248 -113 -248 -291
c0 -177 97 -290 248 -290zM386 -61c31 0 55 -24 55 -55s-24 -56 -55 -56c-30 0 -55 25 -55 56s24 55 55 55z" />
    <glyph glyph-name="Udieresis.ss03" horiz-adv-x="699" 
d="M263 797c-30 0 -55 25 -55 56s24 55 55 55s55 -24 55 -55s-24 -56 -55 -56zM437 797c-30 0 -55 25 -55 56s24 55 55 55s55 -24 55 -55s-24 -56 -55 -56zM349 -10c-162 0 -250 91 -250 262v445h71v-438c0 -135 58 -199 179 -199c122 0 180 65 180 202v435h71v-440
c0 -175 -88 -267 -251 -267z" />
    <glyph glyph-name="uni01D7.ss03" horiz-adv-x="699" 
d="M324 971l108 141h74l-129 -141h-53zM263 797c-30 0 -55 25 -55 56s24 55 55 55s55 -24 55 -55s-24 -56 -55 -56zM437 797c-30 0 -55 25 -55 56s24 55 55 55s55 -24 55 -55s-24 -56 -55 -56zM349 -10c-162 0 -250 91 -250 262v445h71v-438c0 -135 58 -199 179 -199
c122 0 180 65 180 202v435h71v-440c0 -175 -88 -267 -251 -267z" />
    <glyph glyph-name="uni01D9.ss03" horiz-adv-x="699" 
d="M350 959l-149 153h57l92 -95l92 95h57zM263 797c-30 0 -55 25 -55 56s24 55 55 55s55 -24 55 -55s-24 -56 -55 -56zM437 797c-30 0 -55 25 -55 56s24 55 55 55s55 -24 55 -55s-24 -56 -55 -56zM349 -10c-162 0 -250 91 -250 262v445h71v-438c0 -135 58 -199 179 -199
c122 0 180 65 180 202v435h71v-440c0 -175 -88 -267 -251 -267z" />
    <glyph glyph-name="uni01DB.ss03" horiz-adv-x="699" 
d="M323 971l-124 141h74l104 -141h-54zM263 797c-30 0 -55 25 -55 56s24 55 55 55s55 -24 55 -55s-24 -56 -55 -56zM437 797c-30 0 -55 25 -55 56s24 55 55 55s55 -24 55 -55s-24 -56 -55 -56zM349 -10c-162 0 -250 91 -250 262v445h71v-438c0 -135 58 -199 179 -199
c122 0 180 65 180 202v435h71v-440c0 -175 -88 -267 -251 -267z" />
    <glyph glyph-name="uni01D5.ss03" horiz-adv-x="699" 
d="M214 1014v42h270v-42h-270zM263 797c-30 0 -55 25 -55 56s24 55 55 55s55 -24 55 -55s-24 -56 -55 -56zM437 797c-30 0 -55 25 -55 56s24 55 55 55s55 -24 55 -55s-24 -56 -55 -56zM349 -10c-162 0 -250 91 -250 262v445h71v-438c0 -135 58 -199 179 -199
c122 0 180 65 180 202v435h71v-440c0 -175 -88 -267 -251 -267z" />
    <glyph glyph-name="uni1EE4.ss03" horiz-adv-x="699" 
d="M349 -10c-162 0 -250 91 -250 262v445h71v-438c0 -135 58 -199 179 -199c122 0 180 65 180 202v435h71v-440c0 -175 -88 -267 -251 -267zM350 -172c-30 0 -55 25 -55 56s24 55 55 55s55 -24 55 -55s-24 -56 -55 -56z" />
    <glyph glyph-name="uni1EF0.ss03" horiz-adv-x="699" 
d="M679 697h53v-48c0 -89 -39 -149 -132 -152v-240c0 -175 -88 -267 -251 -267c-162 0 -250 91 -250 262v445h71v-438c0 -135 58 -199 179 -199c122 0 180 65 180 202v435h71v-153c58 3 79 45 79 100v53zM350 -61c31 0 55 -24 55 -55s-24 -56 -55 -56c-30 0 -55 25 -55 56
s24 55 55 55z" />
    <glyph glyph-name="Wdieresis.ss03" horiz-adv-x="987" 
d="M407 797c-30 0 -55 25 -55 56s24 55 55 55s55 -24 55 -55s-24 -56 -55 -56zM581 797c-30 0 -55 25 -55 56s24 55 55 55s55 -24 55 -55s-24 -56 -55 -56zM244 0l-202 697h74l168 -591l178 554h63l178 -554l167 591h75l-202 -697h-72l-177 547l-178 -547h-72z" />
    <glyph glyph-name="Ydieresis.ss03" horiz-adv-x="664" 
d="M245 797c-30 0 -55 25 -55 56s24 55 55 55s55 -24 55 -55s-24 -56 -55 -56zM419 797c-30 0 -55 25 -55 56s24 55 55 55s55 -24 55 -55s-24 -56 -55 -56zM296 0v267l-266 430h84l217 -361l218 361h85l-266 -430v-267h-72z" />
    <glyph glyph-name="uni1EF4.ss03" horiz-adv-x="664" 
d="M296 0v267l-266 430h84l217 -361l218 361h85l-266 -430v-267h-72zM332 -172c-30 0 -55 25 -55 56s24 55 55 55s55 -24 55 -55s-24 -56 -55 -56z" />
    <glyph glyph-name="Zdotaccent.ss03" horiz-adv-x="648" 
d="M324 797c-30 0 -55 25 -55 56s24 55 55 55s55 -24 55 -55s-24 -56 -55 -56zM596 697v-56l-455 -575h453v-66h-548v54l458 577h-435v66h527z" />
    <glyph glyph-name="a" unicode="a" horiz-adv-x="535" 
d="M262 501c124 0 196 -71 196 -194v-307h-63l-4 76c-39 -55 -99 -84 -177 -84c-107 0 -170 56 -170 151c0 50 20 88 56 110c38 22 91 31 188 31h101v23c0 86 -45 133 -128 133c-62 0 -110 -27 -150 -82l-50 42c53 69 117 101 201 101zM234 49c95 0 155 67 155 172v7h-95
c-91 0 -130 -6 -154 -25c-18 -14 -27 -36 -27 -64c0 -55 47 -90 121 -90z" />
    <glyph glyph-name="aacute" unicode="&#xe1;" horiz-adv-x="535" 
d="M420 697l-129 -141h-53l108 141h74zM262 501c124 0 196 -71 196 -194v-307h-63l-4 76c-39 -55 -99 -84 -177 -84c-107 0 -170 56 -170 151c0 50 20 88 56 110c38 22 91 31 188 31h101v23c0 86 -45 133 -128 133c-62 0 -110 -27 -150 -82l-50 42c53 69 117 101 201 101z
M234 49c95 0 155 67 155 172v7h-95c-91 0 -130 -6 -154 -25c-18 -14 -27 -36 -27 -64c0 -55 47 -90 121 -90z" />
    <glyph glyph-name="abreve" unicode="&#x103;" horiz-adv-x="535" 
d="M264 566c-101 0 -151 46 -151 131h50c0 -59 40 -89 101 -89c63 0 101 32 101 89h50c0 -87 -54 -131 -151 -131zM262 501c124 0 196 -71 196 -194v-307h-63l-4 76c-39 -55 -99 -84 -177 -84c-107 0 -170 56 -170 151c0 50 20 88 56 110c38 22 91 31 188 31h101v23
c0 86 -45 133 -128 133c-62 0 -110 -27 -150 -82l-50 42c53 69 117 101 201 101zM234 49c95 0 155 67 155 172v7h-95c-91 0 -130 -6 -154 -25c-18 -14 -27 -36 -27 -64c0 -55 47 -90 121 -90z" />
    <glyph glyph-name="uni1EAF" unicode="&#x1eaf;" horiz-adv-x="535" 
d="M420 901l-129 -141h-53l108 141h74zM264 566c-101 0 -151 46 -151 131h50c0 -59 40 -89 101 -89c63 0 101 32 101 89h50c0 -87 -54 -131 -151 -131zM262 501c124 0 196 -71 196 -194v-307h-63l-4 76c-39 -55 -99 -84 -177 -84c-107 0 -170 56 -170 151c0 50 20 88 56 110
c38 22 91 31 188 31h101v23c0 86 -45 133 -128 133c-62 0 -110 -27 -150 -82l-50 42c53 69 117 101 201 101zM234 49c95 0 155 67 155 172v7h-95c-91 0 -130 -6 -154 -25c-18 -14 -27 -36 -27 -64c0 -55 47 -90 121 -90z" />
    <glyph glyph-name="uni1EB7" unicode="&#x1eb7;" horiz-adv-x="535" 
d="M264 566c-101 0 -151 46 -151 131h50c0 -59 40 -89 101 -89c63 0 101 32 101 89h50c0 -87 -54 -131 -151 -131zM262 501c124 0 196 -71 196 -194v-307h-63l-4 76c-39 -55 -99 -84 -177 -84c-107 0 -170 56 -170 151c0 50 20 88 56 110c38 22 91 31 188 31h101v23
c0 86 -45 133 -128 133c-62 0 -110 -27 -150 -82l-50 42c53 69 117 101 201 101zM234 49c95 0 155 67 155 172v7h-95c-91 0 -130 -6 -154 -25c-18 -14 -27 -36 -27 -64c0 -55 47 -90 121 -90zM224 -173v101h80v-101h-80z" />
    <glyph glyph-name="uni1EB1" unicode="&#x1eb1;" horiz-adv-x="535" 
d="M291 760h-54l-124 141h74zM264 566c-101 0 -151 46 -151 131h50c0 -59 40 -89 101 -89c63 0 101 32 101 89h50c0 -87 -54 -131 -151 -131zM262 501c124 0 196 -71 196 -194v-307h-63l-4 76c-39 -55 -99 -84 -177 -84c-107 0 -170 56 -170 151c0 50 20 88 56 110
c38 22 91 31 188 31h101v23c0 86 -45 133 -128 133c-62 0 -110 -27 -150 -82l-50 42c53 69 117 101 201 101zM234 49c95 0 155 67 155 172v7h-95c-91 0 -130 -6 -154 -25c-18 -14 -27 -36 -27 -64c0 -55 47 -90 121 -90z" />
    <glyph glyph-name="uni1EB3" unicode="&#x1eb3;" horiz-adv-x="535" 
d="M326 826c0 41 -45 56 -92 56h-15v40h15c80 0 139 -34 139 -98c0 -67 -66 -78 -115 -88l-12 39c38 6 80 14 80 51zM264 566c-101 0 -151 46 -151 131h50c0 -59 40 -89 101 -89c63 0 101 32 101 89h50c0 -87 -54 -131 -151 -131zM262 501c124 0 196 -71 196 -194v-307h-63
l-4 76c-39 -55 -99 -84 -177 -84c-107 0 -170 56 -170 151c0 50 20 88 56 110c38 22 91 31 188 31h101v23c0 86 -45 133 -128 133c-62 0 -110 -27 -150 -82l-50 42c53 69 117 101 201 101zM234 49c95 0 155 67 155 172v7h-95c-91 0 -130 -6 -154 -25
c-18 -14 -27 -36 -27 -64c0 -55 47 -90 121 -90z" />
    <glyph glyph-name="uni1EB5" unicode="&#x1eb5;" horiz-adv-x="535" 
d="M196 861c-31 0 -50 -29 -50 -78h-41c0 77 36 122 93 122c75 0 81 -86 135 -86c26 0 46 31 46 82h43c0 -79 -36 -127 -89 -127c-83 0 -84 87 -137 87zM264 608c63 0 101 32 101 89h50c0 -87 -54 -131 -151 -131c-101 0 -151 46 -151 131h50c0 -59 40 -89 101 -89zM262 501
c124 0 196 -71 196 -194v-307h-63l-4 76c-39 -55 -99 -84 -177 -84c-107 0 -170 56 -170 151c0 50 20 88 56 110c38 22 91 31 188 31h101v23c0 86 -45 133 -128 133c-62 0 -110 -27 -150 -82l-50 42c53 69 117 101 201 101zM234 49c95 0 155 67 155 172v7h-95
c-91 0 -130 -6 -154 -25c-18 -14 -27 -36 -27 -64c0 -55 47 -90 121 -90z" />
    <glyph glyph-name="uni01CE" unicode="&#x1ce;" horiz-adv-x="535" 
d="M413 697l-149 -153l-149 153h57l92 -95l92 95h57zM262 501c124 0 196 -71 196 -194v-307h-63l-4 76c-39 -55 -99 -84 -177 -84c-107 0 -170 56 -170 151c0 50 20 88 56 110c38 22 91 31 188 31h101v23c0 86 -45 133 -128 133c-62 0 -110 -27 -150 -82l-50 42
c53 69 117 101 201 101zM234 49c95 0 155 67 155 172v7h-95c-91 0 -130 -6 -154 -25c-18 -14 -27 -36 -27 -64c0 -55 47 -90 121 -90z" />
    <glyph glyph-name="acircumflex" unicode="&#xe2;" horiz-adv-x="535" 
d="M264 646l-91 -98h-58l149 159l149 -159h-57zM262 501c124 0 196 -71 196 -194v-307h-63l-4 76c-39 -55 -99 -84 -177 -84c-107 0 -170 56 -170 151c0 50 20 88 56 110c38 22 91 31 188 31h101v23c0 86 -45 133 -128 133c-62 0 -110 -27 -150 -82l-50 42
c53 69 117 101 201 101zM234 49c95 0 155 67 155 172v7h-95c-91 0 -130 -6 -154 -25c-18 -14 -27 -36 -27 -64c0 -55 47 -90 121 -90z" />
    <glyph glyph-name="uni1EA5" unicode="&#x1ea5;" horiz-adv-x="535" 
d="M420 886l-129 -141h-53l108 141h74zM264 646l-91 -98h-58l149 159l149 -159h-57zM262 501c124 0 196 -71 196 -194v-307h-63l-4 76c-39 -55 -99 -84 -177 -84c-107 0 -170 56 -170 151c0 50 20 88 56 110c38 22 91 31 188 31h101v23c0 86 -45 133 -128 133
c-62 0 -110 -27 -150 -82l-50 42c53 69 117 101 201 101zM234 49c95 0 155 67 155 172v7h-95c-91 0 -130 -6 -154 -25c-18 -14 -27 -36 -27 -64c0 -55 47 -90 121 -90z" />
    <glyph glyph-name="uni1EAD" unicode="&#x1ead;" horiz-adv-x="535" 
d="M264 646l-91 -98h-58l149 159l149 -159h-57zM262 501c124 0 196 -71 196 -194v-307h-63l-4 76c-39 -55 -99 -84 -177 -84c-107 0 -170 56 -170 151c0 50 20 88 56 110c38 22 91 31 188 31h101v23c0 86 -45 133 -128 133c-62 0 -110 -27 -150 -82l-50 42
c53 69 117 101 201 101zM234 49c95 0 155 67 155 172v7h-95c-91 0 -130 -6 -154 -25c-18 -14 -27 -36 -27 -64c0 -55 47 -90 121 -90zM224 -173v101h80v-101h-80z" />
    <glyph glyph-name="uni1EA7" unicode="&#x1ea7;" horiz-adv-x="535" 
d="M291 745h-54l-124 141h74zM115 548l149 159l149 -159h-57l-92 98l-91 -98h-58zM262 501c124 0 196 -71 196 -194v-307h-63l-4 76c-39 -55 -99 -84 -177 -84c-107 0 -170 56 -170 151c0 50 20 88 56 110c38 22 91 31 188 31h101v23c0 86 -45 133 -128 133
c-62 0 -110 -27 -150 -82l-50 42c53 69 117 101 201 101zM234 49c95 0 155 67 155 172v7h-95c-91 0 -130 -6 -154 -25c-18 -14 -27 -36 -27 -64c0 -55 47 -90 121 -90z" />
    <glyph glyph-name="uni1EA9" unicode="&#x1ea9;" horiz-adv-x="535" 
d="M326 811c0 41 -45 56 -92 56h-15v40h15c80 0 139 -34 139 -98c0 -67 -66 -78 -115 -88l-12 39c38 6 80 14 80 51zM264 646l-91 -98h-58l149 159l149 -159h-57zM262 501c124 0 196 -71 196 -194v-307h-63l-4 76c-39 -55 -99 -84 -177 -84c-107 0 -170 56 -170 151
c0 50 20 88 56 110c38 22 91 31 188 31h101v23c0 86 -45 133 -128 133c-62 0 -110 -27 -150 -82l-50 42c53 69 117 101 201 101zM234 49c95 0 155 67 155 172v7h-95c-91 0 -130 -6 -154 -25c-18 -14 -27 -36 -27 -64c0 -55 47 -90 121 -90z" />
    <glyph glyph-name="uni1EAB" unicode="&#x1eab;" horiz-adv-x="535" 
d="M196 846c-31 0 -50 -29 -50 -78h-41c0 77 36 122 93 122c75 0 81 -86 135 -86c26 0 46 31 46 82h43c0 -79 -36 -127 -89 -127c-83 0 -84 87 -137 87zM115 548l149 159l149 -159h-57l-92 98l-91 -98h-58zM262 501c124 0 196 -71 196 -194v-307h-63l-4 76
c-39 -55 -99 -84 -177 -84c-107 0 -170 56 -170 151c0 50 20 88 56 110c38 22 91 31 188 31h101v23c0 86 -45 133 -128 133c-62 0 -110 -27 -150 -82l-50 42c53 69 117 101 201 101zM234 49c95 0 155 67 155 172v7h-95c-91 0 -130 -6 -154 -25c-18 -14 -27 -36 -27 -64
c0 -55 47 -90 121 -90z" />
    <glyph glyph-name="adieresis" unicode="&#xe4;" horiz-adv-x="535" 
d="M214 697v-102h-80v102h80zM394 697v-102h-80v102h80zM262 501c124 0 196 -71 196 -194v-307h-63l-4 76c-39 -55 -99 -84 -177 -84c-107 0 -170 56 -170 151c0 50 20 88 56 110c38 22 91 31 188 31h101v23c0 86 -45 133 -128 133c-62 0 -110 -27 -150 -82l-50 42
c53 69 117 101 201 101zM234 49c95 0 155 67 155 172v7h-95c-91 0 -130 -6 -154 -25c-18 -14 -27 -36 -27 -64c0 -55 47 -90 121 -90z" />
    <glyph glyph-name="uni1EA1" unicode="&#x1ea1;" horiz-adv-x="535" 
d="M262 501c124 0 196 -71 196 -194v-307h-63l-4 76c-39 -55 -99 -84 -177 -84c-107 0 -170 56 -170 151c0 50 20 88 56 110c38 22 91 31 188 31h101v23c0 86 -45 133 -128 133c-62 0 -110 -27 -150 -82l-50 42c53 69 117 101 201 101zM234 49c95 0 155 67 155 172v7h-95
c-91 0 -130 -6 -154 -25c-18 -14 -27 -36 -27 -64c0 -55 47 -90 121 -90zM224 -173v101h80v-101h-80z" />
    <glyph glyph-name="agrave" unicode="&#xe0;" horiz-adv-x="535" 
d="M291 556h-54l-124 141h74zM262 501c124 0 196 -71 196 -194v-307h-63l-4 76c-39 -55 -99 -84 -177 -84c-107 0 -170 56 -170 151c0 50 20 88 56 110c38 22 91 31 188 31h101v23c0 86 -45 133 -128 133c-62 0 -110 -27 -150 -82l-50 42c53 69 117 101 201 101zM234 49
c95 0 155 67 155 172v7h-95c-91 0 -130 -6 -154 -25c-18 -14 -27 -36 -27 -64c0 -55 47 -90 121 -90z" />
    <glyph glyph-name="uni1EA3" unicode="&#x1ea3;" horiz-adv-x="535" 
d="M326 622c0 41 -45 56 -92 56h-15v40h15c80 0 139 -34 139 -98c0 -67 -66 -78 -115 -88l-12 39c38 6 80 14 80 51zM262 501c124 0 196 -71 196 -194v-307h-63l-4 76c-39 -55 -99 -84 -177 -84c-107 0 -170 56 -170 151c0 50 20 88 56 110c38 22 91 31 188 31h101v23
c0 86 -45 133 -128 133c-62 0 -110 -27 -150 -82l-50 42c53 69 117 101 201 101zM234 49c95 0 155 67 155 172v7h-95c-91 0 -130 -6 -154 -25c-18 -14 -27 -36 -27 -64c0 -55 47 -90 121 -90z" />
    <glyph glyph-name="amacron" unicode="&#x101;" horiz-adv-x="535" 
d="M398 641v-42h-270v42h270zM262 501c124 0 196 -71 196 -194v-307h-63l-4 76c-39 -55 -99 -84 -177 -84c-107 0 -170 56 -170 151c0 50 20 88 56 110c38 22 91 31 188 31h101v23c0 86 -45 133 -128 133c-62 0 -110 -27 -150 -82l-50 42c53 69 117 101 201 101zM234 49
c95 0 155 67 155 172v7h-95c-91 0 -130 -6 -154 -25c-18 -14 -27 -36 -27 -64c0 -55 47 -90 121 -90z" />
    <glyph glyph-name="aogonek" unicode="&#x105;" horiz-adv-x="535" 
d="M464 -142l34 -27c-24 -27 -56 -45 -93 -45c-51 0 -91 32 -91 84c0 58 45 104 86 130h-5l-4 76c-39 -55 -99 -84 -177 -84c-107 0 -170 56 -170 151c0 50 20 88 56 110c38 22 91 31 188 31h101v23c0 86 -45 133 -128 133c-62 0 -110 -27 -150 -82l-50 42
c53 69 117 101 201 101c124 0 196 -71 196 -194v-307c-35 -21 -101 -63 -101 -124c0 -33 22 -45 46 -45c23 0 43 10 61 27zM234 49c95 0 155 67 155 172v7h-95c-91 0 -130 -6 -154 -25c-18 -14 -27 -36 -27 -64c0 -55 47 -90 121 -90z" />
    <glyph glyph-name="aring" unicode="&#xe5;" horiz-adv-x="535" 
d="M264 539c-54 0 -97 44 -97 97c0 54 44 97 97 97c52 0 97 -43 97 -97c0 -53 -43 -97 -97 -97zM264 694c-33 0 -58 -25 -58 -58c0 -32 25 -58 58 -58s58 26 58 58c0 33 -24 58 -58 58zM262 501c124 0 196 -71 196 -194v-307h-63l-4 76c-39 -55 -99 -84 -177 -84
c-107 0 -170 56 -170 151c0 50 20 88 56 110c38 22 91 31 188 31h101v23c0 86 -45 133 -128 133c-62 0 -110 -27 -150 -82l-50 42c53 69 117 101 201 101zM234 49c95 0 155 67 155 172v7h-95c-91 0 -130 -6 -154 -25c-18 -14 -27 -36 -27 -64c0 -55 47 -90 121 -90z" />
    <glyph glyph-name="atilde" unicode="&#xe3;" horiz-adv-x="535" 
d="M196 657c-31 0 -50 -29 -50 -78h-41c0 77 36 122 93 122c75 0 81 -86 135 -86c26 0 46 31 46 82h43c0 -79 -36 -127 -89 -127c-83 0 -84 87 -137 87zM262 501c124 0 196 -71 196 -194v-307h-63l-4 76c-39 -55 -99 -84 -177 -84c-107 0 -170 56 -170 151
c0 50 20 88 56 110c38 22 91 31 188 31h101v23c0 86 -45 133 -128 133c-62 0 -110 -27 -150 -82l-50 42c53 69 117 101 201 101zM234 49c95 0 155 67 155 172v7h-95c-91 0 -130 -6 -154 -25c-18 -14 -27 -36 -27 -64c0 -55 47 -90 121 -90z" />
    <glyph glyph-name="ae" unicode="&#xe6;" horiz-adv-x="861" 
d="M217 -8c-111 0 -174 62 -174 150c0 121 121 143 222 143h125v22c0 86 -46 133 -128 133c-65 0 -112 -29 -150 -82l-51 42c52 67 117 101 205 101c89 0 150 -41 169 -116c30 66 85 113 171 113c150 0 206 -111 206 -222c0 -17 -1 -35 -3 -48h-355c4 -108 56 -172 153 -172
c62 0 101 18 142 61l49 -42c-58 -59 -113 -81 -191 -81c-99 0 -166 52 -192 135h-8c-42 -106 -114 -137 -190 -137zM454 279h293c1 16 -3 33 -5 45c-11 53 -50 116 -140 116c-91 0 -146 -72 -148 -161zM225 51c84 0 152 55 165 171v12h-121c-111 0 -156 -36 -156 -93
c0 -54 42 -90 112 -90z" />
    <glyph glyph-name="b" unicode="b" horiz-adv-x="594" 
d="M323 502c137 0 219 -101 219 -255c0 -147 -75 -255 -219 -255c-72 0 -127 28 -163 74v-66h-69v697h69v-270c37 48 93 75 163 75zM313 53c105 0 160 82 160 194c0 117 -60 194 -160 194c-99 0 -159 -77 -159 -194c0 -112 55 -194 159 -194z" />
    <glyph glyph-name="c" unicode="c" horiz-adv-x="508" 
d="M273 -8c-143 0 -223 116 -223 253c0 130 73 256 222 256c88 0 161 -44 200 -136l-66 -26c-23 63 -72 101 -134 101c-105 0 -152 -94 -152 -195s47 -192 153 -192c62 0 111 37 130 100l64 -24c-33 -90 -105 -137 -194 -137z" />
    <glyph glyph-name="cacute" unicode="&#x107;" horiz-adv-x="508" 
d="M228 556l108 141h74l-129 -141h-53zM273 -8c-143 0 -223 116 -223 253c0 130 73 256 222 256c88 0 161 -44 200 -136l-66 -26c-23 63 -72 101 -134 101c-105 0 -152 -94 -152 -195s47 -192 153 -192c62 0 111 37 130 100l64 -24c-33 -90 -105 -137 -194 -137z" />
    <glyph glyph-name="ccaron" unicode="&#x10d;" horiz-adv-x="508" 
d="M254 544l-149 153h57l92 -95l92 95h57zM273 -8c-143 0 -223 116 -223 253c0 130 73 256 222 256c88 0 161 -44 200 -136l-66 -26c-23 63 -72 101 -134 101c-105 0 -152 -94 -152 -195s47 -192 153 -192c62 0 111 37 130 100l64 -24c-33 -90 -105 -137 -194 -137z" />
    <glyph glyph-name="ccedilla" unicode="&#xe7;" horiz-adv-x="508" 
d="M273 53c62 0 111 37 130 100l64 -24c-33 -90 -105 -137 -194 -137h-3l-35 -56c26 -4 46 -8 64 -16c33 -15 52 -39 52 -77c0 -57 -41 -98 -103 -98c-31 0 -67 16 -89 47l25 33c16 -26 42 -38 66 -38c37 0 59 20 59 55c0 33 -24 49 -55 57c-20 5 -46 7 -76 7l52 90
c-116 21 -180 127 -180 249c0 130 73 256 222 256c88 0 161 -44 200 -136l-66 -26c-23 63 -72 101 -134 101c-105 0 -152 -94 -152 -195s47 -192 153 -192z" />
    <glyph glyph-name="cdotaccent" unicode="&#x10b;" horiz-adv-x="508" 
d="M214 595v102h80v-102h-80zM273 -8c-143 0 -223 116 -223 253c0 130 73 256 222 256c88 0 161 -44 200 -136l-66 -26c-23 63 -72 101 -134 101c-105 0 -152 -94 -152 -195s47 -192 153 -192c62 0 111 37 130 100l64 -24c-33 -90 -105 -137 -194 -137z" />
    <glyph glyph-name="d" unicode="d" horiz-adv-x="594" 
d="M434 697h69v-697h-69v66c-36 -46 -91 -74 -163 -74c-144 0 -219 108 -219 255c0 154 82 255 219 255c70 0 126 -27 163 -75v270zM281 53c104 0 159 82 159 194c0 117 -60 194 -159 194c-100 0 -160 -77 -160 -194c0 -112 55 -194 160 -194z" />
    <glyph glyph-name="eth" unicode="&#xf0;" horiz-adv-x="608" 
d="M561 642l-94 -29c62 -70 83 -168 83 -274c0 -174 -95 -345 -286 -345c-133 0 -216 92 -216 222c0 170 122 287 270 287c71 0 126 -23 161 -70c-5 70 -29 124 -69 162l-153 -47l-12 38l127 40c-49 31 -114 46 -190 49l5 47c111 -5 191 -33 246 -77l115 36zM475 250
c10 84 -30 196 -149 196c-134 0 -214 -105 -214 -229c0 -103 68 -163 156 -163c127 0 196 102 207 196z" />
    <glyph glyph-name="dcaron" unicode="&#x10f;" horiz-adv-x="594" 
d="M434 427v270h69v-697h-69v66c-36 -46 -91 -74 -163 -74c-144 0 -219 108 -219 255c0 154 82 255 219 255c70 0 126 -27 163 -75zM606 697h72l-88 -208h-42zM281 53c104 0 159 82 159 194c0 117 -60 194 -159 194c-100 0 -160 -77 -160 -194c0 -112 55 -194 160 -194z" />
    <glyph glyph-name="dcroat" unicode="&#x111;" horiz-adv-x="594" 
d="M562 631v-47h-59v-584h-69v66c-36 -46 -91 -74 -163 -74c-144 0 -219 108 -219 255c0 154 82 255 219 255c70 0 126 -27 163 -75v157h-142v47h142v66h69v-66h59zM281 53c104 0 159 82 159 194c0 117 -60 194 -159 194c-100 0 -160 -77 -160 -194c0 -112 55 -194 160 -194
z" />
    <glyph glyph-name="e" unicode="e" horiz-adv-x="532" 
d="M484 271c0 -14 -1 -31 -3 -43h-361c2 -108 62 -173 159 -173c54 0 97 14 142 62l48 -42c-58 -61 -115 -83 -191 -83c-150 0 -227 112 -227 252c0 139 76 257 219 257c151 0 214 -118 214 -230zM270 443c-89 0 -144 -70 -150 -157h298c0 2 -1 7 -1 16
c-5 80 -56 141 -147 141z" />
    <glyph glyph-name="eacute" unicode="&#xe9;" horiz-adv-x="532" 
d="M427 697l-129 -141h-53l108 141h74zM484 271c0 -14 -1 -31 -3 -43h-361c2 -108 62 -173 159 -173c54 0 97 14 142 62l48 -42c-58 -61 -115 -83 -191 -83c-150 0 -227 112 -227 252c0 139 76 257 219 257c151 0 214 -118 214 -230zM270 443c-89 0 -144 -70 -150 -157h298
c0 2 -1 7 -1 16c-5 80 -56 141 -147 141z" />
    <glyph glyph-name="ecaron" unicode="&#x11b;" horiz-adv-x="532" 
d="M420 697l-149 -153l-149 153h57l92 -95l92 95h57zM484 271c0 -14 -1 -31 -3 -43h-361c2 -108 62 -173 159 -173c54 0 97 14 142 62l48 -42c-58 -61 -115 -83 -191 -83c-150 0 -227 112 -227 252c0 139 76 257 219 257c151 0 214 -118 214 -230zM270 443
c-89 0 -144 -70 -150 -157h298c0 2 -1 7 -1 16c-5 80 -56 141 -147 141z" />
    <glyph glyph-name="ecircumflex" unicode="&#xea;" horiz-adv-x="532" 
d="M271 646l-91 -98h-58l149 159l149 -159h-57zM484 271c0 -14 -1 -31 -3 -43h-361c2 -108 62 -173 159 -173c54 0 97 14 142 62l48 -42c-58 -61 -115 -83 -191 -83c-150 0 -227 112 -227 252c0 139 76 257 219 257c151 0 214 -118 214 -230zM270 443
c-89 0 -144 -70 -150 -157h298c0 2 -1 7 -1 16c-5 80 -56 141 -147 141z" />
    <glyph glyph-name="uni1EBF" unicode="&#x1ebf;" horiz-adv-x="532" 
d="M427 886l-129 -141h-53l108 141h74zM271 646l-91 -98h-58l149 159l149 -159h-57zM484 271c0 -14 -1 -31 -3 -43h-361c2 -108 62 -173 159 -173c54 0 97 14 142 62l48 -42c-58 -61 -115 -83 -191 -83c-150 0 -227 112 -227 252c0 139 76 257 219 257
c151 0 214 -118 214 -230zM270 443c-89 0 -144 -70 -150 -157h298c0 2 -1 7 -1 16c-5 80 -56 141 -147 141z" />
    <glyph glyph-name="uni1EC7" unicode="&#x1ec7;" horiz-adv-x="532" 
d="M271 646l-91 -98h-58l149 159l149 -159h-57zM484 271c0 -14 -1 -31 -3 -43h-361c2 -108 62 -173 159 -173c54 0 97 14 142 62l48 -42c-58 -61 -115 -83 -191 -83c-150 0 -227 112 -227 252c0 139 76 257 219 257c151 0 214 -118 214 -230zM270 443
c-89 0 -144 -70 -150 -157h298c0 2 -1 7 -1 16c-5 80 -56 141 -147 141zM238 -173v101h80v-101h-80z" />
    <glyph glyph-name="uni1EC1" unicode="&#x1ec1;" horiz-adv-x="532" 
d="M298 745h-54l-124 141h74zM122 548l149 159l149 -159h-57l-92 98l-91 -98h-58zM484 271c0 -14 -1 -31 -3 -43h-361c2 -108 62 -173 159 -173c54 0 97 14 142 62l48 -42c-58 -61 -115 -83 -191 -83c-150 0 -227 112 -227 252c0 139 76 257 219 257
c151 0 214 -118 214 -230zM270 443c-89 0 -144 -70 -150 -157h298c0 2 -1 7 -1 16c-5 80 -56 141 -147 141z" />
    <glyph glyph-name="uni1EC3" unicode="&#x1ec3;" horiz-adv-x="532" 
d="M333 811c0 41 -45 56 -92 56h-15v40h15c80 0 139 -34 139 -98c0 -67 -66 -78 -115 -88l-12 39c38 6 80 14 80 51zM271 646l-91 -98h-58l149 159l149 -159h-57zM484 271c0 -14 -1 -31 -3 -43h-361c2 -108 62 -173 159 -173c54 0 97 14 142 62l48 -42
c-58 -61 -115 -83 -191 -83c-150 0 -227 112 -227 252c0 139 76 257 219 257c151 0 214 -118 214 -230zM270 443c-89 0 -144 -70 -150 -157h298c0 2 -1 7 -1 16c-5 80 -56 141 -147 141z" />
    <glyph glyph-name="uni1EC5" unicode="&#x1ec5;" horiz-adv-x="532" 
d="M203 846c-31 0 -50 -29 -50 -78h-41c0 77 36 122 93 122c75 0 81 -86 135 -86c26 0 46 31 46 82h43c0 -79 -36 -127 -89 -127c-83 0 -84 87 -137 87zM122 548l149 159l149 -159h-57l-92 98l-91 -98h-58zM484 271c0 -14 -1 -31 -3 -43h-361c2 -108 62 -173 159 -173
c54 0 97 14 142 62l48 -42c-58 -61 -115 -83 -191 -83c-150 0 -227 112 -227 252c0 139 76 257 219 257c151 0 214 -118 214 -230zM270 443c-89 0 -144 -70 -150 -157h298c0 2 -1 7 -1 16c-5 80 -56 141 -147 141z" />
    <glyph glyph-name="edieresis" unicode="&#xeb;" horiz-adv-x="532" 
d="M221 697v-102h-80v102h80zM401 697v-102h-80v102h80zM484 271c0 -14 -1 -31 -3 -43h-361c2 -108 62 -173 159 -173c54 0 97 14 142 62l48 -42c-58 -61 -115 -83 -191 -83c-150 0 -227 112 -227 252c0 139 76 257 219 257c151 0 214 -118 214 -230zM270 443
c-89 0 -144 -70 -150 -157h298c0 2 -1 7 -1 16c-5 80 -56 141 -147 141z" />
    <glyph glyph-name="edotaccent" unicode="&#x117;" horiz-adv-x="532" 
d="M311 697v-102h-80v102h80zM484 271c0 -14 -1 -31 -3 -43h-361c2 -108 62 -173 159 -173c54 0 97 14 142 62l48 -42c-58 -61 -115 -83 -191 -83c-150 0 -227 112 -227 252c0 139 76 257 219 257c151 0 214 -118 214 -230zM270 443c-89 0 -144 -70 -150 -157h298
c0 2 -1 7 -1 16c-5 80 -56 141 -147 141z" />
    <glyph glyph-name="uni1EB9" unicode="&#x1eb9;" horiz-adv-x="532" 
d="M484 271c0 -14 -1 -31 -3 -43h-361c2 -108 62 -173 159 -173c54 0 97 14 142 62l48 -42c-58 -61 -115 -83 -191 -83c-150 0 -227 112 -227 252c0 139 76 257 219 257c151 0 214 -118 214 -230zM270 443c-89 0 -144 -70 -150 -157h298c0 2 -1 7 -1 16
c-5 80 -56 141 -147 141zM238 -173v101h80v-101h-80z" />
    <glyph glyph-name="egrave" unicode="&#xe8;" horiz-adv-x="532" 
d="M298 556h-54l-124 141h74zM484 271c0 -14 -1 -31 -3 -43h-361c2 -108 62 -173 159 -173c54 0 97 14 142 62l48 -42c-58 -61 -115 -83 -191 -83c-150 0 -227 112 -227 252c0 139 76 257 219 257c151 0 214 -118 214 -230zM270 443c-89 0 -144 -70 -150 -157h298
c0 2 -1 7 -1 16c-5 80 -56 141 -147 141z" />
    <glyph glyph-name="uni1EBB" unicode="&#x1ebb;" horiz-adv-x="532" 
d="M333 622c0 41 -45 56 -92 56h-15v40h15c80 0 139 -34 139 -98c0 -67 -66 -78 -115 -88l-12 39c38 6 80 14 80 51zM484 271c0 -14 -1 -31 -3 -43h-361c2 -108 62 -173 159 -173c54 0 97 14 142 62l48 -42c-58 -61 -115 -83 -191 -83c-150 0 -227 112 -227 252
c0 139 76 257 219 257c151 0 214 -118 214 -230zM270 443c-89 0 -144 -70 -150 -157h298c0 2 -1 7 -1 16c-5 80 -56 141 -147 141z" />
    <glyph glyph-name="emacron" unicode="&#x113;" horiz-adv-x="532" 
d="M405 641v-42h-270v42h270zM484 271c0 -14 -1 -31 -3 -43h-361c2 -108 62 -173 159 -173c54 0 97 14 142 62l48 -42c-58 -61 -115 -83 -191 -83c-150 0 -227 112 -227 252c0 139 76 257 219 257c151 0 214 -118 214 -230zM270 443c-89 0 -144 -70 -150 -157h298
c0 2 -1 7 -1 16c-5 80 -56 141 -147 141z" />
    <glyph glyph-name="eogonek" unicode="&#x119;" horiz-adv-x="532" 
d="M484 271c0 -14 -1 -31 -3 -43h-361c2 -108 62 -173 159 -173c54 0 97 14 142 62l48 -42c-32 -34 -65 -56 -100 -69c-35 -21 -98 -63 -98 -122c0 -33 22 -45 46 -45c23 0 43 10 61 27l34 -27c-24 -27 -56 -45 -93 -45c-51 0 -91 32 -91 84c0 47 30 87 64 114h-14
c-150 0 -227 112 -227 252c0 139 76 257 219 257c151 0 214 -118 214 -230zM270 443c-89 0 -144 -70 -150 -157h298c0 2 -1 7 -1 16c-5 80 -56 141 -147 141z" />
    <glyph glyph-name="uni1EBD" unicode="&#x1ebd;" horiz-adv-x="532" 
d="M203 657c-31 0 -50 -29 -50 -78h-41c0 77 36 122 93 122c75 0 81 -86 135 -86c26 0 46 31 46 82h43c0 -79 -36 -127 -89 -127c-83 0 -84 87 -137 87zM484 271c0 -14 -1 -31 -3 -43h-361c2 -108 62 -173 159 -173c54 0 97 14 142 62l48 -42c-58 -61 -115 -83 -191 -83
c-150 0 -227 112 -227 252c0 139 76 257 219 257c151 0 214 -118 214 -230zM270 443c-89 0 -144 -70 -150 -157h298c0 2 -1 7 -1 16c-5 80 -56 141 -147 141z" />
    <glyph glyph-name="f" unicode="f" horiz-adv-x="349" 
d="M121 0v435h-104v58h105v76c0 105 61 136 124 136c27 0 57 -6 88 -19l-24 -55c-21 10 -40 16 -57 16c-39 0 -63 -27 -63 -73v-81h142v-58h-142v-435h-69z" />
    <glyph glyph-name="g" unicode="g" horiz-adv-x="521" 
d="M261 60c98 -15 214 -29 214 -136c0 -93 -87 -136 -211 -136c-137 0 -220 54 -220 152c0 10 1 16 2 22l80 68c-38 17 -64 45 -64 94c0 40 18 70 53 94c-26 30 -42 68 -42 112c0 100 82 171 188 171c48 0 91 -15 123 -40l68 59l36 -45l-67 -56c17 -27 27 -58 27 -93
c0 -101 -82 -168 -186 -168c-38 0 -73 9 -102 25c-20 -11 -32 -29 -32 -50c0 -50 62 -62 133 -73zM262 443c-70 0 -121 -47 -121 -115c0 -64 46 -113 120 -113s118 48 118 113c0 68 -46 115 -117 115zM267 -154c87 0 139 24 139 72c0 60 -78 69 -160 82c-22 3 -45 7 -66 12
l-67 -65c-1 -5 -1 -7 -1 -9c0 -70 71 -92 155 -92z" />
    <glyph glyph-name="gbreve" unicode="&#x11f;" horiz-adv-x="521" 
d="M260 566c-101 0 -151 46 -151 131h50c0 -59 40 -89 101 -89c63 0 101 32 101 89h50c0 -87 -54 -131 -151 -131zM261 60c98 -15 214 -29 214 -136c0 -93 -87 -136 -211 -136c-137 0 -220 54 -220 152c0 10 1 16 2 22l80 68c-38 17 -64 45 -64 94c0 40 18 70 53 94
c-26 30 -42 68 -42 112c0 100 82 171 188 171c48 0 91 -15 123 -40l68 59l36 -45l-67 -56c17 -27 27 -58 27 -93c0 -101 -82 -168 -186 -168c-38 0 -73 9 -102 25c-20 -11 -32 -29 -32 -50c0 -50 62 -62 133 -73zM262 443c-70 0 -121 -47 -121 -115c0 -64 46 -113 120 -113
s118 48 118 113c0 68 -46 115 -117 115zM267 -154c87 0 139 24 139 72c0 60 -78 69 -160 82c-22 3 -45 7 -66 12l-67 -65c-1 -5 -1 -7 -1 -9c0 -70 71 -92 155 -92z" />
    <glyph glyph-name="uni0123" unicode="&#x123;" horiz-adv-x="521" 
d="M340 702l-88 -147h-73l117 147h44zM261 60c98 -15 214 -29 214 -136c0 -93 -87 -136 -211 -136c-137 0 -220 54 -220 152c0 10 1 16 2 22l80 68c-38 17 -64 45 -64 94c0 40 18 70 53 94c-26 30 -42 68 -42 112c0 100 82 171 188 171c48 0 91 -15 123 -40l68 59l36 -45
l-67 -56c17 -27 27 -58 27 -93c0 -101 -82 -168 -186 -168c-38 0 -73 9 -102 25c-20 -11 -32 -29 -32 -50c0 -50 62 -62 133 -73zM262 443c-70 0 -121 -47 -121 -115c0 -64 46 -113 120 -113s118 48 118 113c0 68 -46 115 -117 115zM267 -154c87 0 139 24 139 72
c0 60 -78 69 -160 82c-22 3 -45 7 -66 12l-67 -65c-1 -5 -1 -7 -1 -9c0 -70 71 -92 155 -92z" />
    <glyph glyph-name="gdotaccent" unicode="&#x121;" horiz-adv-x="521" 
d="M300 697v-102h-80v102h80zM261 60c98 -15 214 -29 214 -136c0 -93 -87 -136 -211 -136c-137 0 -220 54 -220 152c0 10 1 16 2 22l80 68c-38 17 -64 45 -64 94c0 40 18 70 53 94c-26 30 -42 68 -42 112c0 100 82 171 188 171c48 0 91 -15 123 -40l68 59l36 -45l-67 -56
c17 -27 27 -58 27 -93c0 -101 -82 -168 -186 -168c-38 0 -73 9 -102 25c-20 -11 -32 -29 -32 -50c0 -50 62 -62 133 -73zM262 443c-70 0 -121 -47 -121 -115c0 -64 46 -113 120 -113s118 48 118 113c0 68 -46 115 -117 115zM267 -154c87 0 139 24 139 72
c0 60 -78 69 -160 82c-22 3 -45 7 -66 12l-67 -65c-1 -5 -1 -7 -1 -9c0 -70 71 -92 155 -92z" />
    <glyph glyph-name="h" unicode="h" horiz-adv-x="563" 
d="M323 501c106 0 161 -68 161 -199v-302h-69v285c0 107 -34 155 -108 155c-94 0 -147 -77 -147 -213v-227h-69v697h69v-276c32 50 92 80 163 80z" />
    <glyph glyph-name="hbar" unicode="&#x127;" horiz-adv-x="563" 
d="M323 501c106 0 161 -68 161 -199v-302h-69v285c0 107 -34 155 -108 155c-94 0 -147 -77 -147 -213v-227h-69v584h-41v47h41v66h69v-66h160v-47h-160v-163c32 50 92 80 163 80z" />
    <glyph glyph-name="i" unicode="i" horiz-adv-x="251" 
d="M85 595v102h80v-102h-80zM91 0v493h69v-493h-69z" />
    <glyph glyph-name="dotlessi" unicode="&#x131;" horiz-adv-x="251" 
d="M91 0v493h69v-493h-69z" />
    <glyph glyph-name="iacute" unicode="&#xed;" horiz-adv-x="251" 
d="M99 556l108 141h74l-129 -141h-53zM91 0v493h69v-493h-69z" />
    <glyph glyph-name="uni01D0" unicode="&#x1d0;" horiz-adv-x="251" 
d="M125 544l-149 153h57l92 -95l92 95h57zM91 0v493h69v-493h-69z" />
    <glyph glyph-name="icircumflex" unicode="&#xee;" horiz-adv-x="251" 
d="M-24 548l149 159l149 -159h-57l-92 98l-91 -98h-58zM91 0v493h69v-493h-69z" />
    <glyph glyph-name="idieresis" unicode="&#xef;" horiz-adv-x="251" 
d="M-5 595v102h80v-102h-80zM175 595v102h80v-102h-80zM91 0v493h69v-493h-69z" />
    <glyph glyph-name="i.loclTRK" horiz-adv-x="251" 
d="M85 595v102h80v-102h-80zM91 0v493h69v-493h-69z" />
    <glyph glyph-name="uni1ECB" unicode="&#x1ecb;" horiz-adv-x="251" 
d="M85 595v102h80v-102h-80zM91 0v493h69v-493h-69zM85 -173v101h80v-101h-80z" />
    <glyph glyph-name="igrave" unicode="&#xec;" horiz-adv-x="251" 
d="M98 556l-124 141h74l104 -141h-54zM91 0v493h69v-493h-69z" />
    <glyph glyph-name="uni1EC9" unicode="&#x1ec9;" horiz-adv-x="251" 
d="M119 532l-12 39c38 6 80 14 80 51c0 41 -45 56 -92 56h-15v40h15c80 0 139 -34 139 -98c0 -67 -66 -78 -115 -88zM91 0v493h69v-493h-69z" />
    <glyph glyph-name="imacron" unicode="&#x12b;" horiz-adv-x="251" 
d="M-11 599v42h270v-42h-270zM91 0v493h69v-493h-69z" />
    <glyph glyph-name="iogonek" unicode="&#x12f;" horiz-adv-x="251" 
d="M165 697v-102h-80v102h80zM166 -142l34 -27c-24 -27 -56 -45 -93 -45c-51 0 -91 32 -91 84c0 58 45 104 86 130h-11v493h69v-493c-35 -21 -101 -63 -101 -124c0 -33 22 -45 46 -45c23 0 43 10 61 27z" />
    <glyph glyph-name="itilde" unicode="&#x129;" horiz-adv-x="251" 
d="M194 570c-83 0 -84 87 -137 87c-31 0 -50 -29 -50 -78h-41c0 77 36 122 93 122c75 0 81 -86 135 -86c26 0 46 31 46 82h43c0 -79 -36 -127 -89 -127zM91 0v493h69v-493h-69z" />
    <glyph glyph-name="j" unicode="j" horiz-adv-x="250" 
d="M85 595v102h80v-102h-80zM65 -212c-20 0 -43 5 -68 13l1 56c17 -6 33 -8 46 -8c30 0 47 17 47 56v588h68v-592c0 -78 -37 -113 -94 -113z" />
    <glyph glyph-name="uni0237" unicode="&#x237;" horiz-adv-x="250" 
d="M65 -212c-20 0 -43 5 -68 13l1 56c17 -6 33 -8 46 -8c30 0 47 17 47 56v588h68v-592c0 -78 -37 -113 -94 -113z" />
    <glyph glyph-name="k" unicode="k" horiz-adv-x="545" 
d="M91 0v697h69v-465l246 261h93l-179 -185l207 -308h-82l-172 265l-113 -120v-145h-69z" />
    <glyph glyph-name="uni0137" unicode="&#x137;" horiz-adv-x="545" 
d="M91 0v697h69v-465l246 261h93l-179 -185l207 -308h-82l-172 265l-113 -120v-145h-69zM178 -221l88 165h73l-117 -165h-44z" />
    <glyph glyph-name="kgreenlandic" unicode="&#x138;" horiz-adv-x="545" 
d="M91 0v493h69v-264l249 264h90l-179 -185l207 -308h-82l-172 265l-113 -120v-145h-69z" />
    <glyph glyph-name="l" unicode="l" horiz-adv-x="270" 
d="M181 -8c-57 0 -94 38 -94 115v590h69v-586c0 -34 12 -56 45 -56c15 0 32 4 47 9l1 -59c-21 -7 -46 -13 -68 -13z" />
    <glyph glyph-name="lacute" unicode="&#x13a;" horiz-adv-x="270" 
d="M95 760l108 141h74l-129 -141h-53zM181 -8c-57 0 -94 38 -94 115v590h69v-586c0 -34 12 -56 45 -56c15 0 32 4 47 9l1 -59c-21 -7 -46 -13 -68 -13z" />
    <glyph glyph-name="lcaron" unicode="&#x13e;" horiz-adv-x="270" 
d="M181 -8c-57 0 -94 38 -94 115v590h69v-586c0 -34 12 -56 45 -56c15 0 32 4 47 9l1 -59c-21 -7 -46 -13 -68 -13zM208 489l58 208h72l-88 -208h-42z" />
    <glyph glyph-name="uni013C" unicode="&#x13c;" horiz-adv-x="270" 
d="M181 -8c-57 0 -94 38 -94 115v590h69v-586c0 -34 12 -56 45 -56c15 0 32 4 47 9l1 -59c-21 -7 -46 -13 -68 -13zM42 -221l88 165h73l-117 -165h-44z" />
    <glyph glyph-name="lslash" unicode="&#x142;" horiz-adv-x="270" 
d="M248 64l1 -59c-21 -7 -46 -13 -68 -13c-57 0 -94 38 -94 115v202l-61 -49v72l61 48v317h69v-262l88 69v-70l-88 -70v-253c0 -34 12 -56 45 -56c15 0 32 4 47 9z" />
    <glyph glyph-name="m" unicode="m" horiz-adv-x="846" 
d="M600 501c118 0 167 -78 167 -193v-308h-69v289c0 42 0 151 -108 151c-100 0 -127 -92 -127 -203v-237h-69v285c0 82 -25 155 -111 155c-96 0 -123 -91 -123 -203v-237h-69l-1 493h67v-60c31 49 81 68 136 68c69 0 120 -30 145 -95c32 63 87 95 162 95z" />
    <glyph glyph-name="n" unicode="n" horiz-adv-x="563" 
d="M323 501c106 0 161 -68 161 -199v-302h-69v285c0 106 -34 155 -108 155c-93 0 -147 -80 -147 -219v-221h-69v493h69v-72c32 50 92 80 163 80z" />
    <glyph glyph-name="nacute" unicode="&#x144;" horiz-adv-x="563" 
d="M444 697l-129 -141h-53l108 141h74zM323 501c106 0 161 -68 161 -199v-302h-69v285c0 106 -34 155 -108 155c-93 0 -147 -80 -147 -219v-221h-69v493h69v-72c32 50 92 80 163 80z" />
    <glyph glyph-name="napostrophe" unicode="&#x149;" horiz-adv-x="682" 
d="M25 413l100 284h79l-132 -284h-47zM448 501c106 0 161 -68 161 -199v-302h-69v285c0 106 -34 155 -108 155c-93 0 -147 -80 -147 -219v-221h-69v493h69v-72c32 50 92 80 163 80z" />
    <glyph glyph-name="ncaron" unicode="&#x148;" horiz-adv-x="563" 
d="M437 697l-149 -153l-149 153h57l92 -95l92 95h57zM323 501c106 0 161 -68 161 -199v-302h-69v285c0 106 -34 155 -108 155c-93 0 -147 -80 -147 -219v-221h-69v493h69v-72c32 50 92 80 163 80z" />
    <glyph glyph-name="uni0146" unicode="&#x146;" horiz-adv-x="563" 
d="M323 501c106 0 161 -68 161 -199v-302h-69v285c0 106 -34 155 -108 155c-93 0 -147 -80 -147 -219v-221h-69v493h69v-72c32 50 92 80 163 80zM163 -221l88 165h73l-117 -165h-44z" />
    <glyph glyph-name="eng" unicode="&#x14b;" horiz-adv-x="564" 
d="M323 501c112 0 161 -77 161 -199v-401c0 -78 -36 -113 -93 -113c-20 0 -44 5 -69 13l1 56c15 -5 33 -8 46 -8c33 0 46 20 46 56v380c0 80 -14 155 -108 155c-98 0 -147 -85 -147 -213v-227h-69v493h69v-71c35 53 98 79 163 79z" />
    <glyph glyph-name="ntilde" unicode="&#xf1;" horiz-adv-x="563" 
d="M220 657c-31 0 -50 -29 -50 -78h-41c0 77 36 122 93 122c75 0 81 -86 135 -86c26 0 46 31 46 82h43c0 -79 -36 -127 -89 -127c-83 0 -84 87 -137 87zM323 501c106 0 161 -68 161 -199v-302h-69v285c0 106 -34 155 -108 155c-93 0 -147 -80 -147 -219v-221h-69v493h69v-72
c32 50 92 80 163 80z" />
    <glyph glyph-name="o" unicode="o" horiz-adv-x="569" 
d="M284 -8c-141 0 -236 109 -236 255s95 254 236 254c140 0 237 -108 237 -254c0 -145 -96 -255 -237 -255zM284 53c106 0 168 84 168 194c0 112 -63 193 -168 193c-106 0 -167 -82 -167 -193c0 -112 62 -194 167 -194z" />
    <glyph glyph-name="oacute" unicode="&#xf3;" horiz-adv-x="569" 
d="M258 556l108 141h74l-129 -141h-53zM284 -8c-141 0 -236 109 -236 255s95 254 236 254c140 0 237 -108 237 -254c0 -145 -96 -255 -237 -255zM284 53c106 0 168 84 168 194c0 112 -63 193 -168 193c-106 0 -167 -82 -167 -193c0 -112 62 -194 167 -194z" />
    <glyph glyph-name="uni01D2" unicode="&#x1d2;" horiz-adv-x="569" 
d="M284 544l-149 153h57l92 -95l92 95h57zM284 -8c-141 0 -236 109 -236 255s95 254 236 254c140 0 237 -108 237 -254c0 -145 -96 -255 -237 -255zM284 53c106 0 168 84 168 194c0 112 -63 193 -168 193c-106 0 -167 -82 -167 -193c0 -112 62 -194 167 -194z" />
    <glyph glyph-name="ocircumflex" unicode="&#xf4;" horiz-adv-x="569" 
d="M135 548l149 159l149 -159h-57l-92 98l-91 -98h-58zM284 -8c-141 0 -236 109 -236 255s95 254 236 254c140 0 237 -108 237 -254c0 -145 -96 -255 -237 -255zM284 53c106 0 168 84 168 194c0 112 -63 193 -168 193c-106 0 -167 -82 -167 -193c0 -112 62 -194 167 -194z
" />
    <glyph glyph-name="uni1ED1" unicode="&#x1ed1;" horiz-adv-x="569" 
d="M258 745l108 141h74l-129 -141h-53zM135 548l149 159l149 -159h-57l-92 98l-91 -98h-58zM284 -8c-141 0 -236 109 -236 255s95 254 236 254c140 0 237 -108 237 -254c0 -145 -96 -255 -237 -255zM284 53c106 0 168 84 168 194c0 112 -63 193 -168 193
c-106 0 -167 -82 -167 -193c0 -112 62 -194 167 -194z" />
    <glyph glyph-name="uni1ED9" unicode="&#x1ed9;" horiz-adv-x="569" 
d="M135 548l149 159l149 -159h-57l-92 98l-91 -98h-58zM284 -8c-141 0 -236 109 -236 255s95 254 236 254c140 0 237 -108 237 -254c0 -145 -96 -255 -237 -255zM284 53c106 0 168 84 168 194c0 112 -63 193 -168 193c-106 0 -167 -82 -167 -193c0 -112 62 -194 167 -194z
M244 -173v101h80v-101h-80z" />
    <glyph glyph-name="uni1ED3" unicode="&#x1ed3;" horiz-adv-x="569" 
d="M257 745l-124 141h74l104 -141h-54zM135 548l149 159l149 -159h-57l-92 98l-91 -98h-58zM284 -8c-141 0 -236 109 -236 255s95 254 236 254c140 0 237 -108 237 -254c0 -145 -96 -255 -237 -255zM284 53c106 0 168 84 168 194c0 112 -63 193 -168 193
c-106 0 -167 -82 -167 -193c0 -112 62 -194 167 -194z" />
    <glyph glyph-name="uni1ED5" unicode="&#x1ed5;" horiz-adv-x="569" 
d="M278 721l-12 39c38 6 80 14 80 51c0 41 -45 56 -92 56h-15v40h15c80 0 139 -34 139 -98c0 -67 -66 -78 -115 -88zM135 548l149 159l149 -159h-57l-92 98l-91 -98h-58zM284 -8c-141 0 -236 109 -236 255s95 254 236 254c140 0 237 -108 237 -254
c0 -145 -96 -255 -237 -255zM284 53c106 0 168 84 168 194c0 112 -63 193 -168 193c-106 0 -167 -82 -167 -193c0 -112 62 -194 167 -194z" />
    <glyph glyph-name="uni1ED7" unicode="&#x1ed7;" horiz-adv-x="569" 
d="M353 759c-83 0 -84 87 -137 87c-31 0 -50 -29 -50 -78h-41c0 77 36 122 93 122c75 0 81 -86 135 -86c26 0 46 31 46 82h43c0 -79 -36 -127 -89 -127zM135 548l149 159l149 -159h-57l-92 98l-91 -98h-58zM284 -8c-141 0 -236 109 -236 255s95 254 236 254
c140 0 237 -108 237 -254c0 -145 -96 -255 -237 -255zM284 53c106 0 168 84 168 194c0 112 -63 193 -168 193c-106 0 -167 -82 -167 -193c0 -112 62 -194 167 -194z" />
    <glyph glyph-name="odieresis" unicode="&#xf6;" horiz-adv-x="569" 
d="M154 595v102h80v-102h-80zM334 595v102h80v-102h-80zM284 -8c-141 0 -236 109 -236 255s95 254 236 254c140 0 237 -108 237 -254c0 -145 -96 -255 -237 -255zM284 53c106 0 168 84 168 194c0 112 -63 193 -168 193c-106 0 -167 -82 -167 -193c0 -112 62 -194 167 -194z
" />
    <glyph glyph-name="uni1ECD" unicode="&#x1ecd;" horiz-adv-x="569" 
d="M284 -8c-141 0 -236 109 -236 255s95 254 236 254c140 0 237 -108 237 -254c0 -145 -96 -255 -237 -255zM284 53c106 0 168 84 168 194c0 112 -63 193 -168 193c-106 0 -167 -82 -167 -193c0 -112 62 -194 167 -194zM244 -173v101h80v-101h-80z" />
    <glyph glyph-name="ograve" unicode="&#xf2;" horiz-adv-x="569" 
d="M257 556l-124 141h74l104 -141h-54zM284 -8c-141 0 -236 109 -236 255s95 254 236 254c140 0 237 -108 237 -254c0 -145 -96 -255 -237 -255zM284 53c106 0 168 84 168 194c0 112 -63 193 -168 193c-106 0 -167 -82 -167 -193c0 -112 62 -194 167 -194z" />
    <glyph glyph-name="uni1ECF" unicode="&#x1ecf;" horiz-adv-x="569" 
d="M278 532l-12 39c38 6 80 14 80 51c0 41 -45 56 -92 56h-15v40h15c80 0 139 -34 139 -98c0 -67 -66 -78 -115 -88zM284 -8c-141 0 -236 109 -236 255s95 254 236 254c140 0 237 -108 237 -254c0 -145 -96 -255 -237 -255zM284 53c106 0 168 84 168 194
c0 112 -63 193 -168 193c-106 0 -167 -82 -167 -193c0 -112 62 -194 167 -194z" />
    <glyph glyph-name="ohorn" unicode="&#x1a1;" horiz-adv-x="569" 
d="M544 567h53v-48c0 -79 -31 -135 -103 -149c18 -36 27 -78 27 -123c0 -145 -96 -255 -237 -255s-236 109 -236 255s95 254 236 254c77 0 141 -33 183 -87c57 4 77 46 77 100v53zM284 53c106 0 168 84 168 194c0 112 -63 193 -168 193c-106 0 -167 -82 -167 -193
c0 -112 62 -194 167 -194z" />
    <glyph glyph-name="uni1EDB" unicode="&#x1edb;" horiz-adv-x="569" 
d="M440 697l-129 -141h-53l108 141h74zM544 567h53v-48c0 -79 -31 -135 -103 -149c18 -36 27 -78 27 -123c0 -145 -96 -255 -237 -255s-236 109 -236 255s95 254 236 254c77 0 141 -33 183 -87c57 4 77 46 77 100v53zM284 53c106 0 168 84 168 194c0 112 -63 193 -168 193
c-106 0 -167 -82 -167 -193c0 -112 62 -194 167 -194z" />
    <glyph glyph-name="uni1EE3" unicode="&#x1ee3;" horiz-adv-x="569" 
d="M544 567h53v-48c0 -79 -31 -135 -103 -149c18 -36 27 -78 27 -123c0 -145 -96 -255 -237 -255s-236 109 -236 255s95 254 236 254c77 0 141 -33 183 -87c57 4 77 46 77 100v53zM284 53c106 0 168 84 168 194c0 112 -63 193 -168 193c-106 0 -167 -82 -167 -193
c0 -112 62 -194 167 -194zM244 -173v101h80v-101h-80z" />
    <glyph glyph-name="uni1EDD" unicode="&#x1edd;" horiz-adv-x="569" 
d="M311 556h-54l-124 141h74zM544 567h53v-48c0 -79 -31 -135 -103 -149c18 -36 27 -78 27 -123c0 -145 -96 -255 -237 -255s-236 109 -236 255s95 254 236 254c77 0 141 -33 183 -87c57 4 77 46 77 100v53zM284 53c106 0 168 84 168 194c0 112 -63 193 -168 193
c-106 0 -167 -82 -167 -193c0 -112 62 -194 167 -194z" />
    <glyph glyph-name="uni1EDF" unicode="&#x1edf;" horiz-adv-x="569" 
d="M346 622c0 41 -45 56 -92 56h-15v40h15c80 0 139 -34 139 -98c0 -67 -66 -78 -115 -88l-12 39c38 6 80 14 80 51zM544 567h53v-48c0 -79 -31 -135 -103 -149c18 -36 27 -78 27 -123c0 -145 -96 -255 -237 -255s-236 109 -236 255s95 254 236 254c77 0 141 -33 183 -87
c57 4 77 46 77 100v53zM284 53c106 0 168 84 168 194c0 112 -63 193 -168 193c-106 0 -167 -82 -167 -193c0 -112 62 -194 167 -194z" />
    <glyph glyph-name="uni1EE1" unicode="&#x1ee1;" horiz-adv-x="569" 
d="M216 657c-31 0 -50 -29 -50 -78h-41c0 77 36 122 93 122c75 0 81 -86 135 -86c26 0 46 31 46 82h43c0 -79 -36 -127 -89 -127c-83 0 -84 87 -137 87zM544 567h53v-48c0 -79 -31 -135 -103 -149c18 -36 27 -78 27 -123c0 -145 -96 -255 -237 -255s-236 109 -236 255
s95 254 236 254c77 0 141 -33 183 -87c57 4 77 46 77 100v53zM284 53c106 0 168 84 168 194c0 112 -63 193 -168 193c-106 0 -167 -82 -167 -193c0 -112 62 -194 167 -194z" />
    <glyph glyph-name="ohungarumlaut" unicode="&#x151;" horiz-adv-x="569" 
d="M172 545l108 152h63l-118 -152h-53zM342 545l108 152h74l-129 -152h-53zM284 -8c-141 0 -236 109 -236 255s95 254 236 254c140 0 237 -108 237 -254c0 -145 -96 -255 -237 -255zM284 53c106 0 168 84 168 194c0 112 -63 193 -168 193c-106 0 -167 -82 -167 -193
c0 -112 62 -194 167 -194z" />
    <glyph glyph-name="omacron" unicode="&#x14d;" horiz-adv-x="569" 
d="M148 599v42h270v-42h-270zM284 -8c-141 0 -236 109 -236 255s95 254 236 254c140 0 237 -108 237 -254c0 -145 -96 -255 -237 -255zM284 53c106 0 168 84 168 194c0 112 -63 193 -168 193c-106 0 -167 -82 -167 -193c0 -112 62 -194 167 -194z" />
    <glyph glyph-name="oslash" unicode="&#xf8;" horiz-adv-x="569" 
d="M435 448c54 -45 86 -117 86 -201c0 -145 -96 -255 -237 -255c-43 0 -82 10 -115 28l-43 -69h-53l59 95c-53 46 -84 117 -84 201c0 146 95 254 236 254c42 0 81 -10 113 -28l43 69h53zM117 247c0 -59 17 -110 50 -145l198 319c-23 12 -50 19 -81 19
c-106 0 -167 -82 -167 -193zM284 53c106 0 168 84 168 194c0 60 -18 112 -51 146l-199 -320c23 -13 51 -20 82 -20z" />
    <glyph glyph-name="otilde" unicode="&#xf5;" horiz-adv-x="569" 
d="M353 570c-83 0 -84 87 -137 87c-31 0 -50 -29 -50 -78h-41c0 77 36 122 93 122c75 0 81 -86 135 -86c26 0 46 31 46 82h43c0 -79 -36 -127 -89 -127zM284 -8c-141 0 -236 109 -236 255s95 254 236 254c140 0 237 -108 237 -254c0 -145 -96 -255 -237 -255zM284 53
c106 0 168 84 168 194c0 112 -63 193 -168 193c-106 0 -167 -82 -167 -193c0 -112 62 -194 167 -194z" />
    <glyph glyph-name="oe" unicode="&#x153;" horiz-adv-x="936" 
d="M888 271c0 -14 -1 -31 -3 -43h-361c2 -108 62 -173 159 -173c54 0 97 14 142 62l48 -42c-58 -61 -115 -83 -191 -83c-95 0 -161 45 -197 114c-40 -69 -111 -114 -201 -114c-141 0 -236 109 -236 255s95 254 236 254c90 0 162 -45 202 -115c35 69 98 115 188 115
c151 0 214 -118 214 -230zM674 443c-89 0 -144 -70 -150 -157h298c0 2 -1 7 -1 16c-5 80 -56 141 -147 141zM284 53c106 0 168 84 168 194c0 112 -63 193 -168 193c-106 0 -167 -82 -167 -193c0 -112 62 -194 167 -194z" />
    <glyph glyph-name="p" unicode="p" horiz-adv-x="594" 
d="M323 502c137 0 219 -101 219 -255c0 -147 -75 -255 -219 -255c-72 0 -127 28 -163 74v-270h-69v697h69v-66c37 48 93 75 163 75zM313 53c105 0 160 82 160 194c0 117 -60 194 -160 194c-99 0 -159 -77 -159 -194c0 -112 55 -194 159 -194z" />
    <glyph glyph-name="thorn" unicode="&#xfe;" horiz-adv-x="595" 
d="M324 502c137 0 219 -101 219 -255c0 -147 -75 -255 -219 -255c-72 0 -127 28 -163 74v-270h-69v901h69v-270c37 48 93 75 163 75zM314 53c105 0 160 82 160 194c0 117 -60 194 -160 194c-99 0 -159 -77 -159 -194c0 -112 55 -194 159 -194z" />
    <glyph glyph-name="q" unicode="q" horiz-adv-x="594" 
d="M434 493h69v-697h-69v270c-36 -46 -91 -74 -163 -74c-144 0 -219 108 -219 255c0 154 82 255 219 255c70 0 126 -27 163 -75v66zM281 53c104 0 159 82 159 194c0 117 -60 194 -159 194c-100 0 -160 -77 -160 -194c0 -112 55 -194 160 -194z" />
    <glyph glyph-name="r" unicode="r" horiz-adv-x="402" 
d="M306 501c30 0 58 -6 85 -21l-34 -56c-23 10 -44 15 -65 15c-76 0 -132 -57 -132 -164v-275h-69v493h69v-74c36 65 96 82 146 82z" />
    <glyph glyph-name="racute" unicode="&#x155;" horiz-adv-x="402" 
d="M358 697l-129 -141h-53l108 141h74zM306 501c30 0 58 -6 85 -21l-34 -56c-23 10 -44 15 -65 15c-76 0 -132 -57 -132 -164v-275h-69v493h69v-74c36 65 96 82 146 82z" />
    <glyph glyph-name="rcaron" unicode="&#x159;" horiz-adv-x="402" 
d="M351 697l-149 -153l-149 153h57l92 -95l92 95h57zM306 501c30 0 58 -6 85 -21l-34 -56c-23 10 -44 15 -65 15c-76 0 -132 -57 -132 -164v-275h-69v493h69v-74c36 65 96 82 146 82z" />
    <glyph glyph-name="uni0157" unicode="&#x157;" horiz-adv-x="402" 
d="M306 501c30 0 58 -6 85 -21l-34 -56c-23 10 -44 15 -65 15c-76 0 -132 -57 -132 -164v-275h-69v493h69v-74c36 65 96 82 146 82zM77 -221l88 165h73l-117 -165h-44z" />
    <glyph glyph-name="s" unicode="s" horiz-adv-x="466" 
d="M240 -8c-97 0 -176 50 -202 129l58 26c18 -51 66 -94 143 -94c67 0 110 33 110 85c0 131 -284 49 -284 224c0 86 70 139 169 139c79 0 143 -33 177 -103l-55 -30c-24 44 -63 72 -124 72s-100 -25 -100 -68c0 -117 285 -43 285 -230c0 -100 -82 -150 -177 -150z" />
    <glyph glyph-name="sacute" unicode="&#x15b;" horiz-adv-x="466" 
d="M209 556l108 141h74l-129 -141h-53zM240 -8c-97 0 -176 50 -202 129l58 26c18 -51 66 -94 143 -94c67 0 110 33 110 85c0 131 -284 49 -284 224c0 86 70 139 169 139c79 0 143 -33 177 -103l-55 -30c-24 44 -63 72 -124 72s-100 -25 -100 -68c0 -117 285 -43 285 -230
c0 -100 -82 -150 -177 -150z" />
    <glyph glyph-name="scaron" unicode="&#x161;" horiz-adv-x="466" 
d="M235 544l-149 153h57l92 -95l92 95h57zM240 -8c-97 0 -176 50 -202 129l58 26c18 -51 66 -94 143 -94c67 0 110 33 110 85c0 131 -284 49 -284 224c0 86 70 139 169 139c79 0 143 -33 177 -103l-55 -30c-24 44 -63 72 -124 72s-100 -25 -100 -68c0 -117 285 -43 285 -230
c0 -100 -82 -150 -177 -150z" />
    <glyph glyph-name="scedilla" unicode="&#x15f;" horiz-adv-x="466" 
d="M417 142c0 -96 -76 -146 -166 -150l-35 -56c26 -4 46 -8 64 -16c33 -15 52 -39 52 -77c0 -57 -41 -98 -103 -98c-31 0 -67 16 -89 47l25 33c16 -26 42 -38 66 -38c37 0 59 20 59 55c0 33 -24 49 -55 57c-20 5 -46 7 -76 7l50 88c-82 9 -148 56 -171 127l58 26
c18 -51 66 -94 143 -94c67 0 110 33 110 85c0 131 -284 49 -284 224c0 86 70 139 169 139c79 0 143 -33 177 -103l-55 -30c-24 44 -63 72 -124 72s-100 -25 -100 -68c0 -117 285 -43 285 -230z" />
    <glyph glyph-name="uni0219" unicode="&#x219;" horiz-adv-x="466" 
d="M240 -8c-97 0 -176 50 -202 129l58 26c18 -51 66 -94 143 -94c67 0 110 33 110 85c0 131 -284 49 -284 224c0 86 70 139 169 139c79 0 143 -33 177 -103l-55 -30c-24 44 -63 72 -124 72s-100 -25 -100 -68c0 -117 285 -43 285 -230c0 -100 -82 -150 -177 -150zM110 -221
l88 165h73l-117 -165h-44z" />
    <glyph glyph-name="germandbls" unicode="&#xdf;" horiz-adv-x="633" 
d="M424 -8c-97 0 -175 56 -200 130l56 25c18 -51 66 -97 141 -97c73 0 112 39 112 88c0 132 -284 51 -284 229c0 160 212 104 212 196c0 47 -63 80 -138 80c-156 0 -161 -118 -161 -194v-449h-71v449c0 75 4 258 230 258c122 0 208 -57 208 -140c0 -145 -212 -96 -212 -199
c0 -115 284 -38 284 -226c0 -100 -81 -150 -177 -150z" />
    <glyph glyph-name="t" unicode="t" horiz-adv-x="336" 
d="M295 66l1 -61c-26 -8 -52 -13 -75 -13c-66 0 -114 37 -114 124v319h-82v58h82v128l69 52v-180h119v-58h-119v-310c0 -48 22 -70 61 -70c17 0 36 4 58 11z" />
    <glyph glyph-name="tbar" unicode="&#x167;" horiz-adv-x="336" 
d="M295 66l1 -61c-26 -8 -52 -13 -75 -13c-66 0 -114 37 -114 124v107h-84v47h84v165h-82v58h82v128l69 52v-180h119v-58h-119v-165h117v-47h-117v-98c0 -48 22 -70 61 -70c17 0 36 4 58 11z" />
    <glyph glyph-name="tcaron" unicode="&#x165;" horiz-adv-x="336" 
d="M378 784l-88 -208h-42l58 208h72zM237 55c17 0 36 4 58 11l1 -61c-26 -8 -52 -13 -75 -13c-66 0 -114 37 -114 124v319h-82v58h82v128l69 52v-180h119v-58h-119v-310c0 -48 22 -70 61 -70z" />
    <glyph glyph-name="uni0163" unicode="&#x163;" horiz-adv-x="336" 
d="M244 -80c33 -15 52 -39 52 -77c0 -57 -41 -98 -103 -98c-31 0 -67 16 -89 47l25 33c16 -26 42 -38 66 -38c37 0 59 20 59 55c0 33 -24 49 -55 57c-20 5 -46 7 -76 7l53 93c-42 14 -69 51 -69 117v319h-82v58h82v128l69 52v-180h119v-58h-119v-310c0 -48 22 -70 61 -70
c17 0 36 4 58 11l1 -61c-26 -8 -52 -13 -75 -13h-6l-35 -56c26 -4 46 -8 64 -16z" />
    <glyph glyph-name="uni021B" unicode="&#x21b;" horiz-adv-x="336" 
d="M107 116v319h-82v58h82v128l69 52v-180h119v-58h-119v-310c0 -48 22 -70 61 -70c17 0 36 4 58 11l1 -61c-26 -8 -52 -13 -75 -13c-66 0 -114 37 -114 124zM74 -221l88 165h73l-117 -165h-44z" />
    <glyph glyph-name="u" unicode="u" horiz-adv-x="563" 
d="M403 493h69v-493h-69v71c-35 -53 -98 -79 -163 -79c-112 0 -161 77 -161 199v302h69v-285c0 -80 14 -155 108 -155c98 0 147 85 147 213v227z" />
    <glyph glyph-name="uacute" unicode="&#xfa;" horiz-adv-x="563" 
d="M431 697l-129 -141h-53l108 141h74zM403 493h69v-493h-69v71c-35 -53 -98 -79 -163 -79c-112 0 -161 77 -161 199v302h69v-285c0 -80 14 -155 108 -155c98 0 147 85 147 213v227z" />
    <glyph glyph-name="uni01D4" unicode="&#x1d4;" horiz-adv-x="563" 
d="M424 697l-149 -153l-149 153h57l92 -95l92 95h57zM403 493h69v-493h-69v71c-35 -53 -98 -79 -163 -79c-112 0 -161 77 -161 199v302h69v-285c0 -80 14 -155 108 -155c98 0 147 85 147 213v227z" />
    <glyph glyph-name="ucircumflex" unicode="&#xfb;" horiz-adv-x="563" 
d="M275 646l-91 -98h-58l149 159l149 -159h-57zM403 493h69v-493h-69v71c-35 -53 -98 -79 -163 -79c-112 0 -161 77 -161 199v302h69v-285c0 -80 14 -155 108 -155c98 0 147 85 147 213v227z" />
    <glyph glyph-name="udieresis" unicode="&#xfc;" horiz-adv-x="563" 
d="M225 697v-102h-80v102h80zM405 697v-102h-80v102h80zM403 493h69v-493h-69v71c-35 -53 -98 -79 -163 -79c-112 0 -161 77 -161 199v302h69v-285c0 -80 14 -155 108 -155c98 0 147 85 147 213v227z" />
    <glyph glyph-name="uni01D8" unicode="&#x1d8;" horiz-adv-x="563" 
d="M431 901l-129 -141h-53l108 141h74zM225 697v-102h-80v102h80zM405 595h-80v102h80v-102zM403 493h69v-493h-69v71c-35 -53 -98 -79 -163 -79c-112 0 -161 77 -161 199v302h69v-285c0 -80 14 -155 108 -155c98 0 147 85 147 213v227z" />
    <glyph glyph-name="uni01DA" unicode="&#x1da;" horiz-adv-x="563" 
d="M424 901l-149 -153l-149 153h57l92 -95l92 95h57zM225 595h-80v102h80v-102zM405 595h-80v102h80v-102zM403 493h69v-493h-69v71c-35 -53 -98 -79 -163 -79c-112 0 -161 77 -161 199v302h69v-285c0 -80 14 -155 108 -155c98 0 147 85 147 213v227z" />
    <glyph glyph-name="uni01DC" unicode="&#x1dc;" horiz-adv-x="563" 
d="M302 760h-54l-124 141h74zM225 595h-80v102h80v-102zM405 697v-102h-80v102h80zM403 493h69v-493h-69v71c-35 -53 -98 -79 -163 -79c-112 0 -161 77 -161 199v302h69v-285c0 -80 14 -155 108 -155c98 0 147 85 147 213v227z" />
    <glyph glyph-name="uni01D6" unicode="&#x1d6;" horiz-adv-x="563" 
d="M409 845v-42h-270v42h270zM225 595h-80v102h80v-102zM405 595h-80v102h80v-102zM403 493h69v-493h-69v71c-35 -53 -98 -79 -163 -79c-112 0 -161 77 -161 199v302h69v-285c0 -80 14 -155 108 -155c98 0 147 85 147 213v227z" />
    <glyph glyph-name="uni1EE5" unicode="&#x1ee5;" horiz-adv-x="563" 
d="M403 493h69v-493h-69v71c-35 -53 -98 -79 -163 -79c-112 0 -161 77 -161 199v302h69v-285c0 -80 14 -155 108 -155c98 0 147 85 147 213v227zM241 -173v101h80v-101h-80z" />
    <glyph glyph-name="ugrave" unicode="&#xf9;" horiz-adv-x="563" 
d="M302 556h-54l-124 141h74zM403 493h69v-493h-69v71c-35 -53 -98 -79 -163 -79c-112 0 -161 77 -161 199v302h69v-285c0 -80 14 -155 108 -155c98 0 147 85 147 213v227z" />
    <glyph glyph-name="uni1EE7" unicode="&#x1ee7;" horiz-adv-x="563" 
d="M337 622c0 41 -45 56 -92 56h-15v40h15c80 0 139 -34 139 -98c0 -67 -66 -78 -115 -88l-12 39c38 6 80 14 80 51zM403 493h69v-493h-69v71c-35 -53 -98 -79 -163 -79c-112 0 -161 77 -161 199v302h69v-285c0 -80 14 -155 108 -155c98 0 147 85 147 213v227z" />
    <glyph glyph-name="uhorn" unicode="&#x1b0;" horiz-adv-x="563" 
d="M510 646h53v-48c0 -75 -28 -129 -91 -146v-452h-69v71c-35 -53 -98 -79 -163 -79c-112 0 -161 77 -161 199v302h69v-285c0 -80 14 -155 108 -155c98 0 147 85 147 213v227h22c63 0 85 43 85 100v53z" />
    <glyph glyph-name="uni1EE9" unicode="&#x1ee9;" horiz-adv-x="563" 
d="M431 697l-129 -141h-53l108 141h74zM510 646h53v-48c0 -75 -28 -129 -91 -146v-452h-69v71c-35 -53 -98 -79 -163 -79c-112 0 -161 77 -161 199v302h69v-285c0 -80 14 -155 108 -155c98 0 147 85 147 213v227h22c63 0 85 43 85 100v53z" />
    <glyph glyph-name="uni1EF1" unicode="&#x1ef1;" horiz-adv-x="563" 
d="M510 646h53v-48c0 -75 -28 -129 -91 -146v-452h-69v71c-35 -53 -98 -79 -163 -79c-112 0 -161 77 -161 199v302h69v-285c0 -80 14 -155 108 -155c98 0 147 85 147 213v227h22c63 0 85 43 85 100v53zM241 -173v101h80v-101h-80z" />
    <glyph glyph-name="uni1EEB" unicode="&#x1eeb;" horiz-adv-x="563" 
d="M302 556h-54l-124 141h74zM510 646h53v-48c0 -75 -28 -129 -91 -146v-452h-69v71c-35 -53 -98 -79 -163 -79c-112 0 -161 77 -161 199v302h69v-285c0 -80 14 -155 108 -155c98 0 147 85 147 213v227h22c63 0 85 43 85 100v53z" />
    <glyph glyph-name="uni1EED" unicode="&#x1eed;" horiz-adv-x="563" 
d="M337 622c0 41 -45 56 -92 56h-15v40h15c80 0 139 -34 139 -98c0 -67 -66 -78 -115 -88l-12 39c38 6 80 14 80 51zM510 646h53v-48c0 -75 -28 -129 -91 -146v-452h-69v71c-35 -53 -98 -79 -163 -79c-112 0 -161 77 -161 199v302h69v-285c0 -80 14 -155 108 -155
c98 0 147 85 147 213v227h22c63 0 85 43 85 100v53z" />
    <glyph glyph-name="uni1EEF" unicode="&#x1eef;" horiz-adv-x="563" 
d="M207 657c-31 0 -50 -29 -50 -78h-41c0 77 36 122 93 122c75 0 81 -86 135 -86c26 0 46 31 46 82h43c0 -79 -36 -127 -89 -127c-83 0 -84 87 -137 87zM510 646h53v-48c0 -75 -28 -129 -91 -146v-452h-69v71c-35 -53 -98 -79 -163 -79c-112 0 -161 77 -161 199v302h69v-285
c0 -80 14 -155 108 -155c98 0 147 85 147 213v227h22c63 0 85 43 85 100v53z" />
    <glyph glyph-name="uhungarumlaut" unicode="&#x171;" horiz-adv-x="563" 
d="M334 697l-118 -152h-53l108 152h63zM386 545h-53l108 152h74zM403 266v227h69v-493h-69v71c-35 -53 -98 -79 -163 -79c-112 0 -161 77 -161 199v302h69v-285c0 -80 14 -155 108 -155c98 0 147 85 147 213z" />
    <glyph glyph-name="umacron" unicode="&#x16b;" horiz-adv-x="563" 
d="M409 641v-42h-270v42h270zM403 493h69v-493h-69v71c-35 -53 -98 -79 -163 -79c-112 0 -161 77 -161 199v302h69v-285c0 -80 14 -155 108 -155c98 0 147 85 147 213v227z" />
    <glyph glyph-name="uogonek" unicode="&#x173;" horiz-adv-x="563" 
d="M478 -142l34 -27c-24 -27 -56 -45 -93 -45c-51 0 -91 32 -91 84c0 58 45 104 86 130h-11v71c-35 -53 -98 -79 -163 -79c-112 0 -161 77 -161 199v302h69v-285c0 -80 14 -155 108 -155c98 0 147 85 147 213v227h69v-493c-35 -21 -101 -63 -101 -124c0 -33 22 -45 46 -45
c23 0 43 10 61 27z" />
    <glyph glyph-name="uring" unicode="&#x16f;" horiz-adv-x="563" 
d="M275 539c-54 0 -97 44 -97 97c0 54 44 97 97 97c52 0 97 -43 97 -97c0 -53 -43 -97 -97 -97zM275 694c-33 0 -58 -25 -58 -58c0 -32 25 -58 58 -58s58 26 58 58c0 33 -24 58 -58 58zM403 493h69v-493h-69v71c-35 -53 -98 -79 -163 -79c-112 0 -161 77 -161 199v302h69
v-285c0 -80 14 -155 108 -155c98 0 147 85 147 213v227z" />
    <glyph glyph-name="utilde" unicode="&#x169;" horiz-adv-x="563" 
d="M207 657c-31 0 -50 -29 -50 -78h-41c0 77 36 122 93 122c75 0 81 -86 135 -86c26 0 46 31 46 82h43c0 -79 -36 -127 -89 -127c-83 0 -84 87 -137 87zM403 493h69v-493h-69v71c-35 -53 -98 -79 -163 -79c-112 0 -161 77 -161 199v302h69v-285c0 -80 14 -155 108 -155
c98 0 147 85 147 213v227z" />
    <glyph glyph-name="v" unicode="v" horiz-adv-x="502" 
d="M221 0l-201 493h75l155 -405l156 405h76l-202 -493h-59z" />
    <glyph glyph-name="w" unicode="w" horiz-adv-x="739" 
d="M173 0l-145 493h74l106 -389l130 389h63l129 -389l107 389h73l-144 -493h-65l-131 398l-133 -398h-64z" />
    <glyph glyph-name="wacute" unicode="&#x1e83;" horiz-adv-x="739" 
d="M343 556l108 141h74l-129 -141h-53zM173 0l-145 493h74l106 -389l130 389h63l129 -389l107 389h73l-144 -493h-65l-131 398l-133 -398h-64z" />
    <glyph glyph-name="wcircumflex" unicode="&#x175;" horiz-adv-x="739" 
d="M220 548l149 159l149 -159h-57l-92 98l-91 -98h-58zM173 0l-145 493h74l106 -389l130 389h63l129 -389l107 389h73l-144 -493h-65l-131 398l-133 -398h-64z" />
    <glyph glyph-name="wdieresis" unicode="&#x1e85;" horiz-adv-x="739" 
d="M239 595v102h80v-102h-80zM419 595v102h80v-102h-80zM173 0l-145 493h74l106 -389l130 389h63l129 -389l107 389h73l-144 -493h-65l-131 398l-133 -398h-64z" />
    <glyph glyph-name="wgrave" unicode="&#x1e81;" horiz-adv-x="739" 
d="M342 556l-124 141h74l104 -141h-54zM173 0l-145 493h74l106 -389l130 389h63l129 -389l107 389h73l-144 -493h-65l-131 398l-133 -398h-64z" />
    <glyph glyph-name="x" unicode="x" horiz-adv-x="503" 
d="M26 0l180 247l-180 246h84l142 -198l141 198h84l-180 -246l181 -247h-85l-141 200l-141 -200h-85z" />
    <glyph glyph-name="y" unicode="y" horiz-adv-x="510" 
d="M145 -204l82 210l-209 487h76l170 -406l149 406h76l-270 -697h-74z" />
    <glyph glyph-name="yacute" unicode="&#xfd;" horiz-adv-x="510" 
d="M229 556l108 141h74l-129 -141h-53zM145 -204l82 210l-209 487h76l170 -406l149 406h76l-270 -697h-74z" />
    <glyph glyph-name="ycircumflex" unicode="&#x177;" horiz-adv-x="510" 
d="M106 548l149 159l149 -159h-57l-92 98l-91 -98h-58zM145 -204l82 210l-209 487h76l170 -406l149 406h76l-270 -697h-74z" />
    <glyph glyph-name="ydieresis" unicode="&#xff;" horiz-adv-x="510" 
d="M125 595v102h80v-102h-80zM305 595v102h80v-102h-80zM145 -204l82 210l-209 487h76l170 -406l149 406h76l-270 -697h-74z" />
    <glyph glyph-name="uni1EF5" unicode="&#x1ef5;" horiz-adv-x="510" 
d="M145 -204l82 210l-209 487h76l170 -406l149 406h76l-270 -697h-74zM368 -204v101h80v-101h-80z" />
    <glyph glyph-name="ygrave" unicode="&#x1ef3;" horiz-adv-x="510" 
d="M228 556l-124 141h74l104 -141h-54zM145 -204l82 210l-209 487h76l170 -406l149 406h76l-270 -697h-74z" />
    <glyph glyph-name="uni1EF7" unicode="&#x1ef7;" horiz-adv-x="510" 
d="M249 532l-12 39c38 6 80 14 80 51c0 41 -45 56 -92 56h-15v40h15c80 0 139 -34 139 -98c0 -67 -66 -78 -115 -88zM145 -204l82 210l-209 487h76l170 -406l149 406h76l-270 -697h-74z" />
    <glyph glyph-name="uni1EF9" unicode="&#x1ef9;" horiz-adv-x="510" 
d="M324 570c-83 0 -84 87 -137 87c-31 0 -50 -29 -50 -78h-41c0 77 36 122 93 122c75 0 81 -86 135 -86c26 0 46 31 46 82h43c0 -79 -36 -127 -89 -127zM145 -204l82 210l-209 487h76l170 -406l149 406h76l-270 -697h-74z" />
    <glyph glyph-name="z" unicode="z" horiz-adv-x="487" 
d="M447 493v-55l-321 -379h319v-59h-410v50l328 384h-311v59h395z" />
    <glyph glyph-name="zacute" unicode="&#x17a;" horiz-adv-x="487" 
d="M400 697l-129 -141h-53l108 141h74zM447 493v-55l-321 -379h319v-59h-410v50l328 384h-311v59h395z" />
    <glyph glyph-name="zcaron" unicode="&#x17e;" horiz-adv-x="487" 
d="M393 697l-149 -153l-149 153h57l92 -95l92 95h57zM447 493v-55l-321 -379h319v-59h-410v50l328 384h-311v59h395z" />
    <glyph glyph-name="zdotaccent" unicode="&#x17c;" horiz-adv-x="487" 
d="M284 697v-102h-80v102h80zM447 493v-55l-321 -379h319v-59h-410v50l328 384h-311v59h395z" />
    <glyph glyph-name="g.ss01" horiz-adv-x="594" 
d="M434 493h69v-464c0 -149 -79 -242 -221 -242c-107 0 -185 52 -222 122l53 43c22 -52 84 -104 171 -104c98 0 150 66 150 162v55c-36 -45 -91 -73 -163 -73c-144 0 -219 108 -219 255c0 154 82 255 219 255c70 0 126 -27 163 -74v65zM281 53c104 0 159 82 159 194
c0 117 -60 194 -159 194c-100 0 -160 -77 -160 -194c0 -112 55 -194 160 -194z" />
    <glyph glyph-name="gbreve.ss01" horiz-adv-x="594" 
d="M296 566c-101 0 -151 46 -151 131h50c0 -59 40 -89 101 -89c63 0 101 32 101 89h50c0 -87 -54 -131 -151 -131zM434 493h69v-464c0 -149 -79 -242 -221 -242c-107 0 -185 52 -222 122l53 43c22 -52 84 -104 171 -104c98 0 150 66 150 162v55c-36 -45 -91 -73 -163 -73
c-144 0 -219 108 -219 255c0 154 82 255 219 255c70 0 126 -27 163 -74v65zM281 53c104 0 159 82 159 194c0 117 -60 194 -159 194c-100 0 -160 -77 -160 -194c0 -112 55 -194 160 -194z" />
    <glyph glyph-name="uni0123.ss01" horiz-adv-x="594" 
d="M376 702l-88 -147h-73l117 147h44zM434 493h69v-464c0 -149 -79 -242 -221 -242c-107 0 -185 52 -222 122l53 43c22 -52 84 -104 171 -104c98 0 150 66 150 162v55c-36 -45 -91 -73 -163 -73c-144 0 -219 108 -219 255c0 154 82 255 219 255c70 0 126 -27 163 -74v65z
M281 53c104 0 159 82 159 194c0 117 -60 194 -159 194c-100 0 -160 -77 -160 -194c0 -112 55 -194 160 -194z" />
    <glyph glyph-name="gdotaccent.ss01" horiz-adv-x="594" 
d="M336 697v-102h-80v102h80zM434 493h69v-464c0 -149 -79 -242 -221 -242c-107 0 -185 52 -222 122l53 43c22 -52 84 -104 171 -104c98 0 150 66 150 162v55c-36 -45 -91 -73 -163 -73c-144 0 -219 108 -219 255c0 154 82 255 219 255c70 0 126 -27 163 -74v65zM281 53
c104 0 159 82 159 194c0 117 -60 194 -159 194c-100 0 -160 -77 -160 -194c0 -112 55 -194 160 -194z" />
    <glyph glyph-name="g.ss02" horiz-adv-x="532" 
d="M337 71c91 0 153 -48 153 -133c0 -91 -73 -150 -209 -150c-137 0 -236 48 -236 154c0 14 2 25 5 34l76 51c-35 17 -64 48 -65 95c-1 39 16 73 55 102c-24 28 -37 65 -37 106c0 100 79 171 185 171c50 0 93 -16 125 -43l75 66l36 -44l-75 -65c14 -26 22 -56 22 -88
c0 -101 -80 -167 -183 -167c-41 0 -77 10 -106 28c-27 -20 -33 -37 -32 -62c1 -40 43 -55 107 -55h104zM265 445c-71 0 -118 -49 -118 -116c0 -65 46 -113 118 -113c70 0 115 47 115 112c0 68 -45 117 -115 117zM277 -158c84 0 147 25 147 92c0 52 -39 79 -102 79h-133
c-6 0 -13 0 -19 1l-61 -57v-14c0 -52 40 -101 168 -101z" />
    <glyph glyph-name="gbreve.ss02" horiz-adv-x="532" 
d="M266 566c-101 0 -151 46 -151 131h50c0 -59 40 -89 101 -89c63 0 101 32 101 89h50c0 -87 -54 -131 -151 -131zM337 71c91 0 153 -48 153 -133c0 -91 -73 -150 -209 -150c-137 0 -236 48 -236 154c0 14 2 25 5 34l76 51c-35 17 -64 48 -65 95c-1 39 16 73 55 102
c-24 28 -37 65 -37 106c0 100 79 171 185 171c50 0 93 -16 125 -43l75 66l36 -44l-75 -65c14 -26 22 -56 22 -88c0 -101 -80 -167 -183 -167c-41 0 -77 10 -106 28c-27 -20 -33 -37 -32 -62c1 -40 43 -55 107 -55h104zM265 445c-71 0 -118 -49 -118 -116
c0 -65 46 -113 118 -113c70 0 115 47 115 112c0 68 -45 117 -115 117zM277 -158c84 0 147 25 147 92c0 52 -39 79 -102 79h-133c-6 0 -13 0 -19 1l-61 -57v-14c0 -52 40 -101 168 -101z" />
    <glyph glyph-name="uni0123.ss02" horiz-adv-x="532" 
d="M346 702l-88 -147h-73l117 147h44zM337 71c91 0 153 -48 153 -133c0 -91 -73 -150 -209 -150c-137 0 -236 48 -236 154c0 14 2 25 5 34l76 51c-35 17 -64 48 -65 95c-1 39 16 73 55 102c-24 28 -37 65 -37 106c0 100 79 171 185 171c50 0 93 -16 125 -43l75 66l36 -44
l-75 -65c14 -26 22 -56 22 -88c0 -101 -80 -167 -183 -167c-41 0 -77 10 -106 28c-27 -20 -33 -37 -32 -62c1 -40 43 -55 107 -55h104zM265 445c-71 0 -118 -49 -118 -116c0 -65 46 -113 118 -113c70 0 115 47 115 112c0 68 -45 117 -115 117zM277 -158c84 0 147 25 147 92
c0 52 -39 79 -102 79h-133c-6 0 -13 0 -19 1l-61 -57v-14c0 -52 40 -101 168 -101z" />
    <glyph glyph-name="gdotaccent.ss02" horiz-adv-x="532" 
d="M306 697v-102h-80v102h80zM337 71c91 0 153 -48 153 -133c0 -91 -73 -150 -209 -150c-137 0 -236 48 -236 154c0 14 2 25 5 34l76 51c-35 17 -64 48 -65 95c-1 39 16 73 55 102c-24 28 -37 65 -37 106c0 100 79 171 185 171c50 0 93 -16 125 -43l75 66l36 -44l-75 -65
c14 -26 22 -56 22 -88c0 -101 -80 -167 -183 -167c-41 0 -77 10 -106 28c-27 -20 -33 -37 -32 -62c1 -40 43 -55 107 -55h104zM265 445c-71 0 -118 -49 -118 -116c0 -65 46 -113 118 -113c70 0 115 47 115 112c0 68 -45 117 -115 117zM277 -158c84 0 147 25 147 92
c0 52 -39 79 -102 79h-133c-6 0 -13 0 -19 1l-61 -57v-14c0 -52 40 -101 168 -101z" />
    <glyph glyph-name="uni1EB7.ss03" horiz-adv-x="535" 
d="M264 566c-101 0 -151 46 -151 131h50c0 -59 40 -89 101 -89c63 0 101 32 101 89h50c0 -87 -54 -131 -151 -131zM262 501c124 0 196 -71 196 -194v-307h-63l-4 76c-39 -55 -99 -84 -177 -84c-107 0 -170 56 -170 151c0 50 20 88 56 110c38 22 91 31 188 31h101v23
c0 86 -45 133 -128 133c-62 0 -110 -27 -150 -82l-50 42c53 69 117 101 201 101zM234 49c95 0 155 67 155 172v7h-95c-91 0 -130 -6 -154 -25c-18 -14 -27 -36 -27 -64c0 -55 47 -90 121 -90zM264 -61c31 0 55 -24 55 -55s-24 -56 -55 -56c-30 0 -55 25 -55 56s24 55 55 55z
" />
    <glyph glyph-name="uni1EAD.ss03" horiz-adv-x="535" 
d="M264 646l-91 -98h-58l149 159l149 -159h-57zM262 501c124 0 196 -71 196 -194v-307h-63l-4 76c-39 -55 -99 -84 -177 -84c-107 0 -170 56 -170 151c0 50 20 88 56 110c38 22 91 31 188 31h101v23c0 86 -45 133 -128 133c-62 0 -110 -27 -150 -82l-50 42
c53 69 117 101 201 101zM234 49c95 0 155 67 155 172v7h-95c-91 0 -130 -6 -154 -25c-18 -14 -27 -36 -27 -64c0 -55 47 -90 121 -90zM264 -61c31 0 55 -24 55 -55s-24 -56 -55 -56c-30 0 -55 25 -55 56s24 55 55 55z" />
    <glyph glyph-name="adieresis.ss03" horiz-adv-x="535" 
d="M177 593c-30 0 -55 25 -55 56s24 55 55 55s55 -24 55 -55s-24 -56 -55 -56zM351 593c-30 0 -55 25 -55 56s24 55 55 55s55 -24 55 -55s-24 -56 -55 -56zM262 501c124 0 196 -71 196 -194v-307h-63l-4 76c-39 -55 -99 -84 -177 -84c-107 0 -170 56 -170 151
c0 50 20 88 56 110c38 22 91 31 188 31h101v23c0 86 -45 133 -128 133c-62 0 -110 -27 -150 -82l-50 42c53 69 117 101 201 101zM234 49c95 0 155 67 155 172v7h-95c-91 0 -130 -6 -154 -25c-18 -14 -27 -36 -27 -64c0 -55 47 -90 121 -90z" />
    <glyph glyph-name="uni1EA1.ss03" horiz-adv-x="535" 
d="M262 501c124 0 196 -71 196 -194v-307h-63l-4 76c-39 -55 -99 -84 -177 -84c-107 0 -170 56 -170 151c0 50 20 88 56 110c38 22 91 31 188 31h101v23c0 86 -45 133 -128 133c-62 0 -110 -27 -150 -82l-50 42c53 69 117 101 201 101zM234 49c95 0 155 67 155 172v7h-95
c-91 0 -130 -6 -154 -25c-18 -14 -27 -36 -27 -64c0 -55 47 -90 121 -90zM264 -61c31 0 55 -24 55 -55s-24 -56 -55 -56c-30 0 -55 25 -55 56s24 55 55 55z" />
    <glyph glyph-name="cdotaccent.ss03" horiz-adv-x="508" 
d="M254 593c-30 0 -55 25 -55 56s24 55 55 55s55 -24 55 -55s-24 -56 -55 -56zM273 -8c-143 0 -223 116 -223 253c0 130 73 256 222 256c88 0 161 -44 200 -136l-66 -26c-23 63 -72 101 -134 101c-105 0 -152 -94 -152 -195s47 -192 153 -192c62 0 111 37 130 100l64 -24
c-33 -90 -105 -137 -194 -137z" />
    <glyph glyph-name="uni1EC7.ss03" horiz-adv-x="532" 
d="M271 646l-91 -98h-58l149 159l149 -159h-57zM484 271c0 -14 -1 -31 -3 -43h-361c2 -108 62 -173 159 -173c54 0 97 14 142 62l48 -42c-58 -61 -115 -83 -191 -83c-150 0 -227 112 -227 252c0 139 76 257 219 257c151 0 214 -118 214 -230zM270 443
c-89 0 -144 -70 -150 -157h298c0 2 -1 7 -1 16c-5 80 -56 141 -147 141zM278 -61c31 0 55 -24 55 -55s-24 -56 -55 -56c-30 0 -55 25 -55 56s24 55 55 55z" />
    <glyph glyph-name="edieresis.ss03" horiz-adv-x="532" 
d="M184 593c-30 0 -55 25 -55 56s24 55 55 55s55 -24 55 -55s-24 -56 -55 -56zM358 593c-30 0 -55 25 -55 56s24 55 55 55s55 -24 55 -55s-24 -56 -55 -56zM484 271c0 -14 -1 -31 -3 -43h-361c2 -108 62 -173 159 -173c54 0 97 14 142 62l48 -42c-58 -61 -115 -83 -191 -83
c-150 0 -227 112 -227 252c0 139 76 257 219 257c151 0 214 -118 214 -230zM270 443c-89 0 -144 -70 -150 -157h298c0 2 -1 7 -1 16c-5 80 -56 141 -147 141z" />
    <glyph glyph-name="edotaccent.ss03" horiz-adv-x="532" 
d="M271 593c-30 0 -55 25 -55 56s24 55 55 55s55 -24 55 -55s-24 -56 -55 -56zM484 271c0 -14 -1 -31 -3 -43h-361c2 -108 62 -173 159 -173c54 0 97 14 142 62l48 -42c-58 -61 -115 -83 -191 -83c-150 0 -227 112 -227 252c0 139 76 257 219 257c151 0 214 -118 214 -230z
M270 443c-89 0 -144 -70 -150 -157h298c0 2 -1 7 -1 16c-5 80 -56 141 -147 141z" />
    <glyph glyph-name="gdotaccent.ss03" horiz-adv-x="521" 
d="M260 593c-30 0 -55 25 -55 56s24 55 55 55s55 -24 55 -55s-24 -56 -55 -56zM261 60c98 -15 214 -29 214 -136c0 -93 -87 -136 -211 -136c-137 0 -220 54 -220 152c0 10 1 16 2 22l80 68c-38 17 -64 45 -64 94c0 40 18 70 53 94c-26 30 -42 68 -42 112
c0 100 82 171 188 171c48 0 91 -15 123 -40l68 59l36 -45l-67 -56c17 -27 27 -58 27 -93c0 -101 -82 -168 -186 -168c-38 0 -73 9 -102 25c-20 -11 -32 -29 -32 -50c0 -50 62 -62 133 -73zM262 443c-70 0 -121 -47 -121 -115c0 -64 46 -113 120 -113s118 48 118 113
c0 68 -46 115 -117 115zM267 -154c87 0 139 24 139 72c0 60 -78 69 -160 82c-22 3 -45 7 -66 12l-67 -65c-1 -5 -1 -7 -1 -9c0 -70 71 -92 155 -92z" />
    <glyph glyph-name="i.ss03" horiz-adv-x="251" 
d="M125 593c-30 0 -55 25 -55 56s24 55 55 55s55 -24 55 -55s-24 -56 -55 -56zM91 0v493h69v-493h-69z" />
    <glyph glyph-name="idieresis.ss03" horiz-adv-x="251" 
d="M38 593c-30 0 -55 25 -55 56s24 55 55 55s55 -24 55 -55s-24 -56 -55 -56zM212 593c-30 0 -55 25 -55 56s24 55 55 55s55 -24 55 -55s-24 -56 -55 -56zM91 0v493h69v-493h-69z" />
    <glyph glyph-name="i.loclTRK.ss03" horiz-adv-x="251" 
d="M125 593c-30 0 -55 25 -55 56s24 55 55 55s55 -24 55 -55s-24 -56 -55 -56zM91 0v493h69v-493h-69z" />
    <glyph glyph-name="uni1ECB.ss03" horiz-adv-x="251" 
d="M125 593c-30 0 -55 25 -55 56s24 55 55 55s55 -24 55 -55s-24 -56 -55 -56zM91 0v493h69v-493h-69zM125 -172c-30 0 -55 25 -55 56s24 55 55 55s55 -24 55 -55s-24 -56 -55 -56z" />
    <glyph glyph-name="iogonek.ss03" horiz-adv-x="251" 
d="M125 593c-30 0 -55 25 -55 56s24 55 55 55s55 -24 55 -55s-24 -56 -55 -56zM166 -142l34 -27c-24 -27 -56 -45 -93 -45c-51 0 -91 32 -91 84c0 58 45 104 86 130h-11v493h69v-493c-35 -21 -101 -63 -101 -124c0 -33 22 -45 46 -45c23 0 43 10 61 27z" />
    <glyph glyph-name="j.ss03" horiz-adv-x="250" 
d="M125 593c-30 0 -55 25 -55 56s24 55 55 55s55 -24 55 -55s-24 -56 -55 -56zM65 -212c-20 0 -43 5 -68 13l1 56c17 -6 33 -8 46 -8c30 0 47 17 47 56v588h68v-592c0 -78 -37 -113 -94 -113z" />
    <glyph glyph-name="uni1ED9.ss03" horiz-adv-x="569" 
d="M135 548l149 159l149 -159h-57l-92 98l-91 -98h-58zM284 -8c-141 0 -236 109 -236 255s95 254 236 254c140 0 237 -108 237 -254c0 -145 -96 -255 -237 -255zM284 53c106 0 168 84 168 194c0 112 -63 193 -168 193c-106 0 -167 -82 -167 -193c0 -112 62 -194 167 -194z
M284 -172c-30 0 -55 25 -55 56s24 55 55 55s55 -24 55 -55s-24 -56 -55 -56z" />
    <glyph glyph-name="odieresis.ss03" horiz-adv-x="569" 
d="M197 593c-30 0 -55 25 -55 56s24 55 55 55s55 -24 55 -55s-24 -56 -55 -56zM371 593c-30 0 -55 25 -55 56s24 55 55 55s55 -24 55 -55s-24 -56 -55 -56zM284 -8c-141 0 -236 109 -236 255s95 254 236 254c140 0 237 -108 237 -254c0 -145 -96 -255 -237 -255zM284 53
c106 0 168 84 168 194c0 112 -63 193 -168 193c-106 0 -167 -82 -167 -193c0 -112 62 -194 167 -194z" />
    <glyph glyph-name="uni1EE3.ss03" horiz-adv-x="569" 
d="M544 567h53v-48c0 -79 -31 -135 -103 -149c18 -36 27 -78 27 -123c0 -145 -96 -255 -237 -255s-236 109 -236 255s95 254 236 254c77 0 141 -33 183 -87c57 4 77 46 77 100v53zM284 53c106 0 168 84 168 194c0 112 -63 193 -168 193c-106 0 -167 -82 -167 -193
c0 -112 62 -194 167 -194zM284 -61c31 0 55 -24 55 -55s-24 -56 -55 -56c-30 0 -55 25 -55 56s24 55 55 55z" />
    <glyph glyph-name="gdotaccent.ss01.ss03" horiz-adv-x="594" 
d="M296 593c-30 0 -55 25 -55 56s24 55 55 55s55 -24 55 -55s-24 -56 -55 -56zM434 493h69v-464c0 -149 -79 -242 -221 -242c-107 0 -185 52 -222 122l53 43c22 -52 84 -104 171 -104c98 0 150 66 150 162v55c-36 -45 -91 -73 -163 -73c-144 0 -219 108 -219 255
c0 154 82 255 219 255c70 0 126 -27 163 -74v65zM281 53c104 0 159 82 159 194c0 117 -60 194 -159 194c-100 0 -160 -77 -160 -194c0 -112 55 -194 160 -194z" />
    <glyph glyph-name="gdotaccent.ss02.ss03" horiz-adv-x="532" 
d="M266 593c-30 0 -55 25 -55 56s24 55 55 55s55 -24 55 -55s-24 -56 -55 -56zM337 71c91 0 153 -48 153 -133c0 -91 -73 -150 -209 -150c-137 0 -236 48 -236 154c0 14 2 25 5 34l76 51c-35 17 -64 48 -65 95c-1 39 16 73 55 102c-24 28 -37 65 -37 106
c0 100 79 171 185 171c50 0 93 -16 125 -43l75 66l36 -44l-75 -65c14 -26 22 -56 22 -88c0 -101 -80 -167 -183 -167c-41 0 -77 10 -106 28c-27 -20 -33 -37 -32 -62c1 -40 43 -55 107 -55h104zM265 445c-71 0 -118 -49 -118 -116c0 -65 46 -113 118 -113
c70 0 115 47 115 112c0 68 -45 117 -115 117zM277 -158c84 0 147 25 147 92c0 52 -39 79 -102 79h-133c-6 0 -13 0 -19 1l-61 -57v-14c0 -52 40 -101 168 -101z" />
    <glyph glyph-name="udieresis.ss03" horiz-adv-x="563" 
d="M188 593c-30 0 -55 25 -55 56s24 55 55 55s55 -24 55 -55s-24 -56 -55 -56zM362 593c-30 0 -55 25 -55 56s24 55 55 55s55 -24 55 -55s-24 -56 -55 -56zM403 493h69v-493h-69v71c-35 -53 -98 -79 -163 -79c-112 0 -161 77 -161 199v302h69v-285c0 -80 14 -155 108 -155
c98 0 147 85 147 213v227z" />
    <glyph glyph-name="uni01D8.ss03" horiz-adv-x="563" 
d="M431 908l-129 -141h-53l108 141h74zM188 593c-30 0 -55 25 -55 56s24 55 55 55s55 -24 55 -55s-24 -56 -55 -56zM307 649c0 31 24 55 55 55s55 -24 55 -55s-24 -56 -55 -56c-30 0 -55 25 -55 56zM403 493h69v-493h-69v71c-35 -53 -98 -79 -163 -79
c-112 0 -161 77 -161 199v302h69v-285c0 -80 14 -155 108 -155c98 0 147 85 147 213v227z" />
    <glyph glyph-name="uni01DA.ss03" horiz-adv-x="563" 
d="M424 908l-149 -153l-149 153h57l92 -95l92 95h57zM133 649c0 31 24 55 55 55s55 -24 55 -55s-24 -56 -55 -56c-30 0 -55 25 -55 56zM307 649c0 31 24 55 55 55s55 -24 55 -55s-24 -56 -55 -56c-30 0 -55 25 -55 56zM403 493h69v-493h-69v71c-35 -53 -98 -79 -163 -79
c-112 0 -161 77 -161 199v302h69v-285c0 -80 14 -155 108 -155c98 0 147 85 147 213v227z" />
    <glyph glyph-name="uni01DC.ss03" horiz-adv-x="563" 
d="M302 767h-54l-124 141h74zM133 649c0 31 24 55 55 55s55 -24 55 -55s-24 -56 -55 -56c-30 0 -55 25 -55 56zM362 593c-30 0 -55 25 -55 56s24 55 55 55s55 -24 55 -55s-24 -56 -55 -56zM403 493h69v-493h-69v71c-35 -53 -98 -79 -163 -79c-112 0 -161 77 -161 199v302h69
v-285c0 -80 14 -155 108 -155c98 0 147 85 147 213v227z" />
    <glyph glyph-name="uni01D6.ss03" horiz-adv-x="563" 
d="M409 852v-42h-270v42h270zM188 593c-30 0 -55 25 -55 56s24 55 55 55s55 -24 55 -55s-24 -56 -55 -56zM362 704c31 0 55 -24 55 -55s-24 -56 -55 -56c-30 0 -55 25 -55 56s24 55 55 55zM403 493h69v-493h-69v71c-35 -53 -98 -79 -163 -79c-112 0 -161 77 -161 199v302h69
v-285c0 -80 14 -155 108 -155c98 0 147 85 147 213v227z" />
    <glyph glyph-name="uni1EE5.ss03" horiz-adv-x="563" 
d="M403 493h69v-493h-69v71c-35 -53 -98 -79 -163 -79c-112 0 -161 77 -161 199v302h69v-285c0 -80 14 -155 108 -155c98 0 147 85 147 213v227zM281 -61c31 0 55 -24 55 -55s-24 -56 -55 -56c-30 0 -55 25 -55 56s24 55 55 55z" />
    <glyph glyph-name="uni1EF1.ss03" horiz-adv-x="563" 
d="M510 646h53v-48c0 -75 -28 -129 -91 -146v-452h-69v71c-35 -53 -98 -79 -163 -79c-112 0 -161 77 -161 199v302h69v-285c0 -80 14 -155 108 -155c98 0 147 85 147 213v227h22c63 0 85 43 85 100v53zM281 -61c31 0 55 -24 55 -55s-24 -56 -55 -56c-30 0 -55 25 -55 56
s24 55 55 55z" />
    <glyph glyph-name="wdieresis.ss03" horiz-adv-x="739" 
d="M282 593c-30 0 -55 25 -55 56s24 55 55 55s55 -24 55 -55s-24 -56 -55 -56zM456 593c-30 0 -55 25 -55 56s24 55 55 55s55 -24 55 -55s-24 -56 -55 -56zM173 0l-145 493h74l106 -389l130 389h63l129 -389l107 389h73l-144 -493h-65l-131 398l-133 -398h-64z" />
    <glyph glyph-name="ydieresis.ss03" horiz-adv-x="510" 
d="M168 593c-30 0 -55 25 -55 56s24 55 55 55s55 -24 55 -55s-24 -56 -55 -56zM342 593c-30 0 -55 25 -55 56s24 55 55 55s55 -24 55 -55s-24 -56 -55 -56zM145 -204l82 210l-209 487h76l170 -406l149 406h76l-270 -697h-74z" />
    <glyph glyph-name="uni1EF5.ss03" horiz-adv-x="510" 
d="M145 -204l82 210l-209 487h76l170 -406l149 406h76l-270 -697h-74zM408 -203c-30 0 -55 25 -55 56s24 55 55 55s55 -24 55 -55s-24 -56 -55 -56z" />
    <glyph glyph-name="zdotaccent.ss03" horiz-adv-x="487" 
d="M244 593c-30 0 -55 25 -55 56s24 55 55 55s55 -24 55 -55s-24 -56 -55 -56zM447 493v-55l-321 -379h319v-59h-410v50l328 384h-311v59h395z" />
    <glyph glyph-name="T_h" horiz-adv-x="1045" 
d="M275 0v631h-241v66h608v-275c35 53 98 79 163 79c112 0 161 -77 161 -199v-302h-69v285c0 80 -14 155 -108 155c-98 0 -147 -85 -147 -213v-227h-69v631h-226v-631h-72z" />
    <glyph glyph-name="ordfeminine" unicode="&#xaa;" horiz-adv-x="465" 
d="M195 347c-66 0 -118 41 -118 104c0 72 57 104 145 104h101c0 9 -1 12 -2 24c-5 60 -37 87 -95 87c-48 0 -78 -23 -103 -58l-35 23c37 50 75 74 139 74c87 0 137 -52 137 -139v-213h-39l-1 65c-31 -47 -75 -71 -129 -71zM202 388c52 0 92 28 115 77c3 19 5 35 6 52h-98
c-67 0 -103 -23 -103 -66c0 -38 36 -63 80 -63z" />
    <glyph glyph-name="ordmasculine" unicode="&#xba;" horiz-adv-x="488" 
d="M244 353c-98 0 -169 78 -169 176c0 97 71 176 169 176s169 -79 169 -176c0 -98 -71 -176 -169 -176zM244 396c76 0 120 58 120 133s-44 133 -120 133s-120 -58 -120 -133s44 -133 120 -133z" />
    <glyph glyph-name="uni0394" unicode="&#x394;" horiz-adv-x="640" 
d="M45 0l275 697h19l274 -697h-568zM130 59h398l-199 519z" />
    <glyph glyph-name="uni03A9" unicode="&#x3a9;" horiz-adv-x="783" 
d="M69 0v56h206l-13 13c-97 55 -165 171 -165 292c0 176 124 311 305 311c180 0 302 -135 302 -312c0 -124 -67 -243 -165 -292l-13 -12h206v-56h-268v82c108 40 179 137 179 277c0 150 -94 254 -242 254c-149 0 -242 -106 -242 -252c0 -135 69 -231 178 -280v-81h-268z" />
    <glyph glyph-name="uni03BC" unicode="&#x3bc;" horiz-adv-x="575" 
d="M91 -171v664h68v-296c0 -88 42 -141 121 -141c83 0 136 52 136 147v290h69v-493h-69v82c-32 -61 -92 -90 -154 -90c-53 0 -93 20 -115 58v-221h-56z" />
    <glyph glyph-name="pi" unicode="&#x3c0;" horiz-adv-x="529" 
d="M448 -8c-95 0 -110 66 -110 132v310h-178v-434h-59v434h-51v59h413v-59h-67v-301c0 -60 16 -89 58 -89c9 0 23 3 34 8l19 -46c-18 -9 -37 -14 -59 -14z" />
    <glyph glyph-name="zero" unicode="0" horiz-adv-x="567" 
d="M288 -10c-186 0 -223 192 -223 358s35 359 216 359c165 0 222 -169 222 -360s-56 -357 -215 -357zM286 56c113 0 143 134 143 292c0 161 -31 293 -148 293c-122 0 -145 -143 -145 -293c0 -147 23 -292 150 -292z" />
    <glyph glyph-name="one" unicode="1" horiz-adv-x="567" 
d="M297 697h69v-697h-69v517h-174v68h116c35 0 58 12 58 53v59z" />
    <glyph glyph-name="two" unicode="2" horiz-adv-x="567" 
d="M156 65h367v-65h-482v64c163 102 380 248 380 433c0 88 -49 144 -139 144c-106 0 -154 -77 -155 -180l-68 5c0 137 79 241 223 241c124 0 209 -77 209 -211c0 -178 -158 -320 -335 -431z" />
    <glyph glyph-name="three" unicode="3" horiz-adv-x="567" 
d="M278 -10c-139 0 -245 77 -245 218l68 4c0 -99 73 -156 178 -156c99 0 174 53 174 148c0 118 -119 134 -209 134v58c101 0 172 38 172 125c0 82 -60 120 -134 120c-87 0 -147 -48 -148 -134l-67 5c0 121 91 195 212 195c110 0 206 -64 206 -178c0 -84 -53 -140 -105 -157
c76 -14 142 -72 142 -174c0 -132 -108 -208 -244 -208z" />
    <glyph glyph-name="four" unicode="4" horiz-adv-x="567" 
d="M436 232h113v-66h-113v-166h-69v166h-349v45l354 486h64v-465zM110 232h257v361z" />
    <glyph glyph-name="five" unicode="5" horiz-adv-x="567" 
d="M297 466c131 0 226 -102 226 -230c0 -132 -103 -244 -242 -244c-126 0 -217 89 -237 201l68 11c15 -84 78 -146 169 -146c103 0 169 83 169 178c0 92 -60 166 -161 166c-67 0 -118 -33 -153 -84l-70 19l63 360h361v-66h-304l-40 -226c47 44 100 61 151 61z" />
    <glyph glyph-name="six" unicode="6" horiz-adv-x="567" 
d="M333 447c105 -19 188 -111 188 -223c0 -127 -106 -232 -237 -232c-130 0 -237 104 -237 231c0 43 14 88 36 124l210 350h78l-161 -262c36 13 80 20 123 12zM284 58c92 0 167 75 167 166s-75 165 -167 165s-167 -74 -167 -165s74 -166 167 -166z" />
    <glyph glyph-name="seven" unicode="7" horiz-adv-x="567" 
d="M32 697h499v-43l-340 -654h-78l333 631h-414v66z" />
    <glyph glyph-name="eight" unicode="8" horiz-adv-x="567" 
d="M284 -8c-119 0 -236 68 -236 205c0 88 49 155 130 182c-55 27 -91 82 -91 151c0 111 99 175 198 175c107 0 196 -70 196 -179c0 -68 -38 -122 -91 -147c80 -27 128 -95 128 -182c0 -137 -115 -205 -234 -205zM285 399c75 0 128 48 128 122c0 69 -53 118 -128 118
c-69 0 -129 -43 -129 -115c0 -77 53 -125 129 -125zM284 58c88 0 166 48 166 144c0 91 -69 149 -166 149c-98 0 -167 -58 -167 -149c0 -96 78 -144 167 -144z" />
    <glyph glyph-name="nine" unicode="9" horiz-adv-x="567" 
d="M283 705c130 0 237 -104 237 -231c0 -43 -14 -88 -36 -124l-210 -350h-78l161 262c-36 -13 -80 -20 -123 -12c-105 19 -188 111 -188 223c0 127 106 232 237 232zM283 308c92 0 167 74 167 165s-74 166 -167 166c-92 0 -167 -75 -167 -166s75 -165 167 -165z" />
    <glyph glyph-name="zero.lf" horiz-adv-x="586" 
d="M298 -10c-186 0 -223 192 -223 358s35 359 216 359c165 0 222 -169 222 -360s-56 -357 -215 -357zM296 56c113 0 143 134 143 292c0 161 -31 293 -148 293c-122 0 -145 -143 -145 -293c0 -147 23 -292 150 -292z" />
    <glyph glyph-name="one.lf" horiz-adv-x="384" 
d="M206 697h69v-697h-69v517h-174v68h116c35 0 58 12 58 53v59z" />
    <glyph glyph-name="two.lf" horiz-adv-x="580" 
d="M163 65h367v-65h-482v64c163 102 380 248 380 433c0 88 -49 144 -139 144c-106 0 -154 -77 -155 -180l-68 5c0 137 79 241 223 241c124 0 209 -77 209 -211c0 -178 -158 -320 -335 -431z" />
    <glyph glyph-name="three.lf" horiz-adv-x="593" 
d="M291 -10c-139 0 -245 77 -245 218l68 4c0 -99 73 -156 178 -156c99 0 174 53 174 148c0 118 -119 134 -209 134v58c101 0 172 38 172 125c0 82 -60 120 -134 120c-87 0 -147 -48 -148 -134l-67 5c0 121 91 195 212 195c110 0 206 -64 206 -178c0 -84 -53 -140 -105 -157
c76 -14 142 -72 142 -174c0 -132 -108 -208 -244 -208z" />
    <glyph glyph-name="four.lf" horiz-adv-x="597" 
d="M451 232h113v-66h-113v-166h-69v166h-349v45l354 486h64v-465zM125 232h257v361z" />
    <glyph glyph-name="five.lf" horiz-adv-x="594" 
d="M310 466c131 0 226 -102 226 -230c0 -132 -103 -244 -242 -244c-126 0 -217 89 -237 201l68 11c15 -84 78 -146 169 -146c103 0 169 83 169 178c0 92 -60 166 -161 166c-67 0 -118 -33 -153 -84l-70 19l63 360h361v-66h-304l-40 -226c47 44 100 61 151 61z" />
    <glyph glyph-name="six.lf" horiz-adv-x="569" 
d="M334 447c105 -19 188 -111 188 -223c0 -127 -106 -232 -237 -232c-130 0 -237 104 -237 231c0 43 14 88 36 124l210 350h78l-161 -262c36 13 80 20 123 12zM285 58c92 0 167 75 167 166s-75 165 -167 165s-167 -74 -167 -165s74 -166 167 -166z" />
    <glyph glyph-name="seven.lf" horiz-adv-x="562" 
d="M30 697h499v-43l-340 -654h-78l333 631h-414v66z" />
    <glyph glyph-name="eight.lf" horiz-adv-x="589" 
d="M295 -8c-119 0 -236 68 -236 205c0 88 49 155 130 182c-55 27 -91 82 -91 151c0 111 99 175 198 175c107 0 196 -70 196 -179c0 -68 -38 -122 -91 -147c80 -27 128 -95 128 -182c0 -137 -115 -205 -234 -205zM296 399c75 0 128 48 128 122c0 69 -53 118 -128 118
c-69 0 -129 -43 -129 -115c0 -77 53 -125 129 -125zM295 58c88 0 166 48 166 144c0 91 -69 149 -166 149c-98 0 -167 -58 -167 -149c0 -96 78 -144 167 -144z" />
    <glyph glyph-name="nine.lf" horiz-adv-x="569" 
d="M284 705c130 0 237 -104 237 -231c0 -43 -14 -88 -36 -124l-210 -350h-78l161 262c-36 -13 -80 -20 -123 -12c-105 19 -188 111 -188 223c0 127 106 232 237 232zM284 308c92 0 167 74 167 165s-74 166 -167 166c-92 0 -167 -75 -167 -166s75 -165 167 -165z" />
    <glyph glyph-name="fraction" unicode="&#x2044;" horiz-adv-x="142" 
d="M-151 0l393 697h50l-393 -697h-50z" />
    <glyph glyph-name="period" unicode="." horiz-adv-x="340" 
d="M125 0v110h90v-110h-90z" />
    <glyph glyph-name="comma" unicode="," horiz-adv-x="330" 
d="M82 -155l90 284h89l-132 -284h-47z" />
    <glyph glyph-name="colon" unicode=":" horiz-adv-x="343" 
d="M127 361v110h89v-110h-89zM127 0v110h89v-110h-89z" />
    <glyph glyph-name="semicolon" unicode=";" horiz-adv-x="338" 
d="M151 361v110h90v-110h-90zM59 -155l90 284h89l-132 -284h-47z" />
    <glyph glyph-name="ellipsis" unicode="&#x2026;" horiz-adv-x="748" 
d="M125 0v110h90v-110h-90zM329 0v110h90v-110h-90zM533 0v110h90v-110h-90z" />
    <glyph glyph-name="exclam" unicode="!" horiz-adv-x="323" 
d="M135 197l-8 500h69l-8 -500h-53zM117 0v110h89v-110h-89z" />
    <glyph glyph-name="exclamdown" unicode="&#xa1;" horiz-adv-x="322" 
d="M205 493v-110h-89v110h89zM187 296l8 -500h-69l8 500h53z" />
    <glyph glyph-name="question" unicode="?" horiz-adv-x="529" 
d="M231 195v82c0 150 175 108 175 244c0 83 -57 126 -148 126c-92 0 -143 -52 -144 -138h-61c0 122 82 196 203 196c122 0 211 -66 211 -185c0 -175 -177 -149 -177 -244v-81h-59zM216 0v110h90v-110h-90z" />
    <glyph glyph-name="questiondown" unicode="&#xbf;" horiz-adv-x="528" 
d="M312 493v-110h-90v110h90zM297 298v-82c0 -150 -175 -108 -175 -244c0 -83 57 -126 148 -126c92 0 143 52 144 138h61c0 -122 -82 -196 -203 -196c-122 0 -211 66 -211 185c0 175 177 149 177 244v81h59z" />
    <glyph glyph-name="periodcentered" unicode="&#xb7;" horiz-adv-x="345" 
d="M172 295c-36 0 -66 30 -66 67s29 66 66 66s66 -29 66 -66s-29 -67 -66 -67z" />
    <glyph glyph-name="bullet" unicode="&#x2022;" horiz-adv-x="428" 
d="M214 120c-65 0 -117 53 -117 117c0 65 52 118 117 118s117 -53 117 -118c0 -64 -52 -117 -117 -117z" />
    <glyph glyph-name="asterisk" unicode="*" horiz-adv-x="459" 
d="M171 416l-56 40l83 91l-118 18l22 66l108 -48l-16 114h69l-16 -114l108 48l22 -66l-119 -18l83 -91l-57 -40l-56 114z" />
    <glyph glyph-name="numbersign" unicode="#" horiz-adv-x="705" 
d="M137 0l44 211h-122v50h133l39 187h-130v52h140l44 197h55l-42 -199h171l42 199h55l-43 -199h124v-50h-135l-39 -187h133v-50h-143l-45 -211h-55l44 211h-172l-43 -211h-55zM247 261h172l38 187h-171z" />
    <glyph glyph-name="slash" unicode="/" horiz-adv-x="441" 
d="M9 -211l357 908h66l-358 -908h-65z" />
    <glyph glyph-name="backslash" unicode="\" horiz-adv-x="441" 
d="M432 -211h-65l-358 908h66z" />
    <glyph glyph-name="uni2023" unicode="&#x2023;" horiz-adv-x="451" 
d="M127 98v305l265 -153z" />
    <glyph glyph-name="twodotenleader" unicode="&#x2025;" horiz-adv-x="524" 
d="M125 0v110h70v-110h-70zM329 0v110h70v-110h-70z" />
    <glyph glyph-name="period.ss03" horiz-adv-x="326" 
d="M163 -8c-30 0 -55 25 -55 56s24 55 55 55s55 -24 55 -55s-24 -56 -55 -56z" />
    <glyph glyph-name="colon.ss03" horiz-adv-x="320" 
d="M160 356c-30 0 -55 25 -55 56s24 55 55 55s55 -24 55 -55s-24 -56 -55 -56zM160 -8c-30 0 -55 25 -55 56s24 55 55 55s55 -24 55 -55s-24 -56 -55 -56z" />
    <glyph glyph-name="semicolon.ss03" horiz-adv-x="331" 
d="M186 356c-30 0 -55 25 -55 56s24 55 55 55s55 -24 55 -55s-24 -56 -55 -56zM60 -155l90 284h89l-132 -284h-47z" />
    <glyph glyph-name="ellipsis.ss03" horiz-adv-x="658" 
d="M164 -8c-30 0 -55 25 -55 55c0 31 24 55 55 55c30 0 54 -24 54 -55c0 -30 -24 -55 -54 -55zM329 -8c-30 0 -55 25 -55 55c0 31 24 55 55 55s55 -24 55 -55c0 -30 -24 -55 -55 -55zM494 -8c-29 0 -54 25 -54 55c0 31 24 55 54 55c31 0 55 -24 55 -55
c0 -30 -24 -55 -55 -55z" />
    <glyph glyph-name="exclam.ss03" horiz-adv-x="319" 
d="M133 197l-8 500h69l-8 -500h-53zM159 -8c-30 0 -55 25 -55 56s24 55 55 55s55 -24 55 -55s-24 -56 -55 -56z" />
    <glyph glyph-name="exclamdown.ss03" horiz-adv-x="319" 
d="M160 390c-31 0 -55 24 -55 55s24 56 55 56c30 0 55 -25 55 -56s-24 -55 -55 -55zM125 -204l8 500h53l8 -500h-69z" />
    <glyph glyph-name="question.ss03" horiz-adv-x="528" 
d="M231 195v82c0 150 175 108 175 244c0 83 -57 126 -148 126c-92 0 -143 -52 -144 -138h-61c0 122 82 196 203 196c122 0 211 -66 211 -185c0 -175 -177 -149 -177 -244v-81h-59zM265 -8c-30 0 -55 25 -55 56s24 55 55 55s55 -24 55 -55s-24 -56 -55 -56z" />
    <glyph glyph-name="questiondown.ss03" horiz-adv-x="527" 
d="M263 390c-31 0 -55 24 -55 55s24 56 55 56c30 0 55 -25 55 -56s-24 -55 -55 -55zM272 -212c-122 0 -211 66 -211 185c0 175 177 149 177 244v81h59v-82c0 -150 -175 -108 -175 -244c0 -83 57 -126 148 -126c92 0 143 52 144 138h61c0 -122 -82 -196 -203 -196z" />
    <glyph glyph-name="twodotenleader.ss03" horiz-adv-x="494" 
d="M164 -8c-31 0 -56 25 -56 56s24 55 56 55c31 0 55 -24 55 -55s-24 -56 -55 -56zM330 -8c-30 0 -55 25 -55 56s24 55 55 55c32 0 56 -24 56 -55s-24 -56 -56 -56z" />
    <glyph glyph-name="parenleft" unicode="(" horiz-adv-x="288" 
d="M189 -33c-74 83 -117 254 -117 381c0 152 41 292 116 381h64c-90 -111 -125 -251 -125 -383c0 -145 43 -278 124 -379h-62z" />
    <glyph glyph-name="parenright" unicode=")" horiz-adv-x="288" 
d="M99 -33h-62c81 101 124 234 124 379c0 132 -35 272 -125 383h64c75 -89 116 -229 116 -381c0 -127 -43 -298 -117 -381z" />
    <glyph glyph-name="braceleft" unicode="{" horiz-adv-x="311" 
d="M214 -69c-66 0 -102 49 -102 125v174c0 40 -23 58 -60 70v51c38 11 60 30 60 79v186c0 79 36 123 107 123h54v-46h-32c-45 0 -70 -22 -70 -78v-186c0 -47 -14 -83 -63 -101v-5c45 -18 63 -49 63 -92v-173c0 -49 22 -80 65 -80h37v-47h-59z" />
    <glyph glyph-name="braceright" unicode="}" horiz-adv-x="311" 
d="M38 -69v47h37c43 0 65 31 65 80v173c0 49 24 76 63 92v5c-43 16 -63 46 -63 101v186c0 42 -13 78 -70 78h-32v46h54c71 0 107 -43 107 -123v-186c0 -53 26 -69 60 -79v-51c-32 -11 -60 -26 -60 -70v-174c0 -75 -35 -125 -102 -125h-59z" />
    <glyph glyph-name="bracketleft" unicode="[" horiz-adv-x="333" 
d="M109 -63v821h186v-47h-130v-726h130v-48h-186z" />
    <glyph glyph-name="bracketright" unicode="]" horiz-adv-x="333" 
d="M38 -63v48h130v726h-130v47h186v-821h-186z" />
    <glyph glyph-name="hyphen" unicode="-" horiz-adv-x="439" 
d="M86 280v53h267v-53h-267z" />
    <glyph glyph-name="uni00AD" unicode="&#xad;" horiz-adv-x="510" 
d="M86 280v53h338v-53h-338z" />
    <glyph glyph-name="endash" unicode="&#x2013;" horiz-adv-x="530" 
d="M86 280v53h358v-53h-358z" />
    <glyph glyph-name="emdash" unicode="&#x2014;" horiz-adv-x="1010" 
d="M0 280v53h1010v-53h-1010z" />
    <glyph glyph-name="uni2015" unicode="&#x2015;" horiz-adv-x="773" 
d="M86 280v53h601v-53h-601z" />
    <glyph glyph-name="underscore" unicode="_" horiz-adv-x="571" 
d="M86 -53v53h399v-53h-399z" />
    <glyph glyph-name="quotesinglbase" unicode="&#x201a;" horiz-adv-x="290" 
d="M60 -155l100 284h79l-132 -284h-47z" />
    <glyph glyph-name="quotedblbase" unicode="&#x201e;" horiz-adv-x="464" 
d="M60 -155l100 284h79l-132 -284h-47zM234 -155l100 284h79l-132 -284h-47z" />
    <glyph glyph-name="quotedblleft" unicode="&#x201c;" horiz-adv-x="458" 
d="M50 412l132 285h47l-100 -285h-79zM218 412l132 285h48l-101 -285h-79z" />
    <glyph glyph-name="quotedblright" unicode="&#x201d;" horiz-adv-x="459" 
d="M60 413l100 284h79l-132 -284h-47zM228 413l100 284h80l-133 -284h-47z" />
    <glyph glyph-name="quoteleft" unicode="&#x2018;" horiz-adv-x="289" 
d="M50 412l132 285h47l-100 -285h-79z" />
    <glyph glyph-name="quoteright" unicode="&#x2019;" horiz-adv-x="290" 
d="M60 413l100 284h79l-132 -284h-47z" />
    <glyph glyph-name="guillemotleft" unicode="&#xab;" horiz-adv-x="499" 
d="M233 84l-196 168l196 168v-61l-124 -107l124 -107v-61zM420 84l-196 168l196 168v-61l-124 -107l124 -107v-61z" />
    <glyph glyph-name="guillemotright" unicode="&#xbb;" horiz-adv-x="498" 
d="M77 84v61l124 107l-124 107v61l196 -168zM264 84v61l124 107l-124 107v61l196 -168z" />
    <glyph glyph-name="guilsinglleft" unicode="&#x2039;" horiz-adv-x="312" 
d="M233 84l-196 168l196 168v-61l-124 -107l124 -107v-61z" />
    <glyph glyph-name="guilsinglright" unicode="&#x203a;" horiz-adv-x="311" 
d="M77 84v61l124 107l-124 107v61l196 -168z" />
    <glyph glyph-name="quotedbl" unicode="&#x22;" horiz-adv-x="433" 
d="M108 461v236h59v-236h-59zM266 461v236h59v-236h-59z" />
    <glyph glyph-name="quotesingle" unicode="'" horiz-adv-x="275" 
d="M108 475v222h59v-222h-59z" />
    <glyph glyph-name="uni00A0" unicode="&#xa0;" horiz-adv-x="278" 
 />
    <glyph glyph-name="uni20B3" unicode="&#x20b3;" horiz-adv-x="804" 
d="M112 0l56 151h-73v62h97l36 98h-133v62h158l120 324h59l120 -324h157v-62h-133l36 -98h97v-62h-72l55 -151h-78l-52 151h-318l-53 -151h-79zM325 373h156l-78 223zM267 213h272l-35 98h-202z" />
    <glyph glyph-name="cent" unicode="&#xa2;" horiz-adv-x="590" 
d="M312 53c62 0 111 37 130 100l64 -24c-30 -81 -92 -128 -169 -136v-105l-63 -1v108c-119 19 -185 126 -185 250c0 119 61 234 185 253v103h63v-101c76 -8 139 -52 174 -135l-66 -26c-23 63 -72 101 -134 101c-105 0 -152 -94 -152 -195s47 -192 153 -192z" />
    <glyph glyph-name="currency" unicode="&#xa4;" horiz-adv-x="706" 
d="M163 85l-37 38l49 50c-66 81 -65 199 0 279l-48 49l37 39l49 -50c80 65 199 67 280 0l49 49l38 -37l-50 -49c67 -81 66 -201 0 -280l50 -50l-37 -38l-50 50c-81 -66 -201 -65 -280 0zM229 190c70 -70 179 -68 246 0c69 69 70 176 1 245c-68 68 -179 68 -247 0
c-66 -67 -67 -178 0 -245z" />
    <glyph glyph-name="dollar" unicode="$" horiz-adv-x="623" 
d="M544 182c0 -108 -69 -181 -194 -191v-105l-63 -1v107c-113 11 -196 85 -213 192l71 17c13 -90 81 -147 175 -147c101 0 152 53 152 122c0 75 -43 114 -166 161c-141 53 -190 103 -190 194c0 97 67 164 168 174v103h63v-103c72 -9 129 -47 166 -111l-60 -37
c-30 54 -81 86 -141 86c-73 0 -125 -50 -125 -109c0 -64 48 -98 158 -140c155 -59 199 -115 199 -212z" />
    <glyph glyph-name="Euro" unicode="&#x20ac;" horiz-adv-x="736" 
d="M621 116l38 -58c-52 -43 -118 -66 -202 -66c-173 0 -278 106 -309 262h-66l1 48h58c-1 17 -2 35 -2 53s1 36 3 54h-59v47h67c33 148 141 249 311 249c77 0 143 -18 194 -58l-38 -59c-39 31 -89 49 -156 49c-128 0 -209 -73 -239 -181h324l-1 -47h-332
c-3 -18 -4 -36 -4 -55c0 -18 1 -35 3 -52h333l-1 -48h-324c27 -116 107 -194 237 -194c70 0 124 21 164 56z" />
    <glyph glyph-name="florin" unicode="&#x192;" horiz-adv-x="511" 
d="M64 -223v53c115 0 143 52 143 146v464h-85v53h85v64c0 90 56 151 132 151c38 0 74 -14 108 -43l-37 -45c-25 21 -46 30 -71 30c-42 0 -73 -32 -73 -93v-64h132v-53h-132v-469c0 -134 -70 -194 -202 -194z" />
    <glyph glyph-name="uni20B4" unicode="&#x20b4;" horiz-adv-x="739" 
d="M533 450h114v-50h-558v50h370c25 20 41 45 41 79c0 65 -53 112 -124 112c-62 0 -110 -28 -142 -86l-59 37c43 77 117 113 204 113c108 0 188 -72 188 -164c0 -35 -13 -65 -34 -91zM89 271v49h558v-49h-388c-29 -26 -43 -57 -43 -89c0 -71 60 -125 152 -125
c87 0 154 46 172 132l69 -21c-28 -115 -128 -175 -240 -175c-131 0 -221 80 -221 183c0 33 9 65 29 95h-88z" />
    <glyph glyph-name="uni20B1" unicode="&#x20b1;" horiz-adv-x="703" 
d="M635 525v-49h-51c-11 -106 -93 -172 -229 -172h-128v-304h-71v476h-65v49h65v172h199c146 0 219 -67 229 -172h51zM227 630v-105h285c-10 67 -61 105 -157 105h-128zM355 371c98 0 148 38 157 105h-285v-105h128z" />
    <glyph glyph-name="uni20BD" unicode="&#x20bd;" horiz-adv-x="688" 
d="M179 0v157h-90v49h90v103h-90v62h90v326h193c140 0 235 -73 235 -198s-94 -190 -235 -190h-122v-103h159v-49h-159v-157h-71zM250 371h122c109 0 164 45 164 128c0 82 -57 131 -164 131h-122v-259z" />
    <glyph glyph-name="sterling" unicode="&#xa3;" horiz-adv-x="634" 
d="M281 213c0 -85 -54 -131 -99 -154h367v-59h-460v67c76 22 135 81 135 147c0 38 -19 79 -33 118h-99v58h84c-10 27 -19 72 -19 112c0 115 79 204 200 204c96 0 170 -56 197 -147l-55 -21c-21 75 -76 109 -141 109c-84 0 -142 -56 -142 -147c0 -38 9 -80 21 -110h211v-58
h-197c13 -38 30 -75 30 -119z" />
    <glyph glyph-name="uni20B8" unicode="&#x20b8;" horiz-adv-x="726" 
d="M86 637v60h554v-60h-554zM328 0v480h-242v60h554v-60h-241v-480h-71z" />
    <glyph glyph-name="yen" unicode="&#xa5;" horiz-adv-x="732" 
d="M329 0v110h-177v56h177v97h-177v56h145l-233 378h87l215 -361l215 361h87l-232 -378h144v-56h-177v-97h177v-56h-177v-110h-74z" />
    <glyph glyph-name="plus" unicode="+" horiz-adv-x="639" 
d="M291 56v224h-224v58h224v224h58v-224h223v-58h-223v-224h-58z" />
    <glyph glyph-name="minus" unicode="&#x2212;" horiz-adv-x="620" 
d="M132 282v58h356v-58h-356z" />
    <glyph glyph-name="multiply" unicode="&#xd7;" horiz-adv-x="558" 
d="M121 112l-41 40l159 159l-159 159l41 41l158 -159l159 158l40 -40l-158 -159l158 -159l-40 -40l-159 158z" />
    <glyph glyph-name="divide" unicode="&#xf7;" horiz-adv-x="500" 
d="M212 436v110h75v-110h-75zM68 282v58h363v-58h-363zM212 71v109h75v-109h-75z" />
    <glyph glyph-name="equal" unicode="=" horiz-adv-x="658" 
d="M135 400v58h388v-58h-388zM135 205v59h388v-59h-388z" />
    <glyph glyph-name="notequal" unicode="&#x2260;" horiz-adv-x="600" 
d="M77 0l115 205h-87v59h121l77 136h-198v58h233l133 239h50l-133 -239h106v-58h-141l-77 -136h218v-59h-252l-115 -205h-50z" />
    <glyph glyph-name="greater" unicode="&#x3e;" horiz-adv-x="645" 
d="M98 21l-26 46l410 234l-410 235l26 46l492 -281z" />
    <glyph glyph-name="less" unicode="&#x3c;" horiz-adv-x="645" 
d="M547 21l-492 280l492 281l26 -46l-411 -235l411 -234z" />
    <glyph glyph-name="greaterequal" unicode="&#x2265;" horiz-adv-x="674" 
d="M120 112l-26 46l410 234l-410 235l26 46l491 -281zM77 -53v53h504v-53h-504z" />
    <glyph glyph-name="lessequal" unicode="&#x2264;" horiz-adv-x="675" 
d="M555 112l-492 280l492 281l26 -46l-411 -235l411 -234zM93 -53v53h504v-53h-504z" />
    <glyph glyph-name="plusminus" unicode="&#xb1;" horiz-adv-x="674" 
d="M311 93v229h-234v54h234v228h53v-228h234v-54h-234v-229h-53zM77 -53v53h516v-53h-516z" />
    <glyph glyph-name="approxequal" unicode="&#x2248;" horiz-adv-x="630" 
d="M401 351c-105 0 -100 123 -176 123c-39 0 -63 -39 -63 -99h-53c0 89 46 146 116 146c109 0 105 -122 176 -122c39 0 65 44 65 110h54c0 -93 -47 -158 -119 -158zM401 131c-105 0 -100 123 -176 123c-39 0 -63 -38 -63 -99h-53c0 89 46 147 116 147
c109 0 105 -123 176 -123c39 0 65 44 65 110h54c0 -94 -47 -158 -119 -158z" />
    <glyph glyph-name="asciitilde" unicode="~" horiz-adv-x="630" 
d="M402 183c-105 0 -100 122 -176 122c-39 0 -63 -38 -63 -99h-53c0 89 46 147 116 147c109 0 105 -123 176 -123c39 0 65 45 65 110h54c0 -93 -47 -157 -119 -157z" />
    <glyph glyph-name="logicalnot" unicode="&#xac;" horiz-adv-x="666" 
d="M464 143v188h-381v62h447v-250h-66z" />
    <glyph glyph-name="asciicircum" unicode="^" horiz-adv-x="586" 
d="M62 224l230 499l232 -499h-73l-159 366l-156 -366h-74z" />
    <glyph glyph-name="infinity" unicode="&#x221e;" horiz-adv-x="1010" 
d="M286 176c-113 0 -189 80 -189 185c0 104 76 183 189 183c83 0 160 -57 216 -136c63 82 142 136 222 136c112 0 189 -79 189 -183c0 -105 -77 -185 -189 -185c-81 0 -159 55 -222 136c-59 -83 -137 -136 -216 -136zM294 232c57 0 124 42 177 129c-54 86 -120 127 -177 127
c-78 0 -135 -53 -135 -127c0 -75 57 -129 135 -129zM715 232c78 0 136 54 136 129c0 74 -58 127 -136 127c-63 0 -129 -51 -182 -127c54 -78 118 -129 182 -129z" />
    <glyph glyph-name="integral" unicode="&#x222b;" horiz-adv-x="505" 
d="M51 -233v58c129 0 159 55 159 145v589c0 85 62 149 141 149c36 0 73 -13 105 -40l-37 -45c-23 19 -49 27 -68 27c-45 0 -82 -36 -82 -93v-588c0 -135 -79 -202 -218 -202z" />
    <glyph glyph-name="uni2126" unicode="&#x2126;" horiz-adv-x="831" 
d="M84 0v56h206l-13 13c-97 55 -165 171 -165 292c0 176 124 311 305 311c180 0 302 -135 302 -312c0 -124 -67 -243 -165 -292l-13 -12h206v-56h-268v82c108 40 179 137 179 277c0 150 -94 254 -242 254c-149 0 -242 -106 -242 -252c0 -135 69 -231 178 -280v-81h-268z" />
    <glyph glyph-name="uni2206" unicode="&#x2206;" horiz-adv-x="684" 
d="M58 0l275 697h19l274 -697h-568zM143 59h398l-199 519z" />
    <glyph glyph-name="product" unicode="&#x220f;" horiz-adv-x="675" 
d="M144 0v638h-52v59h491v-59h-52v-638h-58v638h-271v-638h-58z" />
    <glyph glyph-name="summation" unicode="&#x2211;" horiz-adv-x="663" 
d="M589 697v-65h-415l272 -284l-272 -283h415v-65h-519v45l282 303l-282 304v45h519z" />
    <glyph glyph-name="radical" unicode="&#x221a;" horiz-adv-x="638" 
d="M265 -70l-133 345h-74v58h116l94 -252l251 616h63z" />
    <glyph glyph-name="uni00B5" unicode="&#xb5;" horiz-adv-x="647" 
d="M137 -171v664h68v-296c0 -88 42 -141 121 -141c83 0 136 52 136 147v290h69v-493h-69v82c-32 -61 -92 -90 -154 -90c-54 0 -93 20 -115 58v-221h-56z" />
    <glyph glyph-name="partialdiff" unicode="&#x2202;" horiz-adv-x="678" 
d="M297 -6c-133 0 -216 92 -216 222c0 170 122 287 270 287c90 0 138 -67 161 -126c2 20 0 49 -2 71c-12 140 -74 204 -168 204c-61 0 -122 -26 -149 -97l-52 17c33 84 108 132 207 132c162 0 235 -131 235 -335s-95 -375 -286 -375zM301 54c124 0 194 97 208 199
c8 83 -34 193 -150 193c-134 0 -214 -105 -214 -229c0 -103 68 -163 156 -163z" />
    <glyph glyph-name="percent" unicode="%" horiz-adv-x="757" 
d="M203 390c-88 0 -133 78 -133 157s44 158 130 158c77 0 132 -68 132 -159c0 -89 -54 -156 -129 -156zM156 0l394 697h50l-393 -697h-51zM203 438c47 0 81 45 81 108c0 60 -30 111 -84 111c-58 0 -82 -56 -82 -110s25 -109 85 -109zM558 -8c-89 0 -133 80 -133 158
s44 157 130 157c77 0 132 -68 132 -158s-54 -157 -129 -157zM558 40c48 0 81 46 81 109c0 59 -29 110 -84 110c-57 0 -82 -55 -82 -109s25 -110 85 -110z" />
    <glyph glyph-name="uni2031" unicode="&#x2031;" horiz-adv-x="1375" 
d="M203 390c-88 0 -133 78 -133 157s44 158 130 158c77 0 132 -68 132 -159c0 -89 -54 -156 -129 -156zM156 0l394 697h50l-393 -697h-51zM203 438c47 0 81 45 81 108c0 60 -30 111 -84 111c-58 0 -82 -56 -82 -110s25 -109 85 -109zM558 -8c-89 0 -133 80 -133 158
s44 157 130 157c77 0 132 -68 132 -158s-54 -157 -129 -157zM867 -8c-88 0 -133 79 -133 158c0 78 44 157 130 157c77 0 132 -68 132 -158c0 -89 -54 -157 -129 -157zM1176 -8c-88 0 -133 79 -133 158c0 78 44 157 130 157c76 0 132 -67 132 -158c0 -90 -55 -157 -129 -157z
M558 40c48 0 81 46 81 109c0 59 -29 110 -84 110c-57 0 -82 -55 -82 -109s25 -110 85 -110zM867 40c47 0 81 46 81 109c0 59 -29 110 -84 110c-58 0 -82 -56 -82 -109c0 -55 25 -110 85 -110zM1176 40c47 0 81 46 81 109c0 58 -29 110 -84 110c-58 0 -82 -56 -82 -109
c0 -55 25 -110 85 -110z" />
    <glyph glyph-name="perthousand" unicode="&#x2030;" horiz-adv-x="1066" 
d="M203 390c-88 0 -133 78 -133 157s44 158 130 158c77 0 132 -68 132 -159c0 -89 -54 -156 -129 -156zM156 0l394 697h50l-394 -697h-50zM203 438c47 0 81 45 81 108c0 60 -30 111 -84 111c-58 0 -82 -56 -82 -110s25 -109 85 -109zM558 -8c-89 0 -133 80 -133 158
s44 157 130 157c77 0 132 -68 132 -158s-54 -157 -129 -157zM867 -8c-88 0 -133 79 -133 158c0 78 44 157 130 157c77 0 132 -68 132 -158c0 -89 -54 -157 -129 -157zM558 40c48 0 81 46 81 109c0 59 -29 110 -84 110c-57 0 -82 -55 -82 -109s25 -110 85 -110zM867 40
c47 0 81 46 81 109c0 59 -29 110 -84 110c-58 0 -82 -56 -82 -109c0 -55 25 -110 85 -110z" />
    <glyph glyph-name="divide.ss03" horiz-adv-x="503" 
d="M253 421c-30 0 -55 25 -55 56s24 55 55 55s55 -24 55 -55s-24 -56 -55 -56zM70 282v58h363v-58h-363zM253 85c-30 0 -55 25 -55 56s24 55 55 55s55 -24 55 -55s-24 -56 -55 -56z" />
    <glyph glyph-name="arrowright" unicode="&#x2192;" horiz-adv-x="1082" 
d="M536 34l-23 46l358 201l-871 -1v53h871l-358 199l23 47l490 -272z" />
    <glyph glyph-name="arrowleft" unicode="&#x2190;" horiz-adv-x="1145" 
d="M546 42l-490 273l490 271l23 -47l-356 -197l869 -1v-53l-870 1l357 -200z" />
    <glyph glyph-name="lozenge" unicode="&#x25ca;" horiz-adv-x="598" 
d="M249 0l-185 348l185 349h100l185 -349l-185 -348h-100zM291 38h15l159 310l-159 311h-15l-158 -311z" />
    <glyph glyph-name="uniF8FF" unicode="&#xf8ff;" horiz-adv-x="890" 
d="M445 -10c-209 0 -378 170 -378 378s169 378 378 378s378 -170 378 -378s-169 -378 -378 -378zM445 26c189 0 342 154 342 342s-153 342 -342 342s-342 -154 -342 -342s153 -342 342 -342zM229 217c-10 0 -18 8 -18 18v265c0 10 8 18 18 18s18 -8 18 -18v-265
c0 -10 -8 -18 -18 -18zM445 217c-10 0 -18 8 -18 18v265c0 10 8 18 18 18s18 -8 18 -18v-265c0 -10 -8 -18 -18 -18zM663 217c-5 0 -10 2 -13 5l-145 134c-4 3 -5 8 -5 12s2 9 5 12l143 131c5 5 9 7 14 7c6 0 17 -5 17 -17c0 -4 -1 -8 -5 -12l-132 -121l132 -122
c3 -3 5 -7 5 -12c0 -8 -7 -17 -16 -17zM301 350c-10 0 -18 8 -18 18s8 18 18 18h72c10 0 18 -8 18 -18s-8 -18 -18 -18h-72z" />
    <glyph glyph-name="at" unicode="@" horiz-adv-x="1049" 
d="M520 -174c-240 0 -439 163 -439 430c0 256 183 452 449 452c265 0 439 -194 439 -435c0 -151 -70 -306 -226 -306c-64 0 -105 34 -110 106c-2 26 -2 33 -1 62c-40 -63 -102 -109 -178 -109c-102 0 -154 78 -154 181c0 132 85 311 244 311c74 0 120 -39 134 -107l17 82
l57 -1c-20 -103 -67 -276 -74 -376c-4 -56 9 -92 63 -92c124 0 174 129 174 250c0 212 -153 381 -385 381c-234 0 -394 -172 -394 -398c0 -238 176 -375 385 -375c49 0 91 8 132 22l19 -52c-49 -18 -97 -26 -152 -26zM459 82c130 0 197 149 197 259c0 76 -33 121 -105 121
c-131 0 -198 -147 -198 -257c0 -77 35 -123 106 -123z" />
    <glyph glyph-name="ampersand" unicode="&#x26;" horiz-adv-x="707" 
d="M641 10l-49 -42l-93 109c-56 -54 -129 -85 -215 -85c-124 0 -214 62 -214 168c0 109 85 164 173 210c-29 32 -94 101 -94 174c0 97 85 160 181 160c95 0 171 -70 171 -159c0 -94 -76 -145 -159 -190l155 -178c25 45 41 101 44 162l67 -7c-6 -80 -29 -150 -68 -206z
M216 543c0 -53 58 -116 82 -144c75 39 139 77 139 145c0 57 -42 105 -107 105s-114 -42 -114 -106zM282 51c73 0 132 27 176 73l-172 201c-79 -42 -149 -87 -149 -166c0 -68 57 -108 145 -108z" />
    <glyph glyph-name="paragraph" unicode="&#xb6;" horiz-adv-x="634" 
d="M290 -121v428c-116 0 -224 72 -224 195s108 195 224 195h48v-818h-48zM447 -121v818h50v-818h-50z" />
    <glyph glyph-name="section" unicode="&#xa7;" horiz-adv-x="623" 
d="M309 -193c-85 0 -154 34 -199 113l59 37c32 -58 79 -86 142 -86c71 0 125 47 125 112c0 75 -76 104 -158 135c-94 36 -199 76 -199 201c0 53 20 100 53 134c-10 20 -16 44 -16 73c0 109 89 179 198 179c81 0 152 -31 199 -113l-60 -37c-32 59 -80 86 -141 86
c-71 0 -125 -47 -125 -112c0 -76 76 -104 157 -135c96 -37 200 -77 200 -202c0 -54 -20 -99 -54 -133c11 -20 17 -45 17 -73c0 -109 -89 -179 -198 -179zM443 106c18 20 29 49 29 80c0 87 -80 118 -166 151c-47 18 -96 37 -126 68c-19 -21 -30 -49 -30 -80
c0 -87 82 -118 166 -150c52 -20 97 -38 127 -69z" />
    <glyph glyph-name="copyright" unicode="&#xa9;" horiz-adv-x="890" 
d="M445 -10c-200 0 -362 160 -362 358s162 359 362 359s362 -161 362 -359s-162 -358 -362 -358zM445 35c175 0 317 141 317 313c0 173 -142 314 -317 314c-176 0 -317 -141 -317 -314c0 -172 141 -313 317 -313zM455 118c-127 0 -200 104 -200 229c0 117 66 231 199 231
c82 0 147 -42 180 -122l-55 -21c-21 55 -67 91 -125 91c-95 0 -140 -87 -140 -179c0 -91 44 -176 141 -176c59 0 104 35 122 90l52 -20c-27 -78 -92 -123 -174 -123z" />
    <glyph glyph-name="registered" unicode="&#xae;" horiz-adv-x="890" 
d="M445 -10c-200 0 -362 160 -362 358s162 359 362 359s362 -161 362 -359s-162 -358 -362 -358zM445 35c175 0 317 141 317 313c0 173 -142 314 -317 314c-176 0 -317 -141 -317 -314c0 -172 141 -313 317 -313zM332 133v431h121c88 0 145 -48 145 -122
c0 -55 -33 -95 -89 -110l118 -199h-54l-110 193c-9 0 -18 -1 -27 -1h-57v-192h-47zM379 365h78c61 0 94 29 94 77c0 50 -36 79 -97 79h-75v-156z" />
    <glyph glyph-name="trademark" unicode="&#x2122;" horiz-adv-x="745" 
d="M162 432v224h-77v41h197v-41h-75v-224h-45zM341 432v265h72l63 -183l63 183h70v-265h-44v217l-75 -200h-28l-77 202v-219h-44z" />
    <glyph glyph-name="degree" unicode="&#xb0;" horiz-adv-x="486" 
d="M243 420c-78 0 -142 65 -142 143c0 77 64 142 142 142s142 -65 142 -142c0 -78 -64 -143 -142 -143zM243 468c52 0 95 42 95 95c0 52 -43 94 -95 94s-94 -43 -94 -94c0 -52 42 -95 94 -95z" />
    <glyph glyph-name="bar" unicode="|" horiz-adv-x="326" 
d="M137 -254v1000h52v-1000h-52z" />
    <glyph glyph-name="brokenbar" unicode="&#xa6;" horiz-adv-x="331" 
d="M137 330v416h57v-416h-57zM137 -254v409h57v-409h-57z" />
    <glyph glyph-name="dagger" unicode="&#x2020;" horiz-adv-x="421" 
d="M179 -101v536h-122v63h122v199h63v-199h122v-63h-122v-536h-63z" />
    <glyph glyph-name="daggerdbl" unicode="&#x2021;" horiz-adv-x="459" 
d="M198 -101v199h-122v63h122v274h-122v63h122v199h63v-199h122v-63h-122v-274h122v-63h-122v-199h-63z" />
    <glyph glyph-name="uni2116" unicode="&#x2116;" horiz-adv-x="1220" 
d="M555 116v581h69v-697h-75l-343 582v-582h-69v697h75zM933 156c-118 0 -201 95 -201 215c0 118 83 213 201 213c117 0 202 -95 202 -213s-84 -215 -202 -215zM933 534c-90 0 -142 -74 -142 -163c0 -92 53 -165 142 -165s142 74 142 165c0 89 -53 163 -142 163zM741 0v53
h371v-53h-371z" />
    <glyph glyph-name="uni02F6" unicode="&#x2f6;" horiz-adv-x="558" 
d="M84 343l112 150h75l-134 -150h-53zM294 343l110 150h75l-132 -150h-53z" />
    <glyph glyph-name="uni02F5" unicode="&#x2f5;" horiz-adv-x="557" 
d="M210 343l-131 150h74l110 -150h-53zM421 343l-134 150h74l113 -150h-53z" />
    <glyph glyph-name="uni0308" unicode="&#x308;" 
d="M-348 595v102h80v-102h-80zM-168 595v102h80v-102h-80z" />
    <glyph glyph-name="uni0307" unicode="&#x307;" 
d="M-168 595v102h80v-102h-80z" />
    <glyph glyph-name="gravecomb" unicode="&#x300;" 
d="M-93 556l-124 141h74l104 -141h-54z" />
    <glyph glyph-name="acutecomb" unicode="&#x301;" 
d="M-216 556l108 141h74l-129 -141h-53z" />
    <glyph glyph-name="uni030B" unicode="&#x30b;" 
d="M-386 545l108 152h63l-118 -152h-53zM-216 545l108 152h74l-129 -152h-53z" />
    <glyph glyph-name="uni030C.alt" 
d="M-178 489l58 208h72l-88 -208h-42z" />
    <glyph glyph-name="uni0302" unicode="&#x302;" 
d="M-327 548l149 159l149 -159h-57l-92 98l-91 -98h-58z" />
    <glyph glyph-name="uni030C" unicode="&#x30c;" 
d="M-180 544l-149 153h57l92 -95l92 95h57z" />
    <glyph glyph-name="uni0306" unicode="&#x306;" 
d="M-214 566c-101 0 -151 46 -151 131h50c0 -59 40 -89 101 -89c63 0 101 32 101 89h50c0 -87 -54 -131 -151 -131z" />
    <glyph glyph-name="uni030A" unicode="&#x30a;" 
d="M-161 539c-54 0 -97 44 -97 97c0 54 44 97 97 97c52 0 97 -43 97 -97c0 -53 -43 -97 -97 -97zM-161 578c33 0 58 26 58 58c0 33 -24 58 -58 58c-33 0 -58 -25 -58 -58c0 -32 25 -58 58 -58z" />
    <glyph glyph-name="tildecomb" unicode="&#x303;" 
d="M-158 570c-83 0 -84 87 -137 87c-31 0 -50 -29 -50 -78h-41c0 77 36 122 93 122c75 0 81 -86 135 -86c26 0 46 31 46 82h43c0 -79 -36 -127 -89 -127z" />
    <glyph glyph-name="uni0304" unicode="&#x304;" 
d="M-355 599v42h270v-42h-270z" />
    <glyph glyph-name="hookabovecomb" unicode="&#x309;" 
d="M-177 532l-12 39c38 6 80 14 80 51c0 41 -45 56 -92 56h-15v40h15c80 0 139 -34 139 -98c0 -67 -66 -78 -115 -88z" />
    <glyph glyph-name="uni030F" unicode="&#x30f;" 
d="M-261 545l-129 152h74l108 -152h-53zM-91 545l-118 152h63l108 -152h-53z" />
    <glyph glyph-name="uni0312" unicode="&#x312;" 
d="M-208 555l117 147h44l-88 -147h-73z" />
    <glyph glyph-name="uni031B" unicode="&#x31b;" 
d="M-208 497v47c63 0 85 43 85 100v53h53v-48c0 -91 -41 -152 -138 -152z" />
    <glyph glyph-name="dotbelowcomb" unicode="&#x323;" 
d="M-168 -173v101h80v-101h-80z" />
    <glyph glyph-name="uni0326" unicode="&#x326;" 
d="M-197 -221l88 165h73l-117 -165h-44z" />
    <glyph glyph-name="uni0327" unicode="&#x327;" 
d="M-155 -255c-31 0 -67 16 -89 47l25 33c16 -26 42 -38 66 -38c37 0 59 20 59 55c0 33 -24 49 -55 57c-20 5 -46 7 -76 7l54 94h43l-40 -64c26 -4 46 -8 64 -16c33 -15 52 -39 52 -77c0 -57 -41 -98 -103 -98z" />
    <glyph glyph-name="uni0328" unicode="&#x328;" 
d="M-131 -214c-51 0 -91 32 -91 84c0 59 47 106 89 132l55 -2c-35 -21 -101 -63 -101 -124c0 -33 22 -45 46 -45c23 0 43 10 61 27l34 -27c-24 -27 -56 -45 -93 -45z" />
    <glyph glyph-name="uni0335" unicode="&#x335;" 
d="M-356 266v47h270v-47h-270z" />
    <glyph glyph-name="uni0336" unicode="&#x336;" 
d="M-720 260v42h635v-42h-635z" />
    <glyph glyph-name="uni0337" unicode="&#x337;" 
d="M-259 259v72l218 172v-70z" />
    <glyph glyph-name="uni0338" unicode="&#x338;" 
d="M-429 0l367 591h53l-367 -591h-53z" />
    <glyph glyph-name="dieresis" unicode="&#xa8;" horiz-adv-x="436" 
d="M88 595v102h80v-102h-80zM268 595v102h80v-102h-80z" />
    <glyph glyph-name="dotaccent" unicode="&#x2d9;" horiz-adv-x="256" 
d="M88 595v102h80v-102h-80z" />
    <glyph glyph-name="grave" unicode="`" horiz-adv-x="252" 
d="M159 556l-124 141h74l104 -141h-54z" />
    <glyph glyph-name="acute" unicode="&#xb4;" horiz-adv-x="254" 
d="M38 556l108 141h74l-129 -141h-53z" />
    <glyph glyph-name="hungarumlaut" unicode="&#x2dd;" horiz-adv-x="424" 
d="M38 545l108 152h63l-118 -152h-53zM208 545l108 152h74l-129 -152h-53z" />
    <glyph glyph-name="circumflex" unicode="&#x2c6;" horiz-adv-x="356" 
d="M29 548l149 159l149 -159h-57l-92 98l-91 -98h-58z" />
    <glyph glyph-name="caron" unicode="&#x2c7;" horiz-adv-x="360" 
d="M180 544l-149 153h57l92 -95l92 95h57z" />
    <glyph glyph-name="breve" unicode="&#x2d8;" horiz-adv-x="428" 
d="M214 566c-101 0 -151 46 -151 131h50c0 -59 40 -89 101 -89c63 0 101 32 101 89h50c0 -87 -54 -131 -151 -131z" />
    <glyph glyph-name="ring" unicode="&#x2da;" horiz-adv-x="322" 
d="M161 539c-54 0 -97 44 -97 97c0 54 44 97 97 97c52 0 97 -43 97 -97c0 -53 -43 -97 -97 -97zM161 578c33 0 58 26 58 58c0 33 -24 58 -58 58c-33 0 -58 -25 -58 -58c0 -32 25 -58 58 -58z" />
    <glyph glyph-name="tilde" unicode="&#x2dc;" horiz-adv-x="454" 
d="M296 570c-83 0 -84 87 -137 87c-31 0 -50 -29 -50 -78h-41c0 77 36 122 93 122c75 0 81 -86 135 -86c26 0 46 31 46 82h43c0 -79 -36 -127 -89 -127z" />
    <glyph glyph-name="macron" unicode="&#xaf;" horiz-adv-x="440" 
d="M85 599v42h270v-42h-270z" />
    <glyph glyph-name="cedilla" unicode="&#xb8;" horiz-adv-x="298" 
d="M143 -255c-41 0 -80 27 -95 64l40 17c9 -23 31 -39 57 -39c36 0 59 20 59 54c0 36 -33 60 -89 64c-12 0 -26 1 -42 1l54 93h43l-40 -63c15 -2 21 -3 31 -5c56 -11 85 -42 85 -88c0 -57 -41 -98 -103 -98z" />
    <glyph glyph-name="ogonek" unicode="&#x2db;" horiz-adv-x="306" 
d="M162 -224c-63 0 -104 36 -104 94c0 73 73 123 112 132l55 -2c-54 -15 -124 -61 -124 -122c0 -41 23 -58 59 -58c30 0 52 12 71 39l37 -25c-26 -37 -59 -58 -106 -58z" />
    <glyph glyph-name="uni030A.case" 
d="M-161 539c-54 0 -97 44 -97 97c0 54 44 97 97 97c52 0 97 -43 97 -97c0 -53 -43 -97 -97 -97zM-161 578c33 0 58 26 58 58c0 33 -24 58 -58 58c-33 0 -58 -25 -58 -58c0 -32 25 -58 58 -58z" />
    <glyph glyph-name="uni0337.case" 
d="M-327 179v72l294 232v-71z" />
    <glyph glyph-name="uni0338.case" 
d="M-525 0l449 697h69l-449 -697h-69z" />
    <glyph glyph-name="uni0308.ss03" 
d="M-301 593c-30 0 -55 25 -55 56s24 55 55 55s55 -24 55 -55s-24 -56 -55 -56zM-127 593c-30 0 -55 25 -55 56s24 55 55 55s55 -24 55 -55s-24 -56 -55 -56z" />
    <glyph glyph-name="uni0307.ss03" 
d="M-127 593c-30 0 -55 25 -55 56s24 55 55 55s55 -24 55 -55s-24 -56 -55 -56z" />
    <glyph glyph-name="dotbelowcomb.ss03" 
d="M-127 -172c-30 0 -55 25 -55 56s24 55 55 55s55 -24 55 -55s-24 -56 -55 -56z" />
    <glyph glyph-name="dieresis.ss03" horiz-adv-x="427" 
d="M126 593c-30 0 -55 25 -55 56s24 55 55 55s55 -24 55 -55s-24 -56 -55 -56zM300 593c-30 0 -55 25 -55 56s24 55 55 55s55 -24 55 -55s-24 -56 -55 -56z" />
    <glyph glyph-name="dotaccent.ss03" horiz-adv-x="253" 
d="M126 593c-30 0 -55 25 -55 56s24 55 55 55s55 -24 55 -55s-24 -56 -55 -56z" />
    <glyph glyph-name="uni03060301" 
d="M-231 760l108 141h74l-129 -141h-53zM-205 566c-101 0 -151 46 -151 131h50c0 -59 40 -89 101 -89c63 0 101 32 101 89h50c0 -87 -54 -131 -151 -131z" />
    <glyph glyph-name="uni03060300" 
d="M-211 760l-124 141h74l104 -141h-54zM-184 566c-101 0 -151 46 -151 131h50c0 -59 40 -89 101 -89c63 0 101 32 101 89h50c0 -87 -54 -131 -151 -131z" />
    <glyph glyph-name="uni03060309" 
d="M-202 736l-12 39c38 6 80 14 80 51c0 41 -45 56 -92 56h-15v40h15c80 0 139 -34 139 -98c0 -67 -66 -78 -115 -88zM-196 566c-101 0 -151 46 -151 131h50c0 -59 40 -89 101 -89c63 0 101 32 101 89h50c0 -87 -54 -131 -151 -131z" />
    <glyph glyph-name="uni03060303" 
d="M-153 774c-83 0 -84 87 -137 87c-31 0 -50 -29 -50 -78h-41c0 77 36 122 93 122c75 0 81 -86 135 -86c26 0 46 31 46 82h43c0 -79 -36 -127 -89 -127zM-222 566c-101 0 -151 46 -151 131h50c0 -59 40 -89 101 -89c63 0 101 32 101 89h50c0 -87 -54 -131 -151 -131z" />
    <glyph glyph-name="uni03020301" 
d="M-213 745l108 141h74l-129 -141h-53zM-336 548l149 159l149 -159h-57l-92 98l-91 -98h-58z" />
    <glyph glyph-name="uni03020300" 
d="M-189 745l-124 141h74l104 -141h-54zM-311 548l149 159l149 -159h-57l-92 98l-91 -98h-58z" />
    <glyph glyph-name="uni03020309" 
d="M-184 721l-12 39c38 6 80 14 80 51c0 41 -45 56 -92 56h-15v40h15c80 0 139 -34 139 -98c0 -67 -66 -78 -115 -88zM-327 548l149 159l149 -159h-57l-92 98l-91 -98h-58z" />
    <glyph glyph-name="uni03020303" 
d="M-134 759c-83 0 -84 87 -137 87c-31 0 -50 -29 -50 -78h-41c0 77 36 122 93 122c75 0 81 -86 135 -86c26 0 46 31 46 82h43c0 -79 -36 -127 -89 -127zM-352 548l149 159l149 -159h-57l-92 98l-91 -98h-58z" />
    </font>
</defs>
</svg>
